G04 #@! TF.GenerationSoftware,KiCad,Pcbnew,(6.0.4)*
G04 #@! TF.CreationDate,2022-06-22T13:50:13-04:00*
G04 #@! TF.ProjectId,Macintosh Portable Battery Adapter v1.2,4d616369-6e74-46f7-9368-20506f727461,rev?*
G04 #@! TF.SameCoordinates,Original*
G04 #@! TF.FileFunction,Copper,L1,Top*
G04 #@! TF.FilePolarity,Positive*
%FSLAX46Y46*%
G04 Gerber Fmt 4.6, Leading zero omitted, Abs format (unit mm)*
G04 Created by KiCad (PCBNEW (6.0.4)) date 2022-06-22 13:50:13*
%MOMM*%
%LPD*%
G01*
G04 APERTURE LIST*
G04 Aperture macros list*
%AMRoundRect*
0 Rectangle with rounded corners*
0 $1 Rounding radius*
0 $2 $3 $4 $5 $6 $7 $8 $9 X,Y pos of 4 corners*
0 Add a 4 corners polygon primitive as box body*
4,1,4,$2,$3,$4,$5,$6,$7,$8,$9,$2,$3,0*
0 Add four circle primitives for the rounded corners*
1,1,$1+$1,$2,$3*
1,1,$1+$1,$4,$5*
1,1,$1+$1,$6,$7*
1,1,$1+$1,$8,$9*
0 Add four rect primitives between the rounded corners*
20,1,$1+$1,$2,$3,$4,$5,0*
20,1,$1+$1,$4,$5,$6,$7,0*
20,1,$1+$1,$6,$7,$8,$9,0*
20,1,$1+$1,$8,$9,$2,$3,0*%
G04 Aperture macros list end*
G04 #@! TA.AperFunction,SMDPad,CuDef*
%ADD10RoundRect,0.150000X-0.150000X0.825000X-0.150000X-0.825000X0.150000X-0.825000X0.150000X0.825000X0*%
G04 #@! TD*
G04 #@! TA.AperFunction,SMDPad,CuDef*
%ADD11RoundRect,0.250000X-0.450000X0.350000X-0.450000X-0.350000X0.450000X-0.350000X0.450000X0.350000X0*%
G04 #@! TD*
G04 #@! TA.AperFunction,ComponentPad*
%ADD12O,1.600000X1.600000*%
G04 #@! TD*
G04 #@! TA.AperFunction,ComponentPad*
%ADD13C,1.600000*%
G04 #@! TD*
G04 #@! TA.AperFunction,ComponentPad*
%ADD14R,2.000000X2.000000*%
G04 #@! TD*
G04 #@! TA.AperFunction,ComponentPad*
%ADD15C,2.000000*%
G04 #@! TD*
G04 #@! TA.AperFunction,SMDPad,CuDef*
%ADD16R,6.000000X3.000000*%
G04 #@! TD*
G04 #@! TA.AperFunction,ViaPad*
%ADD17C,0.800000*%
G04 #@! TD*
G04 #@! TA.AperFunction,Conductor*
%ADD18C,0.500000*%
G04 #@! TD*
G04 APERTURE END LIST*
D10*
X86922000Y-74931000D03*
X85652000Y-74931000D03*
X84382000Y-74931000D03*
X83112000Y-74931000D03*
X81842000Y-74931000D03*
X80572000Y-74931000D03*
X79302000Y-74931000D03*
X78032000Y-74931000D03*
X78032000Y-69981000D03*
X79302000Y-69981000D03*
X80572000Y-69981000D03*
X81842000Y-69981000D03*
X83112000Y-69981000D03*
X84382000Y-69981000D03*
X85652000Y-69981000D03*
X86922000Y-69981000D03*
D11*
X75500000Y-130100000D03*
X75500000Y-128100000D03*
X75500000Y-115100000D03*
X75500000Y-117100000D03*
X75500000Y-102100000D03*
X75500000Y-104100000D03*
D12*
X75500000Y-134180000D03*
D13*
X75500000Y-124020000D03*
D12*
X75500000Y-121180000D03*
D13*
X75500000Y-111020000D03*
D12*
X75500000Y-108180000D03*
D13*
X75500000Y-98020000D03*
D14*
X83500000Y-126732323D03*
D15*
X83500000Y-131732323D03*
D14*
X83500000Y-113732323D03*
D15*
X83500000Y-118732323D03*
D14*
X83500000Y-100732323D03*
D15*
X83500000Y-105732323D03*
D16*
X131500000Y-65500000D03*
X147500000Y-65500000D03*
D17*
X83493000Y-82616000D03*
X82794500Y-81917500D03*
X143818000Y-68265000D03*
X144834000Y-68265000D03*
X83500000Y-83632000D03*
X142802000Y-68265000D03*
X147000000Y-65500000D03*
X150000000Y-66500000D03*
X147000000Y-64500000D03*
X150000000Y-64500000D03*
X146000000Y-66500000D03*
X145000000Y-64500000D03*
X145000000Y-66500000D03*
X145000000Y-65500000D03*
X148000000Y-65500000D03*
X149000000Y-64500000D03*
X149000000Y-66500000D03*
X149000000Y-65500000D03*
X148000000Y-64500000D03*
X148000000Y-66500000D03*
X146000000Y-65500000D03*
X146000000Y-64500000D03*
X150000000Y-65500000D03*
X147000000Y-66500000D03*
X132000000Y-65500000D03*
X133000000Y-64500000D03*
X129000000Y-64500000D03*
X130000000Y-64500000D03*
X129000000Y-65500000D03*
X131000000Y-66500000D03*
X134000000Y-65500000D03*
X134000000Y-64500000D03*
X132000000Y-64500000D03*
X134000000Y-66500000D03*
X131000000Y-64500000D03*
X133000000Y-65500000D03*
X131000000Y-65500000D03*
X130000000Y-65500000D03*
X129000000Y-66500000D03*
X133000000Y-66500000D03*
X130000000Y-66500000D03*
X132000000Y-66500000D03*
D18*
X85652000Y-120460000D02*
X85652000Y-116580323D01*
X83500000Y-122612000D02*
X85652000Y-120460000D01*
X75603000Y-109540000D02*
X74349000Y-109540000D01*
X75612000Y-109531000D02*
X75603000Y-109540000D01*
X73460000Y-97149500D02*
X73460000Y-108651000D01*
X74509500Y-96100000D02*
X73460000Y-97149500D01*
X73460000Y-108651000D02*
X74349000Y-109540000D01*
X75500000Y-108389000D02*
X75500000Y-104100000D01*
X79264000Y-96100000D02*
X74509500Y-96100000D01*
X81334000Y-94030000D02*
X79264000Y-96100000D01*
X80572000Y-77155000D02*
X81842000Y-77155000D01*
X79475000Y-77155000D02*
X80572000Y-77155000D01*
X79325000Y-77005000D02*
X79475000Y-77155000D01*
X80595000Y-77132000D02*
X80572000Y-77155000D01*
X80595000Y-75075000D02*
X80595000Y-77132000D01*
X82794500Y-81917500D02*
X81842000Y-80965000D01*
X83500000Y-82616000D02*
X83500000Y-83632000D01*
X83493000Y-82616000D02*
X82794500Y-81917500D01*
X81842000Y-80965000D02*
X81842000Y-74931000D01*
X83500000Y-83632000D02*
X83500000Y-100732323D01*
X143818000Y-68265000D02*
X144834000Y-68265000D01*
X142802000Y-68265000D02*
X143818000Y-68265000D01*
X81865000Y-71463000D02*
X82350000Y-71948000D01*
X82350000Y-71948000D02*
X85144000Y-71948000D01*
X86922000Y-74931000D02*
X86922000Y-73726000D01*
X86922000Y-73726000D02*
X85144000Y-71948000D01*
X85144000Y-73091000D02*
X83874000Y-73091000D01*
X85652000Y-73599000D02*
X85144000Y-73091000D01*
X85652000Y-74931000D02*
X85652000Y-73599000D01*
X84382000Y-73599000D02*
X83874000Y-73091000D01*
X84382000Y-75052000D02*
X84382000Y-73599000D01*
X141086000Y-69981000D02*
X142802000Y-68265000D01*
X86922000Y-69981000D02*
X141086000Y-69981000D01*
X85652000Y-116580323D02*
X85652000Y-77155000D01*
X86922000Y-128310323D02*
X86922000Y-80584000D01*
X83500000Y-131732323D02*
X86922000Y-128310323D01*
X81334000Y-83759000D02*
X81334000Y-93919000D01*
X78032000Y-80457000D02*
X81334000Y-83759000D01*
X78032000Y-74931000D02*
X78032000Y-80457000D01*
X80867677Y-131732323D02*
X83500000Y-131732323D01*
X78420000Y-134180000D02*
X80867677Y-131732323D01*
X75500000Y-134180000D02*
X78420000Y-134180000D01*
X75500000Y-134180000D02*
X75500000Y-130100000D01*
X75500000Y-128100000D02*
X75500000Y-122597000D01*
X86922000Y-80584000D02*
X89843000Y-77663000D01*
X89843000Y-77663000D02*
X89843000Y-70043000D01*
X83500000Y-122612000D02*
X83500000Y-126732323D01*
X87938000Y-77155000D02*
X85555000Y-77155000D01*
X85555000Y-77155000D02*
X84001000Y-77155000D01*
X80787677Y-98020000D02*
X83500000Y-100732323D01*
X75500000Y-98020000D02*
X80787677Y-98020000D01*
X75500000Y-102100000D02*
X75500000Y-98020000D01*
X75612000Y-109531000D02*
X75500000Y-109643000D01*
X75500000Y-109643000D02*
X75500000Y-104100000D01*
X83500000Y-109531000D02*
X75612000Y-109531000D01*
X75500000Y-115100000D02*
X75500000Y-109643000D01*
X83500000Y-109531000D02*
X83500000Y-105732323D01*
X83500000Y-113732323D02*
X83500000Y-109531000D01*
X75515000Y-122612000D02*
X75500000Y-122597000D01*
X83500000Y-122612000D02*
X75515000Y-122612000D01*
X75500000Y-122597000D02*
X75500000Y-117100000D01*
X83500000Y-118732323D02*
X83500000Y-122612000D01*
X81865000Y-70125000D02*
X81865000Y-71463000D01*
X83112000Y-67757000D02*
X83112000Y-69981000D01*
X83493000Y-67376000D02*
X83112000Y-67757000D01*
X86033000Y-67376000D02*
X83493000Y-67376000D01*
X86922000Y-68265000D02*
X86033000Y-67376000D01*
X86922000Y-69981000D02*
X86922000Y-68265000D01*
X84382000Y-68646000D02*
X84382000Y-69981000D01*
X84636000Y-68392000D02*
X84382000Y-68646000D01*
X85398000Y-68392000D02*
X84636000Y-68392000D01*
X85652000Y-68646000D02*
X85398000Y-68392000D01*
X85652000Y-69981000D02*
X85652000Y-68646000D01*
X84001000Y-77155000D02*
X83112000Y-76266000D01*
X88446000Y-76647000D02*
X87938000Y-77155000D01*
X83112000Y-76266000D02*
X83112000Y-74931000D01*
X88446000Y-73853000D02*
X88446000Y-76647000D01*
X85652000Y-71059000D02*
X88446000Y-73853000D01*
X85652000Y-69981000D02*
X85652000Y-71059000D01*
X78794000Y-73091000D02*
X78055000Y-73830000D01*
X83874000Y-73091000D02*
X78794000Y-73091000D01*
X78055000Y-73830000D02*
X78055000Y-75075000D01*
X79325000Y-75075000D02*
X79325000Y-77005000D01*
G04 #@! TA.AperFunction,NonConductor*
G36*
X86332254Y-68395448D02*
G01*
X86359860Y-68416331D01*
X86380595Y-68437066D01*
X86414621Y-68499378D01*
X86417500Y-68526161D01*
X86417500Y-68930507D01*
X86403767Y-68987709D01*
X86399267Y-68996541D01*
X86350520Y-69048156D01*
X86281605Y-69065223D01*
X86214403Y-69042323D01*
X86174733Y-68996541D01*
X86170233Y-68987709D01*
X86156500Y-68930507D01*
X86156500Y-68716624D01*
X86157841Y-68704619D01*
X86157345Y-68704579D01*
X86158065Y-68695632D01*
X86160046Y-68686876D01*
X86156742Y-68633618D01*
X86156500Y-68625816D01*
X86156500Y-68609774D01*
X86155035Y-68599543D01*
X86154003Y-68589477D01*
X86153624Y-68583357D01*
X86151098Y-68542641D01*
X86148050Y-68534199D01*
X86147383Y-68530976D01*
X86153156Y-68460214D01*
X86196269Y-68403807D01*
X86263034Y-68379663D01*
X86332254Y-68395448D01*
G37*
G04 #@! TD.AperFunction*
G04 #@! TA.AperFunction,NonConductor*
G36*
X84197960Y-67900502D02*
G01*
X84244453Y-67954158D01*
X84254557Y-68024432D01*
X84225063Y-68089012D01*
X84218934Y-68095595D01*
X84075206Y-68239323D01*
X84065766Y-68246865D01*
X84066089Y-68247245D01*
X84059253Y-68253063D01*
X84051661Y-68257853D01*
X84045719Y-68264581D01*
X84016329Y-68297859D01*
X84010983Y-68303546D01*
X83999649Y-68314880D01*
X83996964Y-68318463D01*
X83996962Y-68318465D01*
X83993447Y-68323155D01*
X83987062Y-68330998D01*
X83955999Y-68366170D01*
X83952186Y-68374292D01*
X83950346Y-68377093D01*
X83941937Y-68391088D01*
X83940315Y-68394051D01*
X83934930Y-68401236D01*
X83931777Y-68409646D01*
X83931776Y-68409648D01*
X83918454Y-68445182D01*
X83914530Y-68454495D01*
X83894583Y-68496982D01*
X83893201Y-68505856D01*
X83892215Y-68509083D01*
X83888075Y-68524866D01*
X83887354Y-68528144D01*
X83884202Y-68536552D01*
X83883537Y-68545503D01*
X83880724Y-68583357D01*
X83879570Y-68593404D01*
X83877500Y-68606697D01*
X83877500Y-68622062D01*
X83877154Y-68631399D01*
X83873493Y-68680667D01*
X83875366Y-68689442D01*
X83875959Y-68698138D01*
X83877500Y-68712738D01*
X83877500Y-68930507D01*
X83863767Y-68987709D01*
X83859267Y-68996541D01*
X83810520Y-69048156D01*
X83741605Y-69065223D01*
X83674403Y-69042323D01*
X83634733Y-68996541D01*
X83630233Y-68987709D01*
X83616500Y-68930507D01*
X83616500Y-68018161D01*
X83636502Y-67950040D01*
X83653405Y-67929066D01*
X83665066Y-67917405D01*
X83727378Y-67883379D01*
X83754161Y-67880500D01*
X84129839Y-67880500D01*
X84197960Y-67900502D01*
G37*
G04 #@! TD.AperFunction*
G04 #@! TA.AperFunction,NonConductor*
G36*
X83819598Y-70919678D02*
G01*
X83859267Y-70965458D01*
X83900674Y-71046723D01*
X83991277Y-71137326D01*
X84105445Y-71195498D01*
X84115236Y-71197049D01*
X84117139Y-71197667D01*
X84175745Y-71237740D01*
X84203383Y-71303136D01*
X84191277Y-71373093D01*
X84143271Y-71425399D01*
X84078204Y-71443500D01*
X83415796Y-71443500D01*
X83347675Y-71423498D01*
X83301182Y-71369842D01*
X83291078Y-71299568D01*
X83320572Y-71234988D01*
X83376861Y-71197667D01*
X83378764Y-71197049D01*
X83388555Y-71195498D01*
X83502723Y-71137326D01*
X83593326Y-71046723D01*
X83634733Y-70965458D01*
X83683482Y-70913843D01*
X83752397Y-70896777D01*
X83819598Y-70919678D01*
G37*
G04 #@! TD.AperFunction*
G04 #@! TA.AperFunction,NonConductor*
G36*
X82578012Y-70963745D02*
G01*
X82607767Y-71001766D01*
X82630674Y-71046723D01*
X82721277Y-71137326D01*
X82835445Y-71195498D01*
X82845236Y-71197049D01*
X82847139Y-71197667D01*
X82905745Y-71237740D01*
X82933383Y-71303136D01*
X82921277Y-71373093D01*
X82873271Y-71425399D01*
X82808204Y-71443500D01*
X82611161Y-71443500D01*
X82543040Y-71423498D01*
X82522066Y-71406595D01*
X82406405Y-71290934D01*
X82372379Y-71228622D01*
X82369500Y-71201839D01*
X82369500Y-71058969D01*
X82389502Y-70990848D01*
X82443158Y-70944355D01*
X82513432Y-70934251D01*
X82578012Y-70963745D01*
G37*
G04 #@! TD.AperFunction*
G04 #@! TA.AperFunction,NonConductor*
G36*
X85089598Y-70919678D02*
G01*
X85129258Y-70965442D01*
X85130518Y-70967914D01*
X85140500Y-71018338D01*
X85143954Y-71018124D01*
X85147258Y-71071382D01*
X85147500Y-71079184D01*
X85147500Y-71095226D01*
X85148135Y-71099657D01*
X85148135Y-71099662D01*
X85148965Y-71105453D01*
X85149996Y-71115514D01*
X85152902Y-71162359D01*
X85155949Y-71170799D01*
X85156630Y-71174089D01*
X85160582Y-71189938D01*
X85161527Y-71193168D01*
X85162799Y-71202052D01*
X85166514Y-71210223D01*
X85182218Y-71244763D01*
X85186031Y-71254129D01*
X85193463Y-71274716D01*
X85197780Y-71345581D01*
X85163099Y-71407531D01*
X85100431Y-71440896D01*
X85074949Y-71443500D01*
X84685796Y-71443500D01*
X84617675Y-71423498D01*
X84571182Y-71369842D01*
X84561078Y-71299568D01*
X84590572Y-71234988D01*
X84646861Y-71197667D01*
X84648764Y-71197049D01*
X84658555Y-71195498D01*
X84772723Y-71137326D01*
X84863326Y-71046723D01*
X84904733Y-70965458D01*
X84953482Y-70913843D01*
X85022397Y-70896777D01*
X85089598Y-70919678D01*
G37*
G04 #@! TD.AperFunction*
G04 #@! TA.AperFunction,NonConductor*
G36*
X82664382Y-73615502D02*
G01*
X82710875Y-73669158D01*
X82720979Y-73739432D01*
X82691485Y-73804012D01*
X82685356Y-73810595D01*
X82630674Y-73865277D01*
X82599327Y-73926798D01*
X82589267Y-73946542D01*
X82540518Y-73998157D01*
X82471603Y-74015223D01*
X82404402Y-73992322D01*
X82364733Y-73946542D01*
X82354673Y-73926798D01*
X82323326Y-73865277D01*
X82268644Y-73810595D01*
X82234618Y-73748283D01*
X82239683Y-73677468D01*
X82282230Y-73620632D01*
X82348750Y-73595821D01*
X82357739Y-73595500D01*
X82596261Y-73595500D01*
X82664382Y-73615502D01*
G37*
G04 #@! TD.AperFunction*
G04 #@! TA.AperFunction,NonConductor*
G36*
X81394382Y-73615502D02*
G01*
X81440875Y-73669158D01*
X81450979Y-73739432D01*
X81421485Y-73804012D01*
X81415356Y-73810595D01*
X81360674Y-73865277D01*
X81329327Y-73926798D01*
X81319267Y-73946542D01*
X81270518Y-73998157D01*
X81201603Y-74015223D01*
X81134402Y-73992322D01*
X81094733Y-73946542D01*
X81084673Y-73926798D01*
X81053326Y-73865277D01*
X80998644Y-73810595D01*
X80964618Y-73748283D01*
X80969683Y-73677468D01*
X81012230Y-73620632D01*
X81078750Y-73595821D01*
X81087739Y-73595500D01*
X81326261Y-73595500D01*
X81394382Y-73615502D01*
G37*
G04 #@! TD.AperFunction*
G04 #@! TA.AperFunction,NonConductor*
G36*
X80124382Y-73615502D02*
G01*
X80170875Y-73669158D01*
X80180979Y-73739432D01*
X80151485Y-73804012D01*
X80145356Y-73810595D01*
X80090674Y-73865277D01*
X80059327Y-73926798D01*
X80049267Y-73946542D01*
X80000518Y-73998157D01*
X79931603Y-74015223D01*
X79864402Y-73992322D01*
X79824733Y-73946542D01*
X79814673Y-73926798D01*
X79783326Y-73865277D01*
X79728644Y-73810595D01*
X79694618Y-73748283D01*
X79699683Y-73677468D01*
X79742230Y-73620632D01*
X79808750Y-73595821D01*
X79817739Y-73595500D01*
X80056261Y-73595500D01*
X80124382Y-73615502D01*
G37*
G04 #@! TD.AperFunction*
G04 #@! TA.AperFunction,NonConductor*
G36*
X87635012Y-73755937D02*
G01*
X87641595Y-73762066D01*
X87904595Y-74025066D01*
X87938621Y-74087378D01*
X87941500Y-74114161D01*
X87941500Y-76385839D01*
X87921498Y-76453960D01*
X87904595Y-76474935D01*
X87765933Y-76613596D01*
X87703621Y-76647621D01*
X87676838Y-76650500D01*
X85660602Y-76650500D01*
X85659833Y-76650498D01*
X85582827Y-76650028D01*
X85581492Y-76650410D01*
X85580164Y-76650500D01*
X84262161Y-76650500D01*
X84194040Y-76630498D01*
X84173066Y-76613595D01*
X83851463Y-76291992D01*
X83817437Y-76229680D01*
X83821929Y-76166871D01*
X83754815Y-76169748D01*
X83696008Y-76136537D01*
X83653405Y-76093934D01*
X83619379Y-76031622D01*
X83616500Y-76004839D01*
X83616500Y-75981493D01*
X83630233Y-75924291D01*
X83634733Y-75915459D01*
X83683480Y-75863844D01*
X83752395Y-75846777D01*
X83819597Y-75869677D01*
X83859267Y-75915458D01*
X83897370Y-75990239D01*
X83910474Y-76060016D01*
X83898484Y-76089558D01*
X83931569Y-76077218D01*
X83997761Y-76090630D01*
X84087858Y-76136537D01*
X84105445Y-76145498D01*
X84200166Y-76160500D01*
X84563834Y-76160500D01*
X84658555Y-76145498D01*
X84772723Y-76087326D01*
X84863326Y-75996723D01*
X84904733Y-75915458D01*
X84953482Y-75863843D01*
X85022397Y-75846777D01*
X85089598Y-75869678D01*
X85129267Y-75915458D01*
X85170674Y-75996723D01*
X85261277Y-76087326D01*
X85375445Y-76145498D01*
X85470166Y-76160500D01*
X85833834Y-76160500D01*
X85928555Y-76145498D01*
X86042723Y-76087326D01*
X86133326Y-75996723D01*
X86174733Y-75915458D01*
X86223482Y-75863843D01*
X86292397Y-75846777D01*
X86359598Y-75869678D01*
X86399267Y-75915458D01*
X86440674Y-75996723D01*
X86531277Y-76087326D01*
X86645445Y-76145498D01*
X86740166Y-76160500D01*
X87103834Y-76160500D01*
X87198555Y-76145498D01*
X87312723Y-76087326D01*
X87403326Y-75996723D01*
X87461498Y-75882555D01*
X87476500Y-75787834D01*
X87476500Y-74074166D01*
X87461498Y-73979445D01*
X87444733Y-73946542D01*
X87440233Y-73937710D01*
X87426500Y-73880507D01*
X87426500Y-73851161D01*
X87446502Y-73783040D01*
X87500158Y-73736547D01*
X87570432Y-73726443D01*
X87635012Y-73755937D01*
G37*
G04 #@! TD.AperFunction*
G04 #@! TA.AperFunction,NonConductor*
G36*
X80038012Y-75913745D02*
G01*
X80067767Y-75951767D01*
X80076767Y-75969431D01*
X80090500Y-76026633D01*
X80090500Y-76524500D01*
X80070498Y-76592621D01*
X80016842Y-76639114D01*
X79964500Y-76650500D01*
X79955500Y-76650500D01*
X79887379Y-76630498D01*
X79840886Y-76576842D01*
X79829500Y-76524500D01*
X79829500Y-76008969D01*
X79849502Y-75940848D01*
X79903158Y-75894355D01*
X79973432Y-75884251D01*
X80038012Y-75913745D01*
G37*
G04 #@! TD.AperFunction*
G04 #@! TA.AperFunction,NonConductor*
G36*
X206587103Y-61153977D02*
G01*
X206600000Y-61156542D01*
X206612172Y-61154121D01*
X206624580Y-61154121D01*
X206624580Y-61154441D01*
X206635455Y-61153701D01*
X206851006Y-61166739D01*
X206866111Y-61168573D01*
X207105958Y-61212526D01*
X207120731Y-61216167D01*
X207353539Y-61288712D01*
X207367766Y-61294108D01*
X207590120Y-61394181D01*
X207603592Y-61401251D01*
X207812272Y-61527400D01*
X207824794Y-61536043D01*
X208016752Y-61686430D01*
X208028133Y-61696513D01*
X208200560Y-61868936D01*
X208210649Y-61880324D01*
X208361037Y-62072277D01*
X208369669Y-62084782D01*
X208495832Y-62293474D01*
X208502900Y-62306942D01*
X208602982Y-62529308D01*
X208608377Y-62543534D01*
X208680921Y-62776324D01*
X208684563Y-62791097D01*
X208728522Y-63030952D01*
X208730356Y-63046052D01*
X208743389Y-63261436D01*
X208742637Y-63272480D01*
X208742935Y-63272480D01*
X208742935Y-63284889D01*
X208740514Y-63297061D01*
X208742935Y-63309231D01*
X208742935Y-63309232D01*
X208743079Y-63309956D01*
X208745500Y-63334539D01*
X208745500Y-84619500D01*
X208725498Y-84687621D01*
X208671842Y-84734114D01*
X208619500Y-84745500D01*
X204037476Y-84745500D01*
X204012897Y-84743079D01*
X204000000Y-84740514D01*
X203998421Y-84740828D01*
X203647915Y-84755717D01*
X203556666Y-84759593D01*
X203556663Y-84759593D01*
X203553985Y-84759707D01*
X203111184Y-84816410D01*
X202674787Y-84910461D01*
X202247938Y-85041182D01*
X202245469Y-85042174D01*
X202245458Y-85042178D01*
X201836195Y-85206634D01*
X201836182Y-85206640D01*
X201833713Y-85207632D01*
X201435096Y-85408610D01*
X201054959Y-85642670D01*
X200696041Y-85908124D01*
X200694037Y-85909888D01*
X200694033Y-85909891D01*
X200362935Y-86201293D01*
X200362927Y-86201301D01*
X200360928Y-86203060D01*
X200052035Y-86525354D01*
X199771587Y-86872682D01*
X199521605Y-87242543D01*
X199520298Y-87244883D01*
X199305195Y-87629934D01*
X199305190Y-87629944D01*
X199303890Y-87632271D01*
X199120010Y-88039059D01*
X198971291Y-88459975D01*
X198970620Y-88462553D01*
X198970617Y-88462562D01*
X198859477Y-88889397D01*
X198858803Y-88891987D01*
X198783359Y-89331983D01*
X198745500Y-89776792D01*
X198745500Y-90223208D01*
X198783359Y-90668017D01*
X198858803Y-91108013D01*
X198859475Y-91110594D01*
X198859477Y-91110603D01*
X198952131Y-91466440D01*
X198971291Y-91540025D01*
X199120010Y-91960941D01*
X199303890Y-92367729D01*
X199305190Y-92370056D01*
X199305195Y-92370066D01*
X199441623Y-92614282D01*
X199521605Y-92757457D01*
X199771587Y-93127318D01*
X200052035Y-93474646D01*
X200360928Y-93796940D01*
X200362927Y-93798699D01*
X200362935Y-93798707D01*
X200675467Y-94073769D01*
X200696041Y-94091876D01*
X201054959Y-94357330D01*
X201435096Y-94591390D01*
X201833713Y-94792368D01*
X201836182Y-94793360D01*
X201836195Y-94793366D01*
X202245458Y-94957822D01*
X202245469Y-94957826D01*
X202247938Y-94958818D01*
X202674787Y-95089539D01*
X203111184Y-95183590D01*
X203553985Y-95240293D01*
X203556663Y-95240407D01*
X203556666Y-95240407D01*
X203859656Y-95253277D01*
X203998421Y-95259172D01*
X204000000Y-95259486D01*
X204012897Y-95256921D01*
X204037476Y-95254500D01*
X208619500Y-95254500D01*
X208687621Y-95274502D01*
X208734114Y-95328158D01*
X208745500Y-95380500D01*
X208745500Y-142662524D01*
X208743079Y-142687103D01*
X208740514Y-142700000D01*
X208742935Y-142712172D01*
X208742935Y-142724580D01*
X208742615Y-142724580D01*
X208743355Y-142735456D01*
X208730317Y-142951004D01*
X208728483Y-142966108D01*
X208723985Y-142990653D01*
X208711556Y-143058480D01*
X208684531Y-143205951D01*
X208680890Y-143220725D01*
X208608343Y-143453534D01*
X208602954Y-143467743D01*
X208502865Y-143690135D01*
X208495809Y-143703577D01*
X208421508Y-143826485D01*
X208369653Y-143912263D01*
X208361010Y-143924784D01*
X208210630Y-144116731D01*
X208200540Y-144128120D01*
X208028120Y-144300540D01*
X208016731Y-144310630D01*
X207824784Y-144461010D01*
X207812263Y-144469653D01*
X207726485Y-144521508D01*
X207603577Y-144595809D01*
X207590135Y-144602865D01*
X207367743Y-144702954D01*
X207353538Y-144708342D01*
X207120719Y-144780891D01*
X207105957Y-144784529D01*
X206926173Y-144817476D01*
X206866108Y-144828483D01*
X206851004Y-144830317D01*
X206635456Y-144843355D01*
X206624580Y-144842615D01*
X206624580Y-144842935D01*
X206612172Y-144842935D01*
X206600000Y-144840514D01*
X206587103Y-144843079D01*
X206562524Y-144845500D01*
X204380500Y-144845500D01*
X204312379Y-144825498D01*
X204265886Y-144771842D01*
X204254500Y-144719500D01*
X204254500Y-140137476D01*
X204256921Y-140112894D01*
X204259486Y-140100000D01*
X204259172Y-140098421D01*
X204244283Y-139747915D01*
X204240407Y-139656666D01*
X204240407Y-139656663D01*
X204240293Y-139653985D01*
X204183590Y-139211184D01*
X204089539Y-138774787D01*
X203958818Y-138347938D01*
X203957826Y-138345469D01*
X203957822Y-138345458D01*
X203793366Y-137936195D01*
X203793360Y-137936182D01*
X203792368Y-137933713D01*
X203591390Y-137535096D01*
X203357330Y-137154959D01*
X203091876Y-136796041D01*
X202980926Y-136669977D01*
X202798707Y-136462935D01*
X202798699Y-136462927D01*
X202796940Y-136460928D01*
X202474646Y-136152035D01*
X202127318Y-135871587D01*
X201757457Y-135621605D01*
X201492301Y-135473480D01*
X201370066Y-135405195D01*
X201370056Y-135405190D01*
X201367729Y-135403890D01*
X201002726Y-135238898D01*
X200963366Y-135221106D01*
X200963363Y-135221105D01*
X200960941Y-135220010D01*
X200958439Y-135219126D01*
X200958434Y-135219124D01*
X200717852Y-135134121D01*
X200540025Y-135071291D01*
X200537447Y-135070620D01*
X200537438Y-135070617D01*
X200110603Y-134959477D01*
X200110594Y-134959475D01*
X200108013Y-134958803D01*
X200105389Y-134958353D01*
X200105384Y-134958352D01*
X199670647Y-134883810D01*
X199670648Y-134883810D01*
X199668017Y-134883359D01*
X199665359Y-134883133D01*
X199665353Y-134883132D01*
X199225864Y-134845726D01*
X199225863Y-134845726D01*
X199223208Y-134845500D01*
X198776792Y-134845500D01*
X198774137Y-134845726D01*
X198774136Y-134845726D01*
X198334647Y-134883132D01*
X198334641Y-134883133D01*
X198331983Y-134883359D01*
X198329352Y-134883810D01*
X198329353Y-134883810D01*
X197894616Y-134958352D01*
X197894611Y-134958353D01*
X197891987Y-134958803D01*
X197889406Y-134959475D01*
X197889397Y-134959477D01*
X197462562Y-135070617D01*
X197462553Y-135070620D01*
X197459975Y-135071291D01*
X197282149Y-135134121D01*
X197041566Y-135219124D01*
X197041561Y-135219126D01*
X197039059Y-135220010D01*
X197036637Y-135221105D01*
X197036634Y-135221106D01*
X196997274Y-135238898D01*
X196632271Y-135403890D01*
X196629944Y-135405190D01*
X196629934Y-135405195D01*
X196507699Y-135473480D01*
X196242543Y-135621605D01*
X195872682Y-135871587D01*
X195525354Y-136152035D01*
X195203060Y-136460928D01*
X195201301Y-136462927D01*
X195201293Y-136462935D01*
X195019074Y-136669977D01*
X194908124Y-136796041D01*
X194642670Y-137154959D01*
X194408610Y-137535096D01*
X194207632Y-137933713D01*
X194206640Y-137936182D01*
X194206634Y-137936195D01*
X194042178Y-138345458D01*
X194042174Y-138345469D01*
X194041182Y-138347938D01*
X193910461Y-138774787D01*
X193816410Y-139211184D01*
X193759707Y-139653985D01*
X193759593Y-139656663D01*
X193759593Y-139656666D01*
X193747536Y-139940514D01*
X193740828Y-140098421D01*
X193740514Y-140100000D01*
X193743079Y-140112894D01*
X193745500Y-140137476D01*
X193745500Y-144719500D01*
X193725498Y-144787621D01*
X193671842Y-144834114D01*
X193619500Y-144845500D01*
X85380500Y-144845500D01*
X85312379Y-144825498D01*
X85265886Y-144771842D01*
X85254500Y-144719500D01*
X85254500Y-141616494D01*
X107145500Y-141616494D01*
X107180225Y-141846879D01*
X107248899Y-142069515D01*
X107349989Y-142279430D01*
X107352644Y-142283324D01*
X107352645Y-142283326D01*
X107478574Y-142468031D01*
X107478579Y-142468037D01*
X107481235Y-142471933D01*
X107484445Y-142475393D01*
X107484447Y-142475395D01*
X107549495Y-142545500D01*
X107639707Y-142642725D01*
X107643385Y-142645658D01*
X107643387Y-142645660D01*
X107818182Y-142785055D01*
X107818186Y-142785058D01*
X107821863Y-142787990D01*
X108023636Y-142904483D01*
X108028029Y-142906207D01*
X108236124Y-142987879D01*
X108236130Y-142987881D01*
X108240518Y-142989603D01*
X108245117Y-142990653D01*
X108245118Y-142990653D01*
X108463063Y-143040398D01*
X108463065Y-143040398D01*
X108467664Y-143041448D01*
X108472364Y-143041800D01*
X108472369Y-143041801D01*
X108682783Y-143057569D01*
X108682784Y-143057569D01*
X108694942Y-143058480D01*
X108700000Y-143059486D01*
X108712897Y-143056921D01*
X108737476Y-143054500D01*
X116262524Y-143054500D01*
X116287103Y-143056921D01*
X116300000Y-143059486D01*
X116305058Y-143058480D01*
X116316335Y-143057635D01*
X116527631Y-143041801D01*
X116527636Y-143041800D01*
X116532336Y-143041448D01*
X116536935Y-143040398D01*
X116536937Y-143040398D01*
X116754882Y-142990653D01*
X116754883Y-142990653D01*
X116759482Y-142989603D01*
X116763870Y-142987881D01*
X116763876Y-142987879D01*
X116971971Y-142906207D01*
X116976364Y-142904483D01*
X117178137Y-142787990D01*
X117181814Y-142785058D01*
X117181818Y-142785055D01*
X117356613Y-142645660D01*
X117356615Y-142645658D01*
X117360293Y-142642725D01*
X117450505Y-142545500D01*
X117515553Y-142475395D01*
X117515555Y-142475393D01*
X117518765Y-142471933D01*
X117521421Y-142468037D01*
X117521426Y-142468031D01*
X117647355Y-142283326D01*
X117647356Y-142283324D01*
X117650011Y-142279430D01*
X117751101Y-142069515D01*
X117819775Y-141846879D01*
X117854500Y-141616494D01*
X161145500Y-141616494D01*
X161180225Y-141846879D01*
X161248899Y-142069515D01*
X161349989Y-142279430D01*
X161352644Y-142283324D01*
X161352645Y-142283326D01*
X161478574Y-142468031D01*
X161478579Y-142468037D01*
X161481235Y-142471933D01*
X161484445Y-142475393D01*
X161484447Y-142475395D01*
X161549495Y-142545500D01*
X161639707Y-142642725D01*
X161643385Y-142645658D01*
X161643387Y-142645660D01*
X161818182Y-142785055D01*
X161818186Y-142785058D01*
X161821863Y-142787990D01*
X162023636Y-142904483D01*
X162028029Y-142906207D01*
X162236124Y-142987879D01*
X162236130Y-142987881D01*
X162240518Y-142989603D01*
X162245117Y-142990653D01*
X162245118Y-142990653D01*
X162463063Y-143040398D01*
X162463065Y-143040398D01*
X162467664Y-143041448D01*
X162472364Y-143041800D01*
X162472369Y-143041801D01*
X162682783Y-143057569D01*
X162682784Y-143057569D01*
X162694942Y-143058480D01*
X162700000Y-143059486D01*
X162712897Y-143056921D01*
X162737476Y-143054500D01*
X170262524Y-143054500D01*
X170287103Y-143056921D01*
X170300000Y-143059486D01*
X170305058Y-143058480D01*
X170316335Y-143057635D01*
X170527631Y-143041801D01*
X170527636Y-143041800D01*
X170532336Y-143041448D01*
X170536935Y-143040398D01*
X170536937Y-143040398D01*
X170754882Y-142990653D01*
X170754883Y-142990653D01*
X170759482Y-142989603D01*
X170763870Y-142987881D01*
X170763876Y-142987879D01*
X170971971Y-142906207D01*
X170976364Y-142904483D01*
X171178137Y-142787990D01*
X171181814Y-142785058D01*
X171181818Y-142785055D01*
X171356613Y-142645660D01*
X171356615Y-142645658D01*
X171360293Y-142642725D01*
X171450505Y-142545500D01*
X171515553Y-142475395D01*
X171515555Y-142475393D01*
X171518765Y-142471933D01*
X171521421Y-142468037D01*
X171521426Y-142468031D01*
X171647355Y-142283326D01*
X171647356Y-142283324D01*
X171650011Y-142279430D01*
X171751101Y-142069515D01*
X171819775Y-141846879D01*
X171854500Y-141616494D01*
X171854500Y-141383506D01*
X171819775Y-141153121D01*
X171751101Y-140930485D01*
X171706660Y-140838203D01*
X171652059Y-140724823D01*
X171652057Y-140724820D01*
X171650011Y-140720571D01*
X171518765Y-140528067D01*
X171451976Y-140456085D01*
X171363497Y-140360728D01*
X171363496Y-140360727D01*
X171360293Y-140357275D01*
X171356613Y-140354340D01*
X171181818Y-140214945D01*
X171181814Y-140214942D01*
X171178137Y-140212010D01*
X170976364Y-140095517D01*
X170931047Y-140077731D01*
X170763876Y-140012121D01*
X170763870Y-140012119D01*
X170759482Y-140010397D01*
X170754882Y-140009347D01*
X170536937Y-139959602D01*
X170536935Y-139959602D01*
X170532336Y-139958552D01*
X170527636Y-139958200D01*
X170527631Y-139958199D01*
X170317217Y-139942431D01*
X170317216Y-139942431D01*
X170305058Y-139941520D01*
X170300000Y-139940514D01*
X170287103Y-139943079D01*
X170262524Y-139945500D01*
X162737476Y-139945500D01*
X162712897Y-139943079D01*
X162700000Y-139940514D01*
X162694942Y-139941520D01*
X162683665Y-139942365D01*
X162472369Y-139958199D01*
X162472364Y-139958200D01*
X162467664Y-139958552D01*
X162463065Y-139959602D01*
X162463063Y-139959602D01*
X162245118Y-140009347D01*
X162240518Y-140010397D01*
X162236130Y-140012119D01*
X162236124Y-140012121D01*
X162068953Y-140077731D01*
X162023636Y-140095517D01*
X161821863Y-140212010D01*
X161818186Y-140214942D01*
X161818182Y-140214945D01*
X161643387Y-140354340D01*
X161639707Y-140357275D01*
X161636504Y-140360727D01*
X161636503Y-140360728D01*
X161548025Y-140456085D01*
X161481235Y-140528067D01*
X161349989Y-140720571D01*
X161347943Y-140724820D01*
X161347941Y-140724823D01*
X161293340Y-140838203D01*
X161248899Y-140930485D01*
X161180225Y-141153121D01*
X161145500Y-141383506D01*
X161145500Y-141616494D01*
X117854500Y-141616494D01*
X117854500Y-141383506D01*
X117819775Y-141153121D01*
X117751101Y-140930485D01*
X117706660Y-140838203D01*
X117652059Y-140724823D01*
X117652057Y-140724820D01*
X117650011Y-140720571D01*
X117518765Y-140528067D01*
X117451976Y-140456085D01*
X117363497Y-140360728D01*
X117363496Y-140360727D01*
X117360293Y-140357275D01*
X117356613Y-140354340D01*
X117181818Y-140214945D01*
X117181814Y-140214942D01*
X117178137Y-140212010D01*
X116976364Y-140095517D01*
X116931047Y-140077731D01*
X116763876Y-140012121D01*
X116763870Y-140012119D01*
X116759482Y-140010397D01*
X116754882Y-140009347D01*
X116536937Y-139959602D01*
X116536935Y-139959602D01*
X116532336Y-139958552D01*
X116527636Y-139958200D01*
X116527631Y-139958199D01*
X116317217Y-139942431D01*
X116317216Y-139942431D01*
X116305058Y-139941520D01*
X116300000Y-139940514D01*
X116287103Y-139943079D01*
X116262524Y-139945500D01*
X108737476Y-139945500D01*
X108712897Y-139943079D01*
X108700000Y-139940514D01*
X108694942Y-139941520D01*
X108683665Y-139942365D01*
X108472369Y-139958199D01*
X108472364Y-139958200D01*
X108467664Y-139958552D01*
X108463065Y-139959602D01*
X108463063Y-139959602D01*
X108245118Y-140009347D01*
X108240518Y-140010397D01*
X108236130Y-140012119D01*
X108236124Y-140012121D01*
X108068953Y-140077731D01*
X108023636Y-140095517D01*
X107821863Y-140212010D01*
X107818186Y-140214942D01*
X107818182Y-140214945D01*
X107643387Y-140354340D01*
X107639707Y-140357275D01*
X107636504Y-140360727D01*
X107636503Y-140360728D01*
X107548025Y-140456085D01*
X107481235Y-140528067D01*
X107349989Y-140720571D01*
X107347943Y-140724820D01*
X107347941Y-140724823D01*
X107293340Y-140838203D01*
X107248899Y-140930485D01*
X107180225Y-141153121D01*
X107145500Y-141383506D01*
X107145500Y-141616494D01*
X85254500Y-141616494D01*
X85254500Y-140137476D01*
X85256921Y-140112894D01*
X85259486Y-140100000D01*
X85259172Y-140098421D01*
X85244283Y-139747915D01*
X85240407Y-139656666D01*
X85240407Y-139656663D01*
X85240293Y-139653985D01*
X85183590Y-139211184D01*
X85089539Y-138774787D01*
X84958818Y-138347938D01*
X84957826Y-138345469D01*
X84957822Y-138345458D01*
X84793366Y-137936195D01*
X84793360Y-137936182D01*
X84792368Y-137933713D01*
X84591390Y-137535096D01*
X84357330Y-137154959D01*
X84091876Y-136796041D01*
X83980926Y-136669977D01*
X83798707Y-136462935D01*
X83798699Y-136462927D01*
X83796940Y-136460928D01*
X83474646Y-136152035D01*
X83127318Y-135871587D01*
X82757457Y-135621605D01*
X82492301Y-135473480D01*
X82370066Y-135405195D01*
X82370056Y-135405190D01*
X82367729Y-135403890D01*
X82002726Y-135238898D01*
X81963366Y-135221106D01*
X81963363Y-135221105D01*
X81960941Y-135220010D01*
X81958439Y-135219126D01*
X81958434Y-135219124D01*
X81717852Y-135134121D01*
X81540025Y-135071291D01*
X81537447Y-135070620D01*
X81537438Y-135070617D01*
X81110603Y-134959477D01*
X81110594Y-134959475D01*
X81108013Y-134958803D01*
X81105389Y-134958353D01*
X81105384Y-134958352D01*
X80670647Y-134883810D01*
X80670648Y-134883810D01*
X80668017Y-134883359D01*
X80665359Y-134883133D01*
X80665353Y-134883132D01*
X80225864Y-134845726D01*
X80225863Y-134845726D01*
X80223208Y-134845500D01*
X79776792Y-134845500D01*
X79774137Y-134845726D01*
X79774136Y-134845726D01*
X79334647Y-134883132D01*
X79334641Y-134883133D01*
X79331983Y-134883359D01*
X79329352Y-134883810D01*
X79329353Y-134883810D01*
X78894616Y-134958352D01*
X78894611Y-134958353D01*
X78891987Y-134958803D01*
X78889406Y-134959475D01*
X78889397Y-134959477D01*
X78462562Y-135070617D01*
X78462553Y-135070620D01*
X78459975Y-135071291D01*
X78282148Y-135134121D01*
X78041566Y-135219124D01*
X78041561Y-135219126D01*
X78039059Y-135220010D01*
X78036637Y-135221105D01*
X78036634Y-135221106D01*
X77997274Y-135238898D01*
X77632271Y-135403890D01*
X77629944Y-135405190D01*
X77629934Y-135405195D01*
X77507699Y-135473480D01*
X77242543Y-135621605D01*
X76872682Y-135871587D01*
X76525354Y-136152035D01*
X76203060Y-136460928D01*
X76201301Y-136462927D01*
X76201293Y-136462935D01*
X76019074Y-136669977D01*
X75908124Y-136796041D01*
X75642670Y-137154959D01*
X75408610Y-137535096D01*
X75207632Y-137933713D01*
X75206640Y-137936182D01*
X75206634Y-137936195D01*
X75042178Y-138345458D01*
X75042174Y-138345469D01*
X75041182Y-138347938D01*
X74910461Y-138774787D01*
X74816410Y-139211184D01*
X74759707Y-139653985D01*
X74759593Y-139656663D01*
X74759593Y-139656666D01*
X74747536Y-139940514D01*
X74740828Y-140098421D01*
X74740514Y-140100000D01*
X74743079Y-140112894D01*
X74745500Y-140137476D01*
X74745500Y-144719500D01*
X74725498Y-144787621D01*
X74671842Y-144834114D01*
X74619500Y-144845500D01*
X72437476Y-144845500D01*
X72412897Y-144843079D01*
X72400000Y-144840514D01*
X72387828Y-144842935D01*
X72375420Y-144842935D01*
X72375420Y-144842615D01*
X72364544Y-144843355D01*
X72148996Y-144830317D01*
X72133892Y-144828483D01*
X72073827Y-144817476D01*
X71894043Y-144784529D01*
X71879281Y-144780891D01*
X71646462Y-144708342D01*
X71632257Y-144702954D01*
X71409865Y-144602865D01*
X71396423Y-144595809D01*
X71273515Y-144521508D01*
X71187737Y-144469653D01*
X71175216Y-144461010D01*
X70983269Y-144310630D01*
X70971880Y-144300540D01*
X70799460Y-144128120D01*
X70789370Y-144116731D01*
X70638990Y-143924784D01*
X70630347Y-143912263D01*
X70578492Y-143826485D01*
X70504191Y-143703577D01*
X70497135Y-143690135D01*
X70397046Y-143467743D01*
X70391657Y-143453534D01*
X70319110Y-143220725D01*
X70315469Y-143205951D01*
X70288445Y-143058480D01*
X70276015Y-142990653D01*
X70271517Y-142966108D01*
X70269683Y-142951004D01*
X70256645Y-142735456D01*
X70257385Y-142724580D01*
X70257065Y-142724580D01*
X70257065Y-142712172D01*
X70259486Y-142700000D01*
X70256921Y-142687103D01*
X70254500Y-142662524D01*
X70254500Y-97184167D01*
X72951493Y-97184167D01*
X72953366Y-97192942D01*
X72953959Y-97201638D01*
X72955500Y-97216238D01*
X72955500Y-108580376D01*
X72954159Y-108592381D01*
X72954655Y-108592421D01*
X72953935Y-108601368D01*
X72951954Y-108610124D01*
X72952510Y-108619084D01*
X72955258Y-108663382D01*
X72955500Y-108671184D01*
X72955500Y-108687226D01*
X72956135Y-108691657D01*
X72956135Y-108691662D01*
X72956965Y-108697453D01*
X72957996Y-108707514D01*
X72960902Y-108754359D01*
X72963949Y-108762799D01*
X72964630Y-108766089D01*
X72968582Y-108781938D01*
X72969527Y-108785168D01*
X72970799Y-108794052D01*
X72974514Y-108802223D01*
X72990218Y-108836763D01*
X72994030Y-108846128D01*
X73006922Y-108881837D01*
X73006924Y-108881840D01*
X73009972Y-108890284D01*
X73015268Y-108897533D01*
X73016840Y-108900490D01*
X73025093Y-108914614D01*
X73026898Y-108917437D01*
X73030612Y-108925605D01*
X73036469Y-108932402D01*
X73036470Y-108932404D01*
X73061243Y-108961153D01*
X73067525Y-108969064D01*
X73075473Y-108979944D01*
X73086335Y-108990806D01*
X73092693Y-108997652D01*
X73124944Y-109035082D01*
X73132479Y-109039966D01*
X73139051Y-109045699D01*
X73150455Y-109054926D01*
X73942323Y-109846794D01*
X73949865Y-109856234D01*
X73950245Y-109855911D01*
X73956063Y-109862747D01*
X73960853Y-109870339D01*
X73967581Y-109876281D01*
X74000859Y-109905671D01*
X74006546Y-109911017D01*
X74017880Y-109922351D01*
X74021463Y-109925036D01*
X74021465Y-109925038D01*
X74026155Y-109928553D01*
X74033998Y-109934938D01*
X74069170Y-109966001D01*
X74077292Y-109969814D01*
X74080093Y-109971654D01*
X74094088Y-109980063D01*
X74097051Y-109981685D01*
X74104236Y-109987070D01*
X74112646Y-109990223D01*
X74112648Y-109990224D01*
X74148182Y-110003546D01*
X74157495Y-110007470D01*
X74199982Y-110027417D01*
X74208856Y-110028799D01*
X74212083Y-110029785D01*
X74227866Y-110033925D01*
X74231144Y-110034646D01*
X74239552Y-110037798D01*
X74253309Y-110038820D01*
X74286357Y-110041276D01*
X74296404Y-110042430D01*
X74304886Y-110043751D01*
X74304889Y-110043751D01*
X74309697Y-110044500D01*
X74325062Y-110044500D01*
X74334400Y-110044846D01*
X74383667Y-110048507D01*
X74392442Y-110046634D01*
X74401138Y-110046041D01*
X74415738Y-110044500D01*
X74673807Y-110044500D01*
X74741928Y-110064502D01*
X74788421Y-110118158D01*
X74798525Y-110188432D01*
X74769031Y-110253012D01*
X74762959Y-110259466D01*
X74758635Y-110262943D01*
X74754677Y-110267660D01*
X74754676Y-110267661D01*
X74749887Y-110273368D01*
X74625708Y-110421360D01*
X74526082Y-110602578D01*
X74463553Y-110799696D01*
X74440501Y-111005206D01*
X74457806Y-111211278D01*
X74514807Y-111410066D01*
X74517625Y-111415548D01*
X74517626Y-111415552D01*
X74606514Y-111588509D01*
X74606517Y-111588513D01*
X74609334Y-111593995D01*
X74737786Y-111756061D01*
X74895271Y-111890091D01*
X74900648Y-111893096D01*
X74900652Y-111893099D01*
X74930970Y-111910043D01*
X74980676Y-111960736D01*
X74995500Y-112020031D01*
X74995500Y-114144275D01*
X74975498Y-114212396D01*
X74921842Y-114258889D01*
X74913729Y-114262257D01*
X74870981Y-114278282D01*
X74805236Y-114302929D01*
X74798057Y-114308309D01*
X74798054Y-114308311D01*
X74710023Y-114374287D01*
X74689596Y-114389596D01*
X74684215Y-114396776D01*
X74608311Y-114498054D01*
X74608309Y-114498057D01*
X74602929Y-114505236D01*
X74552202Y-114640552D01*
X74545500Y-114702244D01*
X74545500Y-115497756D01*
X74552202Y-115559448D01*
X74602929Y-115694764D01*
X74608309Y-115701943D01*
X74608311Y-115701946D01*
X74674287Y-115789977D01*
X74689596Y-115810404D01*
X74696776Y-115815785D01*
X74798054Y-115891689D01*
X74798057Y-115891691D01*
X74805236Y-115897071D01*
X74894954Y-115930704D01*
X74933157Y-115945026D01*
X74933159Y-115945026D01*
X74940552Y-115947798D01*
X74948402Y-115948651D01*
X74948403Y-115948651D01*
X74998847Y-115954131D01*
X75002244Y-115954500D01*
X75997756Y-115954500D01*
X76001153Y-115954131D01*
X76051597Y-115948651D01*
X76051598Y-115948651D01*
X76059448Y-115947798D01*
X76066841Y-115945026D01*
X76066843Y-115945026D01*
X76105046Y-115930704D01*
X76194764Y-115897071D01*
X76201943Y-115891691D01*
X76201946Y-115891689D01*
X76303224Y-115815785D01*
X76310404Y-115810404D01*
X76325713Y-115789977D01*
X76391689Y-115701946D01*
X76391691Y-115701943D01*
X76397071Y-115694764D01*
X76447798Y-115559448D01*
X76454500Y-115497756D01*
X76454500Y-114702244D01*
X76447798Y-114640552D01*
X76397071Y-114505236D01*
X76391691Y-114498057D01*
X76391689Y-114498054D01*
X76315785Y-114396776D01*
X76310404Y-114389596D01*
X76289977Y-114374287D01*
X76201946Y-114308311D01*
X76201943Y-114308309D01*
X76194764Y-114302929D01*
X76129019Y-114278282D01*
X76086271Y-114262257D01*
X76029506Y-114219616D01*
X76004806Y-114153054D01*
X76004500Y-114144275D01*
X76004500Y-112023357D01*
X76024502Y-111955236D01*
X76062794Y-111917162D01*
X76067763Y-111914652D01*
X76072615Y-111910861D01*
X76072620Y-111910858D01*
X76149243Y-111850993D01*
X76230722Y-111787334D01*
X76234748Y-111782670D01*
X76234751Y-111782667D01*
X76361819Y-111635457D01*
X76361820Y-111635455D01*
X76365848Y-111630789D01*
X76467995Y-111450979D01*
X76533270Y-111254753D01*
X76559189Y-111049586D01*
X76559602Y-111020000D01*
X76539422Y-110814189D01*
X76479651Y-110616217D01*
X76382565Y-110433625D01*
X76378674Y-110428855D01*
X76378672Y-110428851D01*
X76255758Y-110278143D01*
X76255755Y-110278140D01*
X76251863Y-110273368D01*
X76233993Y-110258585D01*
X76194255Y-110199752D01*
X76192632Y-110128774D01*
X76229641Y-110068186D01*
X76293530Y-110037225D01*
X76314308Y-110035500D01*
X82869500Y-110035500D01*
X82937621Y-110055502D01*
X82984114Y-110109158D01*
X82995500Y-110161500D01*
X82995500Y-112351824D01*
X82975498Y-112419945D01*
X82921842Y-112466438D01*
X82869500Y-112477824D01*
X82474934Y-112477824D01*
X82439182Y-112484935D01*
X82412874Y-112490167D01*
X82412872Y-112490168D01*
X82400699Y-112492589D01*
X82390379Y-112499484D01*
X82390378Y-112499485D01*
X82329985Y-112539839D01*
X82316516Y-112548839D01*
X82260266Y-112633022D01*
X82245500Y-112707256D01*
X82245501Y-114757389D01*
X82260266Y-114831624D01*
X82316516Y-114915807D01*
X82400699Y-114972057D01*
X82474933Y-114986823D01*
X83499834Y-114986823D01*
X84525066Y-114986822D01*
X84560818Y-114979711D01*
X84587126Y-114974479D01*
X84587128Y-114974478D01*
X84599301Y-114972057D01*
X84609621Y-114965162D01*
X84609622Y-114965161D01*
X84673168Y-114922700D01*
X84683484Y-114915807D01*
X84739734Y-114831624D01*
X84754500Y-114757390D01*
X84754499Y-112707257D01*
X84739734Y-112633022D01*
X84683484Y-112548839D01*
X84599301Y-112492589D01*
X84525067Y-112477823D01*
X84130500Y-112477823D01*
X84062379Y-112457821D01*
X84015886Y-112404165D01*
X84004500Y-112351823D01*
X84004500Y-109539602D01*
X84004502Y-109538833D01*
X84004948Y-109465740D01*
X84004972Y-109461827D01*
X84004590Y-109460492D01*
X84004500Y-109459164D01*
X84004500Y-106961529D01*
X84024502Y-106893408D01*
X84077249Y-106847335D01*
X84129646Y-106822902D01*
X84206188Y-106769307D01*
X84304946Y-106700156D01*
X84304949Y-106700154D01*
X84309457Y-106696997D01*
X84464674Y-106541780D01*
X84590579Y-106361969D01*
X84592902Y-106356987D01*
X84592905Y-106356982D01*
X84681022Y-106168011D01*
X84683347Y-106163026D01*
X84740161Y-105950997D01*
X84759292Y-105732323D01*
X84740161Y-105513649D01*
X84683347Y-105301620D01*
X84639896Y-105208439D01*
X84592905Y-105107664D01*
X84592902Y-105107659D01*
X84590579Y-105102677D01*
X84482132Y-104947798D01*
X84467833Y-104927377D01*
X84467831Y-104927374D01*
X84464674Y-104922866D01*
X84309457Y-104767649D01*
X84304949Y-104764492D01*
X84304946Y-104764490D01*
X84134155Y-104644901D01*
X84134153Y-104644900D01*
X84129646Y-104641744D01*
X84124664Y-104639421D01*
X84124659Y-104639418D01*
X83953160Y-104559448D01*
X83930703Y-104548976D01*
X83718674Y-104492162D01*
X83500000Y-104473031D01*
X83281326Y-104492162D01*
X83069297Y-104548976D01*
X83046840Y-104559448D01*
X82875341Y-104639418D01*
X82875336Y-104639421D01*
X82870354Y-104641744D01*
X82865847Y-104644900D01*
X82865845Y-104644901D01*
X82695054Y-104764490D01*
X82695051Y-104764492D01*
X82690543Y-104767649D01*
X82535326Y-104922866D01*
X82532169Y-104927374D01*
X82532167Y-104927377D01*
X82517868Y-104947798D01*
X82409421Y-105102677D01*
X82407098Y-105107659D01*
X82407095Y-105107664D01*
X82360104Y-105208439D01*
X82316653Y-105301620D01*
X82259839Y-105513649D01*
X82240708Y-105732323D01*
X82259839Y-105950997D01*
X82316653Y-106163026D01*
X82318978Y-106168011D01*
X82407095Y-106356982D01*
X82407098Y-106356987D01*
X82409421Y-106361969D01*
X82535326Y-106541780D01*
X82690543Y-106696997D01*
X82695051Y-106700154D01*
X82695054Y-106700156D01*
X82793812Y-106769307D01*
X82870354Y-106822902D01*
X82922751Y-106847335D01*
X82976035Y-106894251D01*
X82995500Y-106961529D01*
X82995500Y-108900500D01*
X82975498Y-108968621D01*
X82921842Y-109015114D01*
X82869500Y-109026500D01*
X76437595Y-109026500D01*
X76369474Y-109006498D01*
X76322981Y-108952842D01*
X76312877Y-108882568D01*
X76342214Y-108818169D01*
X76355978Y-108802223D01*
X76365848Y-108790789D01*
X76467995Y-108610979D01*
X76533270Y-108414753D01*
X76559189Y-108209586D01*
X76559602Y-108180000D01*
X76539422Y-107974189D01*
X76479651Y-107776217D01*
X76382565Y-107593625D01*
X76378674Y-107588855D01*
X76378672Y-107588851D01*
X76255758Y-107438143D01*
X76255755Y-107438140D01*
X76251863Y-107433368D01*
X76244966Y-107427662D01*
X76097271Y-107305478D01*
X76097266Y-107305475D01*
X76092522Y-107301550D01*
X76087102Y-107298620D01*
X76087097Y-107298616D01*
X76070573Y-107289682D01*
X76020163Y-107239688D01*
X76004500Y-107178846D01*
X76004500Y-105055725D01*
X76024502Y-104987604D01*
X76078158Y-104941111D01*
X76086271Y-104937743D01*
X76136350Y-104918969D01*
X76194764Y-104897071D01*
X76201943Y-104891691D01*
X76201946Y-104891689D01*
X76303224Y-104815785D01*
X76310404Y-104810404D01*
X76342447Y-104767649D01*
X76391689Y-104701946D01*
X76391691Y-104701943D01*
X76397071Y-104694764D01*
X76447798Y-104559448D01*
X76454500Y-104497756D01*
X76454500Y-103702244D01*
X76447798Y-103640552D01*
X76397071Y-103505236D01*
X76391691Y-103498057D01*
X76391689Y-103498054D01*
X76315785Y-103396776D01*
X76310404Y-103389596D01*
X76289977Y-103374287D01*
X76201946Y-103308311D01*
X76201943Y-103308309D01*
X76194764Y-103302929D01*
X76105046Y-103269296D01*
X76066843Y-103254974D01*
X76066841Y-103254974D01*
X76059448Y-103252202D01*
X76051598Y-103251349D01*
X76051597Y-103251349D01*
X76001153Y-103245869D01*
X76001152Y-103245869D01*
X75997756Y-103245500D01*
X75002244Y-103245500D01*
X74998848Y-103245869D01*
X74998847Y-103245869D01*
X74948403Y-103251349D01*
X74948402Y-103251349D01*
X74940552Y-103252202D01*
X74933159Y-103254974D01*
X74933157Y-103254974D01*
X74894954Y-103269296D01*
X74805236Y-103302929D01*
X74798057Y-103308309D01*
X74798054Y-103308311D01*
X74710023Y-103374287D01*
X74689596Y-103389596D01*
X74684215Y-103396776D01*
X74608311Y-103498054D01*
X74608309Y-103498057D01*
X74602929Y-103505236D01*
X74552202Y-103640552D01*
X74545500Y-103702244D01*
X74545500Y-104497756D01*
X74552202Y-104559448D01*
X74602929Y-104694764D01*
X74608309Y-104701943D01*
X74608311Y-104701946D01*
X74657553Y-104767649D01*
X74689596Y-104810404D01*
X74696776Y-104815785D01*
X74798054Y-104891689D01*
X74798057Y-104891691D01*
X74805236Y-104897071D01*
X74863650Y-104918969D01*
X74913729Y-104937743D01*
X74970494Y-104980384D01*
X74995194Y-105046946D01*
X74995500Y-105055725D01*
X74995500Y-107177480D01*
X74975498Y-107245601D01*
X74930287Y-107286939D01*
X74930416Y-107287136D01*
X74929205Y-107287928D01*
X74927881Y-107289139D01*
X74919801Y-107293363D01*
X74758635Y-107422943D01*
X74625708Y-107581360D01*
X74526082Y-107762578D01*
X74463553Y-107959696D01*
X74440501Y-108165206D01*
X74457806Y-108371278D01*
X74514807Y-108570066D01*
X74517625Y-108575548D01*
X74517626Y-108575552D01*
X74593493Y-108723172D01*
X74606841Y-108792902D01*
X74580371Y-108858780D01*
X74522487Y-108899888D01*
X74451566Y-108903176D01*
X74392332Y-108869861D01*
X74001405Y-108478934D01*
X73967379Y-108416622D01*
X73964500Y-108389839D01*
X73964500Y-97410661D01*
X73984502Y-97342540D01*
X74001405Y-97321566D01*
X74681566Y-96641405D01*
X74743878Y-96607379D01*
X74770661Y-96604500D01*
X79193376Y-96604500D01*
X79205381Y-96605841D01*
X79205421Y-96605345D01*
X79214368Y-96606065D01*
X79223124Y-96608046D01*
X79276382Y-96604742D01*
X79284184Y-96604500D01*
X79300226Y-96604500D01*
X79304657Y-96603865D01*
X79304662Y-96603865D01*
X79308687Y-96603288D01*
X79310457Y-96603035D01*
X79320514Y-96602004D01*
X79342976Y-96600611D01*
X79358400Y-96599654D01*
X79358402Y-96599654D01*
X79367359Y-96599098D01*
X79375799Y-96596051D01*
X79379089Y-96595370D01*
X79394938Y-96591418D01*
X79398168Y-96590473D01*
X79407052Y-96589201D01*
X79449763Y-96569782D01*
X79459128Y-96565970D01*
X79494837Y-96553078D01*
X79494840Y-96553076D01*
X79503284Y-96550028D01*
X79510533Y-96544732D01*
X79513490Y-96543160D01*
X79527614Y-96534907D01*
X79530437Y-96533102D01*
X79538605Y-96529388D01*
X79545402Y-96523531D01*
X79545404Y-96523530D01*
X79574153Y-96498757D01*
X79582064Y-96492475D01*
X79592944Y-96484527D01*
X79603806Y-96473665D01*
X79610653Y-96467307D01*
X79641282Y-96440915D01*
X79648082Y-96435056D01*
X79652966Y-96427521D01*
X79658699Y-96420949D01*
X79667926Y-96409545D01*
X81716351Y-94361120D01*
X81719192Y-94357330D01*
X81775687Y-94281947D01*
X81775688Y-94281946D01*
X81781070Y-94274764D01*
X81831798Y-94139448D01*
X81842507Y-93995333D01*
X81840634Y-93986558D01*
X81840023Y-93977599D01*
X81840285Y-93977581D01*
X81839001Y-93958303D01*
X81838500Y-93958303D01*
X81838500Y-83829624D01*
X81839841Y-83817619D01*
X81839345Y-83817579D01*
X81840065Y-83808632D01*
X81842046Y-83799876D01*
X81838742Y-83746618D01*
X81838500Y-83738816D01*
X81838500Y-83722774D01*
X81837035Y-83712543D01*
X81836003Y-83702477D01*
X81833654Y-83664600D01*
X81833654Y-83664598D01*
X81833098Y-83655641D01*
X81830051Y-83647201D01*
X81829370Y-83643911D01*
X81825418Y-83628062D01*
X81824473Y-83624832D01*
X81823201Y-83615948D01*
X81803774Y-83573218D01*
X81799964Y-83563860D01*
X81787075Y-83528158D01*
X81787074Y-83528157D01*
X81784027Y-83519716D01*
X81778731Y-83512467D01*
X81777146Y-83509486D01*
X81768920Y-83495408D01*
X81767104Y-83492569D01*
X81763388Y-83484395D01*
X81732757Y-83448846D01*
X81726465Y-83440923D01*
X81718527Y-83430056D01*
X81707665Y-83419194D01*
X81701307Y-83412347D01*
X81674915Y-83381718D01*
X81669056Y-83374918D01*
X81661521Y-83370034D01*
X81654949Y-83364301D01*
X81643545Y-83355074D01*
X78573405Y-80284934D01*
X78539379Y-80222622D01*
X78536500Y-80195839D01*
X78536500Y-75981493D01*
X78550233Y-75924291D01*
X78554733Y-75915459D01*
X78603480Y-75863844D01*
X78672395Y-75846777D01*
X78739597Y-75869677D01*
X78779267Y-75915458D01*
X78780839Y-75918544D01*
X78806767Y-75969430D01*
X78820500Y-76026633D01*
X78820500Y-76934376D01*
X78819159Y-76946381D01*
X78819655Y-76946421D01*
X78818935Y-76955368D01*
X78816954Y-76964124D01*
X78818697Y-76992222D01*
X78820258Y-77017382D01*
X78820500Y-77025184D01*
X78820500Y-77041226D01*
X78821135Y-77045657D01*
X78821135Y-77045662D01*
X78821965Y-77051453D01*
X78822996Y-77061514D01*
X78825902Y-77108359D01*
X78828949Y-77116799D01*
X78829630Y-77120089D01*
X78833582Y-77135938D01*
X78834527Y-77139168D01*
X78835799Y-77148052D01*
X78839514Y-77156223D01*
X78855218Y-77190763D01*
X78859030Y-77200128D01*
X78871922Y-77235837D01*
X78871924Y-77235840D01*
X78874972Y-77244284D01*
X78880268Y-77251533D01*
X78881840Y-77254490D01*
X78890093Y-77268614D01*
X78891898Y-77271437D01*
X78895612Y-77279605D01*
X78901469Y-77286402D01*
X78901470Y-77286404D01*
X78926243Y-77315153D01*
X78932525Y-77323064D01*
X78940473Y-77333944D01*
X78951335Y-77344806D01*
X78957693Y-77351652D01*
X78989944Y-77389082D01*
X78997479Y-77393966D01*
X79004051Y-77399699D01*
X79015455Y-77408926D01*
X79068323Y-77461794D01*
X79075865Y-77471234D01*
X79076245Y-77470911D01*
X79082063Y-77477747D01*
X79086853Y-77485339D01*
X79093581Y-77491281D01*
X79126859Y-77520671D01*
X79132546Y-77526017D01*
X79143880Y-77537351D01*
X79147463Y-77540036D01*
X79147465Y-77540038D01*
X79152155Y-77543553D01*
X79159998Y-77549938D01*
X79195170Y-77581001D01*
X79203292Y-77584814D01*
X79206093Y-77586654D01*
X79220088Y-77595063D01*
X79223051Y-77596685D01*
X79230236Y-77602070D01*
X79238646Y-77605223D01*
X79238648Y-77605224D01*
X79274182Y-77618546D01*
X79283495Y-77622470D01*
X79325982Y-77642417D01*
X79334856Y-77643799D01*
X79338083Y-77644785D01*
X79353866Y-77648925D01*
X79357144Y-77649646D01*
X79365552Y-77652798D01*
X79379309Y-77653820D01*
X79412357Y-77656276D01*
X79422404Y-77657430D01*
X79430886Y-77658751D01*
X79430889Y-77658751D01*
X79435697Y-77659500D01*
X79451062Y-77659500D01*
X79460400Y-77659846D01*
X79509667Y-77663507D01*
X79518442Y-77661634D01*
X79527138Y-77661041D01*
X79541738Y-77659500D01*
X80501376Y-77659500D01*
X80513381Y-77660841D01*
X80513421Y-77660345D01*
X80522368Y-77661065D01*
X80531124Y-77663046D01*
X80584382Y-77659742D01*
X80592184Y-77659500D01*
X81211500Y-77659500D01*
X81279621Y-77679502D01*
X81326114Y-77733158D01*
X81337500Y-77785500D01*
X81337500Y-80894376D01*
X81336159Y-80906381D01*
X81336655Y-80906421D01*
X81335935Y-80915368D01*
X81333954Y-80924124D01*
X81334510Y-80933084D01*
X81337258Y-80977382D01*
X81337500Y-80985184D01*
X81337500Y-81001226D01*
X81338135Y-81005657D01*
X81338135Y-81005662D01*
X81338965Y-81011453D01*
X81339996Y-81021514D01*
X81342902Y-81068359D01*
X81345949Y-81076799D01*
X81346630Y-81080089D01*
X81350582Y-81095938D01*
X81351527Y-81099168D01*
X81352799Y-81108052D01*
X81356514Y-81116223D01*
X81372218Y-81150763D01*
X81376030Y-81160128D01*
X81388922Y-81195837D01*
X81388924Y-81195840D01*
X81391972Y-81204284D01*
X81397268Y-81211533D01*
X81398840Y-81214490D01*
X81407093Y-81228614D01*
X81408898Y-81231437D01*
X81412612Y-81239605D01*
X81418469Y-81246402D01*
X81418470Y-81246404D01*
X81443243Y-81275153D01*
X81449525Y-81283064D01*
X81457473Y-81293944D01*
X81468335Y-81304806D01*
X81474693Y-81311652D01*
X81506944Y-81349082D01*
X81514479Y-81353966D01*
X81521051Y-81359699D01*
X81532455Y-81368926D01*
X82111524Y-81947995D01*
X82145550Y-82010307D01*
X82147667Y-82023259D01*
X82152613Y-82068053D01*
X82155223Y-82075184D01*
X82155223Y-82075186D01*
X82195867Y-82186251D01*
X82207053Y-82216819D01*
X82295408Y-82348305D01*
X82412576Y-82454919D01*
X82551793Y-82530508D01*
X82705022Y-82570707D01*
X82704563Y-82572458D01*
X82760562Y-82597576D01*
X82767790Y-82604261D01*
X82810024Y-82646495D01*
X82844050Y-82708807D01*
X82846167Y-82721759D01*
X82851113Y-82766553D01*
X82905553Y-82915319D01*
X82909789Y-82921622D01*
X82909789Y-82921623D01*
X82974082Y-83017301D01*
X82995500Y-83087577D01*
X82995500Y-83171676D01*
X82972587Y-83244126D01*
X82918950Y-83320444D01*
X82901851Y-83364301D01*
X82883119Y-83412347D01*
X82861406Y-83468037D01*
X82860414Y-83475570D01*
X82860414Y-83475571D01*
X82843009Y-83607780D01*
X82840729Y-83625096D01*
X82849272Y-83702477D01*
X82854146Y-83746618D01*
X82858113Y-83782553D01*
X82860723Y-83789684D01*
X82860723Y-83789686D01*
X82870931Y-83817579D01*
X82912553Y-83931319D01*
X82916789Y-83937622D01*
X82916789Y-83937623D01*
X82974082Y-84022884D01*
X82995500Y-84093160D01*
X82995500Y-99210162D01*
X82975498Y-99278283D01*
X82921842Y-99324776D01*
X82851568Y-99334880D01*
X82786988Y-99305386D01*
X82780405Y-99299257D01*
X81194354Y-97713206D01*
X81186812Y-97703766D01*
X81186432Y-97704089D01*
X81180614Y-97697253D01*
X81175824Y-97689661D01*
X81135817Y-97654328D01*
X81130131Y-97648983D01*
X81118797Y-97637649D01*
X81110522Y-97631447D01*
X81102677Y-97625060D01*
X81074234Y-97599940D01*
X81067507Y-97593999D01*
X81059385Y-97590186D01*
X81056584Y-97588346D01*
X81042589Y-97579937D01*
X81039626Y-97578315D01*
X81032441Y-97572930D01*
X81024031Y-97569777D01*
X81024029Y-97569776D01*
X80988495Y-97556454D01*
X80979179Y-97552529D01*
X80936695Y-97532583D01*
X80927821Y-97531201D01*
X80924594Y-97530215D01*
X80908811Y-97526075D01*
X80905533Y-97525354D01*
X80897125Y-97522202D01*
X80883368Y-97521180D01*
X80850320Y-97518724D01*
X80840273Y-97517570D01*
X80831791Y-97516249D01*
X80831788Y-97516249D01*
X80826980Y-97515500D01*
X80811615Y-97515500D01*
X80802278Y-97515154D01*
X80786196Y-97513959D01*
X80753010Y-97511493D01*
X80744235Y-97513366D01*
X80735539Y-97513959D01*
X80720939Y-97515500D01*
X76501807Y-97515500D01*
X76433686Y-97495498D01*
X76390556Y-97448654D01*
X76382565Y-97433625D01*
X76308278Y-97342540D01*
X76255758Y-97278143D01*
X76255755Y-97278140D01*
X76251863Y-97273368D01*
X76244966Y-97267662D01*
X76097271Y-97145478D01*
X76097266Y-97145475D01*
X76092522Y-97141550D01*
X76087103Y-97138620D01*
X76087100Y-97138618D01*
X75916032Y-97046122D01*
X75916027Y-97046120D01*
X75910612Y-97043192D01*
X75713063Y-96982040D01*
X75706938Y-96981396D01*
X75706937Y-96981396D01*
X75513526Y-96961068D01*
X75513524Y-96961068D01*
X75507397Y-96960424D01*
X75381229Y-96971906D01*
X75307591Y-96978607D01*
X75307590Y-96978607D01*
X75301450Y-96979166D01*
X75103066Y-97037554D01*
X75097601Y-97040411D01*
X74925261Y-97130508D01*
X74925257Y-97130511D01*
X74919801Y-97133363D01*
X74758635Y-97262943D01*
X74625708Y-97421360D01*
X74526082Y-97602578D01*
X74463553Y-97799696D01*
X74440501Y-98005206D01*
X74457806Y-98211278D01*
X74514807Y-98410066D01*
X74517625Y-98415548D01*
X74517626Y-98415552D01*
X74606514Y-98588509D01*
X74606517Y-98588513D01*
X74609334Y-98593995D01*
X74737786Y-98756061D01*
X74895271Y-98890091D01*
X74900648Y-98893096D01*
X74900652Y-98893099D01*
X74930970Y-98910043D01*
X74980676Y-98960736D01*
X74995500Y-99020031D01*
X74995500Y-101144275D01*
X74975498Y-101212396D01*
X74921842Y-101258889D01*
X74913729Y-101262257D01*
X74870981Y-101278282D01*
X74805236Y-101302929D01*
X74798057Y-101308309D01*
X74798054Y-101308311D01*
X74710023Y-101374287D01*
X74689596Y-101389596D01*
X74684215Y-101396776D01*
X74608311Y-101498054D01*
X74608309Y-101498057D01*
X74602929Y-101505236D01*
X74552202Y-101640552D01*
X74545500Y-101702244D01*
X74545500Y-102497756D01*
X74552202Y-102559448D01*
X74602929Y-102694764D01*
X74608309Y-102701943D01*
X74608311Y-102701946D01*
X74674287Y-102789977D01*
X74689596Y-102810404D01*
X74696776Y-102815785D01*
X74798054Y-102891689D01*
X74798057Y-102891691D01*
X74805236Y-102897071D01*
X74894954Y-102930704D01*
X74933157Y-102945026D01*
X74933159Y-102945026D01*
X74940552Y-102947798D01*
X74948402Y-102948651D01*
X74948403Y-102948651D01*
X74998847Y-102954131D01*
X75002244Y-102954500D01*
X75997756Y-102954500D01*
X76001153Y-102954131D01*
X76051597Y-102948651D01*
X76051598Y-102948651D01*
X76059448Y-102947798D01*
X76066841Y-102945026D01*
X76066843Y-102945026D01*
X76105046Y-102930704D01*
X76194764Y-102897071D01*
X76201943Y-102891691D01*
X76201946Y-102891689D01*
X76303224Y-102815785D01*
X76310404Y-102810404D01*
X76325713Y-102789977D01*
X76391689Y-102701946D01*
X76391691Y-102701943D01*
X76397071Y-102694764D01*
X76447798Y-102559448D01*
X76454500Y-102497756D01*
X76454500Y-101702244D01*
X76447798Y-101640552D01*
X76397071Y-101505236D01*
X76391691Y-101498057D01*
X76391689Y-101498054D01*
X76315785Y-101396776D01*
X76310404Y-101389596D01*
X76289977Y-101374287D01*
X76201946Y-101308311D01*
X76201943Y-101308309D01*
X76194764Y-101302929D01*
X76129019Y-101278282D01*
X76086271Y-101262257D01*
X76029506Y-101219616D01*
X76004806Y-101153054D01*
X76004500Y-101144275D01*
X76004500Y-99023357D01*
X76024502Y-98955236D01*
X76062794Y-98917162D01*
X76067763Y-98914652D01*
X76072615Y-98910861D01*
X76072620Y-98910858D01*
X76149243Y-98850993D01*
X76230722Y-98787334D01*
X76234748Y-98782670D01*
X76234751Y-98782667D01*
X76361819Y-98635457D01*
X76361820Y-98635455D01*
X76365848Y-98630789D01*
X76390007Y-98588262D01*
X76441045Y-98538913D01*
X76499562Y-98524500D01*
X80526516Y-98524500D01*
X80594637Y-98544502D01*
X80615611Y-98561405D01*
X82208595Y-100154389D01*
X82242621Y-100216701D01*
X82245500Y-100243484D01*
X82245501Y-101757389D01*
X82260266Y-101831624D01*
X82316516Y-101915807D01*
X82400699Y-101972057D01*
X82474933Y-101986823D01*
X83499834Y-101986823D01*
X84525066Y-101986822D01*
X84560818Y-101979711D01*
X84587126Y-101974479D01*
X84587128Y-101974478D01*
X84599301Y-101972057D01*
X84609621Y-101965162D01*
X84609622Y-101965161D01*
X84673168Y-101922700D01*
X84683484Y-101915807D01*
X84739734Y-101831624D01*
X84754500Y-101757390D01*
X84754499Y-99707257D01*
X84739734Y-99633022D01*
X84683484Y-99548839D01*
X84599301Y-99492589D01*
X84525067Y-99477823D01*
X84130500Y-99477823D01*
X84062379Y-99457821D01*
X84015886Y-99404165D01*
X84004500Y-99351823D01*
X84004500Y-84092144D01*
X84028176Y-84018620D01*
X84077755Y-83949624D01*
X84136842Y-83802641D01*
X84149664Y-83712547D01*
X84158581Y-83649891D01*
X84158581Y-83649888D01*
X84159162Y-83645807D01*
X84159307Y-83632000D01*
X84140276Y-83474733D01*
X84084280Y-83326546D01*
X84026660Y-83242708D01*
X84004500Y-83171341D01*
X84004500Y-83066403D01*
X84028178Y-82992877D01*
X84066318Y-82939800D01*
X84066321Y-82939794D01*
X84070755Y-82933624D01*
X84073588Y-82926576D01*
X84073590Y-82926573D01*
X84127006Y-82793695D01*
X84129842Y-82786641D01*
X84152162Y-82629807D01*
X84152307Y-82616000D01*
X84150887Y-82604261D01*
X84146826Y-82570707D01*
X84133276Y-82458733D01*
X84077280Y-82310546D01*
X84017196Y-82223123D01*
X83991855Y-82186251D01*
X83991854Y-82186249D01*
X83987553Y-82179992D01*
X83869275Y-82074611D01*
X83729274Y-82000484D01*
X83721911Y-81998635D01*
X83721907Y-81998633D01*
X83578332Y-81962570D01*
X83519932Y-81929461D01*
X83477115Y-81886644D01*
X83443089Y-81824332D01*
X83441126Y-81812709D01*
X83434776Y-81760233D01*
X83378780Y-81612046D01*
X83289053Y-81481492D01*
X83170775Y-81376111D01*
X83030774Y-81301984D01*
X83023411Y-81300135D01*
X83023407Y-81300133D01*
X82879832Y-81264070D01*
X82821432Y-81230961D01*
X82383405Y-80792934D01*
X82349379Y-80730622D01*
X82346500Y-80703839D01*
X82346500Y-77163602D01*
X82346502Y-77162833D01*
X82346948Y-77089740D01*
X82346972Y-77085827D01*
X82346590Y-77084492D01*
X82346500Y-77083164D01*
X82346500Y-75981493D01*
X82360233Y-75924291D01*
X82364733Y-75915459D01*
X82413480Y-75863844D01*
X82482395Y-75846777D01*
X82549597Y-75869677D01*
X82589267Y-75915459D01*
X82593767Y-75924291D01*
X82607500Y-75981493D01*
X82607500Y-76195376D01*
X82606159Y-76207381D01*
X82606655Y-76207421D01*
X82605935Y-76216368D01*
X82603954Y-76225124D01*
X82604510Y-76234084D01*
X82607258Y-76278382D01*
X82607500Y-76286184D01*
X82607500Y-76302226D01*
X82608135Y-76306657D01*
X82608135Y-76306662D01*
X82608965Y-76312453D01*
X82609996Y-76322514D01*
X82612902Y-76369359D01*
X82615949Y-76377799D01*
X82616630Y-76381089D01*
X82620582Y-76396938D01*
X82621527Y-76400168D01*
X82622799Y-76409052D01*
X82626514Y-76417223D01*
X82642218Y-76451763D01*
X82646030Y-76461128D01*
X82658922Y-76496837D01*
X82658924Y-76496840D01*
X82661972Y-76505284D01*
X82667268Y-76512533D01*
X82668840Y-76515490D01*
X82677093Y-76529614D01*
X82678898Y-76532437D01*
X82682612Y-76540605D01*
X82688469Y-76547402D01*
X82688470Y-76547404D01*
X82713243Y-76576153D01*
X82719525Y-76584064D01*
X82727473Y-76594944D01*
X82738335Y-76605806D01*
X82744693Y-76612652D01*
X82776944Y-76650082D01*
X82784479Y-76654966D01*
X82791051Y-76660699D01*
X82802455Y-76669926D01*
X83594323Y-77461794D01*
X83601865Y-77471234D01*
X83602245Y-77470911D01*
X83608063Y-77477747D01*
X83612853Y-77485339D01*
X83619581Y-77491281D01*
X83652859Y-77520671D01*
X83658546Y-77526017D01*
X83669880Y-77537351D01*
X83673463Y-77540036D01*
X83673465Y-77540038D01*
X83678155Y-77543553D01*
X83685998Y-77549938D01*
X83721170Y-77581001D01*
X83729292Y-77584814D01*
X83732093Y-77586654D01*
X83746088Y-77595063D01*
X83749051Y-77596685D01*
X83756236Y-77602070D01*
X83764646Y-77605223D01*
X83764648Y-77605224D01*
X83800182Y-77618546D01*
X83809495Y-77622470D01*
X83851982Y-77642417D01*
X83860856Y-77643799D01*
X83864083Y-77644785D01*
X83879866Y-77648925D01*
X83883144Y-77649646D01*
X83891552Y-77652798D01*
X83905309Y-77653820D01*
X83938357Y-77656276D01*
X83948404Y-77657430D01*
X83956886Y-77658751D01*
X83956889Y-77658751D01*
X83961697Y-77659500D01*
X83977062Y-77659500D01*
X83986400Y-77659846D01*
X84035667Y-77663507D01*
X84044442Y-77661634D01*
X84053138Y-77661041D01*
X84067738Y-77659500D01*
X85021500Y-77659500D01*
X85089621Y-77679502D01*
X85136114Y-77733158D01*
X85147500Y-77785500D01*
X85147500Y-120198839D01*
X85127498Y-120266960D01*
X85110595Y-120287934D01*
X84219595Y-121178934D01*
X84157283Y-121212960D01*
X84086468Y-121207895D01*
X84029632Y-121165348D01*
X84004821Y-121098828D01*
X84004500Y-121089839D01*
X84004500Y-119961529D01*
X84024502Y-119893408D01*
X84077249Y-119847335D01*
X84129646Y-119822902D01*
X84206188Y-119769307D01*
X84304946Y-119700156D01*
X84304949Y-119700154D01*
X84309457Y-119696997D01*
X84464674Y-119541780D01*
X84590579Y-119361969D01*
X84592902Y-119356987D01*
X84592905Y-119356982D01*
X84681022Y-119168011D01*
X84683347Y-119163026D01*
X84740161Y-118950997D01*
X84759292Y-118732323D01*
X84740161Y-118513649D01*
X84683347Y-118301620D01*
X84639896Y-118208439D01*
X84592905Y-118107664D01*
X84592902Y-118107659D01*
X84590579Y-118102677D01*
X84482132Y-117947798D01*
X84467833Y-117927377D01*
X84467831Y-117927374D01*
X84464674Y-117922866D01*
X84309457Y-117767649D01*
X84304949Y-117764492D01*
X84304946Y-117764490D01*
X84134155Y-117644901D01*
X84134153Y-117644900D01*
X84129646Y-117641744D01*
X84124664Y-117639421D01*
X84124659Y-117639418D01*
X83953160Y-117559448D01*
X83930703Y-117548976D01*
X83718674Y-117492162D01*
X83500000Y-117473031D01*
X83281326Y-117492162D01*
X83069297Y-117548976D01*
X83046840Y-117559448D01*
X82875341Y-117639418D01*
X82875336Y-117639421D01*
X82870354Y-117641744D01*
X82865847Y-117644900D01*
X82865845Y-117644901D01*
X82695054Y-117764490D01*
X82695051Y-117764492D01*
X82690543Y-117767649D01*
X82535326Y-117922866D01*
X82532169Y-117927374D01*
X82532167Y-117927377D01*
X82517868Y-117947798D01*
X82409421Y-118102677D01*
X82407098Y-118107659D01*
X82407095Y-118107664D01*
X82360104Y-118208439D01*
X82316653Y-118301620D01*
X82259839Y-118513649D01*
X82240708Y-118732323D01*
X82259839Y-118950997D01*
X82316653Y-119163026D01*
X82318978Y-119168011D01*
X82407095Y-119356982D01*
X82407098Y-119356987D01*
X82409421Y-119361969D01*
X82535326Y-119541780D01*
X82690543Y-119696997D01*
X82695051Y-119700154D01*
X82695054Y-119700156D01*
X82793812Y-119769307D01*
X82870354Y-119822902D01*
X82922751Y-119847335D01*
X82976035Y-119894251D01*
X82995500Y-119961529D01*
X82995500Y-121981500D01*
X82975498Y-122049621D01*
X82921842Y-122096114D01*
X82869500Y-122107500D01*
X76367678Y-122107500D01*
X76299557Y-122087498D01*
X76253064Y-122033842D01*
X76242960Y-121963568D01*
X76272297Y-121899169D01*
X76361819Y-121795457D01*
X76361820Y-121795455D01*
X76365848Y-121790789D01*
X76467995Y-121610979D01*
X76533270Y-121414753D01*
X76559189Y-121209586D01*
X76559602Y-121180000D01*
X76539422Y-120974189D01*
X76479651Y-120776217D01*
X76382565Y-120593625D01*
X76378674Y-120588855D01*
X76378672Y-120588851D01*
X76255758Y-120438143D01*
X76255755Y-120438140D01*
X76251863Y-120433368D01*
X76244966Y-120427662D01*
X76097271Y-120305478D01*
X76097266Y-120305475D01*
X76092522Y-120301550D01*
X76087102Y-120298620D01*
X76087097Y-120298616D01*
X76070573Y-120289682D01*
X76020163Y-120239688D01*
X76004500Y-120178846D01*
X76004500Y-118055725D01*
X76024502Y-117987604D01*
X76078158Y-117941111D01*
X76086271Y-117937743D01*
X76136350Y-117918969D01*
X76194764Y-117897071D01*
X76201943Y-117891691D01*
X76201946Y-117891689D01*
X76303224Y-117815785D01*
X76310404Y-117810404D01*
X76342447Y-117767649D01*
X76391689Y-117701946D01*
X76391691Y-117701943D01*
X76397071Y-117694764D01*
X76447798Y-117559448D01*
X76454500Y-117497756D01*
X76454500Y-116702244D01*
X76447798Y-116640552D01*
X76397071Y-116505236D01*
X76391691Y-116498057D01*
X76391689Y-116498054D01*
X76315785Y-116396776D01*
X76310404Y-116389596D01*
X76289977Y-116374287D01*
X76201946Y-116308311D01*
X76201943Y-116308309D01*
X76194764Y-116302929D01*
X76105046Y-116269296D01*
X76066843Y-116254974D01*
X76066841Y-116254974D01*
X76059448Y-116252202D01*
X76051598Y-116251349D01*
X76051597Y-116251349D01*
X76001153Y-116245869D01*
X76001152Y-116245869D01*
X75997756Y-116245500D01*
X75002244Y-116245500D01*
X74998848Y-116245869D01*
X74998847Y-116245869D01*
X74948403Y-116251349D01*
X74948402Y-116251349D01*
X74940552Y-116252202D01*
X74933159Y-116254974D01*
X74933157Y-116254974D01*
X74894954Y-116269296D01*
X74805236Y-116302929D01*
X74798057Y-116308309D01*
X74798054Y-116308311D01*
X74710023Y-116374287D01*
X74689596Y-116389596D01*
X74684215Y-116396776D01*
X74608311Y-116498054D01*
X74608309Y-116498057D01*
X74602929Y-116505236D01*
X74552202Y-116640552D01*
X74545500Y-116702244D01*
X74545500Y-117497756D01*
X74552202Y-117559448D01*
X74602929Y-117694764D01*
X74608309Y-117701943D01*
X74608311Y-117701946D01*
X74657553Y-117767649D01*
X74689596Y-117810404D01*
X74696776Y-117815785D01*
X74798054Y-117891689D01*
X74798057Y-117891691D01*
X74805236Y-117897071D01*
X74863650Y-117918969D01*
X74913729Y-117937743D01*
X74970494Y-117980384D01*
X74995194Y-118046946D01*
X74995500Y-118055725D01*
X74995500Y-120177480D01*
X74975498Y-120245601D01*
X74930287Y-120286939D01*
X74930416Y-120287136D01*
X74929205Y-120287928D01*
X74927881Y-120289139D01*
X74919801Y-120293363D01*
X74758635Y-120422943D01*
X74625708Y-120581360D01*
X74526082Y-120762578D01*
X74463553Y-120959696D01*
X74462867Y-120965813D01*
X74462866Y-120965817D01*
X74441188Y-121159081D01*
X74440501Y-121165206D01*
X74457806Y-121371278D01*
X74514807Y-121570066D01*
X74517625Y-121575548D01*
X74517626Y-121575552D01*
X74606514Y-121748509D01*
X74606517Y-121748513D01*
X74609334Y-121753995D01*
X74737786Y-121916061D01*
X74742479Y-121920055D01*
X74742480Y-121920056D01*
X74793607Y-121963568D01*
X74895271Y-122050091D01*
X74900648Y-122053096D01*
X74900652Y-122053099D01*
X74930970Y-122070043D01*
X74980676Y-122120736D01*
X74995500Y-122180031D01*
X74995500Y-122526376D01*
X74994159Y-122538381D01*
X74994655Y-122538421D01*
X74993935Y-122547368D01*
X74991954Y-122556124D01*
X74992510Y-122565084D01*
X74995258Y-122609382D01*
X74995500Y-122617184D01*
X74995500Y-123017480D01*
X74975498Y-123085601D01*
X74930287Y-123126939D01*
X74930416Y-123127136D01*
X74929205Y-123127928D01*
X74927881Y-123129139D01*
X74919801Y-123133363D01*
X74758635Y-123262943D01*
X74625708Y-123421360D01*
X74526082Y-123602578D01*
X74463553Y-123799696D01*
X74440501Y-124005206D01*
X74457806Y-124211278D01*
X74514807Y-124410066D01*
X74517625Y-124415548D01*
X74517626Y-124415552D01*
X74606514Y-124588509D01*
X74606517Y-124588513D01*
X74609334Y-124593995D01*
X74737786Y-124756061D01*
X74895271Y-124890091D01*
X74900648Y-124893096D01*
X74900652Y-124893099D01*
X74930970Y-124910043D01*
X74980676Y-124960736D01*
X74995500Y-125020031D01*
X74995500Y-127144275D01*
X74975498Y-127212396D01*
X74921842Y-127258889D01*
X74913729Y-127262257D01*
X74870981Y-127278282D01*
X74805236Y-127302929D01*
X74798057Y-127308309D01*
X74798054Y-127308311D01*
X74710023Y-127374287D01*
X74689596Y-127389596D01*
X74684215Y-127396776D01*
X74608311Y-127498054D01*
X74608309Y-127498057D01*
X74602929Y-127505236D01*
X74552202Y-127640552D01*
X74545500Y-127702244D01*
X74545500Y-128497756D01*
X74545869Y-128501152D01*
X74545869Y-128501153D01*
X74546955Y-128511145D01*
X74552202Y-128559448D01*
X74602929Y-128694764D01*
X74608309Y-128701943D01*
X74608311Y-128701946D01*
X74674287Y-128789977D01*
X74689596Y-128810404D01*
X74696776Y-128815785D01*
X74798054Y-128891689D01*
X74798057Y-128891691D01*
X74805236Y-128897071D01*
X74894954Y-128930704D01*
X74933157Y-128945026D01*
X74933159Y-128945026D01*
X74940552Y-128947798D01*
X74948402Y-128948651D01*
X74948403Y-128948651D01*
X74998847Y-128954131D01*
X75002244Y-128954500D01*
X75997756Y-128954500D01*
X76001153Y-128954131D01*
X76051597Y-128948651D01*
X76051598Y-128948651D01*
X76059448Y-128947798D01*
X76066841Y-128945026D01*
X76066843Y-128945026D01*
X76105046Y-128930704D01*
X76194764Y-128897071D01*
X76201943Y-128891691D01*
X76201946Y-128891689D01*
X76303224Y-128815785D01*
X76310404Y-128810404D01*
X76325713Y-128789977D01*
X76391689Y-128701946D01*
X76391691Y-128701943D01*
X76397071Y-128694764D01*
X76447798Y-128559448D01*
X76453046Y-128511145D01*
X76454131Y-128501153D01*
X76454131Y-128501152D01*
X76454500Y-128497756D01*
X76454500Y-127702244D01*
X76447798Y-127640552D01*
X76397071Y-127505236D01*
X76391691Y-127498057D01*
X76391689Y-127498054D01*
X76315785Y-127396776D01*
X76310404Y-127389596D01*
X76289977Y-127374287D01*
X76201946Y-127308311D01*
X76201943Y-127308309D01*
X76194764Y-127302929D01*
X76129019Y-127278282D01*
X76086271Y-127262257D01*
X76029506Y-127219616D01*
X76004806Y-127153054D01*
X76004500Y-127144275D01*
X76004500Y-125023357D01*
X76024502Y-124955236D01*
X76062794Y-124917162D01*
X76067763Y-124914652D01*
X76072615Y-124910861D01*
X76072620Y-124910858D01*
X76149243Y-124850993D01*
X76230722Y-124787334D01*
X76234748Y-124782670D01*
X76234751Y-124782667D01*
X76361819Y-124635457D01*
X76361820Y-124635455D01*
X76365848Y-124630789D01*
X76467995Y-124450979D01*
X76533270Y-124254753D01*
X76559189Y-124049586D01*
X76559602Y-124020000D01*
X76539422Y-123814189D01*
X76479651Y-123616217D01*
X76382565Y-123433625D01*
X76378674Y-123428855D01*
X76378672Y-123428851D01*
X76291637Y-123322136D01*
X76264083Y-123256704D01*
X76276279Y-123186763D01*
X76324351Y-123134517D01*
X76389280Y-123116500D01*
X82869500Y-123116500D01*
X82937621Y-123136502D01*
X82984114Y-123190158D01*
X82995500Y-123242500D01*
X82995500Y-125351824D01*
X82975498Y-125419945D01*
X82921842Y-125466438D01*
X82869500Y-125477824D01*
X82474934Y-125477824D01*
X82439182Y-125484935D01*
X82412874Y-125490167D01*
X82412872Y-125490168D01*
X82400699Y-125492589D01*
X82390379Y-125499484D01*
X82390378Y-125499485D01*
X82329985Y-125539839D01*
X82316516Y-125548839D01*
X82260266Y-125633022D01*
X82245500Y-125707256D01*
X82245501Y-127757389D01*
X82260266Y-127831624D01*
X82316516Y-127915807D01*
X82400699Y-127972057D01*
X82474933Y-127986823D01*
X83499834Y-127986823D01*
X84525066Y-127986822D01*
X84560818Y-127979711D01*
X84587126Y-127974479D01*
X84587128Y-127974478D01*
X84599301Y-127972057D01*
X84609621Y-127965162D01*
X84609622Y-127965161D01*
X84673168Y-127922700D01*
X84683484Y-127915807D01*
X84739734Y-127831624D01*
X84754500Y-127757390D01*
X84754499Y-125707257D01*
X84739734Y-125633022D01*
X84683484Y-125548839D01*
X84599301Y-125492589D01*
X84525067Y-125477823D01*
X84130500Y-125477823D01*
X84062379Y-125457821D01*
X84015886Y-125404165D01*
X84004500Y-125351823D01*
X84004500Y-122873161D01*
X84024502Y-122805040D01*
X84041405Y-122784066D01*
X85958792Y-120866678D01*
X85968235Y-120859133D01*
X85967912Y-120858754D01*
X85974745Y-120852938D01*
X85982339Y-120848147D01*
X85988283Y-120841417D01*
X85988285Y-120841415D01*
X86017678Y-120808134D01*
X86023024Y-120802446D01*
X86034351Y-120791119D01*
X86040550Y-120782848D01*
X86046937Y-120775003D01*
X86052724Y-120768451D01*
X86078001Y-120739830D01*
X86081816Y-120731703D01*
X86083669Y-120728883D01*
X86092067Y-120714906D01*
X86093686Y-120711949D01*
X86099071Y-120704764D01*
X86102225Y-120696352D01*
X86115551Y-120660807D01*
X86119476Y-120651491D01*
X86135602Y-120617143D01*
X86139417Y-120609018D01*
X86140798Y-120600146D01*
X86141786Y-120596916D01*
X86145924Y-120581145D01*
X86146647Y-120577856D01*
X86149799Y-120569448D01*
X86153277Y-120522641D01*
X86154431Y-120512593D01*
X86155750Y-120504120D01*
X86155750Y-120504119D01*
X86156500Y-120499303D01*
X86156500Y-120483951D01*
X86156846Y-120474614D01*
X86159843Y-120434281D01*
X86160508Y-120425333D01*
X86158634Y-120416556D01*
X86158042Y-120407867D01*
X86156500Y-120393258D01*
X86156500Y-77785500D01*
X86176502Y-77717379D01*
X86230158Y-77670886D01*
X86282500Y-77659500D01*
X87867376Y-77659500D01*
X87879381Y-77660841D01*
X87879421Y-77660345D01*
X87888368Y-77661065D01*
X87897124Y-77663046D01*
X87950382Y-77659742D01*
X87958184Y-77659500D01*
X87974226Y-77659500D01*
X87978657Y-77658865D01*
X87978662Y-77658865D01*
X87982687Y-77658288D01*
X87984457Y-77658035D01*
X87994514Y-77657004D01*
X88016976Y-77655611D01*
X88032400Y-77654654D01*
X88032402Y-77654654D01*
X88041359Y-77654098D01*
X88049799Y-77651051D01*
X88053089Y-77650370D01*
X88068938Y-77646418D01*
X88072168Y-77645473D01*
X88081052Y-77644201D01*
X88096272Y-77637281D01*
X88123763Y-77624782D01*
X88133128Y-77620970D01*
X88168837Y-77608078D01*
X88168840Y-77608076D01*
X88177284Y-77605028D01*
X88184533Y-77599732D01*
X88187490Y-77598160D01*
X88201614Y-77589907D01*
X88204437Y-77588102D01*
X88212605Y-77584388D01*
X88219402Y-77578531D01*
X88219404Y-77578530D01*
X88248153Y-77553757D01*
X88256064Y-77547475D01*
X88266944Y-77539527D01*
X88277806Y-77528665D01*
X88284653Y-77522307D01*
X88315282Y-77495915D01*
X88322082Y-77490056D01*
X88326966Y-77482521D01*
X88332699Y-77475949D01*
X88341926Y-77464545D01*
X88752794Y-77053677D01*
X88762234Y-77046135D01*
X88761911Y-77045755D01*
X88768747Y-77039937D01*
X88776339Y-77035147D01*
X88792029Y-77017382D01*
X88811671Y-76995141D01*
X88817017Y-76989454D01*
X88828351Y-76978120D01*
X88831038Y-76974534D01*
X88831043Y-76974529D01*
X88834557Y-76969841D01*
X88840938Y-76962003D01*
X88866060Y-76933557D01*
X88872001Y-76926830D01*
X88875815Y-76918707D01*
X88877661Y-76915896D01*
X88886072Y-76901897D01*
X88887686Y-76898948D01*
X88893070Y-76891765D01*
X88909542Y-76847826D01*
X88913469Y-76838506D01*
X88929602Y-76804144D01*
X88929602Y-76804143D01*
X88933417Y-76796018D01*
X88934798Y-76787147D01*
X88935783Y-76783925D01*
X88939920Y-76768154D01*
X88940644Y-76764860D01*
X88943798Y-76756448D01*
X88947276Y-76709650D01*
X88948426Y-76699626D01*
X88950500Y-76686303D01*
X88950500Y-76670938D01*
X88950846Y-76661601D01*
X88953842Y-76621282D01*
X88954507Y-76612334D01*
X88952634Y-76603559D01*
X88952041Y-76594863D01*
X88950500Y-76580263D01*
X88950500Y-73923630D01*
X88951842Y-73911622D01*
X88951346Y-73911582D01*
X88952066Y-73902631D01*
X88954047Y-73893877D01*
X88951397Y-73851161D01*
X88950742Y-73840607D01*
X88950500Y-73832805D01*
X88950500Y-73816774D01*
X88949035Y-73806541D01*
X88948004Y-73796481D01*
X88947948Y-73795566D01*
X88945098Y-73749642D01*
X88942050Y-73741199D01*
X88941371Y-73737920D01*
X88937416Y-73722055D01*
X88936473Y-73718831D01*
X88935201Y-73709948D01*
X88931487Y-73701779D01*
X88931485Y-73701773D01*
X88915775Y-73667221D01*
X88911961Y-73657852D01*
X88899077Y-73622163D01*
X88896028Y-73613716D01*
X88890731Y-73606466D01*
X88889154Y-73603499D01*
X88880907Y-73589386D01*
X88879102Y-73586563D01*
X88875388Y-73578395D01*
X88867107Y-73568784D01*
X88844757Y-73542847D01*
X88838475Y-73534936D01*
X88830527Y-73524056D01*
X88819665Y-73513194D01*
X88813307Y-73506347D01*
X88794722Y-73484778D01*
X88781056Y-73468918D01*
X88773521Y-73464034D01*
X88766949Y-73458301D01*
X88755545Y-73449074D01*
X86732066Y-71425595D01*
X86698040Y-71363283D01*
X86703105Y-71292468D01*
X86745652Y-71235632D01*
X86812172Y-71210821D01*
X86821161Y-71210500D01*
X87103834Y-71210500D01*
X87198555Y-71195498D01*
X87312723Y-71137326D01*
X87403326Y-71046723D01*
X87461498Y-70932555D01*
X87476500Y-70837834D01*
X87476500Y-70611500D01*
X87496502Y-70543379D01*
X87550158Y-70496886D01*
X87602500Y-70485500D01*
X89212500Y-70485500D01*
X89280621Y-70505502D01*
X89327114Y-70559158D01*
X89338500Y-70611500D01*
X89338500Y-77401839D01*
X89318498Y-77469960D01*
X89301595Y-77490934D01*
X86615206Y-80177323D01*
X86605766Y-80184865D01*
X86606089Y-80185245D01*
X86599253Y-80191063D01*
X86591661Y-80195853D01*
X86585719Y-80202581D01*
X86556329Y-80235859D01*
X86550983Y-80241546D01*
X86539649Y-80252880D01*
X86536964Y-80256463D01*
X86536962Y-80256465D01*
X86533447Y-80261155D01*
X86527062Y-80268998D01*
X86495999Y-80304170D01*
X86492186Y-80312292D01*
X86490346Y-80315093D01*
X86481937Y-80329088D01*
X86480315Y-80332051D01*
X86474930Y-80339236D01*
X86471777Y-80347646D01*
X86471776Y-80347648D01*
X86458454Y-80383182D01*
X86454530Y-80392495D01*
X86434583Y-80434982D01*
X86433201Y-80443856D01*
X86432215Y-80447083D01*
X86428075Y-80462866D01*
X86427354Y-80466144D01*
X86424202Y-80474552D01*
X86423537Y-80483503D01*
X86420724Y-80521357D01*
X86419570Y-80531404D01*
X86417500Y-80544697D01*
X86417500Y-80560062D01*
X86417154Y-80569399D01*
X86413493Y-80618667D01*
X86415366Y-80627442D01*
X86415959Y-80636138D01*
X86417500Y-80650738D01*
X86417500Y-128049162D01*
X86397498Y-128117283D01*
X86380595Y-128138257D01*
X84013038Y-130505814D01*
X83950726Y-130539840D01*
X83891331Y-130538426D01*
X83752228Y-130501153D01*
X83718674Y-130492162D01*
X83500000Y-130473031D01*
X83281326Y-130492162D01*
X83069297Y-130548976D01*
X83046840Y-130559448D01*
X82875341Y-130639418D01*
X82875336Y-130639421D01*
X82870354Y-130641744D01*
X82865847Y-130644900D01*
X82865845Y-130644901D01*
X82695054Y-130764490D01*
X82695051Y-130764492D01*
X82690543Y-130767649D01*
X82535326Y-130922866D01*
X82532169Y-130927374D01*
X82532167Y-130927377D01*
X82517868Y-130947798D01*
X82409421Y-131102677D01*
X82407099Y-131107657D01*
X82384989Y-131155073D01*
X82338072Y-131208358D01*
X82270794Y-131227823D01*
X80938301Y-131227823D01*
X80926296Y-131226482D01*
X80926256Y-131226978D01*
X80917309Y-131226258D01*
X80908553Y-131224277D01*
X80865015Y-131226978D01*
X80855295Y-131227581D01*
X80847493Y-131227823D01*
X80831451Y-131227823D01*
X80827020Y-131228458D01*
X80827015Y-131228458D01*
X80822990Y-131229035D01*
X80821220Y-131229288D01*
X80811163Y-131230319D01*
X80788701Y-131231712D01*
X80773277Y-131232669D01*
X80773275Y-131232669D01*
X80764318Y-131233225D01*
X80755878Y-131236272D01*
X80752588Y-131236953D01*
X80736739Y-131240905D01*
X80733509Y-131241850D01*
X80724625Y-131243122D01*
X80681899Y-131262548D01*
X80672537Y-131266359D01*
X80636835Y-131279248D01*
X80636834Y-131279249D01*
X80628393Y-131282296D01*
X80621144Y-131287592D01*
X80618163Y-131289177D01*
X80604085Y-131297403D01*
X80601246Y-131299219D01*
X80593072Y-131302935D01*
X80586268Y-131308798D01*
X80557525Y-131333565D01*
X80549607Y-131339853D01*
X80538733Y-131347796D01*
X80527871Y-131358658D01*
X80521025Y-131365016D01*
X80483595Y-131397267D01*
X80478711Y-131404802D01*
X80472978Y-131411374D01*
X80463751Y-131422778D01*
X78247934Y-133638595D01*
X78185622Y-133672621D01*
X78158839Y-133675500D01*
X76501807Y-133675500D01*
X76433686Y-133655498D01*
X76390556Y-133608654D01*
X76382565Y-133593625D01*
X76333784Y-133533813D01*
X76255758Y-133438143D01*
X76255755Y-133438140D01*
X76251863Y-133433368D01*
X76244966Y-133427662D01*
X76097271Y-133305478D01*
X76097266Y-133305475D01*
X76092522Y-133301550D01*
X76087102Y-133298620D01*
X76087097Y-133298616D01*
X76070573Y-133289682D01*
X76020163Y-133239688D01*
X76004500Y-133178846D01*
X76004500Y-131055725D01*
X76024502Y-130987604D01*
X76078158Y-130941111D01*
X76086271Y-130937743D01*
X76136350Y-130918969D01*
X76194764Y-130897071D01*
X76201943Y-130891691D01*
X76201946Y-130891689D01*
X76303224Y-130815785D01*
X76310404Y-130810404D01*
X76342447Y-130767649D01*
X76391689Y-130701946D01*
X76391691Y-130701943D01*
X76397071Y-130694764D01*
X76447798Y-130559448D01*
X76454500Y-130497756D01*
X76454500Y-129702244D01*
X76447798Y-129640552D01*
X76397071Y-129505236D01*
X76391691Y-129498057D01*
X76391689Y-129498054D01*
X76315785Y-129396776D01*
X76310404Y-129389596D01*
X76289977Y-129374287D01*
X76201946Y-129308311D01*
X76201943Y-129308309D01*
X76194764Y-129302929D01*
X76105046Y-129269296D01*
X76066843Y-129254974D01*
X76066841Y-129254974D01*
X76059448Y-129252202D01*
X76051598Y-129251349D01*
X76051597Y-129251349D01*
X76001153Y-129245869D01*
X76001152Y-129245869D01*
X75997756Y-129245500D01*
X75002244Y-129245500D01*
X74998848Y-129245869D01*
X74998847Y-129245869D01*
X74948403Y-129251349D01*
X74948402Y-129251349D01*
X74940552Y-129252202D01*
X74933159Y-129254974D01*
X74933157Y-129254974D01*
X74894954Y-129269296D01*
X74805236Y-129302929D01*
X74798057Y-129308309D01*
X74798054Y-129308311D01*
X74710023Y-129374287D01*
X74689596Y-129389596D01*
X74684215Y-129396776D01*
X74608311Y-129498054D01*
X74608309Y-129498057D01*
X74602929Y-129505236D01*
X74552202Y-129640552D01*
X74545500Y-129702244D01*
X74545500Y-130497756D01*
X74552202Y-130559448D01*
X74602929Y-130694764D01*
X74608309Y-130701943D01*
X74608311Y-130701946D01*
X74657553Y-130767649D01*
X74689596Y-130810404D01*
X74696776Y-130815785D01*
X74798054Y-130891689D01*
X74798057Y-130891691D01*
X74805236Y-130897071D01*
X74863650Y-130918969D01*
X74913729Y-130937743D01*
X74970494Y-130980384D01*
X74995194Y-131046946D01*
X74995500Y-131055725D01*
X74995500Y-133177480D01*
X74975498Y-133245601D01*
X74930287Y-133286939D01*
X74930416Y-133287136D01*
X74929205Y-133287928D01*
X74927881Y-133289139D01*
X74919801Y-133293363D01*
X74758635Y-133422943D01*
X74625708Y-133581360D01*
X74526082Y-133762578D01*
X74463553Y-133959696D01*
X74440501Y-134165206D01*
X74457806Y-134371278D01*
X74514807Y-134570066D01*
X74517625Y-134575548D01*
X74517626Y-134575552D01*
X74606514Y-134748509D01*
X74606517Y-134748513D01*
X74609334Y-134753995D01*
X74737786Y-134916061D01*
X74895271Y-135050091D01*
X75075789Y-135150980D01*
X75272466Y-135214884D01*
X75477809Y-135239370D01*
X75483944Y-135238898D01*
X75483946Y-135238898D01*
X75677856Y-135223977D01*
X75677860Y-135223976D01*
X75683998Y-135223504D01*
X75883178Y-135167892D01*
X75888682Y-135165112D01*
X75888684Y-135165111D01*
X76062262Y-135077431D01*
X76062264Y-135077430D01*
X76067763Y-135074652D01*
X76230722Y-134947334D01*
X76234748Y-134942670D01*
X76234751Y-134942667D01*
X76361819Y-134795457D01*
X76361820Y-134795455D01*
X76365848Y-134790789D01*
X76390007Y-134748262D01*
X76441045Y-134698913D01*
X76499562Y-134684500D01*
X78349376Y-134684500D01*
X78361381Y-134685841D01*
X78361421Y-134685345D01*
X78370368Y-134686065D01*
X78379124Y-134688046D01*
X78432382Y-134684742D01*
X78440184Y-134684500D01*
X78456226Y-134684500D01*
X78460657Y-134683865D01*
X78460662Y-134683865D01*
X78464687Y-134683288D01*
X78466457Y-134683035D01*
X78476514Y-134682004D01*
X78498976Y-134680611D01*
X78514400Y-134679654D01*
X78514402Y-134679654D01*
X78523359Y-134679098D01*
X78531799Y-134676051D01*
X78535089Y-134675370D01*
X78550938Y-134671418D01*
X78554168Y-134670473D01*
X78563052Y-134669201D01*
X78605763Y-134649782D01*
X78615128Y-134645970D01*
X78650837Y-134633078D01*
X78650840Y-134633076D01*
X78659284Y-134630028D01*
X78666533Y-134624732D01*
X78669490Y-134623160D01*
X78683614Y-134614907D01*
X78686437Y-134613102D01*
X78694605Y-134609388D01*
X78701402Y-134603531D01*
X78701404Y-134603530D01*
X78730153Y-134578757D01*
X78738064Y-134572475D01*
X78748944Y-134564527D01*
X78759806Y-134553665D01*
X78766653Y-134547307D01*
X78797282Y-134520915D01*
X78804082Y-134515056D01*
X78808966Y-134507521D01*
X78814699Y-134500949D01*
X78823926Y-134489545D01*
X81039743Y-132273728D01*
X81102055Y-132239702D01*
X81128838Y-132236823D01*
X82270794Y-132236823D01*
X82338915Y-132256825D01*
X82384988Y-132309572D01*
X82409421Y-132361969D01*
X82535326Y-132541780D01*
X82690543Y-132696997D01*
X82695051Y-132700154D01*
X82695054Y-132700156D01*
X82865845Y-132819745D01*
X82870354Y-132822902D01*
X82875336Y-132825225D01*
X82875341Y-132825228D01*
X82976116Y-132872219D01*
X83069297Y-132915670D01*
X83281326Y-132972484D01*
X83500000Y-132991615D01*
X83718674Y-132972484D01*
X83930703Y-132915670D01*
X84023884Y-132872219D01*
X84124659Y-132825228D01*
X84124664Y-132825225D01*
X84129646Y-132822902D01*
X84134155Y-132819745D01*
X84304946Y-132700156D01*
X84304949Y-132700154D01*
X84309457Y-132696997D01*
X84464674Y-132541780D01*
X84590579Y-132361969D01*
X84592902Y-132356987D01*
X84592905Y-132356982D01*
X84681022Y-132168011D01*
X84683347Y-132163026D01*
X84740161Y-131950997D01*
X84759292Y-131732323D01*
X84740161Y-131513649D01*
X84693897Y-131340992D01*
X84695587Y-131270015D01*
X84726509Y-131219285D01*
X87228794Y-128717000D01*
X87238234Y-128709458D01*
X87237911Y-128709078D01*
X87244747Y-128703260D01*
X87252339Y-128698470D01*
X87287672Y-128658463D01*
X87293017Y-128652777D01*
X87304351Y-128641443D01*
X87307038Y-128637857D01*
X87307043Y-128637852D01*
X87310557Y-128633164D01*
X87316938Y-128625326D01*
X87342058Y-128596882D01*
X87348001Y-128590153D01*
X87351816Y-128582028D01*
X87353669Y-128579207D01*
X87362077Y-128565211D01*
X87363686Y-128562273D01*
X87369071Y-128555087D01*
X87385544Y-128511145D01*
X87389471Y-128501824D01*
X87392986Y-128494339D01*
X87409417Y-128459341D01*
X87410798Y-128450470D01*
X87411783Y-128447248D01*
X87415925Y-128431457D01*
X87416646Y-128428179D01*
X87419798Y-128419771D01*
X87423276Y-128372966D01*
X87424430Y-128362919D01*
X87425751Y-128354437D01*
X87425751Y-128354434D01*
X87426500Y-128349626D01*
X87426500Y-128334261D01*
X87426846Y-128324924D01*
X87429842Y-128284604D01*
X87430507Y-128275656D01*
X87428634Y-128266881D01*
X87428041Y-128258185D01*
X87426500Y-128243585D01*
X87426500Y-80845161D01*
X87446502Y-80777040D01*
X87463405Y-80756066D01*
X90149794Y-78069677D01*
X90159234Y-78062135D01*
X90158911Y-78061755D01*
X90165747Y-78055937D01*
X90173339Y-78051147D01*
X90208672Y-78011140D01*
X90214017Y-78005454D01*
X90225351Y-77994120D01*
X90228038Y-77990534D01*
X90228043Y-77990529D01*
X90231557Y-77985841D01*
X90237938Y-77978003D01*
X90263058Y-77949559D01*
X90269001Y-77942830D01*
X90272816Y-77934705D01*
X90274669Y-77931884D01*
X90283077Y-77917888D01*
X90284686Y-77914950D01*
X90290071Y-77907764D01*
X90306544Y-77863822D01*
X90310471Y-77854501D01*
X90326602Y-77820144D01*
X90326602Y-77820143D01*
X90330417Y-77812018D01*
X90331798Y-77803147D01*
X90332783Y-77799925D01*
X90336925Y-77784134D01*
X90337646Y-77780856D01*
X90340798Y-77772448D01*
X90341820Y-77758691D01*
X90344276Y-77725643D01*
X90345430Y-77715596D01*
X90346751Y-77707114D01*
X90346751Y-77707111D01*
X90347500Y-77702303D01*
X90347500Y-77686938D01*
X90347846Y-77677601D01*
X90350842Y-77637281D01*
X90351507Y-77628333D01*
X90349634Y-77619558D01*
X90349041Y-77610862D01*
X90347500Y-77596262D01*
X90347500Y-70611500D01*
X90367502Y-70543379D01*
X90421158Y-70496886D01*
X90473500Y-70485500D01*
X141015376Y-70485500D01*
X141027381Y-70486841D01*
X141027421Y-70486345D01*
X141036368Y-70487065D01*
X141045124Y-70489046D01*
X141098382Y-70485742D01*
X141106184Y-70485500D01*
X141122226Y-70485500D01*
X141126657Y-70484865D01*
X141126662Y-70484865D01*
X141130687Y-70484288D01*
X141132457Y-70484035D01*
X141142514Y-70483004D01*
X141164976Y-70481611D01*
X141180400Y-70480654D01*
X141180402Y-70480654D01*
X141189359Y-70480098D01*
X141197799Y-70477051D01*
X141201089Y-70476370D01*
X141216938Y-70472418D01*
X141220168Y-70471473D01*
X141229052Y-70470201D01*
X141271763Y-70450782D01*
X141281128Y-70446970D01*
X141316837Y-70434078D01*
X141316840Y-70434076D01*
X141325284Y-70431028D01*
X141332533Y-70425732D01*
X141335490Y-70424160D01*
X141349614Y-70415907D01*
X141352437Y-70414102D01*
X141360605Y-70410388D01*
X141367402Y-70404531D01*
X141367404Y-70404530D01*
X141396153Y-70379757D01*
X141404064Y-70373475D01*
X141414944Y-70365527D01*
X141425806Y-70354665D01*
X141432653Y-70348307D01*
X141463282Y-70321915D01*
X141470082Y-70316056D01*
X141474966Y-70308521D01*
X141480699Y-70301949D01*
X141489926Y-70290545D01*
X142830834Y-68949637D01*
X142891800Y-68915912D01*
X143017927Y-68887025D01*
X143025332Y-68885329D01*
X143095742Y-68849917D01*
X143160072Y-68817563D01*
X143160075Y-68817561D01*
X143166855Y-68814151D01*
X143183789Y-68799688D01*
X143248579Y-68770658D01*
X143265619Y-68769500D01*
X143351153Y-68769500D01*
X143419274Y-68789502D01*
X143424068Y-68793185D01*
X143424266Y-68792907D01*
X143430459Y-68797308D01*
X143436076Y-68802419D01*
X143575293Y-68878008D01*
X143728522Y-68918207D01*
X143812477Y-68919526D01*
X143879319Y-68920576D01*
X143879322Y-68920576D01*
X143886916Y-68920695D01*
X144041332Y-68885329D01*
X144111742Y-68849917D01*
X144176072Y-68817563D01*
X144176075Y-68817561D01*
X144182855Y-68814151D01*
X144199789Y-68799688D01*
X144264579Y-68770658D01*
X144281619Y-68769500D01*
X144367153Y-68769500D01*
X144435274Y-68789502D01*
X144440068Y-68793185D01*
X144440266Y-68792907D01*
X144446459Y-68797308D01*
X144452076Y-68802419D01*
X144591293Y-68878008D01*
X144744522Y-68918207D01*
X144828477Y-68919526D01*
X144895319Y-68920576D01*
X144895322Y-68920576D01*
X144902916Y-68920695D01*
X145057332Y-68885329D01*
X145127742Y-68849917D01*
X145192072Y-68817563D01*
X145192075Y-68817561D01*
X145198855Y-68814151D01*
X145204626Y-68809222D01*
X145204629Y-68809220D01*
X145313536Y-68716204D01*
X145313536Y-68716203D01*
X145319314Y-68711269D01*
X145411755Y-68582624D01*
X145470842Y-68435641D01*
X145486275Y-68327201D01*
X145492581Y-68282891D01*
X145492581Y-68282888D01*
X145493162Y-68278807D01*
X145493307Y-68265000D01*
X145491159Y-68247245D01*
X145486468Y-68208481D01*
X145474276Y-68107733D01*
X145418280Y-67959546D01*
X145402136Y-67936056D01*
X145332855Y-67835251D01*
X145332854Y-67835249D01*
X145328553Y-67828992D01*
X145210275Y-67723611D01*
X145202889Y-67719700D01*
X145155024Y-67694357D01*
X145070274Y-67649484D01*
X144916633Y-67610892D01*
X144909034Y-67610852D01*
X144909033Y-67610852D01*
X144843181Y-67610507D01*
X144758221Y-67610062D01*
X144750841Y-67611834D01*
X144750839Y-67611834D01*
X144611563Y-67645271D01*
X144611560Y-67645272D01*
X144604184Y-67647043D01*
X144463414Y-67719700D01*
X144457692Y-67724692D01*
X144457690Y-67724693D01*
X144452236Y-67729451D01*
X144387753Y-67759157D01*
X144369409Y-67760500D01*
X144283667Y-67760500D01*
X144215546Y-67740498D01*
X144200143Y-67728802D01*
X144199954Y-67728670D01*
X144194275Y-67723611D01*
X144054274Y-67649484D01*
X143900633Y-67610892D01*
X143893034Y-67610852D01*
X143893033Y-67610852D01*
X143827181Y-67610507D01*
X143742221Y-67610062D01*
X143734841Y-67611834D01*
X143734839Y-67611834D01*
X143595563Y-67645271D01*
X143595560Y-67645272D01*
X143588184Y-67647043D01*
X143447414Y-67719700D01*
X143441692Y-67724692D01*
X143441690Y-67724693D01*
X143436236Y-67729451D01*
X143371753Y-67759157D01*
X143353409Y-67760500D01*
X143267667Y-67760500D01*
X143199546Y-67740498D01*
X143184143Y-67728802D01*
X143183954Y-67728670D01*
X143178275Y-67723611D01*
X143038274Y-67649484D01*
X142884633Y-67610892D01*
X142877034Y-67610852D01*
X142877033Y-67610852D01*
X142811181Y-67610507D01*
X142726221Y-67610062D01*
X142718841Y-67611834D01*
X142718839Y-67611834D01*
X142579563Y-67645271D01*
X142579560Y-67645272D01*
X142572184Y-67647043D01*
X142431414Y-67719700D01*
X142312039Y-67823838D01*
X142220950Y-67953444D01*
X142163406Y-68101037D01*
X142162415Y-68108565D01*
X142155482Y-68161225D01*
X142126760Y-68226152D01*
X142119655Y-68233874D01*
X140913934Y-69439595D01*
X140851622Y-69473621D01*
X140824839Y-69476500D01*
X87602500Y-69476500D01*
X87534379Y-69456498D01*
X87487886Y-69402842D01*
X87476500Y-69350500D01*
X87476500Y-69124166D01*
X87461498Y-69029445D01*
X87444733Y-68996542D01*
X87440233Y-68987710D01*
X87426500Y-68930507D01*
X87426500Y-68335625D01*
X87427841Y-68323620D01*
X87427345Y-68323580D01*
X87428065Y-68314633D01*
X87430046Y-68305877D01*
X87426742Y-68252619D01*
X87426500Y-68244817D01*
X87426500Y-68228774D01*
X87425034Y-68218536D01*
X87424004Y-68208481D01*
X87421654Y-68170601D01*
X87421654Y-68170599D01*
X87421098Y-68161642D01*
X87418051Y-68153201D01*
X87417372Y-68149923D01*
X87413416Y-68134055D01*
X87412473Y-68130831D01*
X87411201Y-68121948D01*
X87407487Y-68113779D01*
X87407485Y-68113773D01*
X87391775Y-68079221D01*
X87387961Y-68069852D01*
X87375077Y-68034163D01*
X87372028Y-68025716D01*
X87366731Y-68018466D01*
X87365154Y-68015499D01*
X87356907Y-68001386D01*
X87355102Y-67998563D01*
X87351388Y-67990395D01*
X87320753Y-67954842D01*
X87314475Y-67946936D01*
X87306527Y-67936056D01*
X87295665Y-67925194D01*
X87289307Y-67918347D01*
X87262915Y-67887718D01*
X87257056Y-67880918D01*
X87249521Y-67876034D01*
X87242949Y-67870301D01*
X87231545Y-67861074D01*
X86439677Y-67069206D01*
X86432135Y-67059766D01*
X86431755Y-67060089D01*
X86425937Y-67053253D01*
X86421147Y-67045661D01*
X86381140Y-67010328D01*
X86375454Y-67004983D01*
X86364120Y-66993649D01*
X86355845Y-66987447D01*
X86348000Y-66981060D01*
X86347422Y-66980549D01*
X86312830Y-66949999D01*
X86304708Y-66946186D01*
X86301907Y-66944346D01*
X86287912Y-66935937D01*
X86284949Y-66934315D01*
X86277764Y-66928930D01*
X86269354Y-66925777D01*
X86269352Y-66925776D01*
X86233818Y-66912454D01*
X86224502Y-66908529D01*
X86224055Y-66908319D01*
X86182018Y-66888583D01*
X86173144Y-66887201D01*
X86169917Y-66886215D01*
X86154134Y-66882075D01*
X86150856Y-66881354D01*
X86142448Y-66878202D01*
X86128691Y-66877180D01*
X86095643Y-66874724D01*
X86085596Y-66873570D01*
X86077114Y-66872249D01*
X86077111Y-66872249D01*
X86072303Y-66871500D01*
X86056938Y-66871500D01*
X86047601Y-66871154D01*
X86040048Y-66870593D01*
X85998333Y-66867493D01*
X85989558Y-66869366D01*
X85980862Y-66869959D01*
X85966262Y-66871500D01*
X83563624Y-66871500D01*
X83551619Y-66870159D01*
X83551579Y-66870655D01*
X83542632Y-66869935D01*
X83533876Y-66867954D01*
X83490338Y-66870655D01*
X83480618Y-66871258D01*
X83472816Y-66871500D01*
X83456774Y-66871500D01*
X83452343Y-66872135D01*
X83452338Y-66872135D01*
X83448313Y-66872712D01*
X83446543Y-66872965D01*
X83436486Y-66873996D01*
X83414024Y-66875389D01*
X83398600Y-66876346D01*
X83398598Y-66876346D01*
X83389641Y-66876902D01*
X83381201Y-66879949D01*
X83377911Y-66880630D01*
X83362062Y-66884582D01*
X83358832Y-66885527D01*
X83349948Y-66886799D01*
X83307222Y-66906225D01*
X83297860Y-66910036D01*
X83262158Y-66922925D01*
X83262157Y-66922926D01*
X83253716Y-66925973D01*
X83246467Y-66931269D01*
X83243486Y-66932854D01*
X83229408Y-66941080D01*
X83226569Y-66942896D01*
X83218395Y-66946612D01*
X83211591Y-66952475D01*
X83182848Y-66977242D01*
X83174930Y-66983530D01*
X83164056Y-66991473D01*
X83153194Y-67002335D01*
X83146348Y-67008693D01*
X83108918Y-67040944D01*
X83104034Y-67048479D01*
X83098301Y-67055051D01*
X83089074Y-67066455D01*
X82805206Y-67350323D01*
X82795766Y-67357865D01*
X82796089Y-67358245D01*
X82789253Y-67364063D01*
X82781661Y-67368853D01*
X82775719Y-67375581D01*
X82746329Y-67408859D01*
X82740983Y-67414546D01*
X82729649Y-67425880D01*
X82726964Y-67429463D01*
X82726962Y-67429465D01*
X82723447Y-67434155D01*
X82717062Y-67441998D01*
X82685999Y-67477170D01*
X82682186Y-67485292D01*
X82680346Y-67488093D01*
X82671937Y-67502088D01*
X82670315Y-67505051D01*
X82664930Y-67512236D01*
X82661777Y-67520646D01*
X82661776Y-67520648D01*
X82648454Y-67556182D01*
X82644530Y-67565495D01*
X82624583Y-67607982D01*
X82623201Y-67616856D01*
X82622215Y-67620083D01*
X82618075Y-67635866D01*
X82617354Y-67639144D01*
X82614202Y-67647552D01*
X82613537Y-67656503D01*
X82610724Y-67694357D01*
X82609570Y-67704404D01*
X82607500Y-67717697D01*
X82607500Y-67733062D01*
X82607154Y-67742399D01*
X82603493Y-67791667D01*
X82605366Y-67800442D01*
X82605959Y-67809138D01*
X82607500Y-67823738D01*
X82607500Y-68930507D01*
X82593767Y-68987709D01*
X82589267Y-68996541D01*
X82540520Y-69048156D01*
X82471605Y-69065223D01*
X82404403Y-69042323D01*
X82364733Y-68996542D01*
X82331086Y-68930507D01*
X82323326Y-68915277D01*
X82232723Y-68824674D01*
X82118555Y-68766502D01*
X82023834Y-68751500D01*
X81660166Y-68751500D01*
X81565445Y-68766502D01*
X81451277Y-68824674D01*
X81360674Y-68915277D01*
X81352914Y-68930507D01*
X81319267Y-68996542D01*
X81270518Y-69048157D01*
X81201603Y-69065223D01*
X81134402Y-69042322D01*
X81094733Y-68996542D01*
X81061086Y-68930507D01*
X81053326Y-68915277D01*
X80962723Y-68824674D01*
X80848555Y-68766502D01*
X80753834Y-68751500D01*
X80390166Y-68751500D01*
X80295445Y-68766502D01*
X80181277Y-68824674D01*
X80090674Y-68915277D01*
X80082914Y-68930507D01*
X80049267Y-68996542D01*
X80000518Y-69048157D01*
X79931603Y-69065223D01*
X79864402Y-69042322D01*
X79824733Y-68996542D01*
X79791086Y-68930507D01*
X79783326Y-68915277D01*
X79692723Y-68824674D01*
X79578555Y-68766502D01*
X79483834Y-68751500D01*
X79120166Y-68751500D01*
X79025445Y-68766502D01*
X78911277Y-68824674D01*
X78820674Y-68915277D01*
X78812914Y-68930507D01*
X78779267Y-68996542D01*
X78730518Y-69048157D01*
X78661603Y-69065223D01*
X78594402Y-69042322D01*
X78554733Y-68996542D01*
X78521086Y-68930507D01*
X78513326Y-68915277D01*
X78422723Y-68824674D01*
X78308555Y-68766502D01*
X78213834Y-68751500D01*
X77850166Y-68751500D01*
X77755445Y-68766502D01*
X77641277Y-68824674D01*
X77550674Y-68915277D01*
X77492502Y-69029445D01*
X77477500Y-69124166D01*
X77477500Y-70837834D01*
X77492502Y-70932555D01*
X77550674Y-71046723D01*
X77641277Y-71137326D01*
X77755445Y-71195498D01*
X77850166Y-71210500D01*
X78213834Y-71210500D01*
X78308555Y-71195498D01*
X78422723Y-71137326D01*
X78513326Y-71046723D01*
X78554733Y-70965458D01*
X78603482Y-70913843D01*
X78672397Y-70896777D01*
X78739598Y-70919678D01*
X78779267Y-70965458D01*
X78820674Y-71046723D01*
X78911277Y-71137326D01*
X79025445Y-71195498D01*
X79120166Y-71210500D01*
X79483834Y-71210500D01*
X79578555Y-71195498D01*
X79692723Y-71137326D01*
X79783326Y-71046723D01*
X79824733Y-70965458D01*
X79873482Y-70913843D01*
X79942397Y-70896777D01*
X80009598Y-70919678D01*
X80049267Y-70965458D01*
X80090674Y-71046723D01*
X80181277Y-71137326D01*
X80295445Y-71195498D01*
X80390166Y-71210500D01*
X80753834Y-71210500D01*
X80848555Y-71195498D01*
X80962723Y-71137326D01*
X81053326Y-71046723D01*
X81094733Y-70965458D01*
X81143482Y-70913843D01*
X81212397Y-70896777D01*
X81279598Y-70919678D01*
X81319267Y-70965458D01*
X81346767Y-71019430D01*
X81360500Y-71076633D01*
X81360500Y-71392376D01*
X81359159Y-71404381D01*
X81359655Y-71404421D01*
X81358935Y-71413368D01*
X81356954Y-71422124D01*
X81357510Y-71431084D01*
X81360258Y-71475382D01*
X81360500Y-71483184D01*
X81360500Y-71499226D01*
X81361135Y-71503657D01*
X81361135Y-71503662D01*
X81361965Y-71509453D01*
X81362996Y-71519514D01*
X81365902Y-71566359D01*
X81368949Y-71574799D01*
X81369630Y-71578089D01*
X81373582Y-71593938D01*
X81374527Y-71597168D01*
X81375799Y-71606052D01*
X81379514Y-71614223D01*
X81395218Y-71648763D01*
X81399030Y-71658128D01*
X81411922Y-71693837D01*
X81411924Y-71693840D01*
X81414972Y-71702284D01*
X81420268Y-71709533D01*
X81421840Y-71712490D01*
X81430093Y-71726614D01*
X81431898Y-71729437D01*
X81435612Y-71737605D01*
X81441469Y-71744402D01*
X81441470Y-71744404D01*
X81466243Y-71773153D01*
X81472525Y-71781064D01*
X81480473Y-71791944D01*
X81491334Y-71802805D01*
X81497692Y-71809652D01*
X81524083Y-71840281D01*
X81524086Y-71840284D01*
X81529944Y-71847082D01*
X81537480Y-71851966D01*
X81544064Y-71857709D01*
X81555456Y-71866926D01*
X81943326Y-72254797D01*
X81950869Y-72264236D01*
X81951247Y-72263914D01*
X81957063Y-72270748D01*
X81961853Y-72278339D01*
X81968579Y-72284279D01*
X81968583Y-72284284D01*
X82001866Y-72313678D01*
X82007554Y-72319024D01*
X82018881Y-72330351D01*
X82022464Y-72333036D01*
X82022466Y-72333038D01*
X82027152Y-72336550D01*
X82034998Y-72342938D01*
X82061178Y-72366060D01*
X82098995Y-72426146D01*
X82098324Y-72497140D01*
X82059378Y-72556500D01*
X81994521Y-72585381D01*
X81977769Y-72586500D01*
X78864625Y-72586500D01*
X78852620Y-72585159D01*
X78852580Y-72585655D01*
X78843633Y-72584935D01*
X78834877Y-72582954D01*
X78791339Y-72585655D01*
X78781619Y-72586258D01*
X78773817Y-72586500D01*
X78757774Y-72586500D01*
X78753344Y-72587135D01*
X78753337Y-72587135D01*
X78747536Y-72587966D01*
X78737481Y-72588996D01*
X78699601Y-72591346D01*
X78699599Y-72591346D01*
X78690642Y-72591902D01*
X78682201Y-72594949D01*
X78678923Y-72595628D01*
X78663055Y-72599584D01*
X78659831Y-72600527D01*
X78650948Y-72601799D01*
X78642779Y-72605513D01*
X78642773Y-72605515D01*
X78608221Y-72621225D01*
X78598853Y-72625039D01*
X78554716Y-72640972D01*
X78547466Y-72646269D01*
X78544499Y-72647846D01*
X78530386Y-72656093D01*
X78527563Y-72657898D01*
X78519395Y-72661612D01*
X78512598Y-72667469D01*
X78512596Y-72667470D01*
X78483847Y-72692243D01*
X78475936Y-72698525D01*
X78465056Y-72706473D01*
X78454194Y-72717335D01*
X78447348Y-72723693D01*
X78409918Y-72755944D01*
X78405034Y-72763479D01*
X78399301Y-72770051D01*
X78390074Y-72781455D01*
X77748206Y-73423323D01*
X77738766Y-73430865D01*
X77739089Y-73431245D01*
X77732253Y-73437063D01*
X77724661Y-73441853D01*
X77718719Y-73448581D01*
X77689329Y-73481859D01*
X77683983Y-73487546D01*
X77672649Y-73498880D01*
X77669964Y-73502463D01*
X77669962Y-73502465D01*
X77666447Y-73507155D01*
X77660062Y-73514998D01*
X77628999Y-73550170D01*
X77625186Y-73558292D01*
X77623346Y-73561093D01*
X77614937Y-73575088D01*
X77613315Y-73578051D01*
X77607930Y-73585236D01*
X77604777Y-73593646D01*
X77604776Y-73593648D01*
X77591454Y-73629182D01*
X77587530Y-73638495D01*
X77567583Y-73680982D01*
X77566201Y-73689856D01*
X77565215Y-73693083D01*
X77561075Y-73708866D01*
X77560354Y-73712144D01*
X77557202Y-73720552D01*
X77556537Y-73729503D01*
X77553724Y-73767357D01*
X77552570Y-73777404D01*
X77550500Y-73790697D01*
X77550500Y-73806062D01*
X77550154Y-73815397D01*
X77547605Y-73849706D01*
X77534217Y-73897575D01*
X77509268Y-73946541D01*
X77492502Y-73979445D01*
X77477500Y-74074166D01*
X77477500Y-75787834D01*
X77492502Y-75882555D01*
X77497003Y-75891388D01*
X77497003Y-75891389D01*
X77513767Y-75924290D01*
X77527500Y-75981493D01*
X77527500Y-80386376D01*
X77526159Y-80398381D01*
X77526655Y-80398421D01*
X77525935Y-80407368D01*
X77523954Y-80416124D01*
X77524510Y-80425084D01*
X77527258Y-80469382D01*
X77527500Y-80477184D01*
X77527500Y-80493226D01*
X77528135Y-80497657D01*
X77528135Y-80497662D01*
X77528965Y-80503453D01*
X77529996Y-80513514D01*
X77532902Y-80560359D01*
X77535949Y-80568799D01*
X77536630Y-80572089D01*
X77540582Y-80587938D01*
X77541527Y-80591168D01*
X77542799Y-80600052D01*
X77546514Y-80608223D01*
X77562218Y-80642763D01*
X77566030Y-80652128D01*
X77578922Y-80687837D01*
X77578924Y-80687840D01*
X77581972Y-80696284D01*
X77587268Y-80703533D01*
X77588840Y-80706490D01*
X77597093Y-80720614D01*
X77598898Y-80723437D01*
X77602612Y-80731605D01*
X77608469Y-80738402D01*
X77608470Y-80738404D01*
X77633243Y-80767153D01*
X77639525Y-80775064D01*
X77647473Y-80785944D01*
X77658335Y-80796806D01*
X77664693Y-80803652D01*
X77696944Y-80841082D01*
X77704479Y-80845966D01*
X77711051Y-80851699D01*
X77722455Y-80860926D01*
X80792595Y-83931066D01*
X80826621Y-83993378D01*
X80829500Y-84020161D01*
X80829500Y-93768839D01*
X80809498Y-93836960D01*
X80792595Y-93857934D01*
X79091934Y-95558595D01*
X79029622Y-95592621D01*
X79002839Y-95595500D01*
X74580124Y-95595500D01*
X74568119Y-95594159D01*
X74568079Y-95594655D01*
X74559132Y-95593935D01*
X74550376Y-95591954D01*
X74506838Y-95594655D01*
X74497118Y-95595258D01*
X74489316Y-95595500D01*
X74473274Y-95595500D01*
X74468843Y-95596135D01*
X74468838Y-95596135D01*
X74464813Y-95596712D01*
X74463043Y-95596965D01*
X74452986Y-95597996D01*
X74430524Y-95599389D01*
X74415100Y-95600346D01*
X74415098Y-95600346D01*
X74406141Y-95600902D01*
X74397701Y-95603949D01*
X74394411Y-95604630D01*
X74378562Y-95608582D01*
X74375332Y-95609527D01*
X74366448Y-95610799D01*
X74323722Y-95630225D01*
X74314360Y-95634036D01*
X74278658Y-95646925D01*
X74278657Y-95646926D01*
X74270216Y-95649973D01*
X74262967Y-95655269D01*
X74259986Y-95656854D01*
X74245908Y-95665080D01*
X74243069Y-95666896D01*
X74234895Y-95670612D01*
X74228091Y-95676475D01*
X74199348Y-95701242D01*
X74191430Y-95707530D01*
X74180556Y-95715473D01*
X74169694Y-95726335D01*
X74162848Y-95732693D01*
X74125418Y-95764944D01*
X74120534Y-95772479D01*
X74114801Y-95779051D01*
X74105574Y-95790455D01*
X73153206Y-96742823D01*
X73143766Y-96750365D01*
X73144089Y-96750745D01*
X73137253Y-96756563D01*
X73129661Y-96761353D01*
X73123719Y-96768081D01*
X73094329Y-96801359D01*
X73088983Y-96807046D01*
X73077649Y-96818380D01*
X73074964Y-96821963D01*
X73074962Y-96821965D01*
X73071447Y-96826655D01*
X73065062Y-96834498D01*
X73033999Y-96869670D01*
X73030186Y-96877792D01*
X73028346Y-96880593D01*
X73019937Y-96894588D01*
X73018315Y-96897551D01*
X73012930Y-96904736D01*
X73009777Y-96913146D01*
X73009776Y-96913148D01*
X72996454Y-96948682D01*
X72992530Y-96957995D01*
X72972583Y-97000482D01*
X72971201Y-97009356D01*
X72970215Y-97012583D01*
X72966075Y-97028366D01*
X72965354Y-97031644D01*
X72962202Y-97040052D01*
X72961537Y-97049003D01*
X72958724Y-97086857D01*
X72957570Y-97096904D01*
X72955500Y-97110197D01*
X72955500Y-97125562D01*
X72955154Y-97134899D01*
X72951493Y-97184167D01*
X70254500Y-97184167D01*
X70254500Y-95380500D01*
X70274502Y-95312379D01*
X70328158Y-95265886D01*
X70380500Y-95254500D01*
X74962524Y-95254500D01*
X74987103Y-95256921D01*
X75000000Y-95259486D01*
X75001579Y-95259172D01*
X75352085Y-95244283D01*
X75443334Y-95240407D01*
X75443337Y-95240407D01*
X75446015Y-95240293D01*
X75888816Y-95183590D01*
X76325213Y-95089539D01*
X76752062Y-94958818D01*
X76754531Y-94957826D01*
X76754542Y-94957822D01*
X77163805Y-94793366D01*
X77163818Y-94793360D01*
X77166287Y-94792368D01*
X77564904Y-94591390D01*
X77945041Y-94357330D01*
X78303959Y-94091876D01*
X78324533Y-94073769D01*
X78637065Y-93798707D01*
X78637073Y-93798699D01*
X78639072Y-93796940D01*
X78947965Y-93474646D01*
X79228413Y-93127318D01*
X79478395Y-92757457D01*
X79558377Y-92614282D01*
X79694805Y-92370066D01*
X79694810Y-92370056D01*
X79696110Y-92367729D01*
X79879990Y-91960941D01*
X80028709Y-91540025D01*
X80047870Y-91466440D01*
X80140523Y-91110603D01*
X80140525Y-91110594D01*
X80141197Y-91108013D01*
X80216641Y-90668017D01*
X80254500Y-90223208D01*
X80254500Y-89776792D01*
X80216641Y-89331983D01*
X80141197Y-88891987D01*
X80140523Y-88889397D01*
X80029383Y-88462562D01*
X80029380Y-88462553D01*
X80028709Y-88459975D01*
X79879990Y-88039059D01*
X79696110Y-87632271D01*
X79694810Y-87629944D01*
X79694805Y-87629934D01*
X79479702Y-87244883D01*
X79478395Y-87242543D01*
X79228413Y-86872682D01*
X78947965Y-86525354D01*
X78639072Y-86203060D01*
X78637073Y-86201301D01*
X78637065Y-86201293D01*
X78305967Y-85909891D01*
X78305963Y-85909888D01*
X78303959Y-85908124D01*
X77945041Y-85642670D01*
X77564904Y-85408610D01*
X77166287Y-85207632D01*
X77163818Y-85206640D01*
X77163805Y-85206634D01*
X76754542Y-85042178D01*
X76754531Y-85042174D01*
X76752062Y-85041182D01*
X76325213Y-84910461D01*
X75888816Y-84816410D01*
X75446015Y-84759707D01*
X75443337Y-84759593D01*
X75443334Y-84759593D01*
X75051180Y-84742935D01*
X75001579Y-84740828D01*
X75000000Y-84740514D01*
X74987103Y-84743079D01*
X74962524Y-84745500D01*
X70380500Y-84745500D01*
X70312379Y-84725498D01*
X70265886Y-84671842D01*
X70254500Y-84619500D01*
X70254500Y-64616494D01*
X107145500Y-64616494D01*
X107180225Y-64846879D01*
X107248899Y-65069515D01*
X107349989Y-65279430D01*
X107352644Y-65283324D01*
X107352645Y-65283326D01*
X107478574Y-65468031D01*
X107478579Y-65468037D01*
X107481235Y-65471933D01*
X107484445Y-65475393D01*
X107484447Y-65475395D01*
X107549495Y-65545500D01*
X107639707Y-65642725D01*
X107643385Y-65645658D01*
X107643387Y-65645660D01*
X107818182Y-65785055D01*
X107818186Y-65785058D01*
X107821863Y-65787990D01*
X108023636Y-65904483D01*
X108028029Y-65906207D01*
X108236124Y-65987879D01*
X108236130Y-65987881D01*
X108240518Y-65989603D01*
X108245117Y-65990653D01*
X108245118Y-65990653D01*
X108463063Y-66040398D01*
X108463065Y-66040398D01*
X108467664Y-66041448D01*
X108472364Y-66041800D01*
X108472369Y-66041801D01*
X108682783Y-66057569D01*
X108682784Y-66057569D01*
X108694942Y-66058480D01*
X108700000Y-66059486D01*
X108712897Y-66056921D01*
X108737476Y-66054500D01*
X116262524Y-66054500D01*
X116287103Y-66056921D01*
X116300000Y-66059486D01*
X116305058Y-66058480D01*
X116316335Y-66057635D01*
X116527631Y-66041801D01*
X116527636Y-66041800D01*
X116532336Y-66041448D01*
X116536935Y-66040398D01*
X116536937Y-66040398D01*
X116754882Y-65990653D01*
X116754883Y-65990653D01*
X116759482Y-65989603D01*
X116763870Y-65987881D01*
X116763876Y-65987879D01*
X116971971Y-65906207D01*
X116976364Y-65904483D01*
X117178137Y-65787990D01*
X117181814Y-65785058D01*
X117181818Y-65785055D01*
X117356613Y-65645660D01*
X117356615Y-65645658D01*
X117360293Y-65642725D01*
X117450505Y-65545500D01*
X117515553Y-65475395D01*
X117515555Y-65475393D01*
X117518765Y-65471933D01*
X117521421Y-65468037D01*
X117521426Y-65468031D01*
X117647355Y-65283326D01*
X117647356Y-65283324D01*
X117650011Y-65279430D01*
X117751101Y-65069515D01*
X117819775Y-64846879D01*
X117854500Y-64616494D01*
X117854500Y-64383506D01*
X117819775Y-64153121D01*
X117764812Y-63974934D01*
X117764812Y-63974933D01*
X128245500Y-63974933D01*
X128245501Y-67025066D01*
X128260266Y-67099301D01*
X128316516Y-67183484D01*
X128400699Y-67239734D01*
X128474933Y-67254500D01*
X131499755Y-67254500D01*
X134525066Y-67254499D01*
X134560818Y-67247388D01*
X134587126Y-67242156D01*
X134587128Y-67242155D01*
X134599301Y-67239734D01*
X134609621Y-67232839D01*
X134609622Y-67232838D01*
X134673168Y-67190377D01*
X134683484Y-67183484D01*
X134739734Y-67099301D01*
X134754500Y-67025067D01*
X134754499Y-63974934D01*
X134754499Y-63974933D01*
X144245500Y-63974933D01*
X144245501Y-67025066D01*
X144260266Y-67099301D01*
X144316516Y-67183484D01*
X144400699Y-67239734D01*
X144474933Y-67254500D01*
X147499755Y-67254500D01*
X150525066Y-67254499D01*
X150560818Y-67247388D01*
X150587126Y-67242156D01*
X150587128Y-67242155D01*
X150599301Y-67239734D01*
X150609621Y-67232839D01*
X150609622Y-67232838D01*
X150673168Y-67190377D01*
X150683484Y-67183484D01*
X150739734Y-67099301D01*
X150754500Y-67025067D01*
X150754499Y-64616494D01*
X161145500Y-64616494D01*
X161180225Y-64846879D01*
X161248899Y-65069515D01*
X161349989Y-65279430D01*
X161352644Y-65283324D01*
X161352645Y-65283326D01*
X161478574Y-65468031D01*
X161478579Y-65468037D01*
X161481235Y-65471933D01*
X161484445Y-65475393D01*
X161484447Y-65475395D01*
X161549495Y-65545500D01*
X161639707Y-65642725D01*
X161643385Y-65645658D01*
X161643387Y-65645660D01*
X161818182Y-65785055D01*
X161818186Y-65785058D01*
X161821863Y-65787990D01*
X162023636Y-65904483D01*
X162028029Y-65906207D01*
X162236124Y-65987879D01*
X162236130Y-65987881D01*
X162240518Y-65989603D01*
X162245117Y-65990653D01*
X162245118Y-65990653D01*
X162463063Y-66040398D01*
X162463065Y-66040398D01*
X162467664Y-66041448D01*
X162472364Y-66041800D01*
X162472369Y-66041801D01*
X162682783Y-66057569D01*
X162682784Y-66057569D01*
X162694942Y-66058480D01*
X162700000Y-66059486D01*
X162712897Y-66056921D01*
X162737476Y-66054500D01*
X170262524Y-66054500D01*
X170287103Y-66056921D01*
X170300000Y-66059486D01*
X170305058Y-66058480D01*
X170316335Y-66057635D01*
X170527631Y-66041801D01*
X170527636Y-66041800D01*
X170532336Y-66041448D01*
X170536935Y-66040398D01*
X170536937Y-66040398D01*
X170754882Y-65990653D01*
X170754883Y-65990653D01*
X170759482Y-65989603D01*
X170763870Y-65987881D01*
X170763876Y-65987879D01*
X170971971Y-65906207D01*
X170976364Y-65904483D01*
X171178137Y-65787990D01*
X171181814Y-65785058D01*
X171181818Y-65785055D01*
X171356613Y-65645660D01*
X171356615Y-65645658D01*
X171360293Y-65642725D01*
X171450505Y-65545500D01*
X171515553Y-65475395D01*
X171515555Y-65475393D01*
X171518765Y-65471933D01*
X171521421Y-65468037D01*
X171521426Y-65468031D01*
X171647355Y-65283326D01*
X171647356Y-65283324D01*
X171650011Y-65279430D01*
X171751101Y-65069515D01*
X171819775Y-64846879D01*
X171854500Y-64616494D01*
X171854500Y-64383506D01*
X171819775Y-64153121D01*
X171764812Y-63974934D01*
X171752492Y-63934993D01*
X171752490Y-63934987D01*
X171751101Y-63930485D01*
X171696216Y-63816516D01*
X171652059Y-63724823D01*
X171652057Y-63724820D01*
X171650011Y-63720571D01*
X171518765Y-63528067D01*
X171451976Y-63456085D01*
X171363497Y-63360728D01*
X171363496Y-63360727D01*
X171360293Y-63357275D01*
X171331783Y-63334539D01*
X171181818Y-63214945D01*
X171181814Y-63214942D01*
X171178137Y-63212010D01*
X170976364Y-63095517D01*
X170931047Y-63077731D01*
X170763876Y-63012121D01*
X170763870Y-63012119D01*
X170759482Y-63010397D01*
X170711179Y-62999372D01*
X170536937Y-62959602D01*
X170536935Y-62959602D01*
X170532336Y-62958552D01*
X170527636Y-62958200D01*
X170527631Y-62958199D01*
X170317217Y-62942431D01*
X170317216Y-62942431D01*
X170305058Y-62941520D01*
X170300000Y-62940514D01*
X170287103Y-62943079D01*
X170262524Y-62945500D01*
X162737476Y-62945500D01*
X162712897Y-62943079D01*
X162700000Y-62940514D01*
X162694942Y-62941520D01*
X162683665Y-62942365D01*
X162472369Y-62958199D01*
X162472364Y-62958200D01*
X162467664Y-62958552D01*
X162463065Y-62959602D01*
X162463063Y-62959602D01*
X162288821Y-62999372D01*
X162240518Y-63010397D01*
X162236130Y-63012119D01*
X162236124Y-63012121D01*
X162068953Y-63077731D01*
X162023636Y-63095517D01*
X161821863Y-63212010D01*
X161818186Y-63214942D01*
X161818182Y-63214945D01*
X161668217Y-63334539D01*
X161639707Y-63357275D01*
X161636504Y-63360727D01*
X161636503Y-63360728D01*
X161548025Y-63456085D01*
X161481235Y-63528067D01*
X161349989Y-63720571D01*
X161347943Y-63724820D01*
X161347941Y-63724823D01*
X161303784Y-63816516D01*
X161248899Y-63930485D01*
X161247510Y-63934987D01*
X161247508Y-63934993D01*
X161235188Y-63974934D01*
X161180225Y-64153121D01*
X161145500Y-64383506D01*
X161145500Y-64616494D01*
X150754499Y-64616494D01*
X150754499Y-63974934D01*
X150745658Y-63930485D01*
X150742156Y-63912874D01*
X150742155Y-63912872D01*
X150739734Y-63900699D01*
X150683484Y-63816516D01*
X150599301Y-63760266D01*
X150525067Y-63745500D01*
X147500245Y-63745500D01*
X144474934Y-63745501D01*
X144439182Y-63752612D01*
X144412874Y-63757844D01*
X144412872Y-63757845D01*
X144400699Y-63760266D01*
X144390379Y-63767161D01*
X144390378Y-63767162D01*
X144329985Y-63807516D01*
X144316516Y-63816516D01*
X144260266Y-63900699D01*
X144245500Y-63974933D01*
X134754499Y-63974933D01*
X134745658Y-63930485D01*
X134742156Y-63912874D01*
X134742155Y-63912872D01*
X134739734Y-63900699D01*
X134683484Y-63816516D01*
X134599301Y-63760266D01*
X134525067Y-63745500D01*
X131500245Y-63745500D01*
X128474934Y-63745501D01*
X128439182Y-63752612D01*
X128412874Y-63757844D01*
X128412872Y-63757845D01*
X128400699Y-63760266D01*
X128390379Y-63767161D01*
X128390378Y-63767162D01*
X128329985Y-63807516D01*
X128316516Y-63816516D01*
X128260266Y-63900699D01*
X128245500Y-63974933D01*
X117764812Y-63974933D01*
X117752492Y-63934993D01*
X117752490Y-63934987D01*
X117751101Y-63930485D01*
X117696216Y-63816516D01*
X117652059Y-63724823D01*
X117652057Y-63724820D01*
X117650011Y-63720571D01*
X117518765Y-63528067D01*
X117451976Y-63456085D01*
X117363497Y-63360728D01*
X117363496Y-63360727D01*
X117360293Y-63357275D01*
X117331783Y-63334539D01*
X117181818Y-63214945D01*
X117181814Y-63214942D01*
X117178137Y-63212010D01*
X116976364Y-63095517D01*
X116931047Y-63077731D01*
X116763876Y-63012121D01*
X116763870Y-63012119D01*
X116759482Y-63010397D01*
X116711179Y-62999372D01*
X116536937Y-62959602D01*
X116536935Y-62959602D01*
X116532336Y-62958552D01*
X116527636Y-62958200D01*
X116527631Y-62958199D01*
X116317217Y-62942431D01*
X116317216Y-62942431D01*
X116305058Y-62941520D01*
X116300000Y-62940514D01*
X116287103Y-62943079D01*
X116262524Y-62945500D01*
X108737476Y-62945500D01*
X108712897Y-62943079D01*
X108700000Y-62940514D01*
X108694942Y-62941520D01*
X108683665Y-62942365D01*
X108472369Y-62958199D01*
X108472364Y-62958200D01*
X108467664Y-62958552D01*
X108463065Y-62959602D01*
X108463063Y-62959602D01*
X108288821Y-62999372D01*
X108240518Y-63010397D01*
X108236130Y-63012119D01*
X108236124Y-63012121D01*
X108068953Y-63077731D01*
X108023636Y-63095517D01*
X107821863Y-63212010D01*
X107818186Y-63214942D01*
X107818182Y-63214945D01*
X107668217Y-63334539D01*
X107639707Y-63357275D01*
X107636504Y-63360727D01*
X107636503Y-63360728D01*
X107548025Y-63456085D01*
X107481235Y-63528067D01*
X107349989Y-63720571D01*
X107347943Y-63724820D01*
X107347941Y-63724823D01*
X107303784Y-63816516D01*
X107248899Y-63930485D01*
X107247510Y-63934987D01*
X107247508Y-63934993D01*
X107235188Y-63974934D01*
X107180225Y-64153121D01*
X107145500Y-64383506D01*
X107145500Y-64616494D01*
X70254500Y-64616494D01*
X70254500Y-63334532D01*
X70256921Y-63309950D01*
X70257065Y-63309226D01*
X70259486Y-63297056D01*
X70257065Y-63284884D01*
X70257065Y-63272476D01*
X70257385Y-63272476D01*
X70256645Y-63261600D01*
X70269684Y-63046052D01*
X70271518Y-63030948D01*
X70315470Y-62791106D01*
X70319111Y-62776332D01*
X70319114Y-62776324D01*
X70391659Y-62543521D01*
X70397047Y-62529315D01*
X70497136Y-62306923D01*
X70504192Y-62293481D01*
X70630346Y-62084798D01*
X70638988Y-62072277D01*
X70638998Y-62072265D01*
X70789372Y-61880327D01*
X70799461Y-61868939D01*
X70971883Y-61696518D01*
X70983271Y-61686429D01*
X71175218Y-61536048D01*
X71187741Y-61527405D01*
X71396419Y-61401255D01*
X71409888Y-61394186D01*
X71632247Y-61294109D01*
X71646465Y-61288717D01*
X71872066Y-61218417D01*
X71879274Y-61216171D01*
X71894047Y-61212530D01*
X72133892Y-61168577D01*
X72148996Y-61166743D01*
X72364560Y-61153704D01*
X72375421Y-61154443D01*
X72375421Y-61154121D01*
X72387828Y-61154121D01*
X72400000Y-61156542D01*
X72412897Y-61153977D01*
X72437476Y-61151556D01*
X206562524Y-61151556D01*
X206587103Y-61153977D01*
G37*
G04 #@! TD.AperFunction*
M02*
