G04 #@! TF.GenerationSoftware,KiCad,Pcbnew,(6.0.4)*
G04 #@! TF.CreationDate,2022-06-22T13:50:13-04:00*
G04 #@! TF.ProjectId,Macintosh Portable Battery Adapter v1.2,4d616369-6e74-46f7-9368-20506f727461,rev?*
G04 #@! TF.SameCoordinates,Original*
G04 #@! TF.FileFunction,Profile,NP*
%FSLAX46Y46*%
G04 Gerber Fmt 4.6, Leading zero omitted, Abs format (unit mm)*
G04 Created by KiCad (PCBNEW (6.0.4)) date 2022-06-22 13:50:13*
%MOMM*%
%LPD*%
G01*
G04 APERTURE LIST*
G04 #@! TA.AperFunction,Profile*
%ADD10C,0.050000*%
G04 #@! TD*
G04 #@! TA.AperFunction,Profile*
%ADD11C,0.120000*%
G04 #@! TD*
G04 APERTURE END LIST*
D10*
X70000000Y-142700000D02*
X70000000Y-95000000D01*
X70000000Y-85000000D02*
X70000000Y-63297056D01*
X209000000Y-95000000D02*
X209000000Y-142700000D01*
X194000000Y-145100000D02*
X85000000Y-145100000D01*
X75000000Y-145100000D02*
X72400000Y-145100000D01*
X204000000Y-95000000D02*
X209000000Y-95000000D01*
X204000000Y-85000000D02*
G75*
G03*
X204000000Y-95000000I0J-5000000D01*
G01*
X204000000Y-140100000D02*
X204000000Y-145100000D01*
X75000000Y-95000000D02*
G75*
G03*
X75000000Y-85000000I0J5000000D01*
G01*
X204000000Y-85000000D02*
X209000000Y-85000000D01*
X209000044Y-63297056D02*
G75*
G03*
X206600000Y-60897056I-2400044J-44D01*
G01*
X72400000Y-60897060D02*
G75*
G03*
X70000000Y-63297056I0J-2400000D01*
G01*
X75000000Y-140100000D02*
X75000000Y-145100000D01*
X70000000Y-142700000D02*
G75*
G03*
X72400000Y-145100000I2400000J0D01*
G01*
X72400000Y-60897056D02*
X206600000Y-60897056D01*
X206600000Y-145100000D02*
X204000000Y-145100000D01*
X85000000Y-140100000D02*
X85000000Y-145100000D01*
X204000000Y-140100000D02*
G75*
G03*
X194000000Y-140100000I-5000000J0D01*
G01*
X85000000Y-140100000D02*
G75*
G03*
X75000000Y-140100000I-5000000J0D01*
G01*
X75000000Y-85000000D02*
X70000000Y-85000000D01*
X206600000Y-145100000D02*
G75*
G03*
X209000000Y-142700000I0J2400000D01*
G01*
X209000000Y-63297056D02*
X209000000Y-85000000D01*
X194000000Y-140100000D02*
X194000000Y-145100000D01*
X75000000Y-95000000D02*
X70000000Y-95000000D01*
D11*
X162700000Y-63200000D02*
X170300000Y-63200000D01*
X170300000Y-65800000D02*
X162700000Y-65800000D01*
X162700000Y-63200000D02*
G75*
G03*
X162700000Y-65800000I0J-1300000D01*
G01*
X170300000Y-65800000D02*
G75*
G03*
X170300000Y-63200000I0J1300000D01*
G01*
X116300000Y-65800000D02*
X108700000Y-65800000D01*
X108700000Y-63200000D02*
X116300000Y-63200000D01*
X108700000Y-63200000D02*
G75*
G03*
X108700000Y-65800000I0J-1300000D01*
G01*
X116300000Y-65800000D02*
G75*
G03*
X116300000Y-63200000I0J1300000D01*
G01*
X108700000Y-140200000D02*
X116300000Y-140200000D01*
X116300000Y-142800000D02*
X108700000Y-142800000D01*
X108700000Y-140200000D02*
G75*
G03*
X108700000Y-142800000I0J-1300000D01*
G01*
X116300000Y-142800000D02*
G75*
G03*
X116300000Y-140200000I0J1300000D01*
G01*
X170300000Y-142800000D02*
X162700000Y-142800000D01*
X162700000Y-140200000D02*
X170300000Y-140200000D01*
X170300000Y-142800000D02*
G75*
G03*
X170300000Y-140200000I0J1300000D01*
G01*
X162700000Y-140200000D02*
G75*
G03*
X162700000Y-142800000I0J-1300000D01*
G01*
M02*
