<?xml version="1.0" standalone="no"?>
 <!DOCTYPE svg PUBLIC "-//W3C//DTD SVG 1.1//EN" 
 "http://www.w3.org/Graphics/SVG/1.1/DTD/svg11.dtd"> 
<svg
  xmlns:svg="http://www.w3.org/2000/svg"
  xmlns="http://www.w3.org/2000/svg"
  xmlns:xlink="http://www.w3.org/1999/xlink"
  version="1.1"
  width="29.700220cm" height="21.000720cm" viewBox="0 0 297002200 210007200">
<title>SVG Picture created as Macintosh Portable Battery Adapter v1.2-F_Mask.svg date 2022/07/14 22:24:57 </title>
  <desc>Picture generated by PCBNEW </desc>
<g style="fill:#000000; fill-opacity:1.000000;stroke:#000000; stroke-opacity:1.000000;
stroke-linecap:round; stroke-linejoin:round;"
 transform="translate(0 0) scale(1 1)">
</g>
<g style="fill:#000000; fill-opacity:0.0; 
stroke:#000000; stroke-width:0.000000; stroke-opacity:1; 
stroke-linecap:round; stroke-linejoin:round;">
<g >
</g>
<g style="fill:#000000; fill-opacity:0.0; 
stroke:#000000; stroke-width:1.000000; stroke-opacity:1; 
stroke-linecap:round; stroke-linejoin:round;">
</g>
<g style="fill:#000000; fill-opacity:1.0; 
stroke:#000000; stroke-width:1.000000; stroke-opacity:1; 
stroke-linecap:round; stroke-linejoin:round;">
<path style="fill:#000000; fill-opacity:1.0; 
stroke:#000000; stroke-width:1.000000; stroke-opacity:1; 
stroke-linecap:round; stroke-linejoin:round;fill-rule:evenodd;"
d="M 128450000.000000,64000000.000000
128453806.000000,63980866.000000
128464645.000000,63964645.000000
128480866.000000,63953806.000000
128500000.000000,63950000.000000
134500000.000000,63950000.000000
134519134.000000,63953806.000000
134535355.000000,63964645.000000
134546194.000000,63980866.000000
134550000.000000,64000000.000000
134550000.000000,67000000.000000
134546194.000000,67019134.000000
134535355.000000,67035355.000000
134519134.000000,67046194.000000
134500000.000000,67050000.000000
128500000.000000,67050000.000000
128480866.000000,67046194.000000
128464645.000000,67035355.000000
128453806.000000,67019134.000000
128450000.000000,67000000.000000
Z" /> 
<path style="fill:#000000; fill-opacity:1.0; 
stroke:#000000; stroke-width:1.000000; stroke-opacity:1; 
stroke-linecap:round; stroke-linejoin:round;fill-rule:evenodd;"
d="M 144450000.000000,64000000.000000
144453806.000000,63980866.000000
144464645.000000,63964645.000000
144480866.000000,63953806.000000
144500000.000000,63950000.000000
150500000.000000,63950000.000000
150519134.000000,63953806.000000
150535355.000000,63964645.000000
150546194.000000,63980866.000000
150550000.000000,64000000.000000
150550000.000000,67000000.000000
150546194.000000,67019134.000000
150535355.000000,67035355.000000
150519134.000000,67046194.000000
150500000.000000,67050000.000000
144500000.000000,67050000.000000
144480866.000000,67046194.000000
144464645.000000,67035355.000000
144453806.000000,67019134.000000
144450000.000000,67000000.000000
Z" /> 
</g>
<g >
</g>
<g >
</g>
<g style="fill:#000000; fill-opacity:1.0; 
stroke:#000000; stroke-width:1.000000; stroke-opacity:1; 
stroke-linecap:round; stroke-linejoin:round;">
<path style="fill:#000000; fill-opacity:1.0; 
stroke:#000000; stroke-width:1.000000; stroke-opacity:1; 
stroke-linecap:round; stroke-linejoin:round;fill-rule:evenodd;"
d="M 75950000.000000,103450000.000000
76019015.000000,103458046.000000
76119490.000000,103502466.000000
76197238.000000,103580078.000000
76241833.000000,103680476.000000
76250000.000000,103750000.000000
76250000.000000,104450000.000000
76241954.000000,104519015.000000
76197534.000000,104619490.000000
76119922.000000,104697238.000000
76019524.000000,104741833.000000
75950000.000000,104750000.000000
75050000.000000,104750000.000000
74980985.000000,104741954.000000
74880510.000000,104697534.000000
74802762.000000,104619922.000000
74758167.000000,104519524.000000
74750000.000000,104450000.000000
74750000.000000,103750000.000000
74758046.000000,103680985.000000
74802466.000000,103580510.000000
74880078.000000,103502762.000000
74980476.000000,103458167.000000
75050000.000000,103450000.000000
Z" /> 
<path style="fill:#000000; fill-opacity:1.0; 
stroke:#000000; stroke-width:1.000000; stroke-opacity:1; 
stroke-linecap:round; stroke-linejoin:round;fill-rule:evenodd;"
d="M 75950000.000000,101450000.000000
76019015.000000,101458046.000000
76119490.000000,101502466.000000
76197238.000000,101580078.000000
76241833.000000,101680476.000000
76250000.000000,101750000.000000
76250000.000000,102450000.000000
76241954.000000,102519015.000000
76197534.000000,102619490.000000
76119922.000000,102697238.000000
76019524.000000,102741833.000000
75950000.000000,102750000.000000
75050000.000000,102750000.000000
74980985.000000,102741954.000000
74880510.000000,102697534.000000
74802762.000000,102619922.000000
74758167.000000,102519524.000000
74750000.000000,102450000.000000
74750000.000000,101750000.000000
74758046.000000,101680985.000000
74802466.000000,101580510.000000
74880078.000000,101502762.000000
74980476.000000,101458167.000000
75050000.000000,101450000.000000
Z" /> 
</g>
<g >
</g>
<g >
</g>
<g style="fill:#000000; fill-opacity:1.0; 
stroke:#000000; stroke-width:1.000000; stroke-opacity:1; 
stroke-linecap:round; stroke-linejoin:round;">
<path style="fill:#000000; fill-opacity:1.0; 
stroke:#000000; stroke-width:1.000000; stroke-opacity:1; 
stroke-linecap:round; stroke-linejoin:round;fill-rule:evenodd;"
d="M 75950000.000000,127450000.000000
76019015.000000,127458046.000000
76119490.000000,127502466.000000
76197238.000000,127580078.000000
76241833.000000,127680476.000000
76250000.000000,127750000.000000
76250000.000000,128450000.000000
76241954.000000,128519015.000000
76197534.000000,128619490.000000
76119922.000000,128697238.000000
76019524.000000,128741833.000000
75950000.000000,128750000.000000
75050000.000000,128750000.000000
74980985.000000,128741954.000000
74880510.000000,128697534.000000
74802762.000000,128619922.000000
74758167.000000,128519524.000000
74750000.000000,128450000.000000
74750000.000000,127750000.000000
74758046.000000,127680985.000000
74802466.000000,127580510.000000
74880078.000000,127502762.000000
74980476.000000,127458167.000000
75050000.000000,127450000.000000
Z" /> 
<path style="fill:#000000; fill-opacity:1.0; 
stroke:#000000; stroke-width:1.000000; stroke-opacity:1; 
stroke-linecap:round; stroke-linejoin:round;fill-rule:evenodd;"
d="M 75950000.000000,129450000.000000
76019015.000000,129458046.000000
76119490.000000,129502466.000000
76197238.000000,129580078.000000
76241833.000000,129680476.000000
76250000.000000,129750000.000000
76250000.000000,130450000.000000
76241954.000000,130519015.000000
76197534.000000,130619490.000000
76119922.000000,130697238.000000
76019524.000000,130741833.000000
75950000.000000,130750000.000000
75050000.000000,130750000.000000
74980985.000000,130741954.000000
74880510.000000,130697534.000000
74802762.000000,130619922.000000
74758167.000000,130519524.000000
74750000.000000,130450000.000000
74750000.000000,129750000.000000
74758046.000000,129680985.000000
74802466.000000,129580510.000000
74880078.000000,129502762.000000
74980476.000000,129458167.000000
75050000.000000,129450000.000000
Z" /> 
</g>
<g >
</g>
<g style="fill:#000000; fill-opacity:1.0; 
stroke:#000000; stroke-width:1.000000; stroke-opacity:1; 
stroke-linecap:round; stroke-linejoin:round;">
<path style="fill:#000000; fill-opacity:1.0; 
stroke:#000000; stroke-width:1.000000; stroke-opacity:1; 
stroke-linecap:round; stroke-linejoin:round;fill-rule:evenodd;"
d="M 87072000.000000,68956000.000000
87148537.000000,68971224.000000
87213421.000000,69014579.000000
87256776.000000,69079463.000000
87272000.000000,69156000.000000
87272000.000000,70806000.000000
87256776.000000,70882537.000000
87213421.000000,70947421.000000
87148537.000000,70990776.000000
87072000.000000,71006000.000000
86772000.000000,71006000.000000
86695463.000000,70990776.000000
86630579.000000,70947421.000000
86587224.000000,70882537.000000
86572000.000000,70806000.000000
86572000.000000,69156000.000000
86587224.000000,69079463.000000
86630579.000000,69014579.000000
86695463.000000,68971224.000000
86772000.000000,68956000.000000
Z" /> 
<path style="fill:#000000; fill-opacity:1.0; 
stroke:#000000; stroke-width:1.000000; stroke-opacity:1; 
stroke-linecap:round; stroke-linejoin:round;fill-rule:evenodd;"
d="M 85802000.000000,68956000.000000
85878537.000000,68971224.000000
85943421.000000,69014579.000000
85986776.000000,69079463.000000
86002000.000000,69156000.000000
86002000.000000,70806000.000000
85986776.000000,70882537.000000
85943421.000000,70947421.000000
85878537.000000,70990776.000000
85802000.000000,71006000.000000
85502000.000000,71006000.000000
85425463.000000,70990776.000000
85360579.000000,70947421.000000
85317224.000000,70882537.000000
85302000.000000,70806000.000000
85302000.000000,69156000.000000
85317224.000000,69079463.000000
85360579.000000,69014579.000000
85425463.000000,68971224.000000
85502000.000000,68956000.000000
Z" /> 
<path style="fill:#000000; fill-opacity:1.0; 
stroke:#000000; stroke-width:1.000000; stroke-opacity:1; 
stroke-linecap:round; stroke-linejoin:round;fill-rule:evenodd;"
d="M 84532000.000000,68956000.000000
84608537.000000,68971224.000000
84673421.000000,69014579.000000
84716776.000000,69079463.000000
84732000.000000,69156000.000000
84732000.000000,70806000.000000
84716776.000000,70882537.000000
84673421.000000,70947421.000000
84608537.000000,70990776.000000
84532000.000000,71006000.000000
84232000.000000,71006000.000000
84155463.000000,70990776.000000
84090579.000000,70947421.000000
84047224.000000,70882537.000000
84032000.000000,70806000.000000
84032000.000000,69156000.000000
84047224.000000,69079463.000000
84090579.000000,69014579.000000
84155463.000000,68971224.000000
84232000.000000,68956000.000000
Z" /> 
<path style="fill:#000000; fill-opacity:1.0; 
stroke:#000000; stroke-width:1.000000; stroke-opacity:1; 
stroke-linecap:round; stroke-linejoin:round;fill-rule:evenodd;"
d="M 83262000.000000,68956000.000000
83338537.000000,68971224.000000
83403421.000000,69014579.000000
83446776.000000,69079463.000000
83462000.000000,69156000.000000
83462000.000000,70806000.000000
83446776.000000,70882537.000000
83403421.000000,70947421.000000
83338537.000000,70990776.000000
83262000.000000,71006000.000000
82962000.000000,71006000.000000
82885463.000000,70990776.000000
82820579.000000,70947421.000000
82777224.000000,70882537.000000
82762000.000000,70806000.000000
82762000.000000,69156000.000000
82777224.000000,69079463.000000
82820579.000000,69014579.000000
82885463.000000,68971224.000000
82962000.000000,68956000.000000
Z" /> 
<path style="fill:#000000; fill-opacity:1.0; 
stroke:#000000; stroke-width:1.000000; stroke-opacity:1; 
stroke-linecap:round; stroke-linejoin:round;fill-rule:evenodd;"
d="M 81992000.000000,68956000.000000
82068537.000000,68971224.000000
82133421.000000,69014579.000000
82176776.000000,69079463.000000
82192000.000000,69156000.000000
82192000.000000,70806000.000000
82176776.000000,70882537.000000
82133421.000000,70947421.000000
82068537.000000,70990776.000000
81992000.000000,71006000.000000
81692000.000000,71006000.000000
81615463.000000,70990776.000000
81550579.000000,70947421.000000
81507224.000000,70882537.000000
81492000.000000,70806000.000000
81492000.000000,69156000.000000
81507224.000000,69079463.000000
81550579.000000,69014579.000000
81615463.000000,68971224.000000
81692000.000000,68956000.000000
Z" /> 
<path style="fill:#000000; fill-opacity:1.0; 
stroke:#000000; stroke-width:1.000000; stroke-opacity:1; 
stroke-linecap:round; stroke-linejoin:round;fill-rule:evenodd;"
d="M 80722000.000000,68956000.000000
80798537.000000,68971224.000000
80863421.000000,69014579.000000
80906776.000000,69079463.000000
80922000.000000,69156000.000000
80922000.000000,70806000.000000
80906776.000000,70882537.000000
80863421.000000,70947421.000000
80798537.000000,70990776.000000
80722000.000000,71006000.000000
80422000.000000,71006000.000000
80345463.000000,70990776.000000
80280579.000000,70947421.000000
80237224.000000,70882537.000000
80222000.000000,70806000.000000
80222000.000000,69156000.000000
80237224.000000,69079463.000000
80280579.000000,69014579.000000
80345463.000000,68971224.000000
80422000.000000,68956000.000000
Z" /> 
<path style="fill:#000000; fill-opacity:1.0; 
stroke:#000000; stroke-width:1.000000; stroke-opacity:1; 
stroke-linecap:round; stroke-linejoin:round;fill-rule:evenodd;"
d="M 79452000.000000,68956000.000000
79528537.000000,68971224.000000
79593421.000000,69014579.000000
79636776.000000,69079463.000000
79652000.000000,69156000.000000
79652000.000000,70806000.000000
79636776.000000,70882537.000000
79593421.000000,70947421.000000
79528537.000000,70990776.000000
79452000.000000,71006000.000000
79152000.000000,71006000.000000
79075463.000000,70990776.000000
79010579.000000,70947421.000000
78967224.000000,70882537.000000
78952000.000000,70806000.000000
78952000.000000,69156000.000000
78967224.000000,69079463.000000
79010579.000000,69014579.000000
79075463.000000,68971224.000000
79152000.000000,68956000.000000
Z" /> 
<path style="fill:#000000; fill-opacity:1.0; 
stroke:#000000; stroke-width:1.000000; stroke-opacity:1; 
stroke-linecap:round; stroke-linejoin:round;fill-rule:evenodd;"
d="M 78182000.000000,68956000.000000
78258537.000000,68971224.000000
78323421.000000,69014579.000000
78366776.000000,69079463.000000
78382000.000000,69156000.000000
78382000.000000,70806000.000000
78366776.000000,70882537.000000
78323421.000000,70947421.000000
78258537.000000,70990776.000000
78182000.000000,71006000.000000
77882000.000000,71006000.000000
77805463.000000,70990776.000000
77740579.000000,70947421.000000
77697224.000000,70882537.000000
77682000.000000,70806000.000000
77682000.000000,69156000.000000
77697224.000000,69079463.000000
77740579.000000,69014579.000000
77805463.000000,68971224.000000
77882000.000000,68956000.000000
Z" /> 
<path style="fill:#000000; fill-opacity:1.0; 
stroke:#000000; stroke-width:1.000000; stroke-opacity:1; 
stroke-linecap:round; stroke-linejoin:round;fill-rule:evenodd;"
d="M 78182000.000000,73906000.000000
78258537.000000,73921224.000000
78323421.000000,73964579.000000
78366776.000000,74029463.000000
78382000.000000,74106000.000000
78382000.000000,75756000.000000
78366776.000000,75832537.000000
78323421.000000,75897421.000000
78258537.000000,75940776.000000
78182000.000000,75956000.000000
77882000.000000,75956000.000000
77805463.000000,75940776.000000
77740579.000000,75897421.000000
77697224.000000,75832537.000000
77682000.000000,75756000.000000
77682000.000000,74106000.000000
77697224.000000,74029463.000000
77740579.000000,73964579.000000
77805463.000000,73921224.000000
77882000.000000,73906000.000000
Z" /> 
<path style="fill:#000000; fill-opacity:1.0; 
stroke:#000000; stroke-width:1.000000; stroke-opacity:1; 
stroke-linecap:round; stroke-linejoin:round;fill-rule:evenodd;"
d="M 79452000.000000,73906000.000000
79528537.000000,73921224.000000
79593421.000000,73964579.000000
79636776.000000,74029463.000000
79652000.000000,74106000.000000
79652000.000000,75756000.000000
79636776.000000,75832537.000000
79593421.000000,75897421.000000
79528537.000000,75940776.000000
79452000.000000,75956000.000000
79152000.000000,75956000.000000
79075463.000000,75940776.000000
79010579.000000,75897421.000000
78967224.000000,75832537.000000
78952000.000000,75756000.000000
78952000.000000,74106000.000000
78967224.000000,74029463.000000
79010579.000000,73964579.000000
79075463.000000,73921224.000000
79152000.000000,73906000.000000
Z" /> 
<path style="fill:#000000; fill-opacity:1.0; 
stroke:#000000; stroke-width:1.000000; stroke-opacity:1; 
stroke-linecap:round; stroke-linejoin:round;fill-rule:evenodd;"
d="M 80722000.000000,73906000.000000
80798537.000000,73921224.000000
80863421.000000,73964579.000000
80906776.000000,74029463.000000
80922000.000000,74106000.000000
80922000.000000,75756000.000000
80906776.000000,75832537.000000
80863421.000000,75897421.000000
80798537.000000,75940776.000000
80722000.000000,75956000.000000
80422000.000000,75956000.000000
80345463.000000,75940776.000000
80280579.000000,75897421.000000
80237224.000000,75832537.000000
80222000.000000,75756000.000000
80222000.000000,74106000.000000
80237224.000000,74029463.000000
80280579.000000,73964579.000000
80345463.000000,73921224.000000
80422000.000000,73906000.000000
Z" /> 
<path style="fill:#000000; fill-opacity:1.0; 
stroke:#000000; stroke-width:1.000000; stroke-opacity:1; 
stroke-linecap:round; stroke-linejoin:round;fill-rule:evenodd;"
d="M 81992000.000000,73906000.000000
82068537.000000,73921224.000000
82133421.000000,73964579.000000
82176776.000000,74029463.000000
82192000.000000,74106000.000000
82192000.000000,75756000.000000
82176776.000000,75832537.000000
82133421.000000,75897421.000000
82068537.000000,75940776.000000
81992000.000000,75956000.000000
81692000.000000,75956000.000000
81615463.000000,75940776.000000
81550579.000000,75897421.000000
81507224.000000,75832537.000000
81492000.000000,75756000.000000
81492000.000000,74106000.000000
81507224.000000,74029463.000000
81550579.000000,73964579.000000
81615463.000000,73921224.000000
81692000.000000,73906000.000000
Z" /> 
<path style="fill:#000000; fill-opacity:1.0; 
stroke:#000000; stroke-width:1.000000; stroke-opacity:1; 
stroke-linecap:round; stroke-linejoin:round;fill-rule:evenodd;"
d="M 83262000.000000,73906000.000000
83338537.000000,73921224.000000
83403421.000000,73964579.000000
83446776.000000,74029463.000000
83462000.000000,74106000.000000
83462000.000000,75756000.000000
83446776.000000,75832537.000000
83403421.000000,75897421.000000
83338537.000000,75940776.000000
83262000.000000,75956000.000000
82962000.000000,75956000.000000
82885463.000000,75940776.000000
82820579.000000,75897421.000000
82777224.000000,75832537.000000
82762000.000000,75756000.000000
82762000.000000,74106000.000000
82777224.000000,74029463.000000
82820579.000000,73964579.000000
82885463.000000,73921224.000000
82962000.000000,73906000.000000
Z" /> 
<path style="fill:#000000; fill-opacity:1.0; 
stroke:#000000; stroke-width:1.000000; stroke-opacity:1; 
stroke-linecap:round; stroke-linejoin:round;fill-rule:evenodd;"
d="M 84532000.000000,73906000.000000
84608537.000000,73921224.000000
84673421.000000,73964579.000000
84716776.000000,74029463.000000
84732000.000000,74106000.000000
84732000.000000,75756000.000000
84716776.000000,75832537.000000
84673421.000000,75897421.000000
84608537.000000,75940776.000000
84532000.000000,75956000.000000
84232000.000000,75956000.000000
84155463.000000,75940776.000000
84090579.000000,75897421.000000
84047224.000000,75832537.000000
84032000.000000,75756000.000000
84032000.000000,74106000.000000
84047224.000000,74029463.000000
84090579.000000,73964579.000000
84155463.000000,73921224.000000
84232000.000000,73906000.000000
Z" /> 
<path style="fill:#000000; fill-opacity:1.0; 
stroke:#000000; stroke-width:1.000000; stroke-opacity:1; 
stroke-linecap:round; stroke-linejoin:round;fill-rule:evenodd;"
d="M 85802000.000000,73906000.000000
85878537.000000,73921224.000000
85943421.000000,73964579.000000
85986776.000000,74029463.000000
86002000.000000,74106000.000000
86002000.000000,75756000.000000
85986776.000000,75832537.000000
85943421.000000,75897421.000000
85878537.000000,75940776.000000
85802000.000000,75956000.000000
85502000.000000,75956000.000000
85425463.000000,75940776.000000
85360579.000000,75897421.000000
85317224.000000,75832537.000000
85302000.000000,75756000.000000
85302000.000000,74106000.000000
85317224.000000,74029463.000000
85360579.000000,73964579.000000
85425463.000000,73921224.000000
85502000.000000,73906000.000000
Z" /> 
<path style="fill:#000000; fill-opacity:1.0; 
stroke:#000000; stroke-width:1.000000; stroke-opacity:1; 
stroke-linecap:round; stroke-linejoin:round;fill-rule:evenodd;"
d="M 87072000.000000,73906000.000000
87148537.000000,73921224.000000
87213421.000000,73964579.000000
87256776.000000,74029463.000000
87272000.000000,74106000.000000
87272000.000000,75756000.000000
87256776.000000,75832537.000000
87213421.000000,75897421.000000
87148537.000000,75940776.000000
87072000.000000,75956000.000000
86772000.000000,75956000.000000
86695463.000000,75940776.000000
86630579.000000,75897421.000000
86587224.000000,75832537.000000
86572000.000000,75756000.000000
86572000.000000,74106000.000000
86587224.000000,74029463.000000
86630579.000000,73964579.000000
86695463.000000,73921224.000000
86772000.000000,73906000.000000
Z" /> 
</g>
<g >
</g>
<g style="fill:#000000; fill-opacity:1.0; 
stroke:#000000; stroke-width:1.000000; stroke-opacity:1; 
stroke-linecap:round; stroke-linejoin:round;">
<path style="fill:#000000; fill-opacity:1.0; 
stroke:#000000; stroke-width:1.000000; stroke-opacity:1; 
stroke-linecap:round; stroke-linejoin:round;fill-rule:evenodd;"
d="M 84500000.000000,125682323.000000
84519134.000000,125686129.000000
84535355.000000,125696968.000000
84546194.000000,125713189.000000
84550000.000000,125732323.000000
84550000.000000,127732323.000000
84546194.000000,127751457.000000
84535355.000000,127767678.000000
84519134.000000,127778517.000000
84500000.000000,127782323.000000
82500000.000000,127782323.000000
82480866.000000,127778517.000000
82464645.000000,127767678.000000
82453806.000000,127751457.000000
82450000.000000,127732323.000000
82450000.000000,125732323.000000
82453806.000000,125713189.000000
82464645.000000,125696968.000000
82480866.000000,125686129.000000
82500000.000000,125682323.000000
Z" /> 
<circle cx="83500000.000000" cy="131732323.000000" r="1050000.000000" /> 
</g>
<g style="fill:#000000; fill-opacity:1.0; 
stroke:#000000; stroke-width:21200.000000; stroke-opacity:1; 
stroke-linecap:round; stroke-linejoin:round;">
</g>
<g >
</g>
<g >
</g>
<g style="fill:#000000; fill-opacity:1.0; 
stroke:#000000; stroke-width:21200.000000; stroke-opacity:1; 
stroke-linecap:round; stroke-linejoin:round;">
</g>
<g style="fill:#000000; fill-opacity:1.0; 
stroke:#000000; stroke-width:1.000000; stroke-opacity:1; 
stroke-linecap:round; stroke-linejoin:round;">
<circle cx="75500000.000000" cy="124020000.000000" r="850000.000000" /> 
</g>
<g style="fill:#000000; fill-opacity:1.0; 
stroke:#000000; stroke-width:21200.000000; stroke-opacity:1; 
stroke-linecap:round; stroke-linejoin:round;">
</g>
<g style="fill:#000000; fill-opacity:1.0; 
stroke:#000000; stroke-width:1.000000; stroke-opacity:1; 
stroke-linecap:round; stroke-linejoin:round;">
<circle cx="75500000.000000" cy="134180000.000000" r="850000.000000" /> 
</g>
<g >
</g>
<g style="fill:#000000; fill-opacity:1.0; 
stroke:#000000; stroke-width:1.000000; stroke-opacity:1; 
stroke-linecap:round; stroke-linejoin:round;">
<circle cx="75500000.000000" cy="111020000.000000" r="850000.000000" /> 
</g>
<g style="fill:#000000; fill-opacity:1.0; 
stroke:#000000; stroke-width:21200.000000; stroke-opacity:1; 
stroke-linecap:round; stroke-linejoin:round;">
</g>
<g style="fill:#000000; fill-opacity:1.0; 
stroke:#000000; stroke-width:1.000000; stroke-opacity:1; 
stroke-linecap:round; stroke-linejoin:round;">
<circle cx="75500000.000000" cy="121180000.000000" r="850000.000000" /> 
</g>
<g >
</g>
<g style="fill:#000000; fill-opacity:1.0; 
stroke:#000000; stroke-width:1.000000; stroke-opacity:1; 
stroke-linecap:round; stroke-linejoin:round;">
<path style="fill:#000000; fill-opacity:1.0; 
stroke:#000000; stroke-width:1.000000; stroke-opacity:1; 
stroke-linecap:round; stroke-linejoin:round;fill-rule:evenodd;"
d="M 84500000.000000,112682323.000000
84519134.000000,112686129.000000
84535355.000000,112696968.000000
84546194.000000,112713189.000000
84550000.000000,112732323.000000
84550000.000000,114732323.000000
84546194.000000,114751457.000000
84535355.000000,114767678.000000
84519134.000000,114778517.000000
84500000.000000,114782323.000000
82500000.000000,114782323.000000
82480866.000000,114778517.000000
82464645.000000,114767678.000000
82453806.000000,114751457.000000
82450000.000000,114732323.000000
82450000.000000,112732323.000000
82453806.000000,112713189.000000
82464645.000000,112696968.000000
82480866.000000,112686129.000000
82500000.000000,112682323.000000
Z" /> 
<circle cx="83500000.000000" cy="118732323.000000" r="1050000.000000" /> 
</g>
<g style="fill:#000000; fill-opacity:1.0; 
stroke:#000000; stroke-width:21200.000000; stroke-opacity:1; 
stroke-linecap:round; stroke-linejoin:round;">
</g>
<g >
</g>
<g >
</g>
<g style="fill:#000000; fill-opacity:1.0; 
stroke:#000000; stroke-width:21200.000000; stroke-opacity:1; 
stroke-linecap:round; stroke-linejoin:round;">
</g>
<g style="fill:#000000; fill-opacity:1.0; 
stroke:#000000; stroke-width:1.000000; stroke-opacity:1; 
stroke-linecap:round; stroke-linejoin:round;">
<path style="fill:#000000; fill-opacity:1.0; 
stroke:#000000; stroke-width:1.000000; stroke-opacity:1; 
stroke-linecap:round; stroke-linejoin:round;fill-rule:evenodd;"
d="M 75950000.000000,114450000.000000
76019015.000000,114458046.000000
76119490.000000,114502466.000000
76197238.000000,114580078.000000
76241833.000000,114680476.000000
76250000.000000,114750000.000000
76250000.000000,115450000.000000
76241954.000000,115519015.000000
76197534.000000,115619490.000000
76119922.000000,115697238.000000
76019524.000000,115741833.000000
75950000.000000,115750000.000000
75050000.000000,115750000.000000
74980985.000000,115741954.000000
74880510.000000,115697534.000000
74802762.000000,115619922.000000
74758167.000000,115519524.000000
74750000.000000,115450000.000000
74750000.000000,114750000.000000
74758046.000000,114680985.000000
74802466.000000,114580510.000000
74880078.000000,114502762.000000
74980476.000000,114458167.000000
75050000.000000,114450000.000000
Z" /> 
<path style="fill:#000000; fill-opacity:1.0; 
stroke:#000000; stroke-width:1.000000; stroke-opacity:1; 
stroke-linecap:round; stroke-linejoin:round;fill-rule:evenodd;"
d="M 75950000.000000,116450000.000000
76019015.000000,116458046.000000
76119490.000000,116502466.000000
76197238.000000,116580078.000000
76241833.000000,116680476.000000
76250000.000000,116750000.000000
76250000.000000,117450000.000000
76241954.000000,117519015.000000
76197534.000000,117619490.000000
76119922.000000,117697238.000000
76019524.000000,117741833.000000
75950000.000000,117750000.000000
75050000.000000,117750000.000000
74980985.000000,117741954.000000
74880510.000000,117697534.000000
74802762.000000,117619922.000000
74758167.000000,117519524.000000
74750000.000000,117450000.000000
74750000.000000,116750000.000000
74758046.000000,116680985.000000
74802466.000000,116580510.000000
74880078.000000,116502762.000000
74980476.000000,116458167.000000
75050000.000000,116450000.000000
Z" /> 
</g>
<g >
</g>
<g style="fill:#000000; fill-opacity:1.0; 
stroke:#000000; stroke-width:1.000000; stroke-opacity:1; 
stroke-linecap:round; stroke-linejoin:round;">
<path style="fill:#000000; fill-opacity:1.0; 
stroke:#000000; stroke-width:1.000000; stroke-opacity:1; 
stroke-linecap:round; stroke-linejoin:round;fill-rule:evenodd;"
d="M 84500000.000000,99682323.000000
84519134.000000,99686129.000000
84535355.000000,99696968.000000
84546194.000000,99713189.000000
84550000.000000,99732323.000000
84550000.000000,101732323.000000
84546194.000000,101751457.000000
84535355.000000,101767678.000000
84519134.000000,101778517.000000
84500000.000000,101782323.000000
82500000.000000,101782323.000000
82480866.000000,101778517.000000
82464645.000000,101767678.000000
82453806.000000,101751457.000000
82450000.000000,101732323.000000
82450000.000000,99732323.000000
82453806.000000,99713189.000000
82464645.000000,99696968.000000
82480866.000000,99686129.000000
82500000.000000,99682323.000000
Z" /> 
<circle cx="83500000.000000" cy="105732323.000000" r="1050000.000000" /> 
</g>
<g style="fill:#000000; fill-opacity:1.0; 
stroke:#000000; stroke-width:21200.000000; stroke-opacity:1; 
stroke-linecap:round; stroke-linejoin:round;">
</g>
<g >
</g>
<g style="fill:#000000; fill-opacity:1.0; 
stroke:#000000; stroke-width:21200.000000; stroke-opacity:1; 
stroke-linecap:round; stroke-linejoin:round;">
</g>
<g style="fill:#000000; fill-opacity:1.0; 
stroke:#000000; stroke-width:1.000000; stroke-opacity:1; 
stroke-linecap:round; stroke-linejoin:round;">
<circle cx="75500000.000000" cy="108180000.000000" r="850000.000000" /> 
<circle cx="75500000.000000" cy="98020000.000000" r="850000.000000" /> 
</g>
<g style="fill:#000000; fill-opacity:1.0; 
stroke:#000000; stroke-width:21200.000000; stroke-opacity:1; 
stroke-linecap:round; stroke-linejoin:round;">
</g>
<g >
</g>
<g >
</g>
<g >
</g>
<g >
</g>
<g >
</g>
<g >
</g>
</g> 
</svg>
