G04 #@! TF.GenerationSoftware,KiCad,Pcbnew,(6.0.4)*
G04 #@! TF.CreationDate,2022-06-22T13:50:13-04:00*
G04 #@! TF.ProjectId,Macintosh Portable Battery Adapter v1.2,4d616369-6e74-46f7-9368-20506f727461,rev?*
G04 #@! TF.SameCoordinates,Original*
G04 #@! TF.FileFunction,Soldermask,Bot*
G04 #@! TF.FilePolarity,Negative*
%FSLAX46Y46*%
G04 Gerber Fmt 4.6, Leading zero omitted, Abs format (unit mm)*
G04 Created by KiCad (PCBNEW (6.0.4)) date 2022-06-22 13:50:13*
%MOMM*%
%LPD*%
G01*
G04 APERTURE LIST*
G04 Aperture macros list*
%AMRoundRect*
0 Rectangle with rounded corners*
0 $1 Rounding radius*
0 $2 $3 $4 $5 $6 $7 $8 $9 X,Y pos of 4 corners*
0 Add a 4 corners polygon primitive as box body*
4,1,4,$2,$3,$4,$5,$6,$7,$8,$9,$2,$3,0*
0 Add four circle primitives for the rounded corners*
1,1,$1+$1,$2,$3*
1,1,$1+$1,$4,$5*
1,1,$1+$1,$6,$7*
1,1,$1+$1,$8,$9*
0 Add four rect primitives between the rounded corners*
20,1,$1+$1,$2,$3,$4,$5,0*
20,1,$1+$1,$4,$5,$6,$7,0*
20,1,$1+$1,$6,$7,$8,$9,0*
20,1,$1+$1,$8,$9,$2,$3,0*%
G04 Aperture macros list end*
%ADD10C,1.000000*%
%ADD11C,0.500000*%
%ADD12C,0.010000*%
%ADD13O,1.700000X1.700000*%
%ADD14C,1.700000*%
%ADD15RoundRect,0.050000X-1.000000X1.000000X-1.000000X-1.000000X1.000000X-1.000000X1.000000X1.000000X0*%
%ADD16C,2.100000*%
%ADD17RoundRect,0.050000X-10.000000X-10.000000X10.000000X-10.000000X10.000000X10.000000X-10.000000X10.000000X0*%
G04 APERTURE END LIST*
D10*
X166659523Y-107736904D02*
X166659523Y-102736904D01*
X164992857Y-106308333D01*
X163326190Y-102736904D01*
X163326190Y-107736904D01*
X158802380Y-107736904D02*
X158802380Y-105117857D01*
X159040476Y-104641666D01*
X159516666Y-104403571D01*
X160469047Y-104403571D01*
X160945238Y-104641666D01*
X158802380Y-107498809D02*
X159278571Y-107736904D01*
X160469047Y-107736904D01*
X160945238Y-107498809D01*
X161183333Y-107022619D01*
X161183333Y-106546428D01*
X160945238Y-106070238D01*
X160469047Y-105832142D01*
X159278571Y-105832142D01*
X158802380Y-105594047D01*
X154278571Y-107498809D02*
X154754761Y-107736904D01*
X155707142Y-107736904D01*
X156183333Y-107498809D01*
X156421428Y-107260714D01*
X156659523Y-106784523D01*
X156659523Y-105355952D01*
X156421428Y-104879761D01*
X156183333Y-104641666D01*
X155707142Y-104403571D01*
X154754761Y-104403571D01*
X154278571Y-104641666D01*
X152135714Y-107736904D02*
X152135714Y-104403571D01*
X152135714Y-102736904D02*
X152373809Y-102975000D01*
X152135714Y-103213095D01*
X151897619Y-102975000D01*
X152135714Y-102736904D01*
X152135714Y-103213095D01*
X149754761Y-104403571D02*
X149754761Y-107736904D01*
X149754761Y-104879761D02*
X149516666Y-104641666D01*
X149040476Y-104403571D01*
X148326190Y-104403571D01*
X147850000Y-104641666D01*
X147611904Y-105117857D01*
X147611904Y-107736904D01*
X145945238Y-104403571D02*
X144040476Y-104403571D01*
X145230952Y-102736904D02*
X145230952Y-107022619D01*
X144992857Y-107498809D01*
X144516666Y-107736904D01*
X144040476Y-107736904D01*
X141659523Y-107736904D02*
X142135714Y-107498809D01*
X142373809Y-107260714D01*
X142611904Y-106784523D01*
X142611904Y-105355952D01*
X142373809Y-104879761D01*
X142135714Y-104641666D01*
X141659523Y-104403571D01*
X140945238Y-104403571D01*
X140469047Y-104641666D01*
X140230952Y-104879761D01*
X139992857Y-105355952D01*
X139992857Y-106784523D01*
X140230952Y-107260714D01*
X140469047Y-107498809D01*
X140945238Y-107736904D01*
X141659523Y-107736904D01*
X138088095Y-107498809D02*
X137611904Y-107736904D01*
X136659523Y-107736904D01*
X136183333Y-107498809D01*
X135945238Y-107022619D01*
X135945238Y-106784523D01*
X136183333Y-106308333D01*
X136659523Y-106070238D01*
X137373809Y-106070238D01*
X137850000Y-105832142D01*
X138088095Y-105355952D01*
X138088095Y-105117857D01*
X137850000Y-104641666D01*
X137373809Y-104403571D01*
X136659523Y-104403571D01*
X136183333Y-104641666D01*
X133802380Y-107736904D02*
X133802380Y-102736904D01*
X131659523Y-107736904D02*
X131659523Y-105117857D01*
X131897619Y-104641666D01*
X132373809Y-104403571D01*
X133088095Y-104403571D01*
X133564285Y-104641666D01*
X133802380Y-104879761D01*
X125469047Y-107736904D02*
X125469047Y-102736904D01*
X123564285Y-102736904D01*
X123088095Y-102975000D01*
X122850000Y-103213095D01*
X122611904Y-103689285D01*
X122611904Y-104403571D01*
X122850000Y-104879761D01*
X123088095Y-105117857D01*
X123564285Y-105355952D01*
X125469047Y-105355952D01*
X119754761Y-107736904D02*
X120230952Y-107498809D01*
X120469047Y-107260714D01*
X120707142Y-106784523D01*
X120707142Y-105355952D01*
X120469047Y-104879761D01*
X120230952Y-104641666D01*
X119754761Y-104403571D01*
X119040476Y-104403571D01*
X118564285Y-104641666D01*
X118326190Y-104879761D01*
X118088095Y-105355952D01*
X118088095Y-106784523D01*
X118326190Y-107260714D01*
X118564285Y-107498809D01*
X119040476Y-107736904D01*
X119754761Y-107736904D01*
X115945238Y-107736904D02*
X115945238Y-104403571D01*
X115945238Y-105355952D02*
X115707142Y-104879761D01*
X115469047Y-104641666D01*
X114992857Y-104403571D01*
X114516666Y-104403571D01*
X113564285Y-104403571D02*
X111659523Y-104403571D01*
X112850000Y-102736904D02*
X112850000Y-107022619D01*
X112611904Y-107498809D01*
X112135714Y-107736904D01*
X111659523Y-107736904D01*
X107850000Y-107736904D02*
X107850000Y-105117857D01*
X108088095Y-104641666D01*
X108564285Y-104403571D01*
X109516666Y-104403571D01*
X109992857Y-104641666D01*
X107850000Y-107498809D02*
X108326190Y-107736904D01*
X109516666Y-107736904D01*
X109992857Y-107498809D01*
X110230952Y-107022619D01*
X110230952Y-106546428D01*
X109992857Y-106070238D01*
X109516666Y-105832142D01*
X108326190Y-105832142D01*
X107850000Y-105594047D01*
X105469047Y-107736904D02*
X105469047Y-102736904D01*
X105469047Y-104641666D02*
X104992857Y-104403571D01*
X104040476Y-104403571D01*
X103564285Y-104641666D01*
X103326190Y-104879761D01*
X103088095Y-105355952D01*
X103088095Y-106784523D01*
X103326190Y-107260714D01*
X103564285Y-107498809D01*
X104040476Y-107736904D01*
X104992857Y-107736904D01*
X105469047Y-107498809D01*
X100230952Y-107736904D02*
X100707142Y-107498809D01*
X100945238Y-107022619D01*
X100945238Y-102736904D01*
X96421428Y-107498809D02*
X96897619Y-107736904D01*
X97850000Y-107736904D01*
X98326190Y-107498809D01*
X98564285Y-107022619D01*
X98564285Y-105117857D01*
X98326190Y-104641666D01*
X97850000Y-104403571D01*
X96897619Y-104403571D01*
X96421428Y-104641666D01*
X96183333Y-105117857D01*
X96183333Y-105594047D01*
X98564285Y-106070238D01*
X164992857Y-113167857D02*
X164278571Y-113405952D01*
X164040476Y-113644047D01*
X163802380Y-114120238D01*
X163802380Y-114834523D01*
X164040476Y-115310714D01*
X164278571Y-115548809D01*
X164754761Y-115786904D01*
X166659523Y-115786904D01*
X166659523Y-110786904D01*
X164992857Y-110786904D01*
X164516666Y-111025000D01*
X164278571Y-111263095D01*
X164040476Y-111739285D01*
X164040476Y-112215476D01*
X164278571Y-112691666D01*
X164516666Y-112929761D01*
X164992857Y-113167857D01*
X166659523Y-113167857D01*
X159516666Y-115786904D02*
X159516666Y-113167857D01*
X159754761Y-112691666D01*
X160230952Y-112453571D01*
X161183333Y-112453571D01*
X161659523Y-112691666D01*
X159516666Y-115548809D02*
X159992857Y-115786904D01*
X161183333Y-115786904D01*
X161659523Y-115548809D01*
X161897619Y-115072619D01*
X161897619Y-114596428D01*
X161659523Y-114120238D01*
X161183333Y-113882142D01*
X159992857Y-113882142D01*
X159516666Y-113644047D01*
X157850000Y-112453571D02*
X155945238Y-112453571D01*
X157135714Y-110786904D02*
X157135714Y-115072619D01*
X156897619Y-115548809D01*
X156421428Y-115786904D01*
X155945238Y-115786904D01*
X154992857Y-112453571D02*
X153088095Y-112453571D01*
X154278571Y-110786904D02*
X154278571Y-115072619D01*
X154040476Y-115548809D01*
X153564285Y-115786904D01*
X153088095Y-115786904D01*
X149516666Y-115548809D02*
X149992857Y-115786904D01*
X150945238Y-115786904D01*
X151421428Y-115548809D01*
X151659523Y-115072619D01*
X151659523Y-113167857D01*
X151421428Y-112691666D01*
X150945238Y-112453571D01*
X149992857Y-112453571D01*
X149516666Y-112691666D01*
X149278571Y-113167857D01*
X149278571Y-113644047D01*
X151659523Y-114120238D01*
X147135714Y-115786904D02*
X147135714Y-112453571D01*
X147135714Y-113405952D02*
X146897619Y-112929761D01*
X146659523Y-112691666D01*
X146183333Y-112453571D01*
X145707142Y-112453571D01*
X144516666Y-112453571D02*
X143326190Y-115786904D01*
X142135714Y-112453571D02*
X143326190Y-115786904D01*
X143802380Y-116977380D01*
X144040476Y-117215476D01*
X144516666Y-117453571D01*
X136659523Y-114358333D02*
X134278571Y-114358333D01*
X137135714Y-115786904D02*
X135469047Y-110786904D01*
X133802380Y-115786904D01*
X129992857Y-115786904D02*
X129992857Y-110786904D01*
X129992857Y-115548809D02*
X130469047Y-115786904D01*
X131421428Y-115786904D01*
X131897619Y-115548809D01*
X132135714Y-115310714D01*
X132373809Y-114834523D01*
X132373809Y-113405952D01*
X132135714Y-112929761D01*
X131897619Y-112691666D01*
X131421428Y-112453571D01*
X130469047Y-112453571D01*
X129992857Y-112691666D01*
X125469047Y-115786904D02*
X125469047Y-113167857D01*
X125707142Y-112691666D01*
X126183333Y-112453571D01*
X127135714Y-112453571D01*
X127611904Y-112691666D01*
X125469047Y-115548809D02*
X125945238Y-115786904D01*
X127135714Y-115786904D01*
X127611904Y-115548809D01*
X127850000Y-115072619D01*
X127850000Y-114596428D01*
X127611904Y-114120238D01*
X127135714Y-113882142D01*
X125945238Y-113882142D01*
X125469047Y-113644047D01*
X123088095Y-112453571D02*
X123088095Y-117453571D01*
X123088095Y-112691666D02*
X122611904Y-112453571D01*
X121659523Y-112453571D01*
X121183333Y-112691666D01*
X120945238Y-112929761D01*
X120707142Y-113405952D01*
X120707142Y-114834523D01*
X120945238Y-115310714D01*
X121183333Y-115548809D01*
X121659523Y-115786904D01*
X122611904Y-115786904D01*
X123088095Y-115548809D01*
X119278571Y-112453571D02*
X117373809Y-112453571D01*
X118564285Y-110786904D02*
X118564285Y-115072619D01*
X118326190Y-115548809D01*
X117850000Y-115786904D01*
X117373809Y-115786904D01*
X113802380Y-115548809D02*
X114278571Y-115786904D01*
X115230952Y-115786904D01*
X115707142Y-115548809D01*
X115945238Y-115072619D01*
X115945238Y-113167857D01*
X115707142Y-112691666D01*
X115230952Y-112453571D01*
X114278571Y-112453571D01*
X113802380Y-112691666D01*
X113564285Y-113167857D01*
X113564285Y-113644047D01*
X115945238Y-114120238D01*
X111421428Y-115786904D02*
X111421428Y-112453571D01*
X111421428Y-113405952D02*
X111183333Y-112929761D01*
X110945238Y-112691666D01*
X110469047Y-112453571D01*
X109992857Y-112453571D01*
X104992857Y-112453571D02*
X103802380Y-115786904D01*
X102611904Y-112453571D01*
X98088095Y-115786904D02*
X100945238Y-115786904D01*
X99516666Y-115786904D02*
X99516666Y-110786904D01*
X99992857Y-111501190D01*
X100469047Y-111977380D01*
X100945238Y-112215476D01*
X95945238Y-115310714D02*
X95707142Y-115548809D01*
X95945238Y-115786904D01*
X96183333Y-115548809D01*
X95945238Y-115310714D01*
X95945238Y-115786904D01*
X93802380Y-111263095D02*
X93564285Y-111025000D01*
X93088095Y-110786904D01*
X91897619Y-110786904D01*
X91421428Y-111025000D01*
X91183333Y-111263095D01*
X90945238Y-111739285D01*
X90945238Y-112215476D01*
X91183333Y-112929761D01*
X94040476Y-115786904D01*
X90945238Y-115786904D01*
D11*
X166693285Y-121785142D02*
X166121857Y-123785142D01*
X165550428Y-122356571D01*
X164979000Y-123785142D01*
X164407571Y-121785142D01*
X163550428Y-121785142D02*
X162979000Y-123785142D01*
X162407571Y-122356571D01*
X161836142Y-123785142D01*
X161264714Y-121785142D01*
X160407571Y-121785142D02*
X159836142Y-123785142D01*
X159264714Y-122356571D01*
X158693285Y-123785142D01*
X158121857Y-121785142D01*
X156979000Y-123499428D02*
X156836142Y-123642285D01*
X156979000Y-123785142D01*
X157121857Y-123642285D01*
X156979000Y-123499428D01*
X156979000Y-123785142D01*
X154264714Y-123785142D02*
X154264714Y-122213714D01*
X154407571Y-121928000D01*
X154693285Y-121785142D01*
X155264714Y-121785142D01*
X155550428Y-121928000D01*
X154264714Y-123642285D02*
X154550428Y-123785142D01*
X155264714Y-123785142D01*
X155550428Y-123642285D01*
X155693285Y-123356571D01*
X155693285Y-123070857D01*
X155550428Y-122785142D01*
X155264714Y-122642285D01*
X154550428Y-122642285D01*
X154264714Y-122499428D01*
X152407571Y-123785142D02*
X152693285Y-123642285D01*
X152836142Y-123356571D01*
X152836142Y-120785142D01*
X151550428Y-123785142D02*
X149979000Y-121785142D01*
X151550428Y-121785142D02*
X149979000Y-123785142D01*
X148407571Y-123785142D02*
X148693285Y-123642285D01*
X148836142Y-123356571D01*
X148836142Y-120785142D01*
X145979000Y-123785142D02*
X145979000Y-122213714D01*
X146121857Y-121928000D01*
X146407571Y-121785142D01*
X146979000Y-121785142D01*
X147264714Y-121928000D01*
X145979000Y-123642285D02*
X146264714Y-123785142D01*
X146979000Y-123785142D01*
X147264714Y-123642285D01*
X147407571Y-123356571D01*
X147407571Y-123070857D01*
X147264714Y-122785142D01*
X146979000Y-122642285D01*
X146264714Y-122642285D01*
X145979000Y-122499428D01*
X144550428Y-123785142D02*
X144550428Y-120785142D01*
X144550428Y-121928000D02*
X144264714Y-121785142D01*
X143693285Y-121785142D01*
X143407571Y-121928000D01*
X143264714Y-122070857D01*
X143121857Y-122356571D01*
X143121857Y-123213714D01*
X143264714Y-123499428D01*
X143407571Y-123642285D01*
X143693285Y-123785142D01*
X144264714Y-123785142D01*
X144550428Y-123642285D01*
X141836142Y-123499428D02*
X141693285Y-123642285D01*
X141836142Y-123785142D01*
X141979000Y-123642285D01*
X141836142Y-123499428D01*
X141836142Y-123785142D01*
X139121857Y-123642285D02*
X139407571Y-123785142D01*
X139979000Y-123785142D01*
X140264714Y-123642285D01*
X140407571Y-123499428D01*
X140550428Y-123213714D01*
X140550428Y-122356571D01*
X140407571Y-122070857D01*
X140264714Y-121928000D01*
X139979000Y-121785142D01*
X139407571Y-121785142D01*
X139121857Y-121928000D01*
X137407571Y-123785142D02*
X137693285Y-123642285D01*
X137836142Y-123499428D01*
X137979000Y-123213714D01*
X137979000Y-122356571D01*
X137836142Y-122070857D01*
X137693285Y-121928000D01*
X137407571Y-121785142D01*
X136979000Y-121785142D01*
X136693285Y-121928000D01*
X136550428Y-122070857D01*
X136407571Y-122356571D01*
X136407571Y-123213714D01*
X136550428Y-123499428D01*
X136693285Y-123642285D01*
X136979000Y-123785142D01*
X137407571Y-123785142D01*
X135121857Y-123785142D02*
X135121857Y-121785142D01*
X135121857Y-122070857D02*
X134979000Y-121928000D01*
X134693285Y-121785142D01*
X134264714Y-121785142D01*
X133979000Y-121928000D01*
X133836142Y-122213714D01*
X133836142Y-123785142D01*
X133836142Y-122213714D02*
X133693285Y-121928000D01*
X133407571Y-121785142D01*
X132979000Y-121785142D01*
X132693285Y-121928000D01*
X132550428Y-122213714D01*
X132550428Y-123785142D01*
X166714285Y-121857142D02*
X166142857Y-123857142D01*
X165571428Y-122428571D01*
X165000000Y-123857142D01*
X164428571Y-121857142D01*
X163571428Y-121857142D02*
X163000000Y-123857142D01*
X162428571Y-122428571D01*
X161857142Y-123857142D01*
X161285714Y-121857142D01*
X160428571Y-121857142D02*
X159857142Y-123857142D01*
X159285714Y-122428571D01*
X158714285Y-123857142D01*
X158142857Y-121857142D01*
X157000000Y-123571428D02*
X156857142Y-123714285D01*
X157000000Y-123857142D01*
X157142857Y-123714285D01*
X157000000Y-123571428D01*
X157000000Y-123857142D01*
X154285714Y-123857142D02*
X154285714Y-122285714D01*
X154428571Y-122000000D01*
X154714285Y-121857142D01*
X155285714Y-121857142D01*
X155571428Y-122000000D01*
X154285714Y-123714285D02*
X154571428Y-123857142D01*
X155285714Y-123857142D01*
X155571428Y-123714285D01*
X155714285Y-123428571D01*
X155714285Y-123142857D01*
X155571428Y-122857142D01*
X155285714Y-122714285D01*
X154571428Y-122714285D01*
X154285714Y-122571428D01*
X152428571Y-123857142D02*
X152714285Y-123714285D01*
X152857142Y-123428571D01*
X152857142Y-120857142D01*
X151571428Y-123857142D02*
X150000000Y-121857142D01*
X151571428Y-121857142D02*
X150000000Y-123857142D01*
X148428571Y-123857142D02*
X148714285Y-123714285D01*
X148857142Y-123428571D01*
X148857142Y-120857142D01*
X146000000Y-123857142D02*
X146000000Y-122285714D01*
X146142857Y-122000000D01*
X146428571Y-121857142D01*
X147000000Y-121857142D01*
X147285714Y-122000000D01*
X146000000Y-123714285D02*
X146285714Y-123857142D01*
X147000000Y-123857142D01*
X147285714Y-123714285D01*
X147428571Y-123428571D01*
X147428571Y-123142857D01*
X147285714Y-122857142D01*
X147000000Y-122714285D01*
X146285714Y-122714285D01*
X146000000Y-122571428D01*
X144571428Y-123857142D02*
X144571428Y-120857142D01*
X144571428Y-122000000D02*
X144285714Y-121857142D01*
X143714285Y-121857142D01*
X143428571Y-122000000D01*
X143285714Y-122142857D01*
X143142857Y-122428571D01*
X143142857Y-123285714D01*
X143285714Y-123571428D01*
X143428571Y-123714285D01*
X143714285Y-123857142D01*
X144285714Y-123857142D01*
X144571428Y-123714285D01*
X141857142Y-123571428D02*
X141714285Y-123714285D01*
X141857142Y-123857142D01*
X142000000Y-123714285D01*
X141857142Y-123571428D01*
X141857142Y-123857142D01*
X139142857Y-123714285D02*
X139428571Y-123857142D01*
X140000000Y-123857142D01*
X140285714Y-123714285D01*
X140428571Y-123571428D01*
X140571428Y-123285714D01*
X140571428Y-122428571D01*
X140428571Y-122142857D01*
X140285714Y-122000000D01*
X140000000Y-121857142D01*
X139428571Y-121857142D01*
X139142857Y-122000000D01*
X137428571Y-123857142D02*
X137714285Y-123714285D01*
X137857142Y-123571428D01*
X138000000Y-123285714D01*
X138000000Y-122428571D01*
X137857142Y-122142857D01*
X137714285Y-122000000D01*
X137428571Y-121857142D01*
X137000000Y-121857142D01*
X136714285Y-122000000D01*
X136571428Y-122142857D01*
X136428571Y-122428571D01*
X136428571Y-123285714D01*
X136571428Y-123571428D01*
X136714285Y-123714285D01*
X137000000Y-123857142D01*
X137428571Y-123857142D01*
X135142857Y-123857142D02*
X135142857Y-121857142D01*
X135142857Y-122142857D02*
X135000000Y-122000000D01*
X134714285Y-121857142D01*
X134285714Y-121857142D01*
X134000000Y-122000000D01*
X133857142Y-122285714D01*
X133857142Y-123857142D01*
X133857142Y-122285714D02*
X133714285Y-122000000D01*
X133428571Y-121857142D01*
X133000000Y-121857142D01*
X132714285Y-122000000D01*
X132571428Y-122285714D01*
X132571428Y-123857142D01*
G36*
X104206663Y-122062217D02*
G01*
X104216200Y-122148600D01*
X104216151Y-122159997D01*
X104204101Y-122240349D01*
X104150434Y-122269624D01*
X104025700Y-122265966D01*
X103939651Y-122255222D01*
X103857062Y-122219547D01*
X103835200Y-122148600D01*
X103841993Y-122102144D01*
X103896067Y-122053622D01*
X104025700Y-122031233D01*
X104042014Y-122029918D01*
X104158418Y-122028705D01*
X104206663Y-122062217D01*
G37*
D12*
X104206663Y-122062217D02*
X104216200Y-122148600D01*
X104216151Y-122159997D01*
X104204101Y-122240349D01*
X104150434Y-122269624D01*
X104025700Y-122265966D01*
X103939651Y-122255222D01*
X103857062Y-122219547D01*
X103835200Y-122148600D01*
X103841993Y-122102144D01*
X103896067Y-122053622D01*
X104025700Y-122031233D01*
X104042014Y-122029918D01*
X104158418Y-122028705D01*
X104206663Y-122062217D01*
G36*
X91059000Y-124358400D02*
G01*
X91059000Y-120802400D01*
X91313000Y-120802400D01*
X91313000Y-124104400D01*
X111125000Y-124104400D01*
X111125000Y-120802400D01*
X91313000Y-120802400D01*
X91059000Y-120802400D01*
X91059000Y-120548400D01*
X111379000Y-120548400D01*
X111379000Y-124358400D01*
X91059000Y-124358400D01*
G37*
X91059000Y-124358400D02*
X91059000Y-120802400D01*
X91313000Y-120802400D01*
X91313000Y-124104400D01*
X111125000Y-124104400D01*
X111125000Y-120802400D01*
X91313000Y-120802400D01*
X91059000Y-120802400D01*
X91059000Y-120548400D01*
X111379000Y-120548400D01*
X111379000Y-124358400D01*
X91059000Y-124358400D01*
G36*
X94840945Y-122186482D02*
G01*
X94885317Y-122268774D01*
X94937342Y-122402600D01*
X95015234Y-122631200D01*
X94627592Y-122631200D01*
X94709796Y-122402600D01*
X94738669Y-122327531D01*
X94790444Y-122217334D01*
X94825725Y-122174000D01*
X94840945Y-122186482D01*
G37*
X94840945Y-122186482D02*
X94885317Y-122268774D01*
X94937342Y-122402600D01*
X95015234Y-122631200D01*
X94627592Y-122631200D01*
X94709796Y-122402600D01*
X94738669Y-122327531D01*
X94790444Y-122217334D01*
X94825725Y-122174000D01*
X94840945Y-122186482D01*
G36*
X109156957Y-121056411D02*
G01*
X109330655Y-121061326D01*
X109443397Y-121085090D01*
X109532828Y-121142137D01*
X109636595Y-121246900D01*
X109697417Y-121317901D01*
X109833263Y-121503535D01*
X109947700Y-121691400D01*
X109992288Y-121779701D01*
X110039807Y-121901515D01*
X110067200Y-122034276D01*
X110079828Y-122208173D01*
X110083054Y-122453400D01*
X110079201Y-122644084D01*
X110044494Y-122953884D01*
X109964757Y-123210423D01*
X109829147Y-123442860D01*
X109626822Y-123680356D01*
X109561213Y-123748183D01*
X109463578Y-123836153D01*
X109372028Y-123881317D01*
X109250669Y-123897607D01*
X109063608Y-123898954D01*
X108712000Y-123896709D01*
X108915200Y-123791912D01*
X109044101Y-123718244D01*
X109345629Y-123473347D01*
X109570555Y-123172363D01*
X109711166Y-122827534D01*
X109759750Y-122451105D01*
X109718104Y-122093857D01*
X109583605Y-121750880D01*
X109358683Y-121451487D01*
X109045953Y-121200260D01*
X108819109Y-121056399D01*
X109139703Y-121056399D01*
X109156957Y-121056411D01*
G37*
X109156957Y-121056411D02*
X109330655Y-121061326D01*
X109443397Y-121085090D01*
X109532828Y-121142137D01*
X109636595Y-121246900D01*
X109697417Y-121317901D01*
X109833263Y-121503535D01*
X109947700Y-121691400D01*
X109992288Y-121779701D01*
X110039807Y-121901515D01*
X110067200Y-122034276D01*
X110079828Y-122208173D01*
X110083054Y-122453400D01*
X110079201Y-122644084D01*
X110044494Y-122953884D01*
X109964757Y-123210423D01*
X109829147Y-123442860D01*
X109626822Y-123680356D01*
X109561213Y-123748183D01*
X109463578Y-123836153D01*
X109372028Y-123881317D01*
X109250669Y-123897607D01*
X109063608Y-123898954D01*
X108712000Y-123896709D01*
X108915200Y-123791912D01*
X109044101Y-123718244D01*
X109345629Y-123473347D01*
X109570555Y-123172363D01*
X109711166Y-122827534D01*
X109759750Y-122451105D01*
X109718104Y-122093857D01*
X109583605Y-121750880D01*
X109358683Y-121451487D01*
X109045953Y-121200260D01*
X108819109Y-121056399D01*
X109139703Y-121056399D01*
X109156957Y-121056411D01*
G36*
X107543600Y-121060467D02*
G01*
X107391200Y-121140395D01*
X107266385Y-121218409D01*
X107040893Y-121413924D01*
X106841262Y-121649927D01*
X106701409Y-121889579D01*
X106626861Y-122138573D01*
X106593516Y-122443442D01*
X106610005Y-122744788D01*
X106677242Y-123000631D01*
X106731817Y-123108449D01*
X106900289Y-123343949D01*
X107120261Y-123570793D01*
X107363046Y-123757331D01*
X107588892Y-123901200D01*
X106918016Y-123901200D01*
X106687439Y-123644742D01*
X106511585Y-123421535D01*
X106352245Y-123114524D01*
X106270519Y-122774060D01*
X106258400Y-122376471D01*
X106280823Y-122119893D01*
X106352224Y-121812381D01*
X106482190Y-121540264D01*
X106684201Y-121268461D01*
X106731370Y-121213791D01*
X106820236Y-121123535D01*
X106905324Y-121077007D01*
X107021757Y-121060031D01*
X107204659Y-121058433D01*
X107543600Y-121060467D01*
G37*
X107543600Y-121060467D02*
X107391200Y-121140395D01*
X107266385Y-121218409D01*
X107040893Y-121413924D01*
X106841262Y-121649927D01*
X106701409Y-121889579D01*
X106626861Y-122138573D01*
X106593516Y-122443442D01*
X106610005Y-122744788D01*
X106677242Y-123000631D01*
X106731817Y-123108449D01*
X106900289Y-123343949D01*
X107120261Y-123570793D01*
X107363046Y-123757331D01*
X107588892Y-123901200D01*
X106918016Y-123901200D01*
X106687439Y-123644742D01*
X106511585Y-123421535D01*
X106352245Y-123114524D01*
X106270519Y-122774060D01*
X106258400Y-122376471D01*
X106280823Y-122119893D01*
X106352224Y-121812381D01*
X106482190Y-121540264D01*
X106684201Y-121268461D01*
X106731370Y-121213791D01*
X106820236Y-121123535D01*
X106905324Y-121077007D01*
X107021757Y-121060031D01*
X107204659Y-121058433D01*
X107543600Y-121060467D01*
G36*
X105246738Y-122324169D02*
G01*
X105258528Y-122760604D01*
X105371609Y-123189474D01*
X105585978Y-123610864D01*
X105650526Y-123714779D01*
X105715171Y-123825247D01*
X105740200Y-123877564D01*
X105713997Y-123879598D01*
X105594272Y-123882332D01*
X105382869Y-123884959D01*
X105085547Y-123887457D01*
X104708064Y-123889809D01*
X104256179Y-123891995D01*
X103735649Y-123893995D01*
X103152234Y-123895791D01*
X102511690Y-123897364D01*
X101819778Y-123898693D01*
X101082254Y-123899761D01*
X100304878Y-123900547D01*
X99493407Y-123901033D01*
X98653600Y-123901200D01*
X91567000Y-123901200D01*
X91567000Y-123141286D01*
X94056200Y-123141286D01*
X94057868Y-123147924D01*
X94117231Y-123177842D01*
X94235258Y-123190000D01*
X94307068Y-123186986D01*
X94406377Y-123152679D01*
X94462600Y-123063000D01*
X94492661Y-123000478D01*
X94546034Y-122958033D01*
X94645274Y-122939852D01*
X94818200Y-122936000D01*
X94970477Y-122938599D01*
X95079036Y-122953987D01*
X95137538Y-122992142D01*
X95173800Y-123063000D01*
X95210944Y-123133863D01*
X95286149Y-123178979D01*
X95425802Y-123190000D01*
X95629518Y-123190000D01*
X99745800Y-123190000D01*
X100195678Y-123190000D01*
X100736400Y-122210218D01*
X100765480Y-123190000D01*
X101117400Y-123190000D01*
X101117400Y-122605800D01*
X101422200Y-122605800D01*
X101422391Y-122626542D01*
X101432848Y-122686272D01*
X101476033Y-122718006D01*
X101574899Y-122730573D01*
X101752400Y-122732800D01*
X101806330Y-122732726D01*
X101961629Y-122728704D01*
X102044138Y-122712095D01*
X102076810Y-122674069D01*
X102082600Y-122605800D01*
X102082410Y-122585057D01*
X102071953Y-122525327D01*
X102028768Y-122493593D01*
X101929902Y-122481026D01*
X101752400Y-122478800D01*
X101698471Y-122478873D01*
X101543172Y-122482895D01*
X101460663Y-122499504D01*
X101427991Y-122537530D01*
X101422200Y-122605800D01*
X101117400Y-122605800D01*
X101117400Y-121793000D01*
X101873450Y-121793000D01*
X102155825Y-122198050D01*
X102279941Y-122379745D01*
X102366129Y-122522799D01*
X102400410Y-122605800D01*
X102413702Y-122637985D01*
X102433959Y-122753251D01*
X102438200Y-122896550D01*
X102438200Y-123190000D01*
X102607534Y-123190000D01*
X102617592Y-123189941D01*
X102741019Y-123179379D01*
X102810734Y-123156133D01*
X102824754Y-123116087D01*
X102839058Y-122997043D01*
X102844600Y-122833900D01*
X102845785Y-122749118D01*
X102851462Y-122694403D01*
X103361713Y-122694403D01*
X103369102Y-122857609D01*
X103461890Y-123005603D01*
X103634458Y-123118100D01*
X103766202Y-123153395D01*
X103974481Y-123180099D01*
X104214569Y-123190000D01*
X104622600Y-123190000D01*
X104622600Y-121767600D01*
X104137691Y-121767600D01*
X103935537Y-121769037D01*
X103773871Y-121777213D01*
X103680351Y-121794884D01*
X103668365Y-121797149D01*
X103594583Y-121833842D01*
X103528091Y-121892290D01*
X103431509Y-122026360D01*
X103412589Y-122175775D01*
X103492300Y-122312545D01*
X103546266Y-122375311D01*
X103541546Y-122430622D01*
X103466900Y-122513436D01*
X103445345Y-122536271D01*
X103361713Y-122694403D01*
X102851462Y-122694403D01*
X102859254Y-122619300D01*
X102897724Y-122502689D01*
X102973428Y-122367975D01*
X103098600Y-122183850D01*
X103147516Y-122113686D01*
X103252467Y-121959139D01*
X103325321Y-121845992D01*
X103352600Y-121794884D01*
X103347881Y-121789007D01*
X103278239Y-121773726D01*
X103151841Y-121767600D01*
X103068134Y-121770600D01*
X102971953Y-121796825D01*
X102889245Y-121868020D01*
X102787441Y-122005442D01*
X102623802Y-122243285D01*
X102543701Y-122121404D01*
X102532639Y-122104637D01*
X102405689Y-121927789D01*
X102300338Y-121824765D01*
X102194551Y-121779647D01*
X102066291Y-121776514D01*
X101873450Y-121793000D01*
X101117400Y-121793000D01*
X101117400Y-121767600D01*
X100892899Y-121767600D01*
X100668398Y-121767599D01*
X100411540Y-122212100D01*
X100154681Y-122656600D01*
X100153441Y-122212100D01*
X100152200Y-121767600D01*
X99745800Y-121767600D01*
X99745800Y-123190000D01*
X95629518Y-123190000D01*
X95534005Y-122948700D01*
X95509678Y-122887380D01*
X95446446Y-122728645D01*
X95783400Y-122728645D01*
X95797926Y-122893443D01*
X95860964Y-123022065D01*
X95990234Y-123115678D01*
X96042058Y-123136754D01*
X96217425Y-123172844D01*
X96428578Y-123183081D01*
X96465246Y-123182187D01*
X96688624Y-123173014D01*
X96830886Y-123154171D01*
X96910115Y-123118080D01*
X96944393Y-123057166D01*
X96951800Y-122963852D01*
X96951800Y-122795572D01*
X96761300Y-122863556D01*
X96681675Y-122889391D01*
X96474157Y-122929027D01*
X96314360Y-122917973D01*
X96217199Y-122859096D01*
X96197591Y-122755262D01*
X96214152Y-122718788D01*
X96308854Y-122652577D01*
X96452610Y-122605800D01*
X97256600Y-122605800D01*
X97256607Y-122610251D01*
X97263937Y-122678777D01*
X97301274Y-122715416D01*
X97392476Y-122730110D01*
X97561400Y-122732800D01*
X97572084Y-122732797D01*
X97736546Y-122729743D01*
X97824481Y-122714185D01*
X97859747Y-122676185D01*
X97866200Y-122605800D01*
X97866194Y-122601348D01*
X97858864Y-122532822D01*
X97821527Y-122496183D01*
X97730325Y-122481489D01*
X97561400Y-122478800D01*
X97550717Y-122478802D01*
X97386255Y-122481856D01*
X97298320Y-122497414D01*
X97263054Y-122535414D01*
X97256600Y-122605800D01*
X96452610Y-122605800D01*
X96494335Y-122592223D01*
X96609515Y-122559818D01*
X96756563Y-122508088D01*
X96842438Y-122464162D01*
X96920815Y-122372831D01*
X96970077Y-122197300D01*
X96930004Y-121996988D01*
X96917926Y-121976526D01*
X98171000Y-121976526D01*
X98174284Y-122055457D01*
X98200292Y-122098771D01*
X98269261Y-122074187D01*
X98299574Y-122061568D01*
X98433588Y-122033003D01*
X98597482Y-122021600D01*
X98725582Y-122031488D01*
X98899793Y-122101639D01*
X98968970Y-122197300D01*
X99001532Y-122242330D01*
X99034600Y-122457351D01*
X99026001Y-122582444D01*
X99017526Y-122605800D01*
X98959794Y-122764903D01*
X98825821Y-122872738D01*
X98621216Y-122909085D01*
X98574439Y-122908543D01*
X98408701Y-122895107D01*
X98285300Y-122869076D01*
X98238727Y-122854334D01*
X98183199Y-122865834D01*
X98171000Y-122956189D01*
X98189332Y-123044278D01*
X98269261Y-123137412D01*
X98316647Y-123156833D01*
X98490183Y-123185846D01*
X98703233Y-123184992D01*
X98914746Y-123156105D01*
X99083672Y-123101021D01*
X99094266Y-123095555D01*
X99286334Y-122939606D01*
X99407368Y-122718559D01*
X99449467Y-122446543D01*
X99416310Y-122234160D01*
X99301609Y-122020228D01*
X99121171Y-121855869D01*
X98891935Y-121751623D01*
X98630840Y-121718024D01*
X98354824Y-121765611D01*
X98252234Y-121806486D01*
X98186570Y-121870353D01*
X98171000Y-121976526D01*
X96917926Y-121976526D01*
X96874959Y-121903730D01*
X96714799Y-121784214D01*
X96478851Y-121729147D01*
X96169553Y-121739358D01*
X96022784Y-121760267D01*
X95929912Y-121788235D01*
X95892147Y-121835344D01*
X95885000Y-121916872D01*
X95885000Y-122058834D01*
X96245070Y-122033071D01*
X96362289Y-122024968D01*
X96500698Y-122019927D01*
X96570533Y-122031597D01*
X96592666Y-122065768D01*
X96587970Y-122128235D01*
X96559983Y-122204789D01*
X96469200Y-122266236D01*
X96436650Y-122271868D01*
X96141119Y-122344178D01*
X95938060Y-122441494D01*
X95820984Y-122568191D01*
X95783400Y-122728645D01*
X95446446Y-122728645D01*
X95435124Y-122700224D01*
X95343741Y-122471503D01*
X95250015Y-122237500D01*
X95061538Y-121767599D01*
X94581720Y-121767599D01*
X94318960Y-122430086D01*
X94287209Y-122510496D01*
X94196401Y-122744751D01*
X94123071Y-122940308D01*
X94074058Y-123078657D01*
X94056200Y-123141286D01*
X91567000Y-123141286D01*
X91567000Y-121056400D01*
X105748487Y-121056400D01*
X105636461Y-121237660D01*
X105527035Y-121428272D01*
X105383740Y-121767600D01*
X105336239Y-121880086D01*
X105246738Y-122324169D01*
G37*
X105246738Y-122324169D02*
X105258528Y-122760604D01*
X105371609Y-123189474D01*
X105585978Y-123610864D01*
X105650526Y-123714779D01*
X105715171Y-123825247D01*
X105740200Y-123877564D01*
X105713997Y-123879598D01*
X105594272Y-123882332D01*
X105382869Y-123884959D01*
X105085547Y-123887457D01*
X104708064Y-123889809D01*
X104256179Y-123891995D01*
X103735649Y-123893995D01*
X103152234Y-123895791D01*
X102511690Y-123897364D01*
X101819778Y-123898693D01*
X101082254Y-123899761D01*
X100304878Y-123900547D01*
X99493407Y-123901033D01*
X98653600Y-123901200D01*
X91567000Y-123901200D01*
X91567000Y-123141286D01*
X94056200Y-123141286D01*
X94057868Y-123147924D01*
X94117231Y-123177842D01*
X94235258Y-123190000D01*
X94307068Y-123186986D01*
X94406377Y-123152679D01*
X94462600Y-123063000D01*
X94492661Y-123000478D01*
X94546034Y-122958033D01*
X94645274Y-122939852D01*
X94818200Y-122936000D01*
X94970477Y-122938599D01*
X95079036Y-122953987D01*
X95137538Y-122992142D01*
X95173800Y-123063000D01*
X95210944Y-123133863D01*
X95286149Y-123178979D01*
X95425802Y-123190000D01*
X95629518Y-123190000D01*
X99745800Y-123190000D01*
X100195678Y-123190000D01*
X100736400Y-122210218D01*
X100765480Y-123190000D01*
X101117400Y-123190000D01*
X101117400Y-122605800D01*
X101422200Y-122605800D01*
X101422391Y-122626542D01*
X101432848Y-122686272D01*
X101476033Y-122718006D01*
X101574899Y-122730573D01*
X101752400Y-122732800D01*
X101806330Y-122732726D01*
X101961629Y-122728704D01*
X102044138Y-122712095D01*
X102076810Y-122674069D01*
X102082600Y-122605800D01*
X102082410Y-122585057D01*
X102071953Y-122525327D01*
X102028768Y-122493593D01*
X101929902Y-122481026D01*
X101752400Y-122478800D01*
X101698471Y-122478873D01*
X101543172Y-122482895D01*
X101460663Y-122499504D01*
X101427991Y-122537530D01*
X101422200Y-122605800D01*
X101117400Y-122605800D01*
X101117400Y-121793000D01*
X101873450Y-121793000D01*
X102155825Y-122198050D01*
X102279941Y-122379745D01*
X102366129Y-122522799D01*
X102400410Y-122605800D01*
X102413702Y-122637985D01*
X102433959Y-122753251D01*
X102438200Y-122896550D01*
X102438200Y-123190000D01*
X102607534Y-123190000D01*
X102617592Y-123189941D01*
X102741019Y-123179379D01*
X102810734Y-123156133D01*
X102824754Y-123116087D01*
X102839058Y-122997043D01*
X102844600Y-122833900D01*
X102845785Y-122749118D01*
X102851462Y-122694403D01*
X103361713Y-122694403D01*
X103369102Y-122857609D01*
X103461890Y-123005603D01*
X103634458Y-123118100D01*
X103766202Y-123153395D01*
X103974481Y-123180099D01*
X104214569Y-123190000D01*
X104622600Y-123190000D01*
X104622600Y-121767600D01*
X104137691Y-121767600D01*
X103935537Y-121769037D01*
X103773871Y-121777213D01*
X103680351Y-121794884D01*
X103668365Y-121797149D01*
X103594583Y-121833842D01*
X103528091Y-121892290D01*
X103431509Y-122026360D01*
X103412589Y-122175775D01*
X103492300Y-122312545D01*
X103546266Y-122375311D01*
X103541546Y-122430622D01*
X103466900Y-122513436D01*
X103445345Y-122536271D01*
X103361713Y-122694403D01*
X102851462Y-122694403D01*
X102859254Y-122619300D01*
X102897724Y-122502689D01*
X102973428Y-122367975D01*
X103098600Y-122183850D01*
X103147516Y-122113686D01*
X103252467Y-121959139D01*
X103325321Y-121845992D01*
X103352600Y-121794884D01*
X103347881Y-121789007D01*
X103278239Y-121773726D01*
X103151841Y-121767600D01*
X103068134Y-121770600D01*
X102971953Y-121796825D01*
X102889245Y-121868020D01*
X102787441Y-122005442D01*
X102623802Y-122243285D01*
X102543701Y-122121404D01*
X102532639Y-122104637D01*
X102405689Y-121927789D01*
X102300338Y-121824765D01*
X102194551Y-121779647D01*
X102066291Y-121776514D01*
X101873450Y-121793000D01*
X101117400Y-121793000D01*
X101117400Y-121767600D01*
X100892899Y-121767600D01*
X100668398Y-121767599D01*
X100411540Y-122212100D01*
X100154681Y-122656600D01*
X100153441Y-122212100D01*
X100152200Y-121767600D01*
X99745800Y-121767600D01*
X99745800Y-123190000D01*
X95629518Y-123190000D01*
X95534005Y-122948700D01*
X95509678Y-122887380D01*
X95446446Y-122728645D01*
X95783400Y-122728645D01*
X95797926Y-122893443D01*
X95860964Y-123022065D01*
X95990234Y-123115678D01*
X96042058Y-123136754D01*
X96217425Y-123172844D01*
X96428578Y-123183081D01*
X96465246Y-123182187D01*
X96688624Y-123173014D01*
X96830886Y-123154171D01*
X96910115Y-123118080D01*
X96944393Y-123057166D01*
X96951800Y-122963852D01*
X96951800Y-122795572D01*
X96761300Y-122863556D01*
X96681675Y-122889391D01*
X96474157Y-122929027D01*
X96314360Y-122917973D01*
X96217199Y-122859096D01*
X96197591Y-122755262D01*
X96214152Y-122718788D01*
X96308854Y-122652577D01*
X96452610Y-122605800D01*
X97256600Y-122605800D01*
X97256607Y-122610251D01*
X97263937Y-122678777D01*
X97301274Y-122715416D01*
X97392476Y-122730110D01*
X97561400Y-122732800D01*
X97572084Y-122732797D01*
X97736546Y-122729743D01*
X97824481Y-122714185D01*
X97859747Y-122676185D01*
X97866200Y-122605800D01*
X97866194Y-122601348D01*
X97858864Y-122532822D01*
X97821527Y-122496183D01*
X97730325Y-122481489D01*
X97561400Y-122478800D01*
X97550717Y-122478802D01*
X97386255Y-122481856D01*
X97298320Y-122497414D01*
X97263054Y-122535414D01*
X97256600Y-122605800D01*
X96452610Y-122605800D01*
X96494335Y-122592223D01*
X96609515Y-122559818D01*
X96756563Y-122508088D01*
X96842438Y-122464162D01*
X96920815Y-122372831D01*
X96970077Y-122197300D01*
X96930004Y-121996988D01*
X96917926Y-121976526D01*
X98171000Y-121976526D01*
X98174284Y-122055457D01*
X98200292Y-122098771D01*
X98269261Y-122074187D01*
X98299574Y-122061568D01*
X98433588Y-122033003D01*
X98597482Y-122021600D01*
X98725582Y-122031488D01*
X98899793Y-122101639D01*
X98968970Y-122197300D01*
X99001532Y-122242330D01*
X99034600Y-122457351D01*
X99026001Y-122582444D01*
X99017526Y-122605800D01*
X98959794Y-122764903D01*
X98825821Y-122872738D01*
X98621216Y-122909085D01*
X98574439Y-122908543D01*
X98408701Y-122895107D01*
X98285300Y-122869076D01*
X98238727Y-122854334D01*
X98183199Y-122865834D01*
X98171000Y-122956189D01*
X98189332Y-123044278D01*
X98269261Y-123137412D01*
X98316647Y-123156833D01*
X98490183Y-123185846D01*
X98703233Y-123184992D01*
X98914746Y-123156105D01*
X99083672Y-123101021D01*
X99094266Y-123095555D01*
X99286334Y-122939606D01*
X99407368Y-122718559D01*
X99449467Y-122446543D01*
X99416310Y-122234160D01*
X99301609Y-122020228D01*
X99121171Y-121855869D01*
X98891935Y-121751623D01*
X98630840Y-121718024D01*
X98354824Y-121765611D01*
X98252234Y-121806486D01*
X98186570Y-121870353D01*
X98171000Y-121976526D01*
X96917926Y-121976526D01*
X96874959Y-121903730D01*
X96714799Y-121784214D01*
X96478851Y-121729147D01*
X96169553Y-121739358D01*
X96022784Y-121760267D01*
X95929912Y-121788235D01*
X95892147Y-121835344D01*
X95885000Y-121916872D01*
X95885000Y-122058834D01*
X96245070Y-122033071D01*
X96362289Y-122024968D01*
X96500698Y-122019927D01*
X96570533Y-122031597D01*
X96592666Y-122065768D01*
X96587970Y-122128235D01*
X96559983Y-122204789D01*
X96469200Y-122266236D01*
X96436650Y-122271868D01*
X96141119Y-122344178D01*
X95938060Y-122441494D01*
X95820984Y-122568191D01*
X95783400Y-122728645D01*
X95446446Y-122728645D01*
X95435124Y-122700224D01*
X95343741Y-122471503D01*
X95250015Y-122237500D01*
X95061538Y-121767599D01*
X94581720Y-121767599D01*
X94318960Y-122430086D01*
X94287209Y-122510496D01*
X94196401Y-122744751D01*
X94123071Y-122940308D01*
X94074058Y-123078657D01*
X94056200Y-123141286D01*
X91567000Y-123141286D01*
X91567000Y-121056400D01*
X105748487Y-121056400D01*
X105636461Y-121237660D01*
X105527035Y-121428272D01*
X105383740Y-121767600D01*
X105336239Y-121880086D01*
X105246738Y-122324169D01*
G36*
X107738605Y-121929083D02*
G01*
X107862989Y-121972404D01*
X107979308Y-122068492D01*
X108057616Y-122157985D01*
X108113579Y-122281608D01*
X108127800Y-122452831D01*
X108126184Y-122527717D01*
X108092780Y-122730945D01*
X108007081Y-122868684D01*
X107857101Y-122963545D01*
X107695545Y-123017750D01*
X107484252Y-123022104D01*
X107276900Y-122936556D01*
X107236089Y-122910699D01*
X107134189Y-122823164D01*
X107125834Y-122751489D01*
X107208066Y-122684854D01*
X107287607Y-122660564D01*
X107366686Y-122708467D01*
X107477071Y-122773057D01*
X107618381Y-122771720D01*
X107743172Y-122703771D01*
X107746862Y-122699982D01*
X107812098Y-122565520D01*
X107811139Y-122397036D01*
X107743920Y-122236103D01*
X107667203Y-122157250D01*
X107545096Y-122130021D01*
X107412126Y-122203448D01*
X107321881Y-122255385D01*
X107217626Y-122227061D01*
X107151444Y-122181440D01*
X107111800Y-122124293D01*
X107137861Y-122064503D01*
X107241772Y-121992107D01*
X107399670Y-121939997D01*
X107584212Y-121919999D01*
X107738605Y-121929083D01*
G37*
X107738605Y-121929083D02*
X107862989Y-121972404D01*
X107979308Y-122068492D01*
X108057616Y-122157985D01*
X108113579Y-122281608D01*
X108127800Y-122452831D01*
X108126184Y-122527717D01*
X108092780Y-122730945D01*
X108007081Y-122868684D01*
X107857101Y-122963545D01*
X107695545Y-123017750D01*
X107484252Y-123022104D01*
X107276900Y-122936556D01*
X107236089Y-122910699D01*
X107134189Y-122823164D01*
X107125834Y-122751489D01*
X107208066Y-122684854D01*
X107287607Y-122660564D01*
X107366686Y-122708467D01*
X107477071Y-122773057D01*
X107618381Y-122771720D01*
X107743172Y-122703771D01*
X107746862Y-122699982D01*
X107812098Y-122565520D01*
X107811139Y-122397036D01*
X107743920Y-122236103D01*
X107667203Y-122157250D01*
X107545096Y-122130021D01*
X107412126Y-122203448D01*
X107321881Y-122255385D01*
X107217626Y-122227061D01*
X107151444Y-122181440D01*
X107111800Y-122124293D01*
X107137861Y-122064503D01*
X107241772Y-121992107D01*
X107399670Y-121939997D01*
X107584212Y-121919999D01*
X107738605Y-121929083D01*
G36*
X104216200Y-122755279D02*
G01*
X104208566Y-122872855D01*
X104169000Y-122925276D01*
X104073510Y-122936000D01*
X104047535Y-122935292D01*
X103892508Y-122897234D01*
X103790904Y-122814131D01*
X103766615Y-122704042D01*
X103783033Y-122660329D01*
X103854078Y-122612668D01*
X104000739Y-122590179D01*
X104216200Y-122574558D01*
X104216200Y-122755279D01*
G37*
X104216200Y-122755279D02*
X104208566Y-122872855D01*
X104169000Y-122925276D01*
X104073510Y-122936000D01*
X104047535Y-122935292D01*
X103892508Y-122897234D01*
X103790904Y-122814131D01*
X103766615Y-122704042D01*
X103783033Y-122660329D01*
X103854078Y-122612668D01*
X104000739Y-122590179D01*
X104216200Y-122574558D01*
X104216200Y-122755279D01*
G36*
X108862957Y-121926349D02*
G01*
X108996090Y-121963895D01*
X109106114Y-122048567D01*
X109122130Y-122065274D01*
X109234977Y-122250331D01*
X109273613Y-122458866D01*
X109241673Y-122664451D01*
X109142791Y-122840659D01*
X108980602Y-122961064D01*
X108802045Y-123022392D01*
X108644869Y-123025070D01*
X108462570Y-122966583D01*
X108426805Y-122951013D01*
X108285915Y-122865319D01*
X108246109Y-122781908D01*
X108306991Y-122700101D01*
X108321854Y-122689532D01*
X108403419Y-122658865D01*
X108483852Y-122707808D01*
X108532791Y-122744595D01*
X108674610Y-122784349D01*
X108806116Y-122742652D01*
X108902913Y-122632395D01*
X108940600Y-122466471D01*
X108937154Y-122407327D01*
X108885156Y-122250938D01*
X108786381Y-122156163D01*
X108661136Y-122136000D01*
X108529726Y-122203448D01*
X108439481Y-122255385D01*
X108335226Y-122227061D01*
X108268961Y-122182023D01*
X108229400Y-122127255D01*
X108270801Y-122056534D01*
X108386682Y-121988544D01*
X108548781Y-121939101D01*
X108728686Y-121920000D01*
X108862957Y-121926349D01*
G37*
X108862957Y-121926349D02*
X108996090Y-121963895D01*
X109106114Y-122048567D01*
X109122130Y-122065274D01*
X109234977Y-122250331D01*
X109273613Y-122458866D01*
X109241673Y-122664451D01*
X109142791Y-122840659D01*
X108980602Y-122961064D01*
X108802045Y-123022392D01*
X108644869Y-123025070D01*
X108462570Y-122966583D01*
X108426805Y-122951013D01*
X108285915Y-122865319D01*
X108246109Y-122781908D01*
X108306991Y-122700101D01*
X108321854Y-122689532D01*
X108403419Y-122658865D01*
X108483852Y-122707808D01*
X108532791Y-122744595D01*
X108674610Y-122784349D01*
X108806116Y-122742652D01*
X108902913Y-122632395D01*
X108940600Y-122466471D01*
X108937154Y-122407327D01*
X108885156Y-122250938D01*
X108786381Y-122156163D01*
X108661136Y-122136000D01*
X108529726Y-122203448D01*
X108439481Y-122255385D01*
X108335226Y-122227061D01*
X108268961Y-122182023D01*
X108229400Y-122127255D01*
X108270801Y-122056534D01*
X108386682Y-121988544D01*
X108548781Y-121939101D01*
X108728686Y-121920000D01*
X108862957Y-121926349D01*
G36*
X187120139Y-119681165D02*
G01*
X187172600Y-119761000D01*
X187201230Y-119825265D01*
X187201575Y-119862600D01*
X187174262Y-119840834D01*
X187121800Y-119761000D01*
X187093171Y-119696734D01*
X187092826Y-119659400D01*
X187120139Y-119681165D01*
G37*
X187120139Y-119681165D02*
X187172600Y-119761000D01*
X187201230Y-119825265D01*
X187201575Y-119862600D01*
X187174262Y-119840834D01*
X187121800Y-119761000D01*
X187093171Y-119696734D01*
X187092826Y-119659400D01*
X187120139Y-119681165D01*
G36*
X188077097Y-121869200D02*
G01*
X188077167Y-121881230D01*
X188070356Y-121960755D01*
X188053679Y-121959066D01*
X188044360Y-121917324D01*
X188051797Y-121806666D01*
X188054310Y-121797932D01*
X188069772Y-121790411D01*
X188077097Y-121869200D01*
G37*
X188077097Y-121869200D02*
X188077167Y-121881230D01*
X188070356Y-121960755D01*
X188053679Y-121959066D01*
X188044360Y-121917324D01*
X188051797Y-121806666D01*
X188054310Y-121797932D01*
X188069772Y-121790411D01*
X188077097Y-121869200D01*
G36*
X176098200Y-103886000D02*
G01*
X176072800Y-103911400D01*
X176047400Y-103886000D01*
X176072800Y-103860600D01*
X176098200Y-103886000D01*
G37*
X176098200Y-103886000D02*
X176072800Y-103911400D01*
X176047400Y-103886000D01*
X176072800Y-103860600D01*
X176098200Y-103886000D01*
G36*
X173216147Y-101009496D02*
G01*
X173222711Y-101016186D01*
X173247058Y-101053400D01*
X173187710Y-101037933D01*
X173140301Y-101012599D01*
X173125056Y-100974810D01*
X173149542Y-100969370D01*
X173216147Y-101009496D01*
G37*
X173216147Y-101009496D02*
X173222711Y-101016186D01*
X173247058Y-101053400D01*
X173187710Y-101037933D01*
X173140301Y-101012599D01*
X173125056Y-100974810D01*
X173149542Y-100969370D01*
X173216147Y-101009496D01*
G36*
X186664600Y-118922800D02*
G01*
X186639200Y-118948200D01*
X186613800Y-118922800D01*
X186639200Y-118897400D01*
X186664600Y-118922800D01*
G37*
X186664600Y-118922800D02*
X186639200Y-118948200D01*
X186613800Y-118922800D01*
X186639200Y-118897400D01*
X186664600Y-118922800D01*
G36*
X182257141Y-111575255D02*
G01*
X182305425Y-111627249D01*
X182317643Y-111689555D01*
X182311166Y-111698939D01*
X182258936Y-111734600D01*
X182252442Y-111733596D01*
X182261493Y-111701174D01*
X182269115Y-111666726D01*
X182231860Y-111586874D01*
X182208888Y-111556846D01*
X182197536Y-111531907D01*
X182257141Y-111575255D01*
G37*
X182257141Y-111575255D02*
X182305425Y-111627249D01*
X182317643Y-111689555D01*
X182311166Y-111698939D01*
X182258936Y-111734600D01*
X182252442Y-111733596D01*
X182261493Y-111701174D01*
X182269115Y-111666726D01*
X182231860Y-111586874D01*
X182208888Y-111556846D01*
X182197536Y-111531907D01*
X182257141Y-111575255D01*
G36*
X187782200Y-123037600D02*
G01*
X187756800Y-123063000D01*
X187731400Y-123037600D01*
X187756800Y-123012200D01*
X187782200Y-123037600D01*
G37*
X187782200Y-123037600D02*
X187756800Y-123063000D01*
X187731400Y-123037600D01*
X187756800Y-123012200D01*
X187782200Y-123037600D01*
G36*
X187274200Y-119938800D02*
G01*
X187248800Y-119964200D01*
X187223400Y-119938800D01*
X187248800Y-119913400D01*
X187274200Y-119938800D01*
G37*
X187274200Y-119938800D02*
X187248800Y-119964200D01*
X187223400Y-119938800D01*
X187248800Y-119913400D01*
X187274200Y-119938800D01*
G36*
X175938491Y-102561189D02*
G01*
X175970574Y-102599552D01*
X175988778Y-102617083D01*
X176079261Y-102743817D01*
X176150208Y-102899059D01*
X176164564Y-102939647D01*
X176203377Y-103024790D01*
X176225888Y-103074174D01*
X176284371Y-103156347D01*
X176317437Y-103189991D01*
X176352201Y-103261202D01*
X176366464Y-103293960D01*
X176435568Y-103385293D01*
X176542700Y-103501694D01*
X176758191Y-103727984D01*
X176952376Y-103958388D01*
X177071882Y-104138335D01*
X177113094Y-104262999D01*
X177115734Y-104295168D01*
X177162969Y-104423319D01*
X177247705Y-104528296D01*
X177341598Y-104571800D01*
X177386793Y-104595913D01*
X177453070Y-104648000D01*
X177492300Y-104678831D01*
X177594670Y-104768908D01*
X177637827Y-104806883D01*
X177738784Y-104902000D01*
X177806181Y-104965499D01*
X177844117Y-105003600D01*
X177873512Y-105033123D01*
X178156311Y-105359903D01*
X178449981Y-105761856D01*
X178741857Y-106220687D01*
X178785414Y-106298785D01*
X179019275Y-106718100D01*
X179045068Y-106765764D01*
X179054968Y-106781600D01*
X179108916Y-106867897D01*
X179148748Y-106908600D01*
X179167073Y-106923701D01*
X179222378Y-107006432D01*
X179293160Y-107137200D01*
X179335248Y-107219441D01*
X179393249Y-107324649D01*
X179422404Y-107365800D01*
X179432647Y-107356669D01*
X179488600Y-107280459D01*
X179582937Y-107139483D01*
X179706024Y-106948914D01*
X179848228Y-106723927D01*
X179999914Y-106479696D01*
X180151449Y-106231396D01*
X180293199Y-105994200D01*
X180401240Y-105819958D01*
X180571901Y-105570320D01*
X180741767Y-105346849D01*
X180887546Y-105181400D01*
X180903866Y-105165001D01*
X181086545Y-104966802D01*
X181271048Y-104736936D01*
X181468053Y-104460489D01*
X181688237Y-104122548D01*
X181942276Y-103708200D01*
X182063776Y-103507672D01*
X182204664Y-103279435D01*
X182328581Y-103083003D01*
X182418151Y-102946200D01*
X182479457Y-102853423D01*
X182547765Y-102740497D01*
X182574585Y-102681686D01*
X182588813Y-102649900D01*
X182654299Y-102580086D01*
X182745514Y-102484643D01*
X182858040Y-102339615D01*
X182959898Y-102187837D01*
X183021846Y-102069900D01*
X183047662Y-102022201D01*
X183107006Y-101981000D01*
X183130538Y-101973022D01*
X183159400Y-101906587D01*
X183179839Y-101850919D01*
X183260495Y-101778070D01*
X183320466Y-101736634D01*
X183349395Y-101687303D01*
X183363500Y-101647442D01*
X183435998Y-101546395D01*
X183556263Y-101405132D01*
X183709759Y-101240518D01*
X183881951Y-101069417D01*
X183949843Y-101004112D01*
X184100131Y-100858161D01*
X184280859Y-100681533D01*
X184466454Y-100499179D01*
X184598523Y-100374140D01*
X184764301Y-100231204D01*
X184901185Y-100128729D01*
X184988503Y-100083189D01*
X185026463Y-100076863D01*
X185168821Y-100060318D01*
X185367874Y-100042358D01*
X185592959Y-100025891D01*
X185702100Y-100017713D01*
X185910433Y-99995752D01*
X186073854Y-99970180D01*
X186164067Y-99945004D01*
X186169269Y-99942328D01*
X186300392Y-99901314D01*
X186494632Y-99868124D01*
X186715775Y-99847534D01*
X186927607Y-99844317D01*
X187089839Y-99825276D01*
X187226101Y-99734939D01*
X187256885Y-99704246D01*
X187326935Y-99657392D01*
X187362943Y-99688048D01*
X187388788Y-99730395D01*
X187428878Y-99691314D01*
X187474094Y-99651479D01*
X187544789Y-99687686D01*
X187591645Y-99715049D01*
X187637560Y-99702896D01*
X187637675Y-99702607D01*
X187694381Y-99674640D01*
X187824334Y-99646566D01*
X187999680Y-99624422D01*
X188037891Y-99620993D01*
X188206852Y-99609430D01*
X188304243Y-99615690D01*
X188355080Y-99644805D01*
X188384378Y-99701809D01*
X188406939Y-99776070D01*
X188410600Y-99912038D01*
X188351449Y-100054013D01*
X188220769Y-100230147D01*
X188140673Y-100332745D01*
X188084551Y-100422465D01*
X188083215Y-100457000D01*
X188109278Y-100479981D01*
X188090053Y-100575972D01*
X188062878Y-100711208D01*
X188061041Y-100869479D01*
X188061121Y-100870346D01*
X188053919Y-101027794D01*
X188014276Y-101161705D01*
X187976283Y-101311348D01*
X187991214Y-101531948D01*
X188001540Y-101615720D01*
X188006432Y-101780494D01*
X187989709Y-101895451D01*
X187972658Y-101978414D01*
X187985513Y-102108000D01*
X187994554Y-102190698D01*
X187936123Y-102336600D01*
X187882962Y-102432815D01*
X187819566Y-102593034D01*
X187770820Y-102762411D01*
X187746061Y-102907154D01*
X187754623Y-102993477D01*
X187755791Y-102995553D01*
X187748593Y-103072058D01*
X187688816Y-103175894D01*
X187625070Y-103291708D01*
X187612098Y-103391991D01*
X187601844Y-103444381D01*
X187526484Y-103561918D01*
X187378420Y-103737866D01*
X187155016Y-103975587D01*
X187102223Y-104030074D01*
X186936546Y-104202899D01*
X186805295Y-104342631D01*
X186720701Y-104436115D01*
X186694998Y-104470200D01*
X186695184Y-104472826D01*
X186655413Y-104522736D01*
X186563835Y-104622954D01*
X186435966Y-104756341D01*
X186401459Y-104791841D01*
X186276854Y-104922969D01*
X186189521Y-105019585D01*
X186156600Y-105062882D01*
X186149068Y-105075053D01*
X186088228Y-105145918D01*
X185979577Y-105263506D01*
X185839100Y-105410322D01*
X185749399Y-105505160D01*
X185595009Y-105691803D01*
X185486715Y-105871527D01*
X185400096Y-106081682D01*
X185397491Y-106089046D01*
X185330084Y-106268504D01*
X185268955Y-106412901D01*
X185227049Y-106491580D01*
X185201384Y-106529711D01*
X185133829Y-106646840D01*
X185055261Y-106796380D01*
X184941282Y-107019164D01*
X184771516Y-107338206D01*
X184742040Y-107391200D01*
X184605669Y-107636381D01*
X184600513Y-107645200D01*
X184453858Y-107896059D01*
X184420028Y-107950000D01*
X184326202Y-108099608D01*
X184232819Y-108229400D01*
X184143308Y-108336179D01*
X184074742Y-108417755D01*
X184051497Y-108448504D01*
X184023000Y-108508800D01*
X184017226Y-108528987D01*
X183970270Y-108599844D01*
X183961303Y-108610967D01*
X183898227Y-108695321D01*
X183792590Y-108840477D01*
X183656667Y-109029485D01*
X183502733Y-109245400D01*
X183456743Y-109310176D01*
X183297216Y-109534794D01*
X183181976Y-109696371D01*
X183099204Y-109810824D01*
X183037077Y-109894067D01*
X182983776Y-109962018D01*
X182927480Y-110030592D01*
X182856367Y-110115706D01*
X182809476Y-110174528D01*
X182732569Y-110286915D01*
X182702200Y-110357006D01*
X182699940Y-110374303D01*
X182654824Y-110413800D01*
X182625179Y-110427585D01*
X182579184Y-110502700D01*
X182574544Y-110515091D01*
X182513204Y-110617485D01*
X182417928Y-110734942D01*
X182284934Y-110878284D01*
X182404667Y-111012884D01*
X182412189Y-111021310D01*
X182510658Y-111127108D01*
X182584821Y-111199742D01*
X182592593Y-111207146D01*
X182659963Y-111285610D01*
X182763388Y-111417622D01*
X182883872Y-111579085D01*
X182900076Y-111601295D01*
X183019737Y-111764903D01*
X183103842Y-111877646D01*
X183174342Y-111967635D01*
X183253187Y-112062983D01*
X183362332Y-112191800D01*
X183385804Y-112220006D01*
X183466777Y-112341319D01*
X183504533Y-112471093D01*
X183514189Y-112655479D01*
X183514786Y-112699442D01*
X183536931Y-112899343D01*
X183591200Y-113004600D01*
X183613130Y-113028287D01*
X183631741Y-113048391D01*
X183667400Y-113133586D01*
X183669961Y-113157000D01*
X183670051Y-113157827D01*
X183708578Y-113216266D01*
X183709388Y-113216618D01*
X183764905Y-113275080D01*
X183787922Y-113309400D01*
X183849355Y-113401003D01*
X183949147Y-113570263D01*
X184050688Y-113758733D01*
X184107805Y-113875614D01*
X184140386Y-113942287D01*
X184204650Y-114096800D01*
X184240575Y-114187708D01*
X184301825Y-114310831D01*
X184317050Y-114341437D01*
X184359440Y-114401600D01*
X184387677Y-114441678D01*
X184445120Y-114521817D01*
X184480200Y-114641604D01*
X184503023Y-114737746D01*
X184574793Y-114855525D01*
X184582122Y-114865504D01*
X184604291Y-114895690D01*
X184673798Y-115036321D01*
X184728611Y-115204427D01*
X184782156Y-115354407D01*
X184850823Y-115487457D01*
X184867206Y-115519200D01*
X184894133Y-115571377D01*
X184959484Y-115671600D01*
X185040419Y-115795724D01*
X185083535Y-115855488D01*
X185097029Y-115874800D01*
X185190538Y-116008636D01*
X185265043Y-116122542D01*
X185293000Y-116176053D01*
X185293142Y-116178070D01*
X185322579Y-116242961D01*
X185387758Y-116346757D01*
X185458408Y-116452024D01*
X185564197Y-116613235D01*
X185677952Y-116789200D01*
X185681695Y-116795028D01*
X185815003Y-116994705D01*
X185975505Y-117224400D01*
X186129295Y-117435552D01*
X186129524Y-117435857D01*
X186290316Y-117651542D01*
X186465867Y-117888667D01*
X186618212Y-118095952D01*
X186794029Y-118352521D01*
X186984946Y-118660669D01*
X187169884Y-118985335D01*
X187335388Y-119301854D01*
X187468004Y-119585564D01*
X187554275Y-119811800D01*
X187555066Y-119814308D01*
X187600147Y-119924374D01*
X187635561Y-119998358D01*
X187678172Y-120087380D01*
X187680162Y-120091200D01*
X187772740Y-120269000D01*
X187781080Y-120284378D01*
X187919867Y-120543602D01*
X187966689Y-120636850D01*
X188017569Y-120738182D01*
X188023293Y-120751600D01*
X188082656Y-120890770D01*
X188123599Y-121024018D01*
X188148394Y-121158000D01*
X188148870Y-121160577D01*
X188165528Y-121310400D01*
X188166939Y-121323100D01*
X188176835Y-121439277D01*
X188180684Y-121596275D01*
X188159101Y-121670308D01*
X188106181Y-121672809D01*
X188016017Y-121615211D01*
X187945496Y-121575246D01*
X187876317Y-121569025D01*
X187874445Y-121570132D01*
X187834233Y-121551623D01*
X187821082Y-121437400D01*
X187792714Y-121391914D01*
X187718035Y-121310400D01*
X187833000Y-121310400D01*
X187858400Y-121335800D01*
X187883800Y-121310400D01*
X187858400Y-121285000D01*
X187833000Y-121310400D01*
X187718035Y-121310400D01*
X187686961Y-121281605D01*
X187662401Y-121273601D01*
X187684884Y-121334638D01*
X187756600Y-121474009D01*
X187825016Y-121590383D01*
X187897107Y-121685995D01*
X187941863Y-121712311D01*
X187944701Y-121710889D01*
X187973539Y-121742300D01*
X187985400Y-121842396D01*
X188004383Y-121958077D01*
X188061600Y-122028629D01*
X188097300Y-122048001D01*
X188137800Y-122106233D01*
X188132328Y-122123600D01*
X188081568Y-122119842D01*
X188079152Y-122118404D01*
X188046046Y-122130341D01*
X188055191Y-122231144D01*
X188055806Y-122234162D01*
X188090797Y-122423033D01*
X188126218Y-122641667D01*
X188157385Y-122857640D01*
X188167014Y-122936000D01*
X188179612Y-123038526D01*
X188188217Y-123151900D01*
X188175168Y-123227024D01*
X188116784Y-123261751D01*
X188021522Y-123215470D01*
X187900354Y-123090520D01*
X187870259Y-123054144D01*
X187776449Y-122968070D01*
X187723294Y-122974516D01*
X187713040Y-123018818D01*
X187747006Y-123109147D01*
X187749281Y-123111968D01*
X187782004Y-123161064D01*
X187744100Y-123145953D01*
X187706934Y-123135168D01*
X187680600Y-123187001D01*
X187680600Y-123187155D01*
X187649231Y-123256564D01*
X187572139Y-123260528D01*
X187474539Y-123206292D01*
X187381645Y-123101100D01*
X187370347Y-123083524D01*
X187308264Y-122994909D01*
X187281318Y-122986130D01*
X187275056Y-123050300D01*
X187262175Y-123121560D01*
X187217965Y-123164600D01*
X187192840Y-123152600D01*
X187191984Y-123085761D01*
X187201464Y-123041361D01*
X187163386Y-123043295D01*
X187129559Y-123052019D01*
X187137986Y-122992495D01*
X187149745Y-122946610D01*
X187136941Y-122936000D01*
X187629800Y-122936000D01*
X187655200Y-122961400D01*
X187680600Y-122936000D01*
X187655200Y-122910600D01*
X187629800Y-122936000D01*
X187136941Y-122936000D01*
X187130472Y-122930640D01*
X187085382Y-122921111D01*
X187016754Y-122850727D01*
X186942334Y-122743999D01*
X186857423Y-122633660D01*
X186797357Y-122587169D01*
X186742228Y-122592127D01*
X186672127Y-122636139D01*
X186638318Y-122661189D01*
X186589350Y-122719768D01*
X186621327Y-122763926D01*
X186661790Y-122798541D01*
X186613800Y-122809000D01*
X186569465Y-122816929D01*
X186600854Y-122850723D01*
X186626169Y-122885200D01*
X186639774Y-122903731D01*
X186660385Y-123015045D01*
X186656097Y-123153677D01*
X186653170Y-123232333D01*
X186641898Y-123535283D01*
X186625364Y-123825080D01*
X186604289Y-124030538D01*
X186576469Y-124159124D01*
X186539699Y-124218305D01*
X186491776Y-124215548D01*
X186430494Y-124158322D01*
X186353649Y-124054093D01*
X186232800Y-123876786D01*
X186223301Y-123926600D01*
X186207400Y-124009996D01*
X186203937Y-124027664D01*
X186186155Y-124083832D01*
X186156431Y-124083167D01*
X186100525Y-124016066D01*
X186022540Y-123900178D01*
X186116654Y-123900178D01*
X186122734Y-123960466D01*
X186138014Y-123968414D01*
X186156600Y-123926600D01*
X186152934Y-123899706D01*
X186122734Y-123892733D01*
X186116654Y-123900178D01*
X186022540Y-123900178D01*
X186004200Y-123872925D01*
X185917971Y-123742026D01*
X185837548Y-123620348D01*
X185794350Y-123555512D01*
X185761502Y-123536302D01*
X185669005Y-123560590D01*
X185637751Y-123575291D01*
X185557815Y-123571789D01*
X185463511Y-123491734D01*
X185454375Y-123482095D01*
X185374403Y-123419664D01*
X185332196Y-123428013D01*
X185323094Y-123436986D01*
X185272419Y-123405968D01*
X185198330Y-123312278D01*
X185155457Y-123247613D01*
X185200386Y-123247613D01*
X185242200Y-123266200D01*
X185269094Y-123262533D01*
X185276067Y-123232333D01*
X185268622Y-123226253D01*
X185208334Y-123232333D01*
X185200386Y-123247613D01*
X185155457Y-123247613D01*
X185083579Y-123139200D01*
X185106435Y-123532900D01*
X185112274Y-123739549D01*
X185096917Y-123880823D01*
X185055438Y-123928132D01*
X184984832Y-123884422D01*
X184882094Y-123752634D01*
X184809786Y-123662460D01*
X184738978Y-123608080D01*
X184702262Y-123618675D01*
X184716454Y-123699626D01*
X184723151Y-123737379D01*
X184688836Y-123774200D01*
X184671868Y-123771683D01*
X184632600Y-123720421D01*
X184620717Y-123685035D01*
X184561052Y-123583554D01*
X184468027Y-123453721D01*
X184404460Y-123371169D01*
X184326353Y-123268622D01*
X184290441Y-123219848D01*
X184252594Y-123219368D01*
X184160245Y-123252289D01*
X184129853Y-123265071D01*
X184038997Y-123271968D01*
X183956830Y-123199408D01*
X183899865Y-123116208D01*
X183869823Y-123039967D01*
X183863339Y-123021949D01*
X183827483Y-123052308D01*
X183784482Y-123058238D01*
X183710122Y-122981166D01*
X183645921Y-122885200D01*
X183718200Y-122885200D01*
X183743600Y-122910600D01*
X183769000Y-122885200D01*
X183743600Y-122859800D01*
X183718200Y-122885200D01*
X183645921Y-122885200D01*
X183599661Y-122816051D01*
X183598672Y-122814448D01*
X183505308Y-122653014D01*
X183438769Y-122518881D01*
X183413400Y-122440944D01*
X183412839Y-122433160D01*
X183374576Y-122341640D01*
X183294632Y-122229382D01*
X183241965Y-122153858D01*
X183156663Y-121987849D01*
X183085736Y-121802381D01*
X183079758Y-121783822D01*
X183017919Y-121621750D01*
X182931875Y-121427055D01*
X182834268Y-121225025D01*
X182799121Y-121158000D01*
X187579000Y-121158000D01*
X187604400Y-121183400D01*
X187629800Y-121158000D01*
X187604400Y-121132600D01*
X187579000Y-121158000D01*
X182799121Y-121158000D01*
X182737741Y-121040948D01*
X182654936Y-120900110D01*
X182598494Y-120827800D01*
X182561379Y-120784866D01*
X182541418Y-120751600D01*
X187680600Y-120751600D01*
X187706000Y-120777000D01*
X187731400Y-120751600D01*
X187706000Y-120726200D01*
X187680600Y-120751600D01*
X182541418Y-120751600D01*
X182501526Y-120685116D01*
X182461604Y-120599200D01*
X187325000Y-120599200D01*
X187350400Y-120624600D01*
X187375800Y-120599200D01*
X187350400Y-120573800D01*
X187325000Y-120599200D01*
X182461604Y-120599200D01*
X182452282Y-120579138D01*
X182436799Y-120512128D01*
X182434047Y-120498389D01*
X182380440Y-120501391D01*
X182378368Y-120502053D01*
X182321432Y-120473598D01*
X182253803Y-120392131D01*
X182202085Y-120296681D01*
X182192886Y-120226273D01*
X182184363Y-120206642D01*
X182174717Y-120197549D01*
X187390746Y-120197549D01*
X187396840Y-120244423D01*
X187448399Y-120379544D01*
X187456010Y-120397125D01*
X187530942Y-120533351D01*
X187584767Y-120599200D01*
X187607909Y-120627512D01*
X187635766Y-120636850D01*
X187617794Y-120573817D01*
X187547495Y-120437050D01*
X187505433Y-120363018D01*
X187427737Y-120237542D01*
X187390746Y-120197549D01*
X182174717Y-120197549D01*
X182124351Y-120150073D01*
X182073228Y-120091200D01*
X187325000Y-120091200D01*
X187350400Y-120116600D01*
X187375800Y-120091200D01*
X187350400Y-120065800D01*
X187325000Y-120091200D01*
X182073228Y-120091200D01*
X182073009Y-120090948D01*
X181975739Y-119938504D01*
X181845281Y-119705282D01*
X181685503Y-119398256D01*
X181500269Y-119024400D01*
X181496991Y-119017653D01*
X181397203Y-118813729D01*
X181300535Y-118618547D01*
X181300260Y-118618000D01*
X186156600Y-118618000D01*
X186182000Y-118643400D01*
X186207400Y-118618000D01*
X186182000Y-118592600D01*
X186156600Y-118618000D01*
X181300260Y-118618000D01*
X181227482Y-118473499D01*
X181203644Y-118425436D01*
X181154682Y-118313200D01*
X186004200Y-118313200D01*
X186029600Y-118338600D01*
X186055000Y-118313200D01*
X186029600Y-118287800D01*
X186004200Y-118313200D01*
X181154682Y-118313200D01*
X181148250Y-118298455D01*
X181137607Y-118262400D01*
X185851800Y-118262400D01*
X185877200Y-118287800D01*
X185902600Y-118262400D01*
X185877200Y-118237000D01*
X185851800Y-118262400D01*
X181137607Y-118262400D01*
X181124944Y-118219499D01*
X181120209Y-118206189D01*
X181060610Y-118130604D01*
X180947252Y-118015969D01*
X180935419Y-118005258D01*
X185711008Y-118005258D01*
X185713447Y-118047406D01*
X185771859Y-118123909D01*
X185824508Y-118172588D01*
X185841426Y-118173701D01*
X185802819Y-118092949D01*
X185753237Y-118020684D01*
X185711008Y-118005258D01*
X180935419Y-118005258D01*
X180826644Y-117906800D01*
X180924200Y-117906800D01*
X180949600Y-117932200D01*
X180975000Y-117906800D01*
X185648600Y-117906800D01*
X185674000Y-117932200D01*
X185699400Y-117906800D01*
X185674000Y-117881400D01*
X185648600Y-117906800D01*
X180975000Y-117906800D01*
X180949600Y-117881400D01*
X180924200Y-117906800D01*
X180826644Y-117906800D01*
X180798583Y-117881400D01*
X180744624Y-117834302D01*
X180606048Y-117707571D01*
X180508655Y-117609786D01*
X180470839Y-117559042D01*
X180468475Y-117549260D01*
X180467163Y-117546711D01*
X180543380Y-117546711D01*
X180589065Y-117612436D01*
X180683246Y-117707303D01*
X180847631Y-117856000D01*
X180720816Y-117703600D01*
X180696794Y-117674626D01*
X180619011Y-117579131D01*
X180581300Y-117530033D01*
X180543730Y-117533736D01*
X180543380Y-117546711D01*
X180467163Y-117546711D01*
X180427478Y-117469589D01*
X180352773Y-117355842D01*
X180278956Y-117241863D01*
X180170651Y-117052172D01*
X180052391Y-116827395D01*
X179934046Y-116588187D01*
X179825487Y-116355207D01*
X179736583Y-116149111D01*
X179680097Y-115998275D01*
X184794642Y-115998275D01*
X184795807Y-116072428D01*
X184843571Y-116192497D01*
X184944501Y-116367835D01*
X185104416Y-116609933D01*
X185201970Y-116752527D01*
X185308473Y-116908619D01*
X185382642Y-117017800D01*
X185450036Y-117113463D01*
X185495316Y-117170200D01*
X185536217Y-117215119D01*
X185618954Y-117322799D01*
X185705378Y-117447775D01*
X185773416Y-117557587D01*
X185801000Y-117619777D01*
X185801652Y-117628657D01*
X185844335Y-117686666D01*
X185874174Y-117718259D01*
X185948202Y-117822292D01*
X185970127Y-117856000D01*
X186003168Y-117906800D01*
X186051029Y-117980387D01*
X186170055Y-118173701D01*
X186170082Y-118173745D01*
X186221942Y-118262400D01*
X186251658Y-118313200D01*
X186265015Y-118336035D01*
X186347755Y-118487945D01*
X186393280Y-118585491D01*
X186393447Y-118612670D01*
X186384928Y-118609008D01*
X186388742Y-118618000D01*
X186394512Y-118631604D01*
X186463799Y-118701324D01*
X186488312Y-118724487D01*
X186534889Y-118775223D01*
X186514599Y-118770400D01*
X186480870Y-118749659D01*
X186462899Y-118751567D01*
X186508505Y-118821200D01*
X186598030Y-118928088D01*
X186711705Y-119042675D01*
X186735813Y-119065468D01*
X186784595Y-119122286D01*
X186766200Y-119127807D01*
X186744331Y-119118040D01*
X186716165Y-119112246D01*
X186766200Y-119160332D01*
X186806896Y-119209625D01*
X186852314Y-119329200D01*
X186862709Y-119391951D01*
X186926347Y-119582319D01*
X187023809Y-119772068D01*
X187131142Y-119911199D01*
X187211638Y-119976233D01*
X187292395Y-120016490D01*
X187325000Y-119998358D01*
X187309652Y-119952558D01*
X187265291Y-119837154D01*
X187202080Y-119679207D01*
X187195195Y-119662438D01*
X187048139Y-119351331D01*
X186842818Y-118981726D01*
X186588831Y-118569250D01*
X186295773Y-118129532D01*
X185973243Y-117678200D01*
X185902341Y-117581475D01*
X185693226Y-117288590D01*
X185482612Y-116984056D01*
X185291575Y-116698654D01*
X185141195Y-116463165D01*
X185128832Y-116443111D01*
X185005007Y-116250379D01*
X184900967Y-116102516D01*
X184827311Y-116013741D01*
X184794642Y-115998275D01*
X179680097Y-115998275D01*
X179677206Y-115990556D01*
X179657227Y-115900200D01*
X179658598Y-115876598D01*
X179658610Y-115874800D01*
X184429400Y-115874800D01*
X184454800Y-115900200D01*
X184480200Y-115874800D01*
X184454800Y-115849400D01*
X184429400Y-115874800D01*
X179658610Y-115874800D01*
X179659506Y-115737838D01*
X179638508Y-115671600D01*
X184378600Y-115671600D01*
X184404000Y-115697000D01*
X184429400Y-115671600D01*
X184404000Y-115646200D01*
X184378600Y-115671600D01*
X179638508Y-115671600D01*
X179636562Y-115665463D01*
X179581247Y-115629075D01*
X179548668Y-115629600D01*
X179465428Y-115701867D01*
X179356351Y-115870307D01*
X179285144Y-115992055D01*
X179197868Y-116129960D01*
X179137204Y-116212512D01*
X179100061Y-116256227D01*
X179019200Y-116369895D01*
X179005236Y-116392582D01*
X178931401Y-116507249D01*
X178822177Y-116672663D01*
X178689024Y-116871908D01*
X178543404Y-117088070D01*
X178396779Y-117304233D01*
X178260609Y-117503483D01*
X178146357Y-117668904D01*
X178065483Y-117783581D01*
X178029449Y-117830600D01*
X178028153Y-117831695D01*
X177983071Y-117889158D01*
X177901538Y-118006876D01*
X177800247Y-118160800D01*
X177791741Y-118173855D01*
X177650251Y-118367117D01*
X177472160Y-118580589D01*
X177293906Y-118770400D01*
X177207602Y-118858218D01*
X177032254Y-119056370D01*
X176889598Y-119244209D01*
X176793693Y-119402280D01*
X176758600Y-119511128D01*
X176748683Y-119543272D01*
X176691629Y-119647250D01*
X176599202Y-119790287D01*
X176489081Y-119946705D01*
X176378945Y-120090820D01*
X176286472Y-120196955D01*
X176177551Y-120313133D01*
X176084907Y-120439057D01*
X176068092Y-120472200D01*
X176009381Y-120587925D01*
X175993154Y-120621541D01*
X175901667Y-120736443D01*
X175801931Y-120764349D01*
X175709854Y-120699344D01*
X175675550Y-120654107D01*
X175646062Y-120639334D01*
X175641000Y-120716490D01*
X175632950Y-120784855D01*
X175620851Y-120802400D01*
X175602900Y-120828433D01*
X175549833Y-120856514D01*
X175445648Y-120943275D01*
X175314515Y-121068073D01*
X175227163Y-121158000D01*
X175176899Y-121209746D01*
X175053265Y-121347136D01*
X174964077Y-121459080D01*
X174929800Y-121524419D01*
X174915328Y-121554047D01*
X174841676Y-121637281D01*
X174726600Y-121742200D01*
X174651283Y-121808539D01*
X174559308Y-121901645D01*
X174523400Y-121956657D01*
X174522192Y-121964016D01*
X174480047Y-122036434D01*
X174396400Y-122137598D01*
X174386372Y-122148830D01*
X174303433Y-122280805D01*
X174269400Y-122408560D01*
X174250567Y-122509851D01*
X174188400Y-122609783D01*
X174176123Y-122620927D01*
X174094512Y-122721922D01*
X173999005Y-122869507D01*
X173947342Y-122961400D01*
X173907960Y-123031450D01*
X173839732Y-123175522D01*
X173835563Y-123190000D01*
X173812677Y-123269491D01*
X173809939Y-123284486D01*
X173804258Y-123291600D01*
X173749712Y-123359918D01*
X173635482Y-123433253D01*
X173615409Y-123443105D01*
X173504762Y-123520430D01*
X173488517Y-123595062D01*
X173495722Y-123635542D01*
X173462036Y-123672600D01*
X173444897Y-123674494D01*
X173412597Y-123710700D01*
X173413660Y-123718626D01*
X173404983Y-123814198D01*
X173374191Y-123933714D01*
X173334182Y-124035779D01*
X173297850Y-124079000D01*
X173290673Y-124079511D01*
X173259416Y-124117100D01*
X173260533Y-124201453D01*
X173189315Y-124342071D01*
X173153861Y-124391407D01*
X173079035Y-124525029D01*
X172988329Y-124706917D01*
X172894374Y-124909540D01*
X172809801Y-125105370D01*
X172747238Y-125266877D01*
X172719316Y-125366530D01*
X172710392Y-125468434D01*
X172701084Y-125618698D01*
X172683428Y-125710969D01*
X172649576Y-125733569D01*
X172632802Y-125730558D01*
X172590143Y-125781310D01*
X172556860Y-125894029D01*
X172542894Y-126040151D01*
X172542871Y-126042067D01*
X172502923Y-126135084D01*
X172377100Y-126200065D01*
X172250264Y-126238515D01*
X172154826Y-126249084D01*
X172084173Y-126213447D01*
X171999191Y-126123700D01*
X171982665Y-126104389D01*
X171905372Y-125969890D01*
X171901077Y-125819575D01*
X171901913Y-125685613D01*
X171845667Y-125610197D01*
X171841361Y-125607560D01*
X171783894Y-125523061D01*
X171754561Y-125387706D01*
X171753538Y-125372343D01*
X171737820Y-125242872D01*
X171716436Y-125165284D01*
X171703993Y-125115841D01*
X171695843Y-124975717D01*
X171697275Y-124773644D01*
X171706796Y-124532372D01*
X171722913Y-124274650D01*
X171744132Y-124023229D01*
X171768961Y-123800857D01*
X171795906Y-123630284D01*
X171823475Y-123534260D01*
X171845545Y-123466919D01*
X171834109Y-123372830D01*
X171821387Y-123333534D01*
X171822522Y-123291600D01*
X171831000Y-123291600D01*
X171856400Y-123317000D01*
X171881800Y-123291600D01*
X171856400Y-123266200D01*
X171831000Y-123291600D01*
X171822522Y-123291600D01*
X171824677Y-123211928D01*
X171829588Y-123190000D01*
X171881800Y-123190000D01*
X171907200Y-123215400D01*
X171932600Y-123190000D01*
X171907200Y-123164600D01*
X171881800Y-123190000D01*
X171829588Y-123190000D01*
X171857054Y-123067369D01*
X171907574Y-122941352D01*
X171913150Y-122934978D01*
X171943454Y-122934978D01*
X171949534Y-122995266D01*
X171964814Y-123003214D01*
X171983400Y-122961400D01*
X171979734Y-122934506D01*
X171949534Y-122927533D01*
X171943454Y-122934978D01*
X171913150Y-122934978D01*
X171965295Y-122875371D01*
X171997825Y-122852840D01*
X172033423Y-122765464D01*
X172033243Y-122753716D01*
X172022919Y-122709854D01*
X171983400Y-122758200D01*
X171976575Y-122768642D01*
X171941529Y-122805748D01*
X171933378Y-122749654D01*
X171948260Y-122631490D01*
X171988461Y-122546827D01*
X172038942Y-122532530D01*
X172058574Y-122534745D01*
X172053584Y-122481438D01*
X172046531Y-122438681D01*
X172088032Y-122402600D01*
X172112589Y-122399249D01*
X172118689Y-122368555D01*
X172115061Y-122316398D01*
X172158531Y-122221744D01*
X172186239Y-122165844D01*
X172233477Y-122014468D01*
X172267069Y-121836689D01*
X172283569Y-121731198D01*
X172317827Y-121584470D01*
X172352945Y-121499737D01*
X172354274Y-121498051D01*
X172373060Y-121456444D01*
X172311678Y-121470566D01*
X172255001Y-121487911D01*
X172255238Y-121462631D01*
X172317193Y-121375363D01*
X172323412Y-121367188D01*
X172398112Y-121286240D01*
X172445962Y-121263296D01*
X172460092Y-121239238D01*
X172452149Y-121158000D01*
X172491400Y-121158000D01*
X172516800Y-121183400D01*
X172542200Y-121158000D01*
X172516800Y-121132600D01*
X172491400Y-121158000D01*
X172452149Y-121158000D01*
X172451222Y-121148521D01*
X172449797Y-121047764D01*
X172522060Y-120941029D01*
X172525001Y-120938756D01*
X172582252Y-120877273D01*
X172551795Y-120842102D01*
X172539347Y-120836632D01*
X172523856Y-120802400D01*
X172643800Y-120802400D01*
X172669200Y-120827800D01*
X172694600Y-120802400D01*
X172669200Y-120777000D01*
X172643800Y-120802400D01*
X172523856Y-120802400D01*
X172520324Y-120794595D01*
X172577195Y-120712199D01*
X172579497Y-120709559D01*
X172623751Y-120648345D01*
X172605700Y-120644265D01*
X172593427Y-120650136D01*
X172554170Y-120628389D01*
X172542200Y-120517531D01*
X172542019Y-120500786D01*
X172541644Y-120497600D01*
X172593000Y-120497600D01*
X172618400Y-120523000D01*
X172643800Y-120497600D01*
X172618400Y-120472200D01*
X172593000Y-120497600D01*
X172541644Y-120497600D01*
X172535536Y-120445778D01*
X172705454Y-120445778D01*
X172710681Y-120497600D01*
X172711534Y-120506066D01*
X172726814Y-120514014D01*
X172745400Y-120472200D01*
X172741734Y-120445306D01*
X172711534Y-120438333D01*
X172705454Y-120445778D01*
X172535536Y-120445778D01*
X172531021Y-120407471D01*
X172508223Y-120387644D01*
X172452368Y-120391279D01*
X172378575Y-120332248D01*
X172315147Y-120237852D01*
X172288200Y-120137755D01*
X172274367Y-120057761D01*
X172212000Y-119946057D01*
X172168479Y-119892717D01*
X172135800Y-119815428D01*
X172133745Y-119800131D01*
X172085000Y-119761000D01*
X172074005Y-119751708D01*
X172052920Y-119664259D01*
X172039138Y-119496929D01*
X172034200Y-119264792D01*
X172034233Y-119210255D01*
X172037298Y-119018833D01*
X172051642Y-118866268D01*
X172086034Y-118732919D01*
X172149245Y-118599144D01*
X172250046Y-118445304D01*
X172397207Y-118251756D01*
X172599498Y-117998861D01*
X172622502Y-117969863D01*
X172792247Y-117735606D01*
X172960770Y-117474153D01*
X173094696Y-117236861D01*
X173120759Y-117186105D01*
X173232949Y-116979205D01*
X173341832Y-116793841D01*
X173427053Y-116665030D01*
X173458507Y-116621356D01*
X173529756Y-116505802D01*
X173558200Y-116431603D01*
X173583584Y-116370052D01*
X173659621Y-116281362D01*
X173667524Y-116274100D01*
X173727686Y-116192128D01*
X173704748Y-116121748D01*
X173693380Y-116106466D01*
X173672730Y-116052089D01*
X173675937Y-115974700D01*
X173707387Y-115860763D01*
X173771468Y-115696740D01*
X173850315Y-115519200D01*
X179552600Y-115519200D01*
X179578000Y-115544600D01*
X179603400Y-115519200D01*
X179578000Y-115493800D01*
X179552600Y-115519200D01*
X173850315Y-115519200D01*
X173872567Y-115469096D01*
X173909574Y-115389941D01*
X184230571Y-115389941D01*
X184270697Y-115456546D01*
X184277387Y-115463110D01*
X184314601Y-115487457D01*
X184299134Y-115428109D01*
X184273800Y-115380700D01*
X184236011Y-115365455D01*
X184230571Y-115389941D01*
X173909574Y-115389941D01*
X174015072Y-115164293D01*
X174054035Y-115081815D01*
X174158735Y-114858417D01*
X174243217Y-114675562D01*
X174254035Y-114651551D01*
X183783255Y-114651551D01*
X183823703Y-114745479D01*
X183880531Y-114843005D01*
X183929555Y-114884200D01*
X183968825Y-114865504D01*
X183951544Y-114799294D01*
X183866349Y-114702552D01*
X183794460Y-114640535D01*
X183783255Y-114651551D01*
X174254035Y-114651551D01*
X174299649Y-114550309D01*
X174320200Y-114499715D01*
X174342840Y-114454615D01*
X174374421Y-114401600D01*
X183972200Y-114401600D01*
X183997600Y-114427000D01*
X184023000Y-114401600D01*
X183997600Y-114376200D01*
X183972200Y-114401600D01*
X174374421Y-114401600D01*
X174406954Y-114346987D01*
X174498000Y-114201826D01*
X174545769Y-114122721D01*
X174633312Y-113936253D01*
X183379240Y-113936253D01*
X183417479Y-114020600D01*
X183470555Y-114126085D01*
X183505076Y-114172371D01*
X183515000Y-114140376D01*
X183497080Y-114086667D01*
X183470782Y-114046000D01*
X183822961Y-114046000D01*
X183840038Y-114130220D01*
X183845402Y-114140376D01*
X183902870Y-114249200D01*
X183950087Y-114307285D01*
X183968338Y-114310831D01*
X183945910Y-114223800D01*
X183913827Y-114128748D01*
X183866000Y-114020600D01*
X183859779Y-114009849D01*
X183830307Y-113980654D01*
X183822961Y-114046000D01*
X183470782Y-114046000D01*
X183435998Y-113992209D01*
X183390083Y-113936568D01*
X183379240Y-113936253D01*
X174633312Y-113936253D01*
X174641624Y-113918549D01*
X174676578Y-113756340D01*
X174676615Y-113751627D01*
X174688446Y-113620185D01*
X174714678Y-113535055D01*
X174726371Y-113519683D01*
X174821951Y-113436400D01*
X183506706Y-113436400D01*
X183542017Y-113538000D01*
X183564097Y-113603473D01*
X183600226Y-113718317D01*
X183633610Y-113777416D01*
X183723718Y-113859856D01*
X183789265Y-113896523D01*
X183796424Y-113875614D01*
X183749728Y-113781139D01*
X183678360Y-113660645D01*
X183590925Y-113538000D01*
X183506706Y-113436400D01*
X174821951Y-113436400D01*
X174837748Y-113422635D01*
X174981124Y-113341891D01*
X175106204Y-113306774D01*
X175147171Y-113282978D01*
X183322654Y-113282978D01*
X183328734Y-113343266D01*
X183344014Y-113351214D01*
X183362600Y-113309400D01*
X183358934Y-113282506D01*
X183328734Y-113275533D01*
X183322654Y-113282978D01*
X175147171Y-113282978D01*
X175176926Y-113265695D01*
X175282933Y-113152473D01*
X175299646Y-113130578D01*
X183322654Y-113130578D01*
X183328734Y-113190866D01*
X183344014Y-113198814D01*
X183362600Y-113157000D01*
X183358934Y-113130106D01*
X183328734Y-113123133D01*
X183322654Y-113130578D01*
X175299646Y-113130578D01*
X175409986Y-112986027D01*
X175545347Y-112785276D01*
X175676280Y-112569142D01*
X175790047Y-112356543D01*
X175873912Y-112166400D01*
X175888218Y-112129835D01*
X175986086Y-111915958D01*
X176123926Y-111651194D01*
X176286783Y-111362274D01*
X176317221Y-111311871D01*
X182043708Y-111311871D01*
X182051244Y-111350649D01*
X182105300Y-111438871D01*
X182140470Y-111487971D01*
X182186275Y-111607600D01*
X182210402Y-111676232D01*
X182280257Y-111798862D01*
X182375180Y-111932783D01*
X182475845Y-112053386D01*
X182562926Y-112136062D01*
X182617098Y-112156203D01*
X182635312Y-112147920D01*
X182635732Y-112176053D01*
X182639434Y-112206776D01*
X182690179Y-112306955D01*
X182784993Y-112454010D01*
X182911947Y-112628402D01*
X183057640Y-112818485D01*
X183159197Y-112949543D01*
X183219681Y-113023873D01*
X183249723Y-113053655D01*
X183259953Y-113051067D01*
X183261000Y-113028287D01*
X183235363Y-112958581D01*
X183164384Y-112833876D01*
X183062251Y-112675317D01*
X182943176Y-112502877D01*
X182821373Y-112336528D01*
X182711055Y-112196244D01*
X182626435Y-112101998D01*
X182581727Y-112073761D01*
X182559390Y-112084189D01*
X182562060Y-112064918D01*
X182570068Y-112052329D01*
X182560360Y-111983253D01*
X182505877Y-111922923D01*
X182442445Y-111915957D01*
X182418788Y-111918246D01*
X182397400Y-111861600D01*
X182406150Y-111820606D01*
X182456050Y-111815650D01*
X182483601Y-111827868D01*
X182479823Y-111795467D01*
X182447345Y-111770310D01*
X182357674Y-111771729D01*
X182346170Y-111775944D01*
X182298339Y-111782617D01*
X182330712Y-111730048D01*
X182334488Y-111725214D01*
X182353924Y-111664246D01*
X182318437Y-111581740D01*
X182218319Y-111453836D01*
X182148383Y-111377427D01*
X182073541Y-111312516D01*
X182043708Y-111311871D01*
X176317221Y-111311871D01*
X176459705Y-111075930D01*
X176627737Y-110818892D01*
X176711520Y-110689801D01*
X176782227Y-110563736D01*
X176809400Y-110490519D01*
X176820237Y-110448143D01*
X176883409Y-110364819D01*
X176893242Y-110356244D01*
X176923047Y-110305396D01*
X176902851Y-110231263D01*
X176826410Y-110105432D01*
X176734644Y-109990217D01*
X176660199Y-109941554D01*
X176621366Y-109969188D01*
X176631390Y-110075175D01*
X176638554Y-110106876D01*
X176627676Y-110117460D01*
X176576403Y-110036661D01*
X176574207Y-110032800D01*
X176502669Y-109913967D01*
X176447529Y-109833461D01*
X176388671Y-109759436D01*
X176304691Y-109651800D01*
X176260843Y-109599491D01*
X176190123Y-109555757D01*
X176111697Y-109582368D01*
X176015529Y-109609608D01*
X175907787Y-109553253D01*
X175803803Y-109397800D01*
X175764529Y-109322025D01*
X175749976Y-109311484D01*
X175762677Y-109388003D01*
X175768744Y-109422713D01*
X175763759Y-109473818D01*
X175713204Y-109445283D01*
X175677524Y-109404294D01*
X175641000Y-109298834D01*
X175640980Y-109297200D01*
X175604599Y-109202998D01*
X175519639Y-109098296D01*
X175428140Y-108980261D01*
X175369734Y-108841565D01*
X175332178Y-108729306D01*
X175264230Y-108621886D01*
X175245128Y-108599677D01*
X175173308Y-108484337D01*
X175103819Y-108336363D01*
X175078872Y-108278477D01*
X175019608Y-108170594D01*
X174975085Y-108127800D01*
X174967226Y-108127207D01*
X174935816Y-108089700D01*
X174939360Y-108050605D01*
X174913401Y-107950000D01*
X178943000Y-107950000D01*
X178968400Y-107975400D01*
X178993800Y-107950000D01*
X178968400Y-107924600D01*
X178943000Y-107950000D01*
X174913401Y-107950000D01*
X174912343Y-107945899D01*
X174817136Y-107822826D01*
X174733870Y-107710778D01*
X174705908Y-107645200D01*
X178841400Y-107645200D01*
X178866800Y-107670600D01*
X178892200Y-107645200D01*
X178866800Y-107619800D01*
X178841400Y-107645200D01*
X174705908Y-107645200D01*
X174690196Y-107608352D01*
X174664642Y-107524413D01*
X174601982Y-107404470D01*
X174592074Y-107391200D01*
X178638200Y-107391200D01*
X178663600Y-107416600D01*
X178689000Y-107391200D01*
X178663600Y-107365800D01*
X178638200Y-107391200D01*
X174592074Y-107391200D01*
X174528029Y-107305422D01*
X174466758Y-107264200D01*
X174453394Y-107261649D01*
X174421800Y-107208010D01*
X174413918Y-107180259D01*
X174359157Y-107083577D01*
X174269400Y-106959399D01*
X174221323Y-106895660D01*
X174147579Y-106781600D01*
X174269400Y-106781600D01*
X174294800Y-106807000D01*
X174320200Y-106781600D01*
X174294800Y-106756200D01*
X174269400Y-106781600D01*
X174147579Y-106781600D01*
X174146492Y-106779918D01*
X174117000Y-106707791D01*
X174112876Y-106687043D01*
X174066201Y-106679999D01*
X174043540Y-106686923D01*
X174015400Y-106644378D01*
X174014439Y-106635104D01*
X173972724Y-106548348D01*
X173888400Y-106440398D01*
X173869711Y-106419926D01*
X173792654Y-106327121D01*
X173761400Y-106274382D01*
X173740699Y-106235560D01*
X173732350Y-106222800D01*
X177774600Y-106222800D01*
X177800000Y-106248200D01*
X177825400Y-106222800D01*
X177800000Y-106197400D01*
X177774600Y-106222800D01*
X173732350Y-106222800D01*
X173671015Y-106129062D01*
X173563818Y-105973664D01*
X173431200Y-105787209D01*
X173344136Y-105664000D01*
X177317400Y-105664000D01*
X177342800Y-105689400D01*
X177368200Y-105664000D01*
X177342800Y-105638600D01*
X177317400Y-105664000D01*
X173344136Y-105664000D01*
X173317760Y-105626674D01*
X173240211Y-105511600D01*
X177165000Y-105511600D01*
X177190400Y-105537000D01*
X177215800Y-105511600D01*
X177190400Y-105486200D01*
X177165000Y-105511600D01*
X173240211Y-105511600D01*
X173205489Y-105460076D01*
X173129160Y-105337444D01*
X173101000Y-105277646D01*
X173097071Y-105260289D01*
X173050200Y-105257600D01*
X173030610Y-105265638D01*
X172999400Y-105236683D01*
X172991889Y-105210180D01*
X172978605Y-105184727D01*
X176911386Y-105184727D01*
X176955321Y-105244900D01*
X177001816Y-105299084D01*
X177044221Y-105333800D01*
X177053135Y-105332965D01*
X177053390Y-105308400D01*
X177215800Y-105308400D01*
X177241200Y-105333800D01*
X177266600Y-105308400D01*
X177241200Y-105283000D01*
X177215800Y-105308400D01*
X177053390Y-105308400D01*
X177053478Y-105299868D01*
X176974500Y-105225720D01*
X176937693Y-105197342D01*
X176911386Y-105184727D01*
X172978605Y-105184727D01*
X172940971Y-105112615D01*
X172873482Y-105003600D01*
X176961800Y-105003600D01*
X176987200Y-105029000D01*
X177004613Y-105011587D01*
X177456356Y-105011587D01*
X177476141Y-105051526D01*
X177541067Y-105150388D01*
X177579727Y-105210911D01*
X177633417Y-105308400D01*
X177646559Y-105332265D01*
X177673000Y-105407510D01*
X177673086Y-105409904D01*
X177708053Y-105487760D01*
X177726685Y-105511600D01*
X177787300Y-105589162D01*
X177852995Y-105664000D01*
X177868141Y-105681255D01*
X177990363Y-105828897D01*
X178119974Y-105991806D01*
X178245744Y-106148140D01*
X178313572Y-106222800D01*
X178352331Y-106265464D01*
X178402867Y-106298785D01*
X178396170Y-106249271D01*
X178331056Y-106118093D01*
X178206345Y-105906418D01*
X178144407Y-105809482D01*
X177983153Y-105579945D01*
X177815977Y-105367019D01*
X177670523Y-105206800D01*
X177582901Y-105121848D01*
X177489386Y-105033913D01*
X177456356Y-105011587D01*
X177004613Y-105011587D01*
X177012600Y-105003600D01*
X176987200Y-104978200D01*
X176961800Y-105003600D01*
X172873482Y-105003600D01*
X172859118Y-104980397D01*
X172805916Y-104902000D01*
X176758600Y-104902000D01*
X176784000Y-104927400D01*
X176809400Y-104902000D01*
X176911000Y-104902000D01*
X176936400Y-104927400D01*
X176961800Y-104902000D01*
X176936400Y-104876600D01*
X176911000Y-104902000D01*
X176809400Y-104902000D01*
X176784000Y-104876600D01*
X176758600Y-104902000D01*
X172805916Y-104902000D01*
X172766645Y-104844131D01*
X172683867Y-104734420D01*
X172631100Y-104681866D01*
X172627315Y-104679959D01*
X172593000Y-104619346D01*
X172592961Y-104618381D01*
X172563806Y-104553764D01*
X172529286Y-104495600D01*
X176352200Y-104495600D01*
X176377600Y-104521000D01*
X176403000Y-104495600D01*
X176377600Y-104470200D01*
X176352200Y-104495600D01*
X172529286Y-104495600D01*
X172491259Y-104431526D01*
X172402123Y-104292400D01*
X176250600Y-104292400D01*
X176276000Y-104317800D01*
X176301400Y-104292400D01*
X176276000Y-104267000D01*
X176250600Y-104292400D01*
X172402123Y-104292400D01*
X172391168Y-104275301D01*
X172334461Y-104190800D01*
X176149000Y-104190800D01*
X176174400Y-104216200D01*
X176199800Y-104190800D01*
X176174400Y-104165400D01*
X176149000Y-104190800D01*
X172334461Y-104190800D01*
X172279383Y-104108726D01*
X172171754Y-103955437D01*
X172084128Y-103839069D01*
X172032356Y-103783260D01*
X172015612Y-103767092D01*
X172015821Y-103696840D01*
X172025783Y-103674613D01*
X171997006Y-103674391D01*
X171950788Y-103676648D01*
X171874856Y-103621689D01*
X171853795Y-103595262D01*
X171832682Y-103557813D01*
X171881800Y-103581200D01*
X171906982Y-103595545D01*
X171931590Y-103599365D01*
X171887261Y-103538923D01*
X171837682Y-103490739D01*
X171789745Y-103478521D01*
X171774455Y-103476150D01*
X171717829Y-103415934D01*
X171641705Y-103301949D01*
X171602418Y-103239323D01*
X171527987Y-103138419D01*
X171480675Y-103098599D01*
X171479868Y-103098574D01*
X171432183Y-103055728D01*
X171374395Y-102959756D01*
X171343026Y-102887143D01*
X175236470Y-102887143D01*
X175257403Y-102975606D01*
X175333141Y-103083613D01*
X175391657Y-103167989D01*
X175396641Y-103228336D01*
X175386793Y-103241724D01*
X175412400Y-103238721D01*
X175429078Y-103236999D01*
X175501048Y-103281717D01*
X175590200Y-103380778D01*
X175611816Y-103408239D01*
X175734766Y-103530444D01*
X175856255Y-103610297D01*
X175858294Y-103611166D01*
X175946846Y-103665584D01*
X175967557Y-103714095D01*
X175961372Y-103730041D01*
X175995829Y-103759000D01*
X176016886Y-103763986D01*
X176043608Y-103822500D01*
X176038377Y-103885478D01*
X176050420Y-103978353D01*
X176090122Y-103992592D01*
X176128222Y-103997079D01*
X176199549Y-104060913D01*
X176272300Y-104162055D01*
X176286371Y-104190800D01*
X176324138Y-104267958D01*
X176326826Y-104292400D01*
X176332726Y-104346075D01*
X176326565Y-104380832D01*
X176361737Y-104406090D01*
X176405256Y-104422087D01*
X176480759Y-104495600D01*
X176483923Y-104498681D01*
X176563480Y-104606993D01*
X176619547Y-104712640D01*
X176627744Y-104781239D01*
X176621038Y-104793749D01*
X176625604Y-104825800D01*
X176639479Y-104823606D01*
X176676646Y-104768908D01*
X176663046Y-104673400D01*
X176660069Y-104666423D01*
X176650826Y-104648000D01*
X176758600Y-104648000D01*
X176784000Y-104673400D01*
X176809400Y-104648000D01*
X176784000Y-104622600D01*
X176758600Y-104648000D01*
X176650826Y-104648000D01*
X176588802Y-104524377D01*
X176487779Y-104349683D01*
X176376280Y-104172975D01*
X176273584Y-104024886D01*
X176198971Y-103936049D01*
X176132329Y-103863664D01*
X176098200Y-103796837D01*
X176079234Y-103763367D01*
X176000488Y-103669298D01*
X175874699Y-103534660D01*
X175717200Y-103376379D01*
X175600844Y-103258814D01*
X175464186Y-103108817D01*
X175370788Y-102991152D01*
X175336200Y-102924268D01*
X175329908Y-102885980D01*
X175285400Y-102844600D01*
X175275736Y-102845223D01*
X175236470Y-102887143D01*
X171343026Y-102887143D01*
X171328225Y-102852881D01*
X171318266Y-102794237D01*
X175726837Y-102794237D01*
X175768000Y-102895400D01*
X175824794Y-102993046D01*
X175875526Y-103049113D01*
X175895000Y-103024790D01*
X175883002Y-102973428D01*
X175836736Y-102874189D01*
X175778518Y-102782991D01*
X175733142Y-102743000D01*
X175728320Y-102744162D01*
X175726837Y-102794237D01*
X171318266Y-102794237D01*
X171315394Y-102777324D01*
X171315119Y-102763328D01*
X171273675Y-102767488D01*
X171221386Y-102753719D01*
X171163388Y-102671257D01*
X171110845Y-102590028D01*
X171061572Y-102569790D01*
X171039146Y-102571934D01*
X171018200Y-102515803D01*
X171011248Y-102483075D01*
X175031400Y-102483075D01*
X175052015Y-102515146D01*
X175135904Y-102555278D01*
X175159188Y-102561041D01*
X175210250Y-102561189D01*
X175180484Y-102510403D01*
X175131077Y-102463918D01*
X175061653Y-102440175D01*
X175031400Y-102483075D01*
X171011248Y-102483075D01*
X171009604Y-102475338D01*
X170942000Y-102405770D01*
X170906697Y-102384603D01*
X170894306Y-102362000D01*
X171018200Y-102362000D01*
X171043600Y-102387400D01*
X171069000Y-102362000D01*
X171043600Y-102336600D01*
X171018200Y-102362000D01*
X170894306Y-102362000D01*
X170865800Y-102309998D01*
X170862996Y-102284961D01*
X170824010Y-102226533D01*
X170813480Y-102217038D01*
X170788923Y-102184200D01*
X174894740Y-102184200D01*
X174894814Y-102207094D01*
X174929800Y-102285800D01*
X174974629Y-102347540D01*
X174998729Y-102362000D01*
X175041061Y-102387400D01*
X175054525Y-102358434D01*
X175006000Y-102285800D01*
X174939017Y-102217382D01*
X174894740Y-102184200D01*
X170788923Y-102184200D01*
X170757495Y-102142174D01*
X170668825Y-102010316D01*
X170560104Y-101841738D01*
X170443967Y-101656717D01*
X170333049Y-101475527D01*
X170239985Y-101318443D01*
X170177409Y-101205743D01*
X170157956Y-101157699D01*
X170146200Y-101125297D01*
X170092633Y-101028118D01*
X170009136Y-100891554D01*
X169941767Y-100779395D01*
X169875456Y-100652016D01*
X169849800Y-100577477D01*
X169855380Y-100549583D01*
X169926805Y-100492761D01*
X170060926Y-100475222D01*
X170232845Y-100501881D01*
X170256306Y-100507986D01*
X170394143Y-100530329D01*
X170488590Y-100524716D01*
X170530636Y-100521135D01*
X170561000Y-100581563D01*
X170569009Y-100622339D01*
X170611181Y-100635182D01*
X170666385Y-100648533D01*
X170772254Y-100717627D01*
X170903281Y-100827706D01*
X171029908Y-100935880D01*
X171173723Y-101035932D01*
X171285076Y-101088397D01*
X171349304Y-101086832D01*
X171351745Y-101024793D01*
X171348848Y-101015643D01*
X171360544Y-101001032D01*
X171416962Y-101061206D01*
X171501231Y-101137077D01*
X171570420Y-101146867D01*
X171622228Y-101141484D01*
X171708019Y-101190361D01*
X171752367Y-101232169D01*
X171816955Y-101273022D01*
X171826748Y-101239390D01*
X171782528Y-101138531D01*
X171685078Y-100977700D01*
X171609315Y-100862283D01*
X171507712Y-100705320D01*
X171451677Y-100611808D01*
X171434500Y-100567827D01*
X171449471Y-100559457D01*
X171489880Y-100572779D01*
X171542224Y-100581411D01*
X171543578Y-100530612D01*
X171538258Y-100514631D01*
X171547704Y-100460479D01*
X171606674Y-100462311D01*
X171690862Y-100512507D01*
X171775963Y-100603449D01*
X171792158Y-100624608D01*
X171885188Y-100703922D01*
X172024762Y-100761430D01*
X172229194Y-100802826D01*
X172516800Y-100833807D01*
X172591694Y-100860627D01*
X172733398Y-100947854D01*
X172911202Y-101081893D01*
X173105430Y-101248868D01*
X173156964Y-101295039D01*
X173287837Y-101396429D01*
X173392544Y-101440624D01*
X173501700Y-101442592D01*
X173518230Y-101440868D01*
X173613957Y-101442220D01*
X173639205Y-101465226D01*
X173635435Y-101484501D01*
X173684691Y-101506866D01*
X173728229Y-101489577D01*
X173707857Y-101417072D01*
X173679061Y-101337830D01*
X173659800Y-101200568D01*
X173655034Y-101150061D01*
X173582804Y-100999580D01*
X173444808Y-100897203D01*
X173416645Y-100868391D01*
X173448154Y-100821780D01*
X173532344Y-100780693D01*
X173643472Y-100762577D01*
X173776621Y-100798804D01*
X173876914Y-100913352D01*
X173913800Y-101088006D01*
X173934857Y-101208031D01*
X174005900Y-101369381D01*
X174107816Y-101520514D01*
X174220418Y-101632448D01*
X174323517Y-101676200D01*
X174381639Y-101685052D01*
X174401601Y-101718584D01*
X174416071Y-101764821D01*
X174487916Y-101861391D01*
X174601803Y-101983161D01*
X174707798Y-102080839D01*
X174797560Y-102141908D01*
X174828200Y-102124797D01*
X174813000Y-102066368D01*
X174743531Y-101974520D01*
X174715346Y-101948376D01*
X174620670Y-101842515D01*
X174582193Y-101793145D01*
X174949953Y-101793145D01*
X174977934Y-101845485D01*
X175057001Y-101930388D01*
X175076252Y-101948444D01*
X175151266Y-102013183D01*
X175179483Y-102010467D01*
X175183800Y-101942478D01*
X175173817Y-101900393D01*
X175110412Y-101823675D01*
X175022832Y-101777973D01*
X174951572Y-101789894D01*
X174949953Y-101793145D01*
X174582193Y-101793145D01*
X174516608Y-101708993D01*
X174486787Y-101667398D01*
X174420880Y-101560683D01*
X174410766Y-101494160D01*
X174449112Y-101438431D01*
X174469756Y-101419932D01*
X174556076Y-101388935D01*
X174688734Y-101414059D01*
X174703993Y-101418614D01*
X174875644Y-101462080D01*
X175056800Y-101498420D01*
X175058210Y-101498657D01*
X175258111Y-101559697D01*
X175390133Y-101657619D01*
X175437800Y-101780238D01*
X175447633Y-101828001D01*
X175511261Y-101896719D01*
X175560009Y-101941668D01*
X175560558Y-101942478D01*
X175638181Y-102057077D01*
X175720998Y-102212974D01*
X175790187Y-102345616D01*
X175798258Y-102358434D01*
X175887599Y-102500336D01*
X175938491Y-102561189D01*
G37*
X175938491Y-102561189D02*
X175970574Y-102599552D01*
X175988778Y-102617083D01*
X176079261Y-102743817D01*
X176150208Y-102899059D01*
X176164564Y-102939647D01*
X176203377Y-103024790D01*
X176225888Y-103074174D01*
X176284371Y-103156347D01*
X176317437Y-103189991D01*
X176352201Y-103261202D01*
X176366464Y-103293960D01*
X176435568Y-103385293D01*
X176542700Y-103501694D01*
X176758191Y-103727984D01*
X176952376Y-103958388D01*
X177071882Y-104138335D01*
X177113094Y-104262999D01*
X177115734Y-104295168D01*
X177162969Y-104423319D01*
X177247705Y-104528296D01*
X177341598Y-104571800D01*
X177386793Y-104595913D01*
X177453070Y-104648000D01*
X177492300Y-104678831D01*
X177594670Y-104768908D01*
X177637827Y-104806883D01*
X177738784Y-104902000D01*
X177806181Y-104965499D01*
X177844117Y-105003600D01*
X177873512Y-105033123D01*
X178156311Y-105359903D01*
X178449981Y-105761856D01*
X178741857Y-106220687D01*
X178785414Y-106298785D01*
X179019275Y-106718100D01*
X179045068Y-106765764D01*
X179054968Y-106781600D01*
X179108916Y-106867897D01*
X179148748Y-106908600D01*
X179167073Y-106923701D01*
X179222378Y-107006432D01*
X179293160Y-107137200D01*
X179335248Y-107219441D01*
X179393249Y-107324649D01*
X179422404Y-107365800D01*
X179432647Y-107356669D01*
X179488600Y-107280459D01*
X179582937Y-107139483D01*
X179706024Y-106948914D01*
X179848228Y-106723927D01*
X179999914Y-106479696D01*
X180151449Y-106231396D01*
X180293199Y-105994200D01*
X180401240Y-105819958D01*
X180571901Y-105570320D01*
X180741767Y-105346849D01*
X180887546Y-105181400D01*
X180903866Y-105165001D01*
X181086545Y-104966802D01*
X181271048Y-104736936D01*
X181468053Y-104460489D01*
X181688237Y-104122548D01*
X181942276Y-103708200D01*
X182063776Y-103507672D01*
X182204664Y-103279435D01*
X182328581Y-103083003D01*
X182418151Y-102946200D01*
X182479457Y-102853423D01*
X182547765Y-102740497D01*
X182574585Y-102681686D01*
X182588813Y-102649900D01*
X182654299Y-102580086D01*
X182745514Y-102484643D01*
X182858040Y-102339615D01*
X182959898Y-102187837D01*
X183021846Y-102069900D01*
X183047662Y-102022201D01*
X183107006Y-101981000D01*
X183130538Y-101973022D01*
X183159400Y-101906587D01*
X183179839Y-101850919D01*
X183260495Y-101778070D01*
X183320466Y-101736634D01*
X183349395Y-101687303D01*
X183363500Y-101647442D01*
X183435998Y-101546395D01*
X183556263Y-101405132D01*
X183709759Y-101240518D01*
X183881951Y-101069417D01*
X183949843Y-101004112D01*
X184100131Y-100858161D01*
X184280859Y-100681533D01*
X184466454Y-100499179D01*
X184598523Y-100374140D01*
X184764301Y-100231204D01*
X184901185Y-100128729D01*
X184988503Y-100083189D01*
X185026463Y-100076863D01*
X185168821Y-100060318D01*
X185367874Y-100042358D01*
X185592959Y-100025891D01*
X185702100Y-100017713D01*
X185910433Y-99995752D01*
X186073854Y-99970180D01*
X186164067Y-99945004D01*
X186169269Y-99942328D01*
X186300392Y-99901314D01*
X186494632Y-99868124D01*
X186715775Y-99847534D01*
X186927607Y-99844317D01*
X187089839Y-99825276D01*
X187226101Y-99734939D01*
X187256885Y-99704246D01*
X187326935Y-99657392D01*
X187362943Y-99688048D01*
X187388788Y-99730395D01*
X187428878Y-99691314D01*
X187474094Y-99651479D01*
X187544789Y-99687686D01*
X187591645Y-99715049D01*
X187637560Y-99702896D01*
X187637675Y-99702607D01*
X187694381Y-99674640D01*
X187824334Y-99646566D01*
X187999680Y-99624422D01*
X188037891Y-99620993D01*
X188206852Y-99609430D01*
X188304243Y-99615690D01*
X188355080Y-99644805D01*
X188384378Y-99701809D01*
X188406939Y-99776070D01*
X188410600Y-99912038D01*
X188351449Y-100054013D01*
X188220769Y-100230147D01*
X188140673Y-100332745D01*
X188084551Y-100422465D01*
X188083215Y-100457000D01*
X188109278Y-100479981D01*
X188090053Y-100575972D01*
X188062878Y-100711208D01*
X188061041Y-100869479D01*
X188061121Y-100870346D01*
X188053919Y-101027794D01*
X188014276Y-101161705D01*
X187976283Y-101311348D01*
X187991214Y-101531948D01*
X188001540Y-101615720D01*
X188006432Y-101780494D01*
X187989709Y-101895451D01*
X187972658Y-101978414D01*
X187985513Y-102108000D01*
X187994554Y-102190698D01*
X187936123Y-102336600D01*
X187882962Y-102432815D01*
X187819566Y-102593034D01*
X187770820Y-102762411D01*
X187746061Y-102907154D01*
X187754623Y-102993477D01*
X187755791Y-102995553D01*
X187748593Y-103072058D01*
X187688816Y-103175894D01*
X187625070Y-103291708D01*
X187612098Y-103391991D01*
X187601844Y-103444381D01*
X187526484Y-103561918D01*
X187378420Y-103737866D01*
X187155016Y-103975587D01*
X187102223Y-104030074D01*
X186936546Y-104202899D01*
X186805295Y-104342631D01*
X186720701Y-104436115D01*
X186694998Y-104470200D01*
X186695184Y-104472826D01*
X186655413Y-104522736D01*
X186563835Y-104622954D01*
X186435966Y-104756341D01*
X186401459Y-104791841D01*
X186276854Y-104922969D01*
X186189521Y-105019585D01*
X186156600Y-105062882D01*
X186149068Y-105075053D01*
X186088228Y-105145918D01*
X185979577Y-105263506D01*
X185839100Y-105410322D01*
X185749399Y-105505160D01*
X185595009Y-105691803D01*
X185486715Y-105871527D01*
X185400096Y-106081682D01*
X185397491Y-106089046D01*
X185330084Y-106268504D01*
X185268955Y-106412901D01*
X185227049Y-106491580D01*
X185201384Y-106529711D01*
X185133829Y-106646840D01*
X185055261Y-106796380D01*
X184941282Y-107019164D01*
X184771516Y-107338206D01*
X184742040Y-107391200D01*
X184605669Y-107636381D01*
X184600513Y-107645200D01*
X184453858Y-107896059D01*
X184420028Y-107950000D01*
X184326202Y-108099608D01*
X184232819Y-108229400D01*
X184143308Y-108336179D01*
X184074742Y-108417755D01*
X184051497Y-108448504D01*
X184023000Y-108508800D01*
X184017226Y-108528987D01*
X183970270Y-108599844D01*
X183961303Y-108610967D01*
X183898227Y-108695321D01*
X183792590Y-108840477D01*
X183656667Y-109029485D01*
X183502733Y-109245400D01*
X183456743Y-109310176D01*
X183297216Y-109534794D01*
X183181976Y-109696371D01*
X183099204Y-109810824D01*
X183037077Y-109894067D01*
X182983776Y-109962018D01*
X182927480Y-110030592D01*
X182856367Y-110115706D01*
X182809476Y-110174528D01*
X182732569Y-110286915D01*
X182702200Y-110357006D01*
X182699940Y-110374303D01*
X182654824Y-110413800D01*
X182625179Y-110427585D01*
X182579184Y-110502700D01*
X182574544Y-110515091D01*
X182513204Y-110617485D01*
X182417928Y-110734942D01*
X182284934Y-110878284D01*
X182404667Y-111012884D01*
X182412189Y-111021310D01*
X182510658Y-111127108D01*
X182584821Y-111199742D01*
X182592593Y-111207146D01*
X182659963Y-111285610D01*
X182763388Y-111417622D01*
X182883872Y-111579085D01*
X182900076Y-111601295D01*
X183019737Y-111764903D01*
X183103842Y-111877646D01*
X183174342Y-111967635D01*
X183253187Y-112062983D01*
X183362332Y-112191800D01*
X183385804Y-112220006D01*
X183466777Y-112341319D01*
X183504533Y-112471093D01*
X183514189Y-112655479D01*
X183514786Y-112699442D01*
X183536931Y-112899343D01*
X183591200Y-113004600D01*
X183613130Y-113028287D01*
X183631741Y-113048391D01*
X183667400Y-113133586D01*
X183669961Y-113157000D01*
X183670051Y-113157827D01*
X183708578Y-113216266D01*
X183709388Y-113216618D01*
X183764905Y-113275080D01*
X183787922Y-113309400D01*
X183849355Y-113401003D01*
X183949147Y-113570263D01*
X184050688Y-113758733D01*
X184107805Y-113875614D01*
X184140386Y-113942287D01*
X184204650Y-114096800D01*
X184240575Y-114187708D01*
X184301825Y-114310831D01*
X184317050Y-114341437D01*
X184359440Y-114401600D01*
X184387677Y-114441678D01*
X184445120Y-114521817D01*
X184480200Y-114641604D01*
X184503023Y-114737746D01*
X184574793Y-114855525D01*
X184582122Y-114865504D01*
X184604291Y-114895690D01*
X184673798Y-115036321D01*
X184728611Y-115204427D01*
X184782156Y-115354407D01*
X184850823Y-115487457D01*
X184867206Y-115519200D01*
X184894133Y-115571377D01*
X184959484Y-115671600D01*
X185040419Y-115795724D01*
X185083535Y-115855488D01*
X185097029Y-115874800D01*
X185190538Y-116008636D01*
X185265043Y-116122542D01*
X185293000Y-116176053D01*
X185293142Y-116178070D01*
X185322579Y-116242961D01*
X185387758Y-116346757D01*
X185458408Y-116452024D01*
X185564197Y-116613235D01*
X185677952Y-116789200D01*
X185681695Y-116795028D01*
X185815003Y-116994705D01*
X185975505Y-117224400D01*
X186129295Y-117435552D01*
X186129524Y-117435857D01*
X186290316Y-117651542D01*
X186465867Y-117888667D01*
X186618212Y-118095952D01*
X186794029Y-118352521D01*
X186984946Y-118660669D01*
X187169884Y-118985335D01*
X187335388Y-119301854D01*
X187468004Y-119585564D01*
X187554275Y-119811800D01*
X187555066Y-119814308D01*
X187600147Y-119924374D01*
X187635561Y-119998358D01*
X187678172Y-120087380D01*
X187680162Y-120091200D01*
X187772740Y-120269000D01*
X187781080Y-120284378D01*
X187919867Y-120543602D01*
X187966689Y-120636850D01*
X188017569Y-120738182D01*
X188023293Y-120751600D01*
X188082656Y-120890770D01*
X188123599Y-121024018D01*
X188148394Y-121158000D01*
X188148870Y-121160577D01*
X188165528Y-121310400D01*
X188166939Y-121323100D01*
X188176835Y-121439277D01*
X188180684Y-121596275D01*
X188159101Y-121670308D01*
X188106181Y-121672809D01*
X188016017Y-121615211D01*
X187945496Y-121575246D01*
X187876317Y-121569025D01*
X187874445Y-121570132D01*
X187834233Y-121551623D01*
X187821082Y-121437400D01*
X187792714Y-121391914D01*
X187718035Y-121310400D01*
X187833000Y-121310400D01*
X187858400Y-121335800D01*
X187883800Y-121310400D01*
X187858400Y-121285000D01*
X187833000Y-121310400D01*
X187718035Y-121310400D01*
X187686961Y-121281605D01*
X187662401Y-121273601D01*
X187684884Y-121334638D01*
X187756600Y-121474009D01*
X187825016Y-121590383D01*
X187897107Y-121685995D01*
X187941863Y-121712311D01*
X187944701Y-121710889D01*
X187973539Y-121742300D01*
X187985400Y-121842396D01*
X188004383Y-121958077D01*
X188061600Y-122028629D01*
X188097300Y-122048001D01*
X188137800Y-122106233D01*
X188132328Y-122123600D01*
X188081568Y-122119842D01*
X188079152Y-122118404D01*
X188046046Y-122130341D01*
X188055191Y-122231144D01*
X188055806Y-122234162D01*
X188090797Y-122423033D01*
X188126218Y-122641667D01*
X188157385Y-122857640D01*
X188167014Y-122936000D01*
X188179612Y-123038526D01*
X188188217Y-123151900D01*
X188175168Y-123227024D01*
X188116784Y-123261751D01*
X188021522Y-123215470D01*
X187900354Y-123090520D01*
X187870259Y-123054144D01*
X187776449Y-122968070D01*
X187723294Y-122974516D01*
X187713040Y-123018818D01*
X187747006Y-123109147D01*
X187749281Y-123111968D01*
X187782004Y-123161064D01*
X187744100Y-123145953D01*
X187706934Y-123135168D01*
X187680600Y-123187001D01*
X187680600Y-123187155D01*
X187649231Y-123256564D01*
X187572139Y-123260528D01*
X187474539Y-123206292D01*
X187381645Y-123101100D01*
X187370347Y-123083524D01*
X187308264Y-122994909D01*
X187281318Y-122986130D01*
X187275056Y-123050300D01*
X187262175Y-123121560D01*
X187217965Y-123164600D01*
X187192840Y-123152600D01*
X187191984Y-123085761D01*
X187201464Y-123041361D01*
X187163386Y-123043295D01*
X187129559Y-123052019D01*
X187137986Y-122992495D01*
X187149745Y-122946610D01*
X187136941Y-122936000D01*
X187629800Y-122936000D01*
X187655200Y-122961400D01*
X187680600Y-122936000D01*
X187655200Y-122910600D01*
X187629800Y-122936000D01*
X187136941Y-122936000D01*
X187130472Y-122930640D01*
X187085382Y-122921111D01*
X187016754Y-122850727D01*
X186942334Y-122743999D01*
X186857423Y-122633660D01*
X186797357Y-122587169D01*
X186742228Y-122592127D01*
X186672127Y-122636139D01*
X186638318Y-122661189D01*
X186589350Y-122719768D01*
X186621327Y-122763926D01*
X186661790Y-122798541D01*
X186613800Y-122809000D01*
X186569465Y-122816929D01*
X186600854Y-122850723D01*
X186626169Y-122885200D01*
X186639774Y-122903731D01*
X186660385Y-123015045D01*
X186656097Y-123153677D01*
X186653170Y-123232333D01*
X186641898Y-123535283D01*
X186625364Y-123825080D01*
X186604289Y-124030538D01*
X186576469Y-124159124D01*
X186539699Y-124218305D01*
X186491776Y-124215548D01*
X186430494Y-124158322D01*
X186353649Y-124054093D01*
X186232800Y-123876786D01*
X186223301Y-123926600D01*
X186207400Y-124009996D01*
X186203937Y-124027664D01*
X186186155Y-124083832D01*
X186156431Y-124083167D01*
X186100525Y-124016066D01*
X186022540Y-123900178D01*
X186116654Y-123900178D01*
X186122734Y-123960466D01*
X186138014Y-123968414D01*
X186156600Y-123926600D01*
X186152934Y-123899706D01*
X186122734Y-123892733D01*
X186116654Y-123900178D01*
X186022540Y-123900178D01*
X186004200Y-123872925D01*
X185917971Y-123742026D01*
X185837548Y-123620348D01*
X185794350Y-123555512D01*
X185761502Y-123536302D01*
X185669005Y-123560590D01*
X185637751Y-123575291D01*
X185557815Y-123571789D01*
X185463511Y-123491734D01*
X185454375Y-123482095D01*
X185374403Y-123419664D01*
X185332196Y-123428013D01*
X185323094Y-123436986D01*
X185272419Y-123405968D01*
X185198330Y-123312278D01*
X185155457Y-123247613D01*
X185200386Y-123247613D01*
X185242200Y-123266200D01*
X185269094Y-123262533D01*
X185276067Y-123232333D01*
X185268622Y-123226253D01*
X185208334Y-123232333D01*
X185200386Y-123247613D01*
X185155457Y-123247613D01*
X185083579Y-123139200D01*
X185106435Y-123532900D01*
X185112274Y-123739549D01*
X185096917Y-123880823D01*
X185055438Y-123928132D01*
X184984832Y-123884422D01*
X184882094Y-123752634D01*
X184809786Y-123662460D01*
X184738978Y-123608080D01*
X184702262Y-123618675D01*
X184716454Y-123699626D01*
X184723151Y-123737379D01*
X184688836Y-123774200D01*
X184671868Y-123771683D01*
X184632600Y-123720421D01*
X184620717Y-123685035D01*
X184561052Y-123583554D01*
X184468027Y-123453721D01*
X184404460Y-123371169D01*
X184326353Y-123268622D01*
X184290441Y-123219848D01*
X184252594Y-123219368D01*
X184160245Y-123252289D01*
X184129853Y-123265071D01*
X184038997Y-123271968D01*
X183956830Y-123199408D01*
X183899865Y-123116208D01*
X183869823Y-123039967D01*
X183863339Y-123021949D01*
X183827483Y-123052308D01*
X183784482Y-123058238D01*
X183710122Y-122981166D01*
X183645921Y-122885200D01*
X183718200Y-122885200D01*
X183743600Y-122910600D01*
X183769000Y-122885200D01*
X183743600Y-122859800D01*
X183718200Y-122885200D01*
X183645921Y-122885200D01*
X183599661Y-122816051D01*
X183598672Y-122814448D01*
X183505308Y-122653014D01*
X183438769Y-122518881D01*
X183413400Y-122440944D01*
X183412839Y-122433160D01*
X183374576Y-122341640D01*
X183294632Y-122229382D01*
X183241965Y-122153858D01*
X183156663Y-121987849D01*
X183085736Y-121802381D01*
X183079758Y-121783822D01*
X183017919Y-121621750D01*
X182931875Y-121427055D01*
X182834268Y-121225025D01*
X182799121Y-121158000D01*
X187579000Y-121158000D01*
X187604400Y-121183400D01*
X187629800Y-121158000D01*
X187604400Y-121132600D01*
X187579000Y-121158000D01*
X182799121Y-121158000D01*
X182737741Y-121040948D01*
X182654936Y-120900110D01*
X182598494Y-120827800D01*
X182561379Y-120784866D01*
X182541418Y-120751600D01*
X187680600Y-120751600D01*
X187706000Y-120777000D01*
X187731400Y-120751600D01*
X187706000Y-120726200D01*
X187680600Y-120751600D01*
X182541418Y-120751600D01*
X182501526Y-120685116D01*
X182461604Y-120599200D01*
X187325000Y-120599200D01*
X187350400Y-120624600D01*
X187375800Y-120599200D01*
X187350400Y-120573800D01*
X187325000Y-120599200D01*
X182461604Y-120599200D01*
X182452282Y-120579138D01*
X182436799Y-120512128D01*
X182434047Y-120498389D01*
X182380440Y-120501391D01*
X182378368Y-120502053D01*
X182321432Y-120473598D01*
X182253803Y-120392131D01*
X182202085Y-120296681D01*
X182192886Y-120226273D01*
X182184363Y-120206642D01*
X182174717Y-120197549D01*
X187390746Y-120197549D01*
X187396840Y-120244423D01*
X187448399Y-120379544D01*
X187456010Y-120397125D01*
X187530942Y-120533351D01*
X187584767Y-120599200D01*
X187607909Y-120627512D01*
X187635766Y-120636850D01*
X187617794Y-120573817D01*
X187547495Y-120437050D01*
X187505433Y-120363018D01*
X187427737Y-120237542D01*
X187390746Y-120197549D01*
X182174717Y-120197549D01*
X182124351Y-120150073D01*
X182073228Y-120091200D01*
X187325000Y-120091200D01*
X187350400Y-120116600D01*
X187375800Y-120091200D01*
X187350400Y-120065800D01*
X187325000Y-120091200D01*
X182073228Y-120091200D01*
X182073009Y-120090948D01*
X181975739Y-119938504D01*
X181845281Y-119705282D01*
X181685503Y-119398256D01*
X181500269Y-119024400D01*
X181496991Y-119017653D01*
X181397203Y-118813729D01*
X181300535Y-118618547D01*
X181300260Y-118618000D01*
X186156600Y-118618000D01*
X186182000Y-118643400D01*
X186207400Y-118618000D01*
X186182000Y-118592600D01*
X186156600Y-118618000D01*
X181300260Y-118618000D01*
X181227482Y-118473499D01*
X181203644Y-118425436D01*
X181154682Y-118313200D01*
X186004200Y-118313200D01*
X186029600Y-118338600D01*
X186055000Y-118313200D01*
X186029600Y-118287800D01*
X186004200Y-118313200D01*
X181154682Y-118313200D01*
X181148250Y-118298455D01*
X181137607Y-118262400D01*
X185851800Y-118262400D01*
X185877200Y-118287800D01*
X185902600Y-118262400D01*
X185877200Y-118237000D01*
X185851800Y-118262400D01*
X181137607Y-118262400D01*
X181124944Y-118219499D01*
X181120209Y-118206189D01*
X181060610Y-118130604D01*
X180947252Y-118015969D01*
X180935419Y-118005258D01*
X185711008Y-118005258D01*
X185713447Y-118047406D01*
X185771859Y-118123909D01*
X185824508Y-118172588D01*
X185841426Y-118173701D01*
X185802819Y-118092949D01*
X185753237Y-118020684D01*
X185711008Y-118005258D01*
X180935419Y-118005258D01*
X180826644Y-117906800D01*
X180924200Y-117906800D01*
X180949600Y-117932200D01*
X180975000Y-117906800D01*
X185648600Y-117906800D01*
X185674000Y-117932200D01*
X185699400Y-117906800D01*
X185674000Y-117881400D01*
X185648600Y-117906800D01*
X180975000Y-117906800D01*
X180949600Y-117881400D01*
X180924200Y-117906800D01*
X180826644Y-117906800D01*
X180798583Y-117881400D01*
X180744624Y-117834302D01*
X180606048Y-117707571D01*
X180508655Y-117609786D01*
X180470839Y-117559042D01*
X180468475Y-117549260D01*
X180467163Y-117546711D01*
X180543380Y-117546711D01*
X180589065Y-117612436D01*
X180683246Y-117707303D01*
X180847631Y-117856000D01*
X180720816Y-117703600D01*
X180696794Y-117674626D01*
X180619011Y-117579131D01*
X180581300Y-117530033D01*
X180543730Y-117533736D01*
X180543380Y-117546711D01*
X180467163Y-117546711D01*
X180427478Y-117469589D01*
X180352773Y-117355842D01*
X180278956Y-117241863D01*
X180170651Y-117052172D01*
X180052391Y-116827395D01*
X179934046Y-116588187D01*
X179825487Y-116355207D01*
X179736583Y-116149111D01*
X179680097Y-115998275D01*
X184794642Y-115998275D01*
X184795807Y-116072428D01*
X184843571Y-116192497D01*
X184944501Y-116367835D01*
X185104416Y-116609933D01*
X185201970Y-116752527D01*
X185308473Y-116908619D01*
X185382642Y-117017800D01*
X185450036Y-117113463D01*
X185495316Y-117170200D01*
X185536217Y-117215119D01*
X185618954Y-117322799D01*
X185705378Y-117447775D01*
X185773416Y-117557587D01*
X185801000Y-117619777D01*
X185801652Y-117628657D01*
X185844335Y-117686666D01*
X185874174Y-117718259D01*
X185948202Y-117822292D01*
X185970127Y-117856000D01*
X186003168Y-117906800D01*
X186051029Y-117980387D01*
X186170055Y-118173701D01*
X186170082Y-118173745D01*
X186221942Y-118262400D01*
X186251658Y-118313200D01*
X186265015Y-118336035D01*
X186347755Y-118487945D01*
X186393280Y-118585491D01*
X186393447Y-118612670D01*
X186384928Y-118609008D01*
X186388742Y-118618000D01*
X186394512Y-118631604D01*
X186463799Y-118701324D01*
X186488312Y-118724487D01*
X186534889Y-118775223D01*
X186514599Y-118770400D01*
X186480870Y-118749659D01*
X186462899Y-118751567D01*
X186508505Y-118821200D01*
X186598030Y-118928088D01*
X186711705Y-119042675D01*
X186735813Y-119065468D01*
X186784595Y-119122286D01*
X186766200Y-119127807D01*
X186744331Y-119118040D01*
X186716165Y-119112246D01*
X186766200Y-119160332D01*
X186806896Y-119209625D01*
X186852314Y-119329200D01*
X186862709Y-119391951D01*
X186926347Y-119582319D01*
X187023809Y-119772068D01*
X187131142Y-119911199D01*
X187211638Y-119976233D01*
X187292395Y-120016490D01*
X187325000Y-119998358D01*
X187309652Y-119952558D01*
X187265291Y-119837154D01*
X187202080Y-119679207D01*
X187195195Y-119662438D01*
X187048139Y-119351331D01*
X186842818Y-118981726D01*
X186588831Y-118569250D01*
X186295773Y-118129532D01*
X185973243Y-117678200D01*
X185902341Y-117581475D01*
X185693226Y-117288590D01*
X185482612Y-116984056D01*
X185291575Y-116698654D01*
X185141195Y-116463165D01*
X185128832Y-116443111D01*
X185005007Y-116250379D01*
X184900967Y-116102516D01*
X184827311Y-116013741D01*
X184794642Y-115998275D01*
X179680097Y-115998275D01*
X179677206Y-115990556D01*
X179657227Y-115900200D01*
X179658598Y-115876598D01*
X179658610Y-115874800D01*
X184429400Y-115874800D01*
X184454800Y-115900200D01*
X184480200Y-115874800D01*
X184454800Y-115849400D01*
X184429400Y-115874800D01*
X179658610Y-115874800D01*
X179659506Y-115737838D01*
X179638508Y-115671600D01*
X184378600Y-115671600D01*
X184404000Y-115697000D01*
X184429400Y-115671600D01*
X184404000Y-115646200D01*
X184378600Y-115671600D01*
X179638508Y-115671600D01*
X179636562Y-115665463D01*
X179581247Y-115629075D01*
X179548668Y-115629600D01*
X179465428Y-115701867D01*
X179356351Y-115870307D01*
X179285144Y-115992055D01*
X179197868Y-116129960D01*
X179137204Y-116212512D01*
X179100061Y-116256227D01*
X179019200Y-116369895D01*
X179005236Y-116392582D01*
X178931401Y-116507249D01*
X178822177Y-116672663D01*
X178689024Y-116871908D01*
X178543404Y-117088070D01*
X178396779Y-117304233D01*
X178260609Y-117503483D01*
X178146357Y-117668904D01*
X178065483Y-117783581D01*
X178029449Y-117830600D01*
X178028153Y-117831695D01*
X177983071Y-117889158D01*
X177901538Y-118006876D01*
X177800247Y-118160800D01*
X177791741Y-118173855D01*
X177650251Y-118367117D01*
X177472160Y-118580589D01*
X177293906Y-118770400D01*
X177207602Y-118858218D01*
X177032254Y-119056370D01*
X176889598Y-119244209D01*
X176793693Y-119402280D01*
X176758600Y-119511128D01*
X176748683Y-119543272D01*
X176691629Y-119647250D01*
X176599202Y-119790287D01*
X176489081Y-119946705D01*
X176378945Y-120090820D01*
X176286472Y-120196955D01*
X176177551Y-120313133D01*
X176084907Y-120439057D01*
X176068092Y-120472200D01*
X176009381Y-120587925D01*
X175993154Y-120621541D01*
X175901667Y-120736443D01*
X175801931Y-120764349D01*
X175709854Y-120699344D01*
X175675550Y-120654107D01*
X175646062Y-120639334D01*
X175641000Y-120716490D01*
X175632950Y-120784855D01*
X175620851Y-120802400D01*
X175602900Y-120828433D01*
X175549833Y-120856514D01*
X175445648Y-120943275D01*
X175314515Y-121068073D01*
X175227163Y-121158000D01*
X175176899Y-121209746D01*
X175053265Y-121347136D01*
X174964077Y-121459080D01*
X174929800Y-121524419D01*
X174915328Y-121554047D01*
X174841676Y-121637281D01*
X174726600Y-121742200D01*
X174651283Y-121808539D01*
X174559308Y-121901645D01*
X174523400Y-121956657D01*
X174522192Y-121964016D01*
X174480047Y-122036434D01*
X174396400Y-122137598D01*
X174386372Y-122148830D01*
X174303433Y-122280805D01*
X174269400Y-122408560D01*
X174250567Y-122509851D01*
X174188400Y-122609783D01*
X174176123Y-122620927D01*
X174094512Y-122721922D01*
X173999005Y-122869507D01*
X173947342Y-122961400D01*
X173907960Y-123031450D01*
X173839732Y-123175522D01*
X173835563Y-123190000D01*
X173812677Y-123269491D01*
X173809939Y-123284486D01*
X173804258Y-123291600D01*
X173749712Y-123359918D01*
X173635482Y-123433253D01*
X173615409Y-123443105D01*
X173504762Y-123520430D01*
X173488517Y-123595062D01*
X173495722Y-123635542D01*
X173462036Y-123672600D01*
X173444897Y-123674494D01*
X173412597Y-123710700D01*
X173413660Y-123718626D01*
X173404983Y-123814198D01*
X173374191Y-123933714D01*
X173334182Y-124035779D01*
X173297850Y-124079000D01*
X173290673Y-124079511D01*
X173259416Y-124117100D01*
X173260533Y-124201453D01*
X173189315Y-124342071D01*
X173153861Y-124391407D01*
X173079035Y-124525029D01*
X172988329Y-124706917D01*
X172894374Y-124909540D01*
X172809801Y-125105370D01*
X172747238Y-125266877D01*
X172719316Y-125366530D01*
X172710392Y-125468434D01*
X172701084Y-125618698D01*
X172683428Y-125710969D01*
X172649576Y-125733569D01*
X172632802Y-125730558D01*
X172590143Y-125781310D01*
X172556860Y-125894029D01*
X172542894Y-126040151D01*
X172542871Y-126042067D01*
X172502923Y-126135084D01*
X172377100Y-126200065D01*
X172250264Y-126238515D01*
X172154826Y-126249084D01*
X172084173Y-126213447D01*
X171999191Y-126123700D01*
X171982665Y-126104389D01*
X171905372Y-125969890D01*
X171901077Y-125819575D01*
X171901913Y-125685613D01*
X171845667Y-125610197D01*
X171841361Y-125607560D01*
X171783894Y-125523061D01*
X171754561Y-125387706D01*
X171753538Y-125372343D01*
X171737820Y-125242872D01*
X171716436Y-125165284D01*
X171703993Y-125115841D01*
X171695843Y-124975717D01*
X171697275Y-124773644D01*
X171706796Y-124532372D01*
X171722913Y-124274650D01*
X171744132Y-124023229D01*
X171768961Y-123800857D01*
X171795906Y-123630284D01*
X171823475Y-123534260D01*
X171845545Y-123466919D01*
X171834109Y-123372830D01*
X171821387Y-123333534D01*
X171822522Y-123291600D01*
X171831000Y-123291600D01*
X171856400Y-123317000D01*
X171881800Y-123291600D01*
X171856400Y-123266200D01*
X171831000Y-123291600D01*
X171822522Y-123291600D01*
X171824677Y-123211928D01*
X171829588Y-123190000D01*
X171881800Y-123190000D01*
X171907200Y-123215400D01*
X171932600Y-123190000D01*
X171907200Y-123164600D01*
X171881800Y-123190000D01*
X171829588Y-123190000D01*
X171857054Y-123067369D01*
X171907574Y-122941352D01*
X171913150Y-122934978D01*
X171943454Y-122934978D01*
X171949534Y-122995266D01*
X171964814Y-123003214D01*
X171983400Y-122961400D01*
X171979734Y-122934506D01*
X171949534Y-122927533D01*
X171943454Y-122934978D01*
X171913150Y-122934978D01*
X171965295Y-122875371D01*
X171997825Y-122852840D01*
X172033423Y-122765464D01*
X172033243Y-122753716D01*
X172022919Y-122709854D01*
X171983400Y-122758200D01*
X171976575Y-122768642D01*
X171941529Y-122805748D01*
X171933378Y-122749654D01*
X171948260Y-122631490D01*
X171988461Y-122546827D01*
X172038942Y-122532530D01*
X172058574Y-122534745D01*
X172053584Y-122481438D01*
X172046531Y-122438681D01*
X172088032Y-122402600D01*
X172112589Y-122399249D01*
X172118689Y-122368555D01*
X172115061Y-122316398D01*
X172158531Y-122221744D01*
X172186239Y-122165844D01*
X172233477Y-122014468D01*
X172267069Y-121836689D01*
X172283569Y-121731198D01*
X172317827Y-121584470D01*
X172352945Y-121499737D01*
X172354274Y-121498051D01*
X172373060Y-121456444D01*
X172311678Y-121470566D01*
X172255001Y-121487911D01*
X172255238Y-121462631D01*
X172317193Y-121375363D01*
X172323412Y-121367188D01*
X172398112Y-121286240D01*
X172445962Y-121263296D01*
X172460092Y-121239238D01*
X172452149Y-121158000D01*
X172491400Y-121158000D01*
X172516800Y-121183400D01*
X172542200Y-121158000D01*
X172516800Y-121132600D01*
X172491400Y-121158000D01*
X172452149Y-121158000D01*
X172451222Y-121148521D01*
X172449797Y-121047764D01*
X172522060Y-120941029D01*
X172525001Y-120938756D01*
X172582252Y-120877273D01*
X172551795Y-120842102D01*
X172539347Y-120836632D01*
X172523856Y-120802400D01*
X172643800Y-120802400D01*
X172669200Y-120827800D01*
X172694600Y-120802400D01*
X172669200Y-120777000D01*
X172643800Y-120802400D01*
X172523856Y-120802400D01*
X172520324Y-120794595D01*
X172577195Y-120712199D01*
X172579497Y-120709559D01*
X172623751Y-120648345D01*
X172605700Y-120644265D01*
X172593427Y-120650136D01*
X172554170Y-120628389D01*
X172542200Y-120517531D01*
X172542019Y-120500786D01*
X172541644Y-120497600D01*
X172593000Y-120497600D01*
X172618400Y-120523000D01*
X172643800Y-120497600D01*
X172618400Y-120472200D01*
X172593000Y-120497600D01*
X172541644Y-120497600D01*
X172535536Y-120445778D01*
X172705454Y-120445778D01*
X172710681Y-120497600D01*
X172711534Y-120506066D01*
X172726814Y-120514014D01*
X172745400Y-120472200D01*
X172741734Y-120445306D01*
X172711534Y-120438333D01*
X172705454Y-120445778D01*
X172535536Y-120445778D01*
X172531021Y-120407471D01*
X172508223Y-120387644D01*
X172452368Y-120391279D01*
X172378575Y-120332248D01*
X172315147Y-120237852D01*
X172288200Y-120137755D01*
X172274367Y-120057761D01*
X172212000Y-119946057D01*
X172168479Y-119892717D01*
X172135800Y-119815428D01*
X172133745Y-119800131D01*
X172085000Y-119761000D01*
X172074005Y-119751708D01*
X172052920Y-119664259D01*
X172039138Y-119496929D01*
X172034200Y-119264792D01*
X172034233Y-119210255D01*
X172037298Y-119018833D01*
X172051642Y-118866268D01*
X172086034Y-118732919D01*
X172149245Y-118599144D01*
X172250046Y-118445304D01*
X172397207Y-118251756D01*
X172599498Y-117998861D01*
X172622502Y-117969863D01*
X172792247Y-117735606D01*
X172960770Y-117474153D01*
X173094696Y-117236861D01*
X173120759Y-117186105D01*
X173232949Y-116979205D01*
X173341832Y-116793841D01*
X173427053Y-116665030D01*
X173458507Y-116621356D01*
X173529756Y-116505802D01*
X173558200Y-116431603D01*
X173583584Y-116370052D01*
X173659621Y-116281362D01*
X173667524Y-116274100D01*
X173727686Y-116192128D01*
X173704748Y-116121748D01*
X173693380Y-116106466D01*
X173672730Y-116052089D01*
X173675937Y-115974700D01*
X173707387Y-115860763D01*
X173771468Y-115696740D01*
X173850315Y-115519200D01*
X179552600Y-115519200D01*
X179578000Y-115544600D01*
X179603400Y-115519200D01*
X179578000Y-115493800D01*
X179552600Y-115519200D01*
X173850315Y-115519200D01*
X173872567Y-115469096D01*
X173909574Y-115389941D01*
X184230571Y-115389941D01*
X184270697Y-115456546D01*
X184277387Y-115463110D01*
X184314601Y-115487457D01*
X184299134Y-115428109D01*
X184273800Y-115380700D01*
X184236011Y-115365455D01*
X184230571Y-115389941D01*
X173909574Y-115389941D01*
X174015072Y-115164293D01*
X174054035Y-115081815D01*
X174158735Y-114858417D01*
X174243217Y-114675562D01*
X174254035Y-114651551D01*
X183783255Y-114651551D01*
X183823703Y-114745479D01*
X183880531Y-114843005D01*
X183929555Y-114884200D01*
X183968825Y-114865504D01*
X183951544Y-114799294D01*
X183866349Y-114702552D01*
X183794460Y-114640535D01*
X183783255Y-114651551D01*
X174254035Y-114651551D01*
X174299649Y-114550309D01*
X174320200Y-114499715D01*
X174342840Y-114454615D01*
X174374421Y-114401600D01*
X183972200Y-114401600D01*
X183997600Y-114427000D01*
X184023000Y-114401600D01*
X183997600Y-114376200D01*
X183972200Y-114401600D01*
X174374421Y-114401600D01*
X174406954Y-114346987D01*
X174498000Y-114201826D01*
X174545769Y-114122721D01*
X174633312Y-113936253D01*
X183379240Y-113936253D01*
X183417479Y-114020600D01*
X183470555Y-114126085D01*
X183505076Y-114172371D01*
X183515000Y-114140376D01*
X183497080Y-114086667D01*
X183470782Y-114046000D01*
X183822961Y-114046000D01*
X183840038Y-114130220D01*
X183845402Y-114140376D01*
X183902870Y-114249200D01*
X183950087Y-114307285D01*
X183968338Y-114310831D01*
X183945910Y-114223800D01*
X183913827Y-114128748D01*
X183866000Y-114020600D01*
X183859779Y-114009849D01*
X183830307Y-113980654D01*
X183822961Y-114046000D01*
X183470782Y-114046000D01*
X183435998Y-113992209D01*
X183390083Y-113936568D01*
X183379240Y-113936253D01*
X174633312Y-113936253D01*
X174641624Y-113918549D01*
X174676578Y-113756340D01*
X174676615Y-113751627D01*
X174688446Y-113620185D01*
X174714678Y-113535055D01*
X174726371Y-113519683D01*
X174821951Y-113436400D01*
X183506706Y-113436400D01*
X183542017Y-113538000D01*
X183564097Y-113603473D01*
X183600226Y-113718317D01*
X183633610Y-113777416D01*
X183723718Y-113859856D01*
X183789265Y-113896523D01*
X183796424Y-113875614D01*
X183749728Y-113781139D01*
X183678360Y-113660645D01*
X183590925Y-113538000D01*
X183506706Y-113436400D01*
X174821951Y-113436400D01*
X174837748Y-113422635D01*
X174981124Y-113341891D01*
X175106204Y-113306774D01*
X175147171Y-113282978D01*
X183322654Y-113282978D01*
X183328734Y-113343266D01*
X183344014Y-113351214D01*
X183362600Y-113309400D01*
X183358934Y-113282506D01*
X183328734Y-113275533D01*
X183322654Y-113282978D01*
X175147171Y-113282978D01*
X175176926Y-113265695D01*
X175282933Y-113152473D01*
X175299646Y-113130578D01*
X183322654Y-113130578D01*
X183328734Y-113190866D01*
X183344014Y-113198814D01*
X183362600Y-113157000D01*
X183358934Y-113130106D01*
X183328734Y-113123133D01*
X183322654Y-113130578D01*
X175299646Y-113130578D01*
X175409986Y-112986027D01*
X175545347Y-112785276D01*
X175676280Y-112569142D01*
X175790047Y-112356543D01*
X175873912Y-112166400D01*
X175888218Y-112129835D01*
X175986086Y-111915958D01*
X176123926Y-111651194D01*
X176286783Y-111362274D01*
X176317221Y-111311871D01*
X182043708Y-111311871D01*
X182051244Y-111350649D01*
X182105300Y-111438871D01*
X182140470Y-111487971D01*
X182186275Y-111607600D01*
X182210402Y-111676232D01*
X182280257Y-111798862D01*
X182375180Y-111932783D01*
X182475845Y-112053386D01*
X182562926Y-112136062D01*
X182617098Y-112156203D01*
X182635312Y-112147920D01*
X182635732Y-112176053D01*
X182639434Y-112206776D01*
X182690179Y-112306955D01*
X182784993Y-112454010D01*
X182911947Y-112628402D01*
X183057640Y-112818485D01*
X183159197Y-112949543D01*
X183219681Y-113023873D01*
X183249723Y-113053655D01*
X183259953Y-113051067D01*
X183261000Y-113028287D01*
X183235363Y-112958581D01*
X183164384Y-112833876D01*
X183062251Y-112675317D01*
X182943176Y-112502877D01*
X182821373Y-112336528D01*
X182711055Y-112196244D01*
X182626435Y-112101998D01*
X182581727Y-112073761D01*
X182559390Y-112084189D01*
X182562060Y-112064918D01*
X182570068Y-112052329D01*
X182560360Y-111983253D01*
X182505877Y-111922923D01*
X182442445Y-111915957D01*
X182418788Y-111918246D01*
X182397400Y-111861600D01*
X182406150Y-111820606D01*
X182456050Y-111815650D01*
X182483601Y-111827868D01*
X182479823Y-111795467D01*
X182447345Y-111770310D01*
X182357674Y-111771729D01*
X182346170Y-111775944D01*
X182298339Y-111782617D01*
X182330712Y-111730048D01*
X182334488Y-111725214D01*
X182353924Y-111664246D01*
X182318437Y-111581740D01*
X182218319Y-111453836D01*
X182148383Y-111377427D01*
X182073541Y-111312516D01*
X182043708Y-111311871D01*
X176317221Y-111311871D01*
X176459705Y-111075930D01*
X176627737Y-110818892D01*
X176711520Y-110689801D01*
X176782227Y-110563736D01*
X176809400Y-110490519D01*
X176820237Y-110448143D01*
X176883409Y-110364819D01*
X176893242Y-110356244D01*
X176923047Y-110305396D01*
X176902851Y-110231263D01*
X176826410Y-110105432D01*
X176734644Y-109990217D01*
X176660199Y-109941554D01*
X176621366Y-109969188D01*
X176631390Y-110075175D01*
X176638554Y-110106876D01*
X176627676Y-110117460D01*
X176576403Y-110036661D01*
X176574207Y-110032800D01*
X176502669Y-109913967D01*
X176447529Y-109833461D01*
X176388671Y-109759436D01*
X176304691Y-109651800D01*
X176260843Y-109599491D01*
X176190123Y-109555757D01*
X176111697Y-109582368D01*
X176015529Y-109609608D01*
X175907787Y-109553253D01*
X175803803Y-109397800D01*
X175764529Y-109322025D01*
X175749976Y-109311484D01*
X175762677Y-109388003D01*
X175768744Y-109422713D01*
X175763759Y-109473818D01*
X175713204Y-109445283D01*
X175677524Y-109404294D01*
X175641000Y-109298834D01*
X175640980Y-109297200D01*
X175604599Y-109202998D01*
X175519639Y-109098296D01*
X175428140Y-108980261D01*
X175369734Y-108841565D01*
X175332178Y-108729306D01*
X175264230Y-108621886D01*
X175245128Y-108599677D01*
X175173308Y-108484337D01*
X175103819Y-108336363D01*
X175078872Y-108278477D01*
X175019608Y-108170594D01*
X174975085Y-108127800D01*
X174967226Y-108127207D01*
X174935816Y-108089700D01*
X174939360Y-108050605D01*
X174913401Y-107950000D01*
X178943000Y-107950000D01*
X178968400Y-107975400D01*
X178993800Y-107950000D01*
X178968400Y-107924600D01*
X178943000Y-107950000D01*
X174913401Y-107950000D01*
X174912343Y-107945899D01*
X174817136Y-107822826D01*
X174733870Y-107710778D01*
X174705908Y-107645200D01*
X178841400Y-107645200D01*
X178866800Y-107670600D01*
X178892200Y-107645200D01*
X178866800Y-107619800D01*
X178841400Y-107645200D01*
X174705908Y-107645200D01*
X174690196Y-107608352D01*
X174664642Y-107524413D01*
X174601982Y-107404470D01*
X174592074Y-107391200D01*
X178638200Y-107391200D01*
X178663600Y-107416600D01*
X178689000Y-107391200D01*
X178663600Y-107365800D01*
X178638200Y-107391200D01*
X174592074Y-107391200D01*
X174528029Y-107305422D01*
X174466758Y-107264200D01*
X174453394Y-107261649D01*
X174421800Y-107208010D01*
X174413918Y-107180259D01*
X174359157Y-107083577D01*
X174269400Y-106959399D01*
X174221323Y-106895660D01*
X174147579Y-106781600D01*
X174269400Y-106781600D01*
X174294800Y-106807000D01*
X174320200Y-106781600D01*
X174294800Y-106756200D01*
X174269400Y-106781600D01*
X174147579Y-106781600D01*
X174146492Y-106779918D01*
X174117000Y-106707791D01*
X174112876Y-106687043D01*
X174066201Y-106679999D01*
X174043540Y-106686923D01*
X174015400Y-106644378D01*
X174014439Y-106635104D01*
X173972724Y-106548348D01*
X173888400Y-106440398D01*
X173869711Y-106419926D01*
X173792654Y-106327121D01*
X173761400Y-106274382D01*
X173740699Y-106235560D01*
X173732350Y-106222800D01*
X177774600Y-106222800D01*
X177800000Y-106248200D01*
X177825400Y-106222800D01*
X177800000Y-106197400D01*
X177774600Y-106222800D01*
X173732350Y-106222800D01*
X173671015Y-106129062D01*
X173563818Y-105973664D01*
X173431200Y-105787209D01*
X173344136Y-105664000D01*
X177317400Y-105664000D01*
X177342800Y-105689400D01*
X177368200Y-105664000D01*
X177342800Y-105638600D01*
X177317400Y-105664000D01*
X173344136Y-105664000D01*
X173317760Y-105626674D01*
X173240211Y-105511600D01*
X177165000Y-105511600D01*
X177190400Y-105537000D01*
X177215800Y-105511600D01*
X177190400Y-105486200D01*
X177165000Y-105511600D01*
X173240211Y-105511600D01*
X173205489Y-105460076D01*
X173129160Y-105337444D01*
X173101000Y-105277646D01*
X173097071Y-105260289D01*
X173050200Y-105257600D01*
X173030610Y-105265638D01*
X172999400Y-105236683D01*
X172991889Y-105210180D01*
X172978605Y-105184727D01*
X176911386Y-105184727D01*
X176955321Y-105244900D01*
X177001816Y-105299084D01*
X177044221Y-105333800D01*
X177053135Y-105332965D01*
X177053390Y-105308400D01*
X177215800Y-105308400D01*
X177241200Y-105333800D01*
X177266600Y-105308400D01*
X177241200Y-105283000D01*
X177215800Y-105308400D01*
X177053390Y-105308400D01*
X177053478Y-105299868D01*
X176974500Y-105225720D01*
X176937693Y-105197342D01*
X176911386Y-105184727D01*
X172978605Y-105184727D01*
X172940971Y-105112615D01*
X172873482Y-105003600D01*
X176961800Y-105003600D01*
X176987200Y-105029000D01*
X177004613Y-105011587D01*
X177456356Y-105011587D01*
X177476141Y-105051526D01*
X177541067Y-105150388D01*
X177579727Y-105210911D01*
X177633417Y-105308400D01*
X177646559Y-105332265D01*
X177673000Y-105407510D01*
X177673086Y-105409904D01*
X177708053Y-105487760D01*
X177726685Y-105511600D01*
X177787300Y-105589162D01*
X177852995Y-105664000D01*
X177868141Y-105681255D01*
X177990363Y-105828897D01*
X178119974Y-105991806D01*
X178245744Y-106148140D01*
X178313572Y-106222800D01*
X178352331Y-106265464D01*
X178402867Y-106298785D01*
X178396170Y-106249271D01*
X178331056Y-106118093D01*
X178206345Y-105906418D01*
X178144407Y-105809482D01*
X177983153Y-105579945D01*
X177815977Y-105367019D01*
X177670523Y-105206800D01*
X177582901Y-105121848D01*
X177489386Y-105033913D01*
X177456356Y-105011587D01*
X177004613Y-105011587D01*
X177012600Y-105003600D01*
X176987200Y-104978200D01*
X176961800Y-105003600D01*
X172873482Y-105003600D01*
X172859118Y-104980397D01*
X172805916Y-104902000D01*
X176758600Y-104902000D01*
X176784000Y-104927400D01*
X176809400Y-104902000D01*
X176911000Y-104902000D01*
X176936400Y-104927400D01*
X176961800Y-104902000D01*
X176936400Y-104876600D01*
X176911000Y-104902000D01*
X176809400Y-104902000D01*
X176784000Y-104876600D01*
X176758600Y-104902000D01*
X172805916Y-104902000D01*
X172766645Y-104844131D01*
X172683867Y-104734420D01*
X172631100Y-104681866D01*
X172627315Y-104679959D01*
X172593000Y-104619346D01*
X172592961Y-104618381D01*
X172563806Y-104553764D01*
X172529286Y-104495600D01*
X176352200Y-104495600D01*
X176377600Y-104521000D01*
X176403000Y-104495600D01*
X176377600Y-104470200D01*
X176352200Y-104495600D01*
X172529286Y-104495600D01*
X172491259Y-104431526D01*
X172402123Y-104292400D01*
X176250600Y-104292400D01*
X176276000Y-104317800D01*
X176301400Y-104292400D01*
X176276000Y-104267000D01*
X176250600Y-104292400D01*
X172402123Y-104292400D01*
X172391168Y-104275301D01*
X172334461Y-104190800D01*
X176149000Y-104190800D01*
X176174400Y-104216200D01*
X176199800Y-104190800D01*
X176174400Y-104165400D01*
X176149000Y-104190800D01*
X172334461Y-104190800D01*
X172279383Y-104108726D01*
X172171754Y-103955437D01*
X172084128Y-103839069D01*
X172032356Y-103783260D01*
X172015612Y-103767092D01*
X172015821Y-103696840D01*
X172025783Y-103674613D01*
X171997006Y-103674391D01*
X171950788Y-103676648D01*
X171874856Y-103621689D01*
X171853795Y-103595262D01*
X171832682Y-103557813D01*
X171881800Y-103581200D01*
X171906982Y-103595545D01*
X171931590Y-103599365D01*
X171887261Y-103538923D01*
X171837682Y-103490739D01*
X171789745Y-103478521D01*
X171774455Y-103476150D01*
X171717829Y-103415934D01*
X171641705Y-103301949D01*
X171602418Y-103239323D01*
X171527987Y-103138419D01*
X171480675Y-103098599D01*
X171479868Y-103098574D01*
X171432183Y-103055728D01*
X171374395Y-102959756D01*
X171343026Y-102887143D01*
X175236470Y-102887143D01*
X175257403Y-102975606D01*
X175333141Y-103083613D01*
X175391657Y-103167989D01*
X175396641Y-103228336D01*
X175386793Y-103241724D01*
X175412400Y-103238721D01*
X175429078Y-103236999D01*
X175501048Y-103281717D01*
X175590200Y-103380778D01*
X175611816Y-103408239D01*
X175734766Y-103530444D01*
X175856255Y-103610297D01*
X175858294Y-103611166D01*
X175946846Y-103665584D01*
X175967557Y-103714095D01*
X175961372Y-103730041D01*
X175995829Y-103759000D01*
X176016886Y-103763986D01*
X176043608Y-103822500D01*
X176038377Y-103885478D01*
X176050420Y-103978353D01*
X176090122Y-103992592D01*
X176128222Y-103997079D01*
X176199549Y-104060913D01*
X176272300Y-104162055D01*
X176286371Y-104190800D01*
X176324138Y-104267958D01*
X176326826Y-104292400D01*
X176332726Y-104346075D01*
X176326565Y-104380832D01*
X176361737Y-104406090D01*
X176405256Y-104422087D01*
X176480759Y-104495600D01*
X176483923Y-104498681D01*
X176563480Y-104606993D01*
X176619547Y-104712640D01*
X176627744Y-104781239D01*
X176621038Y-104793749D01*
X176625604Y-104825800D01*
X176639479Y-104823606D01*
X176676646Y-104768908D01*
X176663046Y-104673400D01*
X176660069Y-104666423D01*
X176650826Y-104648000D01*
X176758600Y-104648000D01*
X176784000Y-104673400D01*
X176809400Y-104648000D01*
X176784000Y-104622600D01*
X176758600Y-104648000D01*
X176650826Y-104648000D01*
X176588802Y-104524377D01*
X176487779Y-104349683D01*
X176376280Y-104172975D01*
X176273584Y-104024886D01*
X176198971Y-103936049D01*
X176132329Y-103863664D01*
X176098200Y-103796837D01*
X176079234Y-103763367D01*
X176000488Y-103669298D01*
X175874699Y-103534660D01*
X175717200Y-103376379D01*
X175600844Y-103258814D01*
X175464186Y-103108817D01*
X175370788Y-102991152D01*
X175336200Y-102924268D01*
X175329908Y-102885980D01*
X175285400Y-102844600D01*
X175275736Y-102845223D01*
X175236470Y-102887143D01*
X171343026Y-102887143D01*
X171328225Y-102852881D01*
X171318266Y-102794237D01*
X175726837Y-102794237D01*
X175768000Y-102895400D01*
X175824794Y-102993046D01*
X175875526Y-103049113D01*
X175895000Y-103024790D01*
X175883002Y-102973428D01*
X175836736Y-102874189D01*
X175778518Y-102782991D01*
X175733142Y-102743000D01*
X175728320Y-102744162D01*
X175726837Y-102794237D01*
X171318266Y-102794237D01*
X171315394Y-102777324D01*
X171315119Y-102763328D01*
X171273675Y-102767488D01*
X171221386Y-102753719D01*
X171163388Y-102671257D01*
X171110845Y-102590028D01*
X171061572Y-102569790D01*
X171039146Y-102571934D01*
X171018200Y-102515803D01*
X171011248Y-102483075D01*
X175031400Y-102483075D01*
X175052015Y-102515146D01*
X175135904Y-102555278D01*
X175159188Y-102561041D01*
X175210250Y-102561189D01*
X175180484Y-102510403D01*
X175131077Y-102463918D01*
X175061653Y-102440175D01*
X175031400Y-102483075D01*
X171011248Y-102483075D01*
X171009604Y-102475338D01*
X170942000Y-102405770D01*
X170906697Y-102384603D01*
X170894306Y-102362000D01*
X171018200Y-102362000D01*
X171043600Y-102387400D01*
X171069000Y-102362000D01*
X171043600Y-102336600D01*
X171018200Y-102362000D01*
X170894306Y-102362000D01*
X170865800Y-102309998D01*
X170862996Y-102284961D01*
X170824010Y-102226533D01*
X170813480Y-102217038D01*
X170788923Y-102184200D01*
X174894740Y-102184200D01*
X174894814Y-102207094D01*
X174929800Y-102285800D01*
X174974629Y-102347540D01*
X174998729Y-102362000D01*
X175041061Y-102387400D01*
X175054525Y-102358434D01*
X175006000Y-102285800D01*
X174939017Y-102217382D01*
X174894740Y-102184200D01*
X170788923Y-102184200D01*
X170757495Y-102142174D01*
X170668825Y-102010316D01*
X170560104Y-101841738D01*
X170443967Y-101656717D01*
X170333049Y-101475527D01*
X170239985Y-101318443D01*
X170177409Y-101205743D01*
X170157956Y-101157699D01*
X170146200Y-101125297D01*
X170092633Y-101028118D01*
X170009136Y-100891554D01*
X169941767Y-100779395D01*
X169875456Y-100652016D01*
X169849800Y-100577477D01*
X169855380Y-100549583D01*
X169926805Y-100492761D01*
X170060926Y-100475222D01*
X170232845Y-100501881D01*
X170256306Y-100507986D01*
X170394143Y-100530329D01*
X170488590Y-100524716D01*
X170530636Y-100521135D01*
X170561000Y-100581563D01*
X170569009Y-100622339D01*
X170611181Y-100635182D01*
X170666385Y-100648533D01*
X170772254Y-100717627D01*
X170903281Y-100827706D01*
X171029908Y-100935880D01*
X171173723Y-101035932D01*
X171285076Y-101088397D01*
X171349304Y-101086832D01*
X171351745Y-101024793D01*
X171348848Y-101015643D01*
X171360544Y-101001032D01*
X171416962Y-101061206D01*
X171501231Y-101137077D01*
X171570420Y-101146867D01*
X171622228Y-101141484D01*
X171708019Y-101190361D01*
X171752367Y-101232169D01*
X171816955Y-101273022D01*
X171826748Y-101239390D01*
X171782528Y-101138531D01*
X171685078Y-100977700D01*
X171609315Y-100862283D01*
X171507712Y-100705320D01*
X171451677Y-100611808D01*
X171434500Y-100567827D01*
X171449471Y-100559457D01*
X171489880Y-100572779D01*
X171542224Y-100581411D01*
X171543578Y-100530612D01*
X171538258Y-100514631D01*
X171547704Y-100460479D01*
X171606674Y-100462311D01*
X171690862Y-100512507D01*
X171775963Y-100603449D01*
X171792158Y-100624608D01*
X171885188Y-100703922D01*
X172024762Y-100761430D01*
X172229194Y-100802826D01*
X172516800Y-100833807D01*
X172591694Y-100860627D01*
X172733398Y-100947854D01*
X172911202Y-101081893D01*
X173105430Y-101248868D01*
X173156964Y-101295039D01*
X173287837Y-101396429D01*
X173392544Y-101440624D01*
X173501700Y-101442592D01*
X173518230Y-101440868D01*
X173613957Y-101442220D01*
X173639205Y-101465226D01*
X173635435Y-101484501D01*
X173684691Y-101506866D01*
X173728229Y-101489577D01*
X173707857Y-101417072D01*
X173679061Y-101337830D01*
X173659800Y-101200568D01*
X173655034Y-101150061D01*
X173582804Y-100999580D01*
X173444808Y-100897203D01*
X173416645Y-100868391D01*
X173448154Y-100821780D01*
X173532344Y-100780693D01*
X173643472Y-100762577D01*
X173776621Y-100798804D01*
X173876914Y-100913352D01*
X173913800Y-101088006D01*
X173934857Y-101208031D01*
X174005900Y-101369381D01*
X174107816Y-101520514D01*
X174220418Y-101632448D01*
X174323517Y-101676200D01*
X174381639Y-101685052D01*
X174401601Y-101718584D01*
X174416071Y-101764821D01*
X174487916Y-101861391D01*
X174601803Y-101983161D01*
X174707798Y-102080839D01*
X174797560Y-102141908D01*
X174828200Y-102124797D01*
X174813000Y-102066368D01*
X174743531Y-101974520D01*
X174715346Y-101948376D01*
X174620670Y-101842515D01*
X174582193Y-101793145D01*
X174949953Y-101793145D01*
X174977934Y-101845485D01*
X175057001Y-101930388D01*
X175076252Y-101948444D01*
X175151266Y-102013183D01*
X175179483Y-102010467D01*
X175183800Y-101942478D01*
X175173817Y-101900393D01*
X175110412Y-101823675D01*
X175022832Y-101777973D01*
X174951572Y-101789894D01*
X174949953Y-101793145D01*
X174582193Y-101793145D01*
X174516608Y-101708993D01*
X174486787Y-101667398D01*
X174420880Y-101560683D01*
X174410766Y-101494160D01*
X174449112Y-101438431D01*
X174469756Y-101419932D01*
X174556076Y-101388935D01*
X174688734Y-101414059D01*
X174703993Y-101418614D01*
X174875644Y-101462080D01*
X175056800Y-101498420D01*
X175058210Y-101498657D01*
X175258111Y-101559697D01*
X175390133Y-101657619D01*
X175437800Y-101780238D01*
X175447633Y-101828001D01*
X175511261Y-101896719D01*
X175560009Y-101941668D01*
X175560558Y-101942478D01*
X175638181Y-102057077D01*
X175720998Y-102212974D01*
X175790187Y-102345616D01*
X175798258Y-102358434D01*
X175887599Y-102500336D01*
X175938491Y-102561189D01*
G36*
X172135800Y-121996200D02*
G01*
X172132134Y-122023093D01*
X172101934Y-122030066D01*
X172095854Y-122022621D01*
X172101934Y-121962333D01*
X172117214Y-121954385D01*
X172135800Y-121996200D01*
G37*
X172135800Y-121996200D02*
X172132134Y-122023093D01*
X172101934Y-122030066D01*
X172095854Y-122022621D01*
X172101934Y-121962333D01*
X172117214Y-121954385D01*
X172135800Y-121996200D01*
G36*
X173393516Y-101157933D02*
G01*
X173405800Y-101272798D01*
X173403022Y-101357123D01*
X173388885Y-101416396D01*
X173367876Y-101379212D01*
X173345775Y-101247963D01*
X173343218Y-101222579D01*
X173344296Y-101125163D01*
X173365617Y-101098561D01*
X173393516Y-101157933D01*
G37*
X173393516Y-101157933D02*
X173405800Y-101272798D01*
X173403022Y-101357123D01*
X173388885Y-101416396D01*
X173367876Y-101379212D01*
X173345775Y-101247963D01*
X173343218Y-101222579D01*
X173344296Y-101125163D01*
X173365617Y-101098561D01*
X173393516Y-101157933D01*
G36*
X171209264Y-100752672D02*
G01*
X171267101Y-100827610D01*
X171303795Y-100890320D01*
X171305393Y-100908926D01*
X171242801Y-100851909D01*
X171188679Y-100788293D01*
X171175547Y-100739919D01*
X171209264Y-100752672D01*
G37*
X171209264Y-100752672D02*
X171267101Y-100827610D01*
X171303795Y-100890320D01*
X171305393Y-100908926D01*
X171242801Y-100851909D01*
X171188679Y-100788293D01*
X171175547Y-100739919D01*
X171209264Y-100752672D01*
G36*
X171928590Y-126132166D02*
G01*
X171924998Y-126183691D01*
X171901909Y-126198841D01*
X171891842Y-126180869D01*
X171897898Y-126101475D01*
X171916184Y-126077961D01*
X171928590Y-126132166D01*
G37*
X171928590Y-126132166D02*
X171924998Y-126183691D01*
X171901909Y-126198841D01*
X171891842Y-126180869D01*
X171897898Y-126101475D01*
X171916184Y-126077961D01*
X171928590Y-126132166D01*
G36*
X187934600Y-121615200D02*
G01*
X187909200Y-121640600D01*
X187883800Y-121615200D01*
X187909200Y-121589800D01*
X187934600Y-121615200D01*
G37*
X187934600Y-121615200D02*
X187909200Y-121640600D01*
X187883800Y-121615200D01*
X187909200Y-121589800D01*
X187934600Y-121615200D01*
G36*
X186893263Y-119304445D02*
G01*
X186934911Y-119353340D01*
X186994800Y-119456200D01*
X187003680Y-119473694D01*
X187044939Y-119569520D01*
X187048210Y-119608600D01*
X187045538Y-119607954D01*
X187003890Y-119559059D01*
X186944000Y-119456200D01*
X186935121Y-119438705D01*
X186893862Y-119342879D01*
X186890591Y-119303800D01*
X186893263Y-119304445D01*
G37*
X186893263Y-119304445D02*
X186934911Y-119353340D01*
X186994800Y-119456200D01*
X187003680Y-119473694D01*
X187044939Y-119569520D01*
X187048210Y-119608600D01*
X187045538Y-119607954D01*
X187003890Y-119559059D01*
X186944000Y-119456200D01*
X186935121Y-119438705D01*
X186893862Y-119342879D01*
X186890591Y-119303800D01*
X186893263Y-119304445D01*
G36*
X182499000Y-111963200D02*
G01*
X182473600Y-111988600D01*
X182448200Y-111963200D01*
X182473600Y-111937800D01*
X182499000Y-111963200D01*
G37*
X182499000Y-111963200D02*
X182473600Y-111988600D01*
X182448200Y-111963200D01*
X182473600Y-111937800D01*
X182499000Y-111963200D01*
D13*
X75500000Y-134180000D03*
D14*
X75500000Y-124020000D03*
D13*
X75500000Y-121180000D03*
D14*
X75500000Y-111020000D03*
D13*
X75500000Y-108180000D03*
D14*
X75500000Y-98020000D03*
D15*
X83500000Y-126732323D03*
D16*
X83500000Y-131732323D03*
D15*
X83500000Y-113732323D03*
D16*
X83500000Y-118732323D03*
D15*
X83500000Y-100732323D03*
D16*
X83500000Y-105732323D03*
D17*
X84500000Y-72000000D03*
X194500000Y-72000000D03*
M02*
