M48
; DRILL file {KiCad (6.0.4)} date Wed Jun 22 13:50:19 2022
; FORMAT={-:-/ absolute / metric / decimal}
; #@! TF.CreationDate,2022-06-22T13:50:19-04:00
; #@! TF.GenerationSoftware,Kicad,Pcbnew,(6.0.4)
; #@! TF.FileFunction,Plated,1,2,PTH
FMAT,2
METRIC
; #@! TA.AperFunction,Plated,PTH,ViaDrill
T1C0.500
; #@! TA.AperFunction,Plated,PTH,ComponentDrill
T2C0.800
; #@! TA.AperFunction,Plated,PTH,ComponentDrill
T3C1.000
%
G90
G05
T1
X82.794Y-81.917
X83.493Y-82.616
X83.5Y-83.632
X129.0Y-64.5
X129.0Y-65.5
X129.0Y-66.5
X130.0Y-64.5
X130.0Y-65.5
X130.0Y-66.5
X131.0Y-64.5
X131.0Y-65.5
X131.0Y-66.5
X132.0Y-64.5
X132.0Y-65.5
X132.0Y-66.5
X133.0Y-64.5
X133.0Y-65.5
X133.0Y-66.5
X134.0Y-64.5
X134.0Y-65.5
X134.0Y-66.5
X142.802Y-68.265
X143.818Y-68.265
X144.834Y-68.265
X145.0Y-64.5
X145.0Y-65.5
X145.0Y-66.5
X146.0Y-64.5
X146.0Y-65.5
X146.0Y-66.5
X147.0Y-64.5
X147.0Y-65.5
X147.0Y-66.5
X148.0Y-64.5
X148.0Y-65.5
X148.0Y-66.5
X149.0Y-64.5
X149.0Y-65.5
X149.0Y-66.5
X150.0Y-64.5
X150.0Y-65.5
X150.0Y-66.5
T2
X75.5Y-98.02
X75.5Y-108.18
X75.5Y-111.02
X75.5Y-121.18
X75.5Y-124.02
X75.5Y-134.18
T3
X83.5Y-100.732
X83.5Y-105.732
X83.5Y-113.732
X83.5Y-118.732
X83.5Y-126.732
X83.5Y-131.732
T0
M30
