G04 #@! TF.GenerationSoftware,KiCad,Pcbnew,(6.0.4)*
G04 #@! TF.CreationDate,2022-06-22T13:50:13-04:00*
G04 #@! TF.ProjectId,Macintosh Portable Battery Adapter v1.2,4d616369-6e74-46f7-9368-20506f727461,rev?*
G04 #@! TF.SameCoordinates,Original*
G04 #@! TF.FileFunction,Legend,Top*
G04 #@! TF.FilePolarity,Positive*
%FSLAX46Y46*%
G04 Gerber Fmt 4.6, Leading zero omitted, Abs format (unit mm)*
G04 Created by KiCad (PCBNEW (6.0.4)) date 2022-06-22 13:50:13*
%MOMM*%
%LPD*%
G01*
G04 APERTURE LIST*
G04 Aperture macros list*
%AMRoundRect*
0 Rectangle with rounded corners*
0 $1 Rounding radius*
0 $2 $3 $4 $5 $6 $7 $8 $9 X,Y pos of 4 corners*
0 Add a 4 corners polygon primitive as box body*
4,1,4,$2,$3,$4,$5,$6,$7,$8,$9,$2,$3,0*
0 Add four circle primitives for the rounded corners*
1,1,$1+$1,$2,$3*
1,1,$1+$1,$4,$5*
1,1,$1+$1,$6,$7*
1,1,$1+$1,$8,$9*
0 Add four rect primitives between the rounded corners*
20,1,$1+$1,$2,$3,$4,$5,0*
20,1,$1+$1,$4,$5,$6,$7,0*
20,1,$1+$1,$6,$7,$8,$9,0*
20,1,$1+$1,$8,$9,$2,$3,0*%
G04 Aperture macros list end*
%ADD10C,0.750000*%
%ADD11C,0.150000*%
%ADD12C,0.120000*%
%ADD13RoundRect,0.200000X-0.150000X0.825000X-0.150000X-0.825000X0.150000X-0.825000X0.150000X0.825000X0*%
%ADD14RoundRect,0.300000X-0.450000X0.350000X-0.450000X-0.350000X0.450000X-0.350000X0.450000X0.350000X0*%
%ADD15O,1.700000X1.700000*%
%ADD16C,1.700000*%
%ADD17RoundRect,0.050000X-1.000000X1.000000X-1.000000X-1.000000X1.000000X-1.000000X1.000000X1.000000X0*%
%ADD18C,2.100000*%
%ADD19RoundRect,0.050000X-3.000000X-1.500000X3.000000X-1.500000X3.000000X1.500000X-3.000000X1.500000X0*%
G04 APERTURE END LIST*
D10*
X126142857Y-65514285D02*
X123857142Y-65514285D01*
X125000000Y-66657142D02*
X125000000Y-64371428D01*
X155142857Y-65514285D02*
X152857142Y-65514285D01*
D11*
X87829380Y-73217904D02*
X88638904Y-73217904D01*
X88734142Y-73170285D01*
X88781761Y-73122666D01*
X88829380Y-73027428D01*
X88829380Y-72836952D01*
X88781761Y-72741714D01*
X88734142Y-72694095D01*
X88638904Y-72646476D01*
X87829380Y-72646476D01*
X88829380Y-71646476D02*
X88829380Y-72217904D01*
X88829380Y-71932190D02*
X87829380Y-71932190D01*
X87972238Y-72027428D01*
X88067476Y-72122666D01*
X88115095Y-72217904D01*
X71952380Y-129266666D02*
X71476190Y-129600000D01*
X71952380Y-129838095D02*
X70952380Y-129838095D01*
X70952380Y-129457142D01*
X71000000Y-129361904D01*
X71047619Y-129314285D01*
X71142857Y-129266666D01*
X71285714Y-129266666D01*
X71380952Y-129314285D01*
X71428571Y-129361904D01*
X71476190Y-129457142D01*
X71476190Y-129838095D01*
X70952380Y-128933333D02*
X70952380Y-128314285D01*
X71333333Y-128647619D01*
X71333333Y-128504761D01*
X71380952Y-128409523D01*
X71428571Y-128361904D01*
X71523809Y-128314285D01*
X71761904Y-128314285D01*
X71857142Y-128361904D01*
X71904761Y-128409523D01*
X71952380Y-128504761D01*
X71952380Y-128790476D01*
X71904761Y-128885714D01*
X71857142Y-128933333D01*
X71952380Y-116266666D02*
X71476190Y-116600000D01*
X71952380Y-116838095D02*
X70952380Y-116838095D01*
X70952380Y-116457142D01*
X71000000Y-116361904D01*
X71047619Y-116314285D01*
X71142857Y-116266666D01*
X71285714Y-116266666D01*
X71380952Y-116314285D01*
X71428571Y-116361904D01*
X71476190Y-116457142D01*
X71476190Y-116838095D01*
X71047619Y-115885714D02*
X71000000Y-115838095D01*
X70952380Y-115742857D01*
X70952380Y-115504761D01*
X71000000Y-115409523D01*
X71047619Y-115361904D01*
X71142857Y-115314285D01*
X71238095Y-115314285D01*
X71380952Y-115361904D01*
X71952380Y-115933333D01*
X71952380Y-115314285D01*
X71952380Y-103266666D02*
X71476190Y-103600000D01*
X71952380Y-103838095D02*
X70952380Y-103838095D01*
X70952380Y-103457142D01*
X71000000Y-103361904D01*
X71047619Y-103314285D01*
X71142857Y-103266666D01*
X71285714Y-103266666D01*
X71380952Y-103314285D01*
X71428571Y-103361904D01*
X71476190Y-103457142D01*
X71476190Y-103838095D01*
X71952380Y-102314285D02*
X71952380Y-102885714D01*
X71952380Y-102600000D02*
X70952380Y-102600000D01*
X71095238Y-102695238D01*
X71190476Y-102790476D01*
X71238095Y-102885714D01*
X90107142Y-129398989D02*
X90154761Y-129446608D01*
X90202380Y-129589465D01*
X90202380Y-129684703D01*
X90154761Y-129827561D01*
X90059523Y-129922799D01*
X89964285Y-129970418D01*
X89773809Y-130018037D01*
X89630952Y-130018037D01*
X89440476Y-129970418D01*
X89345238Y-129922799D01*
X89250000Y-129827561D01*
X89202380Y-129684703D01*
X89202380Y-129589465D01*
X89250000Y-129446608D01*
X89297619Y-129398989D01*
X89202380Y-129065656D02*
X89202380Y-128446608D01*
X89583333Y-128779942D01*
X89583333Y-128637084D01*
X89630952Y-128541846D01*
X89678571Y-128494227D01*
X89773809Y-128446608D01*
X90011904Y-128446608D01*
X90107142Y-128494227D01*
X90154761Y-128541846D01*
X90202380Y-128637084D01*
X90202380Y-128922799D01*
X90154761Y-129018037D01*
X90107142Y-129065656D01*
X90107142Y-116398989D02*
X90154761Y-116446608D01*
X90202380Y-116589465D01*
X90202380Y-116684703D01*
X90154761Y-116827561D01*
X90059523Y-116922799D01*
X89964285Y-116970418D01*
X89773809Y-117018037D01*
X89630952Y-117018037D01*
X89440476Y-116970418D01*
X89345238Y-116922799D01*
X89250000Y-116827561D01*
X89202380Y-116684703D01*
X89202380Y-116589465D01*
X89250000Y-116446608D01*
X89297619Y-116398989D01*
X89297619Y-116018037D02*
X89250000Y-115970418D01*
X89202380Y-115875180D01*
X89202380Y-115637084D01*
X89250000Y-115541846D01*
X89297619Y-115494227D01*
X89392857Y-115446608D01*
X89488095Y-115446608D01*
X89630952Y-115494227D01*
X90202380Y-116065656D01*
X90202380Y-115446608D01*
X90107142Y-103398989D02*
X90154761Y-103446608D01*
X90202380Y-103589465D01*
X90202380Y-103684703D01*
X90154761Y-103827561D01*
X90059523Y-103922799D01*
X89964285Y-103970418D01*
X89773809Y-104018037D01*
X89630952Y-104018037D01*
X89440476Y-103970418D01*
X89345238Y-103922799D01*
X89250000Y-103827561D01*
X89202380Y-103684703D01*
X89202380Y-103589465D01*
X89250000Y-103446608D01*
X89297619Y-103398989D01*
X90202380Y-102446608D02*
X90202380Y-103018037D01*
X90202380Y-102732323D02*
X89202380Y-102732323D01*
X89345238Y-102827561D01*
X89440476Y-102922799D01*
X89488095Y-103018037D01*
D12*
X87537000Y-72456000D02*
X87537000Y-69006000D01*
X77417000Y-72456000D02*
X77417000Y-74406000D01*
X87537000Y-72456000D02*
X87537000Y-74406000D01*
X77417000Y-72456000D02*
X77417000Y-70506000D01*
X74765000Y-128872936D02*
X74765000Y-129327064D01*
X76235000Y-128872936D02*
X76235000Y-129327064D01*
X76235000Y-115872936D02*
X76235000Y-116327064D01*
X74765000Y-115872936D02*
X74765000Y-116327064D01*
X76235000Y-102872936D02*
X76235000Y-103327064D01*
X74765000Y-102872936D02*
X74765000Y-103327064D01*
X76870000Y-132370000D02*
X76870000Y-125830000D01*
X74130000Y-125830000D02*
X74130000Y-132370000D01*
X74130000Y-132370000D02*
X76870000Y-132370000D01*
X76870000Y-125830000D02*
X74130000Y-125830000D01*
X75500000Y-125060000D02*
X75500000Y-125830000D01*
X75500000Y-133140000D02*
X75500000Y-132370000D01*
X76870000Y-119370000D02*
X76870000Y-112830000D01*
X74130000Y-112830000D02*
X74130000Y-119370000D01*
X74130000Y-119370000D02*
X76870000Y-119370000D01*
X76870000Y-112830000D02*
X74130000Y-112830000D01*
X75500000Y-112060000D02*
X75500000Y-112830000D01*
X75500000Y-120140000D02*
X75500000Y-119370000D01*
X76870000Y-106370000D02*
X76870000Y-99830000D01*
X74130000Y-99830000D02*
X74130000Y-106370000D01*
X74130000Y-106370000D02*
X76870000Y-106370000D01*
X76870000Y-99830000D02*
X74130000Y-99830000D01*
X75500000Y-99060000D02*
X75500000Y-99830000D01*
X75500000Y-107140000D02*
X75500000Y-106370000D01*
X82259000Y-131593323D02*
X78996000Y-131593323D01*
X86978000Y-132953323D02*
X84741000Y-132953323D01*
X82259000Y-131233323D02*
X78826000Y-131233323D01*
X87489000Y-132393323D02*
X84741000Y-132393323D01*
X88268000Y-130993323D02*
X84741000Y-130993323D01*
X85789000Y-133793323D02*
X81211000Y-133793323D01*
X82259000Y-132473323D02*
X79575000Y-132473323D01*
X85010000Y-134113323D02*
X81990000Y-134113323D01*
X88562000Y-129672323D02*
X78438000Y-129672323D01*
X82259000Y-130713323D02*
X78638000Y-130713323D01*
X88362000Y-130713323D02*
X84741000Y-130713323D01*
X88407000Y-130553323D02*
X84741000Y-130553323D01*
X85537000Y-133913323D02*
X81463000Y-133913323D01*
X85346000Y-133993323D02*
X81654000Y-133993323D01*
X82259000Y-132833323D02*
X79899000Y-132833323D01*
X87666000Y-132153323D02*
X84741000Y-132153323D01*
X88570000Y-129552323D02*
X78430000Y-129552323D01*
X82259000Y-130833323D02*
X78676000Y-130833323D01*
X82259000Y-132353323D02*
X79480000Y-132353323D01*
X86706000Y-133193323D02*
X80294000Y-133193323D01*
X87721000Y-132073323D02*
X84741000Y-132073323D01*
X82259000Y-131313323D02*
X78861000Y-131313323D01*
X82259000Y-132193323D02*
X79362000Y-132193323D01*
X85939000Y-133713323D02*
X81061000Y-133713323D01*
X88350000Y-130753323D02*
X84741000Y-130753323D01*
X88103000Y-131393323D02*
X84741000Y-131393323D01*
X88580000Y-129272323D02*
X78420000Y-129272323D01*
X88121000Y-131353323D02*
X84741000Y-131353323D01*
X86375000Y-123752677D02*
X86375000Y-124752677D01*
X88174000Y-131233323D02*
X84741000Y-131233323D01*
X84730000Y-134193323D02*
X82270000Y-134193323D01*
X87694000Y-132113323D02*
X84741000Y-132113323D01*
X86892000Y-133033323D02*
X80108000Y-133033323D01*
X82259000Y-130753323D02*
X78650000Y-130753323D01*
X88223000Y-131113323D02*
X84741000Y-131113323D01*
X88497000Y-130153323D02*
X78503000Y-130153323D01*
X88465000Y-130313323D02*
X78535000Y-130313323D01*
X84878000Y-134153323D02*
X82122000Y-134153323D01*
X87020000Y-132913323D02*
X84741000Y-132913323D01*
X88025000Y-131553323D02*
X84741000Y-131553323D01*
X88530000Y-129953323D02*
X78470000Y-129953323D01*
X82259000Y-130913323D02*
X78703000Y-130913323D01*
X82259000Y-132553323D02*
X79642000Y-132553323D01*
X88447000Y-130393323D02*
X78553000Y-130393323D01*
X82259000Y-131393323D02*
X78897000Y-131393323D01*
X87289000Y-132633323D02*
X84741000Y-132633323D01*
X82259000Y-132673323D02*
X79747000Y-132673323D01*
X85242000Y-134033323D02*
X81758000Y-134033323D01*
X86270000Y-133513323D02*
X80730000Y-133513323D01*
X82259000Y-130513323D02*
X78582000Y-130513323D01*
X88490000Y-130193323D02*
X78510000Y-130193323D01*
X85625000Y-133873323D02*
X81375000Y-133873323D01*
X87520000Y-132353323D02*
X84741000Y-132353323D01*
X88254000Y-131033323D02*
X84741000Y-131033323D01*
X82259000Y-130993323D02*
X78732000Y-130993323D01*
X82259000Y-131633323D02*
X79017000Y-131633323D01*
X82259000Y-131433323D02*
X78916000Y-131433323D01*
X87179000Y-132753323D02*
X84741000Y-132753323D01*
X88540000Y-129872323D02*
X78460000Y-129872323D01*
X86209000Y-133553323D02*
X80791000Y-133553323D01*
X87773000Y-131993323D02*
X84741000Y-131993323D01*
X85130000Y-134073323D02*
X81870000Y-134073323D01*
X88558000Y-129712323D02*
X78442000Y-129712323D01*
X86500000Y-133353323D02*
X80500000Y-133353323D01*
X88337000Y-130793323D02*
X84741000Y-130793323D01*
X87457000Y-132433323D02*
X84741000Y-132433323D01*
X86145000Y-133593323D02*
X80855000Y-133593323D01*
X87823000Y-131913323D02*
X84741000Y-131913323D01*
X88438000Y-130433323D02*
X78562000Y-130433323D01*
X82259000Y-131153323D02*
X78793000Y-131153323D01*
X87638000Y-132193323D02*
X84741000Y-132193323D01*
X88580000Y-129312323D02*
X78420000Y-129312323D01*
X82259000Y-131113323D02*
X78777000Y-131113323D01*
X86936000Y-132993323D02*
X80064000Y-132993323D01*
X82259000Y-130953323D02*
X78717000Y-130953323D01*
X88482000Y-130233323D02*
X78518000Y-130233323D01*
X82259000Y-132073323D02*
X79279000Y-132073323D01*
X88511000Y-130073323D02*
X78489000Y-130073323D01*
X82259000Y-132113323D02*
X79306000Y-132113323D01*
X86389000Y-133433323D02*
X80611000Y-133433323D01*
X87917000Y-131753323D02*
X84741000Y-131753323D01*
X87061000Y-132873323D02*
X84741000Y-132873323D01*
X87392000Y-132513323D02*
X84741000Y-132513323D01*
X88579000Y-129352323D02*
X78421000Y-129352323D01*
X84562000Y-134233323D02*
X82438000Y-134233323D01*
X88524000Y-129993323D02*
X78476000Y-129993323D01*
X82259000Y-132233323D02*
X79390000Y-132233323D01*
X87550000Y-132313323D02*
X84741000Y-132313323D01*
X82259000Y-132273323D02*
X79420000Y-132273323D01*
X82259000Y-131473323D02*
X78936000Y-131473323D01*
X82259000Y-130673323D02*
X78626000Y-130673323D01*
X82259000Y-132953323D02*
X80022000Y-132953323D01*
X88518000Y-130033323D02*
X78482000Y-130033323D01*
X82259000Y-130553323D02*
X78593000Y-130553323D01*
X84099000Y-134313323D02*
X82901000Y-134313323D01*
X87940000Y-131713323D02*
X84741000Y-131713323D01*
X88207000Y-131153323D02*
X84741000Y-131153323D01*
X87747000Y-132033323D02*
X84741000Y-132033323D01*
X82259000Y-131913323D02*
X79177000Y-131913323D01*
X88064000Y-131473323D02*
X84741000Y-131473323D01*
X82259000Y-132913323D02*
X79980000Y-132913323D01*
X87610000Y-132233323D02*
X84741000Y-132233323D01*
X86554000Y-133313323D02*
X80446000Y-133313323D01*
X87983000Y-131633323D02*
X84741000Y-131633323D01*
X87895000Y-131793323D02*
X84741000Y-131793323D01*
X85865000Y-133753323D02*
X81135000Y-133753323D01*
X86445000Y-133393323D02*
X80555000Y-133393323D01*
X82259000Y-131353323D02*
X78879000Y-131353323D01*
X82259000Y-131073323D02*
X78762000Y-131073323D01*
X82259000Y-131033323D02*
X78746000Y-131033323D01*
X87253000Y-132673323D02*
X84741000Y-132673323D01*
X87140000Y-132793323D02*
X84741000Y-132793323D01*
X87871000Y-131833323D02*
X84741000Y-131833323D01*
X82259000Y-132793323D02*
X79860000Y-132793323D01*
X82259000Y-131513323D02*
X78955000Y-131513323D01*
X88428000Y-130473323D02*
X78572000Y-130473323D01*
X88084000Y-131433323D02*
X84741000Y-131433323D01*
X88578000Y-129392323D02*
X78422000Y-129392323D01*
X86875000Y-124252677D02*
X85875000Y-124252677D01*
X82259000Y-132633323D02*
X79711000Y-132633323D01*
X86079000Y-133633323D02*
X80921000Y-133633323D01*
X88418000Y-130513323D02*
X84741000Y-130513323D01*
X88575000Y-129472323D02*
X78425000Y-129472323D01*
X82259000Y-131673323D02*
X79038000Y-131673323D01*
X82259000Y-131193323D02*
X78810000Y-131193323D01*
X82259000Y-132433323D02*
X79543000Y-132433323D01*
X86606000Y-133273323D02*
X80394000Y-133273323D01*
X88565000Y-129632323D02*
X78435000Y-129632323D01*
X82259000Y-130873323D02*
X78689000Y-130873323D01*
X87847000Y-131873323D02*
X84741000Y-131873323D01*
X86010000Y-133673323D02*
X80990000Y-133673323D01*
X82259000Y-131793323D02*
X79105000Y-131793323D01*
X88573000Y-129512323D02*
X78427000Y-129512323D01*
X87324000Y-132593323D02*
X84741000Y-132593323D01*
X86801000Y-133113323D02*
X80199000Y-133113323D01*
X86754000Y-133153323D02*
X80246000Y-133153323D01*
X82259000Y-131993323D02*
X79227000Y-131993323D01*
X82259000Y-132593323D02*
X79676000Y-132593323D01*
X88045000Y-131513323D02*
X84741000Y-131513323D01*
X82259000Y-132313323D02*
X79450000Y-132313323D01*
X88474000Y-130273323D02*
X78526000Y-130273323D01*
X87425000Y-132473323D02*
X84741000Y-132473323D01*
X88324000Y-130833323D02*
X84741000Y-130833323D01*
X86847000Y-133073323D02*
X80153000Y-133073323D01*
X82259000Y-130633323D02*
X78615000Y-130633323D01*
X88238000Y-131073323D02*
X84741000Y-131073323D01*
X82259000Y-131713323D02*
X79060000Y-131713323D01*
X87358000Y-132553323D02*
X84741000Y-132553323D01*
X82259000Y-132753323D02*
X79821000Y-132753323D01*
X88157000Y-131273323D02*
X84741000Y-131273323D01*
X82259000Y-130793323D02*
X78663000Y-130793323D01*
X88283000Y-130953323D02*
X84741000Y-130953323D01*
X82259000Y-131753323D02*
X79083000Y-131753323D01*
X88554000Y-129752323D02*
X78446000Y-129752323D01*
X88456000Y-130353323D02*
X78544000Y-130353323D01*
X82259000Y-132713323D02*
X79784000Y-132713323D01*
X88577000Y-129432323D02*
X78423000Y-129432323D01*
X88374000Y-130673323D02*
X84741000Y-130673323D01*
X88504000Y-130113323D02*
X78496000Y-130113323D01*
X85709000Y-133833323D02*
X81291000Y-133833323D01*
X82259000Y-132513323D02*
X79608000Y-132513323D01*
X82259000Y-132033323D02*
X79253000Y-132033323D01*
X88311000Y-130873323D02*
X84741000Y-130873323D01*
X88004000Y-131593323D02*
X84741000Y-131593323D01*
X82259000Y-130593323D02*
X78603000Y-130593323D01*
X88535000Y-129912323D02*
X78465000Y-129912323D01*
X87216000Y-132713323D02*
X84741000Y-132713323D01*
X87798000Y-131953323D02*
X84741000Y-131953323D01*
X82259000Y-132393323D02*
X79511000Y-132393323D01*
X82259000Y-132873323D02*
X79939000Y-132873323D01*
X88139000Y-131313323D02*
X84741000Y-131313323D01*
X82259000Y-131553323D02*
X78975000Y-131553323D01*
X86656000Y-133233323D02*
X80344000Y-133233323D01*
X88550000Y-129792323D02*
X78450000Y-129792323D01*
X88568000Y-129592323D02*
X78432000Y-129592323D01*
X85444000Y-133953323D02*
X81556000Y-133953323D01*
X88297000Y-130913323D02*
X84741000Y-130913323D01*
X87101000Y-132833323D02*
X84741000Y-132833323D01*
X88397000Y-130593323D02*
X84741000Y-130593323D01*
X84362000Y-134273323D02*
X82638000Y-134273323D01*
X88385000Y-130633323D02*
X84741000Y-130633323D01*
X88190000Y-131193323D02*
X84741000Y-131193323D01*
X87580000Y-132273323D02*
X84741000Y-132273323D01*
X86330000Y-133473323D02*
X80670000Y-133473323D01*
X82259000Y-131273323D02*
X78843000Y-131273323D01*
X82259000Y-131873323D02*
X79153000Y-131873323D01*
X87962000Y-131673323D02*
X84741000Y-131673323D01*
X82259000Y-131953323D02*
X79202000Y-131953323D01*
X82259000Y-132153323D02*
X79334000Y-132153323D01*
X82259000Y-131833323D02*
X79129000Y-131833323D01*
X88580000Y-129232323D02*
X78420000Y-129232323D01*
X88545000Y-129832323D02*
X78455000Y-129832323D01*
X88620000Y-129232323D02*
G75*
G03*
X88620000Y-129232323I-5120000J0D01*
G01*
X82259000Y-118593323D02*
X78996000Y-118593323D01*
X86978000Y-119953323D02*
X84741000Y-119953323D01*
X82259000Y-118233323D02*
X78826000Y-118233323D01*
X87489000Y-119393323D02*
X84741000Y-119393323D01*
X88268000Y-117993323D02*
X84741000Y-117993323D01*
X85789000Y-120793323D02*
X81211000Y-120793323D01*
X82259000Y-119473323D02*
X79575000Y-119473323D01*
X85010000Y-121113323D02*
X81990000Y-121113323D01*
X88562000Y-116672323D02*
X78438000Y-116672323D01*
X82259000Y-117713323D02*
X78638000Y-117713323D01*
X88362000Y-117713323D02*
X84741000Y-117713323D01*
X88407000Y-117553323D02*
X84741000Y-117553323D01*
X85537000Y-120913323D02*
X81463000Y-120913323D01*
X85346000Y-120993323D02*
X81654000Y-120993323D01*
X82259000Y-119833323D02*
X79899000Y-119833323D01*
X87666000Y-119153323D02*
X84741000Y-119153323D01*
X88570000Y-116552323D02*
X78430000Y-116552323D01*
X82259000Y-117833323D02*
X78676000Y-117833323D01*
X82259000Y-119353323D02*
X79480000Y-119353323D01*
X86706000Y-120193323D02*
X80294000Y-120193323D01*
X87721000Y-119073323D02*
X84741000Y-119073323D01*
X82259000Y-118313323D02*
X78861000Y-118313323D01*
X82259000Y-119193323D02*
X79362000Y-119193323D01*
X85939000Y-120713323D02*
X81061000Y-120713323D01*
X88350000Y-117753323D02*
X84741000Y-117753323D01*
X88103000Y-118393323D02*
X84741000Y-118393323D01*
X88580000Y-116272323D02*
X78420000Y-116272323D01*
X88121000Y-118353323D02*
X84741000Y-118353323D01*
X86375000Y-110752677D02*
X86375000Y-111752677D01*
X88174000Y-118233323D02*
X84741000Y-118233323D01*
X84730000Y-121193323D02*
X82270000Y-121193323D01*
X87694000Y-119113323D02*
X84741000Y-119113323D01*
X86892000Y-120033323D02*
X80108000Y-120033323D01*
X82259000Y-117753323D02*
X78650000Y-117753323D01*
X88223000Y-118113323D02*
X84741000Y-118113323D01*
X88497000Y-117153323D02*
X78503000Y-117153323D01*
X88465000Y-117313323D02*
X78535000Y-117313323D01*
X84878000Y-121153323D02*
X82122000Y-121153323D01*
X87020000Y-119913323D02*
X84741000Y-119913323D01*
X88025000Y-118553323D02*
X84741000Y-118553323D01*
X88530000Y-116953323D02*
X78470000Y-116953323D01*
X82259000Y-117913323D02*
X78703000Y-117913323D01*
X82259000Y-119553323D02*
X79642000Y-119553323D01*
X88447000Y-117393323D02*
X78553000Y-117393323D01*
X82259000Y-118393323D02*
X78897000Y-118393323D01*
X87289000Y-119633323D02*
X84741000Y-119633323D01*
X82259000Y-119673323D02*
X79747000Y-119673323D01*
X85242000Y-121033323D02*
X81758000Y-121033323D01*
X86270000Y-120513323D02*
X80730000Y-120513323D01*
X82259000Y-117513323D02*
X78582000Y-117513323D01*
X88490000Y-117193323D02*
X78510000Y-117193323D01*
X85625000Y-120873323D02*
X81375000Y-120873323D01*
X87520000Y-119353323D02*
X84741000Y-119353323D01*
X88254000Y-118033323D02*
X84741000Y-118033323D01*
X82259000Y-117993323D02*
X78732000Y-117993323D01*
X82259000Y-118633323D02*
X79017000Y-118633323D01*
X82259000Y-118433323D02*
X78916000Y-118433323D01*
X87179000Y-119753323D02*
X84741000Y-119753323D01*
X88540000Y-116872323D02*
X78460000Y-116872323D01*
X86209000Y-120553323D02*
X80791000Y-120553323D01*
X87773000Y-118993323D02*
X84741000Y-118993323D01*
X85130000Y-121073323D02*
X81870000Y-121073323D01*
X88558000Y-116712323D02*
X78442000Y-116712323D01*
X86500000Y-120353323D02*
X80500000Y-120353323D01*
X88337000Y-117793323D02*
X84741000Y-117793323D01*
X87457000Y-119433323D02*
X84741000Y-119433323D01*
X86145000Y-120593323D02*
X80855000Y-120593323D01*
X87823000Y-118913323D02*
X84741000Y-118913323D01*
X88438000Y-117433323D02*
X78562000Y-117433323D01*
X82259000Y-118153323D02*
X78793000Y-118153323D01*
X87638000Y-119193323D02*
X84741000Y-119193323D01*
X88580000Y-116312323D02*
X78420000Y-116312323D01*
X82259000Y-118113323D02*
X78777000Y-118113323D01*
X86936000Y-119993323D02*
X80064000Y-119993323D01*
X82259000Y-117953323D02*
X78717000Y-117953323D01*
X88482000Y-117233323D02*
X78518000Y-117233323D01*
X82259000Y-119073323D02*
X79279000Y-119073323D01*
X88511000Y-117073323D02*
X78489000Y-117073323D01*
X82259000Y-119113323D02*
X79306000Y-119113323D01*
X86389000Y-120433323D02*
X80611000Y-120433323D01*
X87917000Y-118753323D02*
X84741000Y-118753323D01*
X87061000Y-119873323D02*
X84741000Y-119873323D01*
X87392000Y-119513323D02*
X84741000Y-119513323D01*
X88579000Y-116352323D02*
X78421000Y-116352323D01*
X84562000Y-121233323D02*
X82438000Y-121233323D01*
X88524000Y-116993323D02*
X78476000Y-116993323D01*
X82259000Y-119233323D02*
X79390000Y-119233323D01*
X87550000Y-119313323D02*
X84741000Y-119313323D01*
X82259000Y-119273323D02*
X79420000Y-119273323D01*
X82259000Y-118473323D02*
X78936000Y-118473323D01*
X82259000Y-117673323D02*
X78626000Y-117673323D01*
X82259000Y-119953323D02*
X80022000Y-119953323D01*
X88518000Y-117033323D02*
X78482000Y-117033323D01*
X82259000Y-117553323D02*
X78593000Y-117553323D01*
X84099000Y-121313323D02*
X82901000Y-121313323D01*
X87940000Y-118713323D02*
X84741000Y-118713323D01*
X88207000Y-118153323D02*
X84741000Y-118153323D01*
X87747000Y-119033323D02*
X84741000Y-119033323D01*
X82259000Y-118913323D02*
X79177000Y-118913323D01*
X88064000Y-118473323D02*
X84741000Y-118473323D01*
X82259000Y-119913323D02*
X79980000Y-119913323D01*
X87610000Y-119233323D02*
X84741000Y-119233323D01*
X86554000Y-120313323D02*
X80446000Y-120313323D01*
X87983000Y-118633323D02*
X84741000Y-118633323D01*
X87895000Y-118793323D02*
X84741000Y-118793323D01*
X85865000Y-120753323D02*
X81135000Y-120753323D01*
X86445000Y-120393323D02*
X80555000Y-120393323D01*
X82259000Y-118353323D02*
X78879000Y-118353323D01*
X82259000Y-118073323D02*
X78762000Y-118073323D01*
X82259000Y-118033323D02*
X78746000Y-118033323D01*
X87253000Y-119673323D02*
X84741000Y-119673323D01*
X87140000Y-119793323D02*
X84741000Y-119793323D01*
X87871000Y-118833323D02*
X84741000Y-118833323D01*
X82259000Y-119793323D02*
X79860000Y-119793323D01*
X82259000Y-118513323D02*
X78955000Y-118513323D01*
X88428000Y-117473323D02*
X78572000Y-117473323D01*
X88084000Y-118433323D02*
X84741000Y-118433323D01*
X88578000Y-116392323D02*
X78422000Y-116392323D01*
X86875000Y-111252677D02*
X85875000Y-111252677D01*
X82259000Y-119633323D02*
X79711000Y-119633323D01*
X86079000Y-120633323D02*
X80921000Y-120633323D01*
X88418000Y-117513323D02*
X84741000Y-117513323D01*
X88575000Y-116472323D02*
X78425000Y-116472323D01*
X82259000Y-118673323D02*
X79038000Y-118673323D01*
X82259000Y-118193323D02*
X78810000Y-118193323D01*
X82259000Y-119433323D02*
X79543000Y-119433323D01*
X86606000Y-120273323D02*
X80394000Y-120273323D01*
X88565000Y-116632323D02*
X78435000Y-116632323D01*
X82259000Y-117873323D02*
X78689000Y-117873323D01*
X87847000Y-118873323D02*
X84741000Y-118873323D01*
X86010000Y-120673323D02*
X80990000Y-120673323D01*
X82259000Y-118793323D02*
X79105000Y-118793323D01*
X88573000Y-116512323D02*
X78427000Y-116512323D01*
X87324000Y-119593323D02*
X84741000Y-119593323D01*
X86801000Y-120113323D02*
X80199000Y-120113323D01*
X86754000Y-120153323D02*
X80246000Y-120153323D01*
X82259000Y-118993323D02*
X79227000Y-118993323D01*
X82259000Y-119593323D02*
X79676000Y-119593323D01*
X88045000Y-118513323D02*
X84741000Y-118513323D01*
X82259000Y-119313323D02*
X79450000Y-119313323D01*
X88474000Y-117273323D02*
X78526000Y-117273323D01*
X87425000Y-119473323D02*
X84741000Y-119473323D01*
X88324000Y-117833323D02*
X84741000Y-117833323D01*
X86847000Y-120073323D02*
X80153000Y-120073323D01*
X82259000Y-117633323D02*
X78615000Y-117633323D01*
X88238000Y-118073323D02*
X84741000Y-118073323D01*
X82259000Y-118713323D02*
X79060000Y-118713323D01*
X87358000Y-119553323D02*
X84741000Y-119553323D01*
X82259000Y-119753323D02*
X79821000Y-119753323D01*
X88157000Y-118273323D02*
X84741000Y-118273323D01*
X82259000Y-117793323D02*
X78663000Y-117793323D01*
X88283000Y-117953323D02*
X84741000Y-117953323D01*
X82259000Y-118753323D02*
X79083000Y-118753323D01*
X88554000Y-116752323D02*
X78446000Y-116752323D01*
X88456000Y-117353323D02*
X78544000Y-117353323D01*
X82259000Y-119713323D02*
X79784000Y-119713323D01*
X88577000Y-116432323D02*
X78423000Y-116432323D01*
X88374000Y-117673323D02*
X84741000Y-117673323D01*
X88504000Y-117113323D02*
X78496000Y-117113323D01*
X85709000Y-120833323D02*
X81291000Y-120833323D01*
X82259000Y-119513323D02*
X79608000Y-119513323D01*
X82259000Y-119033323D02*
X79253000Y-119033323D01*
X88311000Y-117873323D02*
X84741000Y-117873323D01*
X88004000Y-118593323D02*
X84741000Y-118593323D01*
X82259000Y-117593323D02*
X78603000Y-117593323D01*
X88535000Y-116912323D02*
X78465000Y-116912323D01*
X87216000Y-119713323D02*
X84741000Y-119713323D01*
X87798000Y-118953323D02*
X84741000Y-118953323D01*
X82259000Y-119393323D02*
X79511000Y-119393323D01*
X82259000Y-119873323D02*
X79939000Y-119873323D01*
X88139000Y-118313323D02*
X84741000Y-118313323D01*
X82259000Y-118553323D02*
X78975000Y-118553323D01*
X86656000Y-120233323D02*
X80344000Y-120233323D01*
X88550000Y-116792323D02*
X78450000Y-116792323D01*
X88568000Y-116592323D02*
X78432000Y-116592323D01*
X85444000Y-120953323D02*
X81556000Y-120953323D01*
X88297000Y-117913323D02*
X84741000Y-117913323D01*
X87101000Y-119833323D02*
X84741000Y-119833323D01*
X88397000Y-117593323D02*
X84741000Y-117593323D01*
X84362000Y-121273323D02*
X82638000Y-121273323D01*
X88385000Y-117633323D02*
X84741000Y-117633323D01*
X88190000Y-118193323D02*
X84741000Y-118193323D01*
X87580000Y-119273323D02*
X84741000Y-119273323D01*
X86330000Y-120473323D02*
X80670000Y-120473323D01*
X82259000Y-118273323D02*
X78843000Y-118273323D01*
X82259000Y-118873323D02*
X79153000Y-118873323D01*
X87962000Y-118673323D02*
X84741000Y-118673323D01*
X82259000Y-118953323D02*
X79202000Y-118953323D01*
X82259000Y-119153323D02*
X79334000Y-119153323D01*
X82259000Y-118833323D02*
X79129000Y-118833323D01*
X88580000Y-116232323D02*
X78420000Y-116232323D01*
X88545000Y-116832323D02*
X78455000Y-116832323D01*
X88620000Y-116232323D02*
G75*
G03*
X88620000Y-116232323I-5120000J0D01*
G01*
X82259000Y-105593323D02*
X78996000Y-105593323D01*
X86978000Y-106953323D02*
X84741000Y-106953323D01*
X82259000Y-105233323D02*
X78826000Y-105233323D01*
X87489000Y-106393323D02*
X84741000Y-106393323D01*
X88268000Y-104993323D02*
X84741000Y-104993323D01*
X85789000Y-107793323D02*
X81211000Y-107793323D01*
X82259000Y-106473323D02*
X79575000Y-106473323D01*
X85010000Y-108113323D02*
X81990000Y-108113323D01*
X88562000Y-103672323D02*
X78438000Y-103672323D01*
X82259000Y-104713323D02*
X78638000Y-104713323D01*
X88362000Y-104713323D02*
X84741000Y-104713323D01*
X88407000Y-104553323D02*
X84741000Y-104553323D01*
X85537000Y-107913323D02*
X81463000Y-107913323D01*
X85346000Y-107993323D02*
X81654000Y-107993323D01*
X82259000Y-106833323D02*
X79899000Y-106833323D01*
X87666000Y-106153323D02*
X84741000Y-106153323D01*
X88570000Y-103552323D02*
X78430000Y-103552323D01*
X82259000Y-104833323D02*
X78676000Y-104833323D01*
X82259000Y-106353323D02*
X79480000Y-106353323D01*
X86706000Y-107193323D02*
X80294000Y-107193323D01*
X87721000Y-106073323D02*
X84741000Y-106073323D01*
X82259000Y-105313323D02*
X78861000Y-105313323D01*
X82259000Y-106193323D02*
X79362000Y-106193323D01*
X85939000Y-107713323D02*
X81061000Y-107713323D01*
X88350000Y-104753323D02*
X84741000Y-104753323D01*
X88103000Y-105393323D02*
X84741000Y-105393323D01*
X88580000Y-103272323D02*
X78420000Y-103272323D01*
X88121000Y-105353323D02*
X84741000Y-105353323D01*
X86375000Y-97752677D02*
X86375000Y-98752677D01*
X88174000Y-105233323D02*
X84741000Y-105233323D01*
X84730000Y-108193323D02*
X82270000Y-108193323D01*
X87694000Y-106113323D02*
X84741000Y-106113323D01*
X86892000Y-107033323D02*
X80108000Y-107033323D01*
X82259000Y-104753323D02*
X78650000Y-104753323D01*
X88223000Y-105113323D02*
X84741000Y-105113323D01*
X88497000Y-104153323D02*
X78503000Y-104153323D01*
X88465000Y-104313323D02*
X78535000Y-104313323D01*
X84878000Y-108153323D02*
X82122000Y-108153323D01*
X87020000Y-106913323D02*
X84741000Y-106913323D01*
X88025000Y-105553323D02*
X84741000Y-105553323D01*
X88530000Y-103953323D02*
X78470000Y-103953323D01*
X82259000Y-104913323D02*
X78703000Y-104913323D01*
X82259000Y-106553323D02*
X79642000Y-106553323D01*
X88447000Y-104393323D02*
X78553000Y-104393323D01*
X82259000Y-105393323D02*
X78897000Y-105393323D01*
X87289000Y-106633323D02*
X84741000Y-106633323D01*
X82259000Y-106673323D02*
X79747000Y-106673323D01*
X85242000Y-108033323D02*
X81758000Y-108033323D01*
X86270000Y-107513323D02*
X80730000Y-107513323D01*
X82259000Y-104513323D02*
X78582000Y-104513323D01*
X88490000Y-104193323D02*
X78510000Y-104193323D01*
X85625000Y-107873323D02*
X81375000Y-107873323D01*
X87520000Y-106353323D02*
X84741000Y-106353323D01*
X88254000Y-105033323D02*
X84741000Y-105033323D01*
X82259000Y-104993323D02*
X78732000Y-104993323D01*
X82259000Y-105633323D02*
X79017000Y-105633323D01*
X82259000Y-105433323D02*
X78916000Y-105433323D01*
X87179000Y-106753323D02*
X84741000Y-106753323D01*
X88540000Y-103872323D02*
X78460000Y-103872323D01*
X86209000Y-107553323D02*
X80791000Y-107553323D01*
X87773000Y-105993323D02*
X84741000Y-105993323D01*
X85130000Y-108073323D02*
X81870000Y-108073323D01*
X88558000Y-103712323D02*
X78442000Y-103712323D01*
X86500000Y-107353323D02*
X80500000Y-107353323D01*
X88337000Y-104793323D02*
X84741000Y-104793323D01*
X87457000Y-106433323D02*
X84741000Y-106433323D01*
X86145000Y-107593323D02*
X80855000Y-107593323D01*
X87823000Y-105913323D02*
X84741000Y-105913323D01*
X88438000Y-104433323D02*
X78562000Y-104433323D01*
X82259000Y-105153323D02*
X78793000Y-105153323D01*
X87638000Y-106193323D02*
X84741000Y-106193323D01*
X88580000Y-103312323D02*
X78420000Y-103312323D01*
X82259000Y-105113323D02*
X78777000Y-105113323D01*
X86936000Y-106993323D02*
X80064000Y-106993323D01*
X82259000Y-104953323D02*
X78717000Y-104953323D01*
X88482000Y-104233323D02*
X78518000Y-104233323D01*
X82259000Y-106073323D02*
X79279000Y-106073323D01*
X88511000Y-104073323D02*
X78489000Y-104073323D01*
X82259000Y-106113323D02*
X79306000Y-106113323D01*
X86389000Y-107433323D02*
X80611000Y-107433323D01*
X87917000Y-105753323D02*
X84741000Y-105753323D01*
X87061000Y-106873323D02*
X84741000Y-106873323D01*
X87392000Y-106513323D02*
X84741000Y-106513323D01*
X88579000Y-103352323D02*
X78421000Y-103352323D01*
X84562000Y-108233323D02*
X82438000Y-108233323D01*
X88524000Y-103993323D02*
X78476000Y-103993323D01*
X82259000Y-106233323D02*
X79390000Y-106233323D01*
X87550000Y-106313323D02*
X84741000Y-106313323D01*
X82259000Y-106273323D02*
X79420000Y-106273323D01*
X82259000Y-105473323D02*
X78936000Y-105473323D01*
X82259000Y-104673323D02*
X78626000Y-104673323D01*
X82259000Y-106953323D02*
X80022000Y-106953323D01*
X88518000Y-104033323D02*
X78482000Y-104033323D01*
X82259000Y-104553323D02*
X78593000Y-104553323D01*
X84099000Y-108313323D02*
X82901000Y-108313323D01*
X87940000Y-105713323D02*
X84741000Y-105713323D01*
X88207000Y-105153323D02*
X84741000Y-105153323D01*
X87747000Y-106033323D02*
X84741000Y-106033323D01*
X82259000Y-105913323D02*
X79177000Y-105913323D01*
X88064000Y-105473323D02*
X84741000Y-105473323D01*
X82259000Y-106913323D02*
X79980000Y-106913323D01*
X87610000Y-106233323D02*
X84741000Y-106233323D01*
X86554000Y-107313323D02*
X80446000Y-107313323D01*
X87983000Y-105633323D02*
X84741000Y-105633323D01*
X87895000Y-105793323D02*
X84741000Y-105793323D01*
X85865000Y-107753323D02*
X81135000Y-107753323D01*
X86445000Y-107393323D02*
X80555000Y-107393323D01*
X82259000Y-105353323D02*
X78879000Y-105353323D01*
X82259000Y-105073323D02*
X78762000Y-105073323D01*
X82259000Y-105033323D02*
X78746000Y-105033323D01*
X87253000Y-106673323D02*
X84741000Y-106673323D01*
X87140000Y-106793323D02*
X84741000Y-106793323D01*
X87871000Y-105833323D02*
X84741000Y-105833323D01*
X82259000Y-106793323D02*
X79860000Y-106793323D01*
X82259000Y-105513323D02*
X78955000Y-105513323D01*
X88428000Y-104473323D02*
X78572000Y-104473323D01*
X88084000Y-105433323D02*
X84741000Y-105433323D01*
X88578000Y-103392323D02*
X78422000Y-103392323D01*
X86875000Y-98252677D02*
X85875000Y-98252677D01*
X82259000Y-106633323D02*
X79711000Y-106633323D01*
X86079000Y-107633323D02*
X80921000Y-107633323D01*
X88418000Y-104513323D02*
X84741000Y-104513323D01*
X88575000Y-103472323D02*
X78425000Y-103472323D01*
X82259000Y-105673323D02*
X79038000Y-105673323D01*
X82259000Y-105193323D02*
X78810000Y-105193323D01*
X82259000Y-106433323D02*
X79543000Y-106433323D01*
X86606000Y-107273323D02*
X80394000Y-107273323D01*
X88565000Y-103632323D02*
X78435000Y-103632323D01*
X82259000Y-104873323D02*
X78689000Y-104873323D01*
X87847000Y-105873323D02*
X84741000Y-105873323D01*
X86010000Y-107673323D02*
X80990000Y-107673323D01*
X82259000Y-105793323D02*
X79105000Y-105793323D01*
X88573000Y-103512323D02*
X78427000Y-103512323D01*
X87324000Y-106593323D02*
X84741000Y-106593323D01*
X86801000Y-107113323D02*
X80199000Y-107113323D01*
X86754000Y-107153323D02*
X80246000Y-107153323D01*
X82259000Y-105993323D02*
X79227000Y-105993323D01*
X82259000Y-106593323D02*
X79676000Y-106593323D01*
X88045000Y-105513323D02*
X84741000Y-105513323D01*
X82259000Y-106313323D02*
X79450000Y-106313323D01*
X88474000Y-104273323D02*
X78526000Y-104273323D01*
X87425000Y-106473323D02*
X84741000Y-106473323D01*
X88324000Y-104833323D02*
X84741000Y-104833323D01*
X86847000Y-107073323D02*
X80153000Y-107073323D01*
X82259000Y-104633323D02*
X78615000Y-104633323D01*
X88238000Y-105073323D02*
X84741000Y-105073323D01*
X82259000Y-105713323D02*
X79060000Y-105713323D01*
X87358000Y-106553323D02*
X84741000Y-106553323D01*
X82259000Y-106753323D02*
X79821000Y-106753323D01*
X88157000Y-105273323D02*
X84741000Y-105273323D01*
X82259000Y-104793323D02*
X78663000Y-104793323D01*
X88283000Y-104953323D02*
X84741000Y-104953323D01*
X82259000Y-105753323D02*
X79083000Y-105753323D01*
X88554000Y-103752323D02*
X78446000Y-103752323D01*
X88456000Y-104353323D02*
X78544000Y-104353323D01*
X82259000Y-106713323D02*
X79784000Y-106713323D01*
X88577000Y-103432323D02*
X78423000Y-103432323D01*
X88374000Y-104673323D02*
X84741000Y-104673323D01*
X88504000Y-104113323D02*
X78496000Y-104113323D01*
X85709000Y-107833323D02*
X81291000Y-107833323D01*
X82259000Y-106513323D02*
X79608000Y-106513323D01*
X82259000Y-106033323D02*
X79253000Y-106033323D01*
X88311000Y-104873323D02*
X84741000Y-104873323D01*
X88004000Y-105593323D02*
X84741000Y-105593323D01*
X82259000Y-104593323D02*
X78603000Y-104593323D01*
X88535000Y-103912323D02*
X78465000Y-103912323D01*
X87216000Y-106713323D02*
X84741000Y-106713323D01*
X87798000Y-105953323D02*
X84741000Y-105953323D01*
X82259000Y-106393323D02*
X79511000Y-106393323D01*
X82259000Y-106873323D02*
X79939000Y-106873323D01*
X88139000Y-105313323D02*
X84741000Y-105313323D01*
X82259000Y-105553323D02*
X78975000Y-105553323D01*
X86656000Y-107233323D02*
X80344000Y-107233323D01*
X88550000Y-103792323D02*
X78450000Y-103792323D01*
X88568000Y-103592323D02*
X78432000Y-103592323D01*
X85444000Y-107953323D02*
X81556000Y-107953323D01*
X88297000Y-104913323D02*
X84741000Y-104913323D01*
X87101000Y-106833323D02*
X84741000Y-106833323D01*
X88397000Y-104593323D02*
X84741000Y-104593323D01*
X84362000Y-108273323D02*
X82638000Y-108273323D01*
X88385000Y-104633323D02*
X84741000Y-104633323D01*
X88190000Y-105193323D02*
X84741000Y-105193323D01*
X87580000Y-106273323D02*
X84741000Y-106273323D01*
X86330000Y-107473323D02*
X80670000Y-107473323D01*
X82259000Y-105273323D02*
X78843000Y-105273323D01*
X82259000Y-105873323D02*
X79153000Y-105873323D01*
X87962000Y-105673323D02*
X84741000Y-105673323D01*
X82259000Y-105953323D02*
X79202000Y-105953323D01*
X82259000Y-106153323D02*
X79334000Y-106153323D01*
X82259000Y-105833323D02*
X79129000Y-105833323D01*
X88580000Y-103232323D02*
X78420000Y-103232323D01*
X88545000Y-103832323D02*
X78455000Y-103832323D01*
X88620000Y-103232323D02*
G75*
G03*
X88620000Y-103232323I-5120000J0D01*
G01*
%LPC*%
D13*
X86922000Y-74931000D03*
X85652000Y-74931000D03*
X84382000Y-74931000D03*
X83112000Y-74931000D03*
X81842000Y-74931000D03*
X80572000Y-74931000D03*
X79302000Y-74931000D03*
X78032000Y-74931000D03*
X78032000Y-69981000D03*
X79302000Y-69981000D03*
X80572000Y-69981000D03*
X81842000Y-69981000D03*
X83112000Y-69981000D03*
X84382000Y-69981000D03*
X85652000Y-69981000D03*
X86922000Y-69981000D03*
D14*
X75500000Y-130100000D03*
X75500000Y-128100000D03*
X75500000Y-115100000D03*
X75500000Y-117100000D03*
X75500000Y-102100000D03*
X75500000Y-104100000D03*
D15*
X75500000Y-134180000D03*
D16*
X75500000Y-124020000D03*
D15*
X75500000Y-121180000D03*
D16*
X75500000Y-111020000D03*
D15*
X75500000Y-108180000D03*
D16*
X75500000Y-98020000D03*
D17*
X83500000Y-126732323D03*
D18*
X83500000Y-131732323D03*
D17*
X83500000Y-113732323D03*
D18*
X83500000Y-118732323D03*
D17*
X83500000Y-100732323D03*
D18*
X83500000Y-105732323D03*
D19*
X131500000Y-65500000D03*
X147500000Y-65500000D03*
M02*
